G04 #@! TF.GenerationSoftware,KiCad,Pcbnew,(5.0.2)-1*
G04 #@! TF.CreationDate,2021-01-10T23:41:09-05:00*
G04 #@! TF.ProjectId,Apple2IORPi,4170706c-6532-4494-9f52-50692e6b6963,0.4*
G04 #@! TF.SameCoordinates,Original*
G04 #@! TF.FileFunction,Legend,Top*
G04 #@! TF.FilePolarity,Positive*
%FSLAX46Y46*%
G04 Gerber Fmt 4.6, Leading zero omitted, Abs format (unit mm)*
G04 Created by KiCad (PCBNEW (5.0.2)-1) date 2021-01-10 23:41:09*
%MOMM*%
%LPD*%
G01*
G04 APERTURE LIST*
%ADD10C,0.150000*%
%ADD11C,0.120000*%
G04 APERTURE END LIST*
D10*
X124253409Y-47903380D02*
X124920076Y-47903380D01*
X124491504Y-48903380D01*
X125729599Y-48236714D02*
X125729599Y-48903380D01*
X125491504Y-47855761D02*
X125253409Y-48570047D01*
X125872457Y-48570047D01*
X126729599Y-48903380D02*
X126253409Y-48903380D01*
X126253409Y-47903380D01*
X126920076Y-47903380D02*
X127253409Y-48903380D01*
X127586742Y-47903380D01*
X128491504Y-48808142D02*
X128443885Y-48855761D01*
X128301028Y-48903380D01*
X128205790Y-48903380D01*
X128062933Y-48855761D01*
X127967695Y-48760523D01*
X127920076Y-48665285D01*
X127872457Y-48474809D01*
X127872457Y-48331952D01*
X127920076Y-48141476D01*
X127967695Y-48046238D01*
X128062933Y-47951000D01*
X128205790Y-47903380D01*
X128301028Y-47903380D01*
X128443885Y-47951000D01*
X128491504Y-47998619D01*
X128872457Y-47998619D02*
X128920076Y-47951000D01*
X129015314Y-47903380D01*
X129253409Y-47903380D01*
X129348647Y-47951000D01*
X129396266Y-47998619D01*
X129443885Y-48093857D01*
X129443885Y-48189095D01*
X129396266Y-48331952D01*
X128824838Y-48903380D01*
X129443885Y-48903380D01*
X130301028Y-48236714D02*
X130301028Y-48903380D01*
X130062933Y-47855761D02*
X129824838Y-48570047D01*
X130443885Y-48570047D01*
X131301028Y-47903380D02*
X130824838Y-47903380D01*
X130777219Y-48379571D01*
X130824838Y-48331952D01*
X130920076Y-48284333D01*
X131158171Y-48284333D01*
X131253409Y-48331952D01*
X131301028Y-48379571D01*
X131348647Y-48474809D01*
X131348647Y-48712904D01*
X131301028Y-48808142D01*
X131253409Y-48855761D01*
X131158171Y-48903380D01*
X130920076Y-48903380D01*
X130824838Y-48855761D01*
X130777219Y-48808142D01*
X132539123Y-48903380D02*
X132539123Y-47903380D01*
X133015314Y-48236714D02*
X133015314Y-48903380D01*
X133015314Y-48331952D02*
X133062933Y-48284333D01*
X133158171Y-48236714D01*
X133301028Y-48236714D01*
X133396266Y-48284333D01*
X133443885Y-48379571D01*
X133443885Y-48903380D01*
X133920076Y-48236714D02*
X133920076Y-49236714D01*
X133920076Y-48284333D02*
X134015314Y-48236714D01*
X134205790Y-48236714D01*
X134301028Y-48284333D01*
X134348647Y-48331952D01*
X134396266Y-48427190D01*
X134396266Y-48712904D01*
X134348647Y-48808142D01*
X134301028Y-48855761D01*
X134205790Y-48903380D01*
X134015314Y-48903380D01*
X133920076Y-48855761D01*
X135253409Y-48236714D02*
X135253409Y-48903380D01*
X134824838Y-48236714D02*
X134824838Y-48760523D01*
X134872457Y-48855761D01*
X134967695Y-48903380D01*
X135110552Y-48903380D01*
X135205790Y-48855761D01*
X135253409Y-48808142D01*
X135586742Y-48236714D02*
X135967695Y-48236714D01*
X135729600Y-47903380D02*
X135729600Y-48760523D01*
X135777219Y-48855761D01*
X135872457Y-48903380D01*
X135967695Y-48903380D01*
X137539123Y-48903380D02*
X137062933Y-48903380D01*
X137062933Y-47903380D01*
X138253409Y-48855761D02*
X138158171Y-48903380D01*
X137967695Y-48903380D01*
X137872457Y-48855761D01*
X137824838Y-48760523D01*
X137824838Y-48379571D01*
X137872457Y-48284333D01*
X137967695Y-48236714D01*
X138158171Y-48236714D01*
X138253409Y-48284333D01*
X138301028Y-48379571D01*
X138301028Y-48474809D01*
X137824838Y-48570047D01*
X138634361Y-48236714D02*
X138872457Y-48903380D01*
X139110552Y-48236714D01*
X139872457Y-48855761D02*
X139777219Y-48903380D01*
X139586742Y-48903380D01*
X139491504Y-48855761D01*
X139443885Y-48760523D01*
X139443885Y-48379571D01*
X139491504Y-48284333D01*
X139586742Y-48236714D01*
X139777219Y-48236714D01*
X139872457Y-48284333D01*
X139920076Y-48379571D01*
X139920076Y-48474809D01*
X139443885Y-48570047D01*
X140491504Y-48903380D02*
X140396266Y-48855761D01*
X140348647Y-48760523D01*
X140348647Y-47903380D01*
X141586742Y-48855761D02*
X141729600Y-48903380D01*
X141967695Y-48903380D01*
X142062933Y-48855761D01*
X142110552Y-48808142D01*
X142158171Y-48712904D01*
X142158171Y-48617666D01*
X142110552Y-48522428D01*
X142062933Y-48474809D01*
X141967695Y-48427190D01*
X141777219Y-48379571D01*
X141681980Y-48331952D01*
X141634361Y-48284333D01*
X141586742Y-48189095D01*
X141586742Y-48093857D01*
X141634361Y-47998619D01*
X141681980Y-47951000D01*
X141777219Y-47903380D01*
X142015314Y-47903380D01*
X142158171Y-47951000D01*
X142586742Y-48903380D02*
X142586742Y-47903380D01*
X143015314Y-48903380D02*
X143015314Y-48379571D01*
X142967695Y-48284333D01*
X142872457Y-48236714D01*
X142729600Y-48236714D01*
X142634361Y-48284333D01*
X142586742Y-48331952D01*
X143491504Y-48903380D02*
X143491504Y-48236714D01*
X143491504Y-47903380D02*
X143443885Y-47951000D01*
X143491504Y-47998619D01*
X143539123Y-47951000D01*
X143491504Y-47903380D01*
X143491504Y-47998619D01*
X143824838Y-48236714D02*
X144205790Y-48236714D01*
X143967695Y-48903380D02*
X143967695Y-48046238D01*
X144015314Y-47951000D01*
X144110552Y-47903380D01*
X144205790Y-47903380D01*
X144396266Y-48236714D02*
X144777219Y-48236714D01*
X144539123Y-47903380D02*
X144539123Y-48760523D01*
X144586742Y-48855761D01*
X144681980Y-48903380D01*
X144777219Y-48903380D01*
X145491504Y-48855761D02*
X145396266Y-48903380D01*
X145205790Y-48903380D01*
X145110552Y-48855761D01*
X145062933Y-48760523D01*
X145062933Y-48379571D01*
X145110552Y-48284333D01*
X145205790Y-48236714D01*
X145396266Y-48236714D01*
X145491504Y-48284333D01*
X145539123Y-48379571D01*
X145539123Y-48474809D01*
X145062933Y-48570047D01*
X145967695Y-48903380D02*
X145967695Y-48236714D01*
X145967695Y-48427190D02*
X146015314Y-48331952D01*
X146062933Y-48284333D01*
X146158171Y-48236714D01*
X146253409Y-48236714D01*
X129991504Y-50934333D02*
X129943885Y-50886714D01*
X129848647Y-50743857D01*
X129801028Y-50648619D01*
X129753409Y-50505761D01*
X129705790Y-50267666D01*
X129705790Y-50077190D01*
X129753409Y-49839095D01*
X129801028Y-49696238D01*
X129848647Y-49601000D01*
X129943885Y-49458142D01*
X129991504Y-49410523D01*
X130943885Y-50458142D02*
X130896266Y-50505761D01*
X130753409Y-50553380D01*
X130658171Y-50553380D01*
X130515314Y-50505761D01*
X130420076Y-50410523D01*
X130372457Y-50315285D01*
X130324838Y-50124809D01*
X130324838Y-49981952D01*
X130372457Y-49791476D01*
X130420076Y-49696238D01*
X130515314Y-49601000D01*
X130658171Y-49553380D01*
X130753409Y-49553380D01*
X130896266Y-49601000D01*
X130943885Y-49648619D01*
X131515314Y-50553380D02*
X131420076Y-50505761D01*
X131372457Y-50458142D01*
X131324838Y-50362904D01*
X131324838Y-50077190D01*
X131372457Y-49981952D01*
X131420076Y-49934333D01*
X131515314Y-49886714D01*
X131658171Y-49886714D01*
X131753409Y-49934333D01*
X131801028Y-49981952D01*
X131848647Y-50077190D01*
X131848647Y-50362904D01*
X131801028Y-50458142D01*
X131753409Y-50505761D01*
X131658171Y-50553380D01*
X131515314Y-50553380D01*
X132277219Y-49886714D02*
X132277219Y-50553380D01*
X132277219Y-49981952D02*
X132324838Y-49934333D01*
X132420076Y-49886714D01*
X132562933Y-49886714D01*
X132658171Y-49934333D01*
X132705790Y-50029571D01*
X132705790Y-50553380D01*
X133039123Y-49886714D02*
X133420076Y-49886714D01*
X133181980Y-49553380D02*
X133181980Y-50410523D01*
X133229600Y-50505761D01*
X133324838Y-50553380D01*
X133420076Y-50553380D01*
X133753409Y-50553380D02*
X133753409Y-49886714D01*
X133753409Y-50077190D02*
X133801028Y-49981952D01*
X133848647Y-49934333D01*
X133943885Y-49886714D01*
X134039123Y-49886714D01*
X134515314Y-50553380D02*
X134420076Y-50505761D01*
X134372457Y-50458142D01*
X134324838Y-50362904D01*
X134324838Y-50077190D01*
X134372457Y-49981952D01*
X134420076Y-49934333D01*
X134515314Y-49886714D01*
X134658171Y-49886714D01*
X134753409Y-49934333D01*
X134801028Y-49981952D01*
X134848647Y-50077190D01*
X134848647Y-50362904D01*
X134801028Y-50458142D01*
X134753409Y-50505761D01*
X134658171Y-50553380D01*
X134515314Y-50553380D01*
X135420076Y-50553380D02*
X135324838Y-50505761D01*
X135277219Y-50410523D01*
X135277219Y-49553380D01*
X136896266Y-50029571D02*
X136562933Y-50029571D01*
X136562933Y-50553380D02*
X136562933Y-49553380D01*
X137039123Y-49553380D01*
X137562933Y-50553380D02*
X137467695Y-50505761D01*
X137420076Y-50410523D01*
X137420076Y-49553380D01*
X138372457Y-50553380D02*
X138372457Y-50029571D01*
X138324838Y-49934333D01*
X138229600Y-49886714D01*
X138039123Y-49886714D01*
X137943885Y-49934333D01*
X138372457Y-50505761D02*
X138277219Y-50553380D01*
X138039123Y-50553380D01*
X137943885Y-50505761D01*
X137896266Y-50410523D01*
X137896266Y-50315285D01*
X137943885Y-50220047D01*
X138039123Y-50172428D01*
X138277219Y-50172428D01*
X138372457Y-50124809D01*
X139277219Y-49886714D02*
X139277219Y-50696238D01*
X139229600Y-50791476D01*
X139181980Y-50839095D01*
X139086742Y-50886714D01*
X138943885Y-50886714D01*
X138848647Y-50839095D01*
X139277219Y-50505761D02*
X139181980Y-50553380D01*
X138991504Y-50553380D01*
X138896266Y-50505761D01*
X138848647Y-50458142D01*
X138801028Y-50362904D01*
X138801028Y-50077190D01*
X138848647Y-49981952D01*
X138896266Y-49934333D01*
X138991504Y-49886714D01*
X139181980Y-49886714D01*
X139277219Y-49934333D01*
X139705790Y-50505761D02*
X139801028Y-50553380D01*
X139991504Y-50553380D01*
X140086742Y-50505761D01*
X140134361Y-50410523D01*
X140134361Y-50362904D01*
X140086742Y-50267666D01*
X139991504Y-50220047D01*
X139848647Y-50220047D01*
X139753409Y-50172428D01*
X139705790Y-50077190D01*
X139705790Y-50029571D01*
X139753409Y-49934333D01*
X139848647Y-49886714D01*
X139991504Y-49886714D01*
X140086742Y-49934333D01*
X140467695Y-50934333D02*
X140515314Y-50886714D01*
X140610552Y-50743857D01*
X140658171Y-50648619D01*
X140705790Y-50505761D01*
X140753409Y-50267666D01*
X140753409Y-50077190D01*
X140705790Y-49839095D01*
X140658171Y-49696238D01*
X140610552Y-49601000D01*
X140515314Y-49458142D01*
X140467695Y-49410523D01*
X123936028Y-60527180D02*
X124602695Y-60527180D01*
X124174123Y-61527180D01*
X125412219Y-60860514D02*
X125412219Y-61527180D01*
X125174123Y-60479561D02*
X124936028Y-61193847D01*
X125555076Y-61193847D01*
X126412219Y-61527180D02*
X125936028Y-61527180D01*
X125936028Y-60527180D01*
X126602695Y-60527180D02*
X126936028Y-61527180D01*
X127269361Y-60527180D01*
X128174123Y-61431942D02*
X128126504Y-61479561D01*
X127983647Y-61527180D01*
X127888409Y-61527180D01*
X127745552Y-61479561D01*
X127650314Y-61384323D01*
X127602695Y-61289085D01*
X127555076Y-61098609D01*
X127555076Y-60955752D01*
X127602695Y-60765276D01*
X127650314Y-60670038D01*
X127745552Y-60574800D01*
X127888409Y-60527180D01*
X127983647Y-60527180D01*
X128126504Y-60574800D01*
X128174123Y-60622419D01*
X128507457Y-60527180D02*
X129126504Y-60527180D01*
X128793171Y-60908133D01*
X128936028Y-60908133D01*
X129031266Y-60955752D01*
X129078885Y-61003371D01*
X129126504Y-61098609D01*
X129126504Y-61336704D01*
X129078885Y-61431942D01*
X129031266Y-61479561D01*
X128936028Y-61527180D01*
X128650314Y-61527180D01*
X128555076Y-61479561D01*
X128507457Y-61431942D01*
X129459838Y-60527180D02*
X130126504Y-60527180D01*
X129697933Y-61527180D01*
X130936028Y-60860514D02*
X130936028Y-61527180D01*
X130697933Y-60479561D02*
X130459838Y-61193847D01*
X131078885Y-61193847D01*
X132412219Y-60527180D02*
X132602695Y-60527180D01*
X132697933Y-60574800D01*
X132793171Y-60670038D01*
X132840790Y-60860514D01*
X132840790Y-61193847D01*
X132793171Y-61384323D01*
X132697933Y-61479561D01*
X132602695Y-61527180D01*
X132412219Y-61527180D01*
X132316980Y-61479561D01*
X132221742Y-61384323D01*
X132174123Y-61193847D01*
X132174123Y-60860514D01*
X132221742Y-60670038D01*
X132316980Y-60574800D01*
X132412219Y-60527180D01*
X133697933Y-60860514D02*
X133697933Y-61527180D01*
X133269361Y-60860514D02*
X133269361Y-61384323D01*
X133316980Y-61479561D01*
X133412219Y-61527180D01*
X133555076Y-61527180D01*
X133650314Y-61479561D01*
X133697933Y-61431942D01*
X134031266Y-60860514D02*
X134412219Y-60860514D01*
X134174123Y-60527180D02*
X134174123Y-61384323D01*
X134221742Y-61479561D01*
X134316980Y-61527180D01*
X134412219Y-61527180D01*
X134745552Y-60860514D02*
X134745552Y-61860514D01*
X134745552Y-60908133D02*
X134840790Y-60860514D01*
X135031266Y-60860514D01*
X135126504Y-60908133D01*
X135174123Y-60955752D01*
X135221742Y-61050990D01*
X135221742Y-61336704D01*
X135174123Y-61431942D01*
X135126504Y-61479561D01*
X135031266Y-61527180D01*
X134840790Y-61527180D01*
X134745552Y-61479561D01*
X136078885Y-60860514D02*
X136078885Y-61527180D01*
X135650314Y-60860514D02*
X135650314Y-61384323D01*
X135697933Y-61479561D01*
X135793171Y-61527180D01*
X135936028Y-61527180D01*
X136031266Y-61479561D01*
X136078885Y-61431942D01*
X136412219Y-60860514D02*
X136793171Y-60860514D01*
X136555076Y-60527180D02*
X136555076Y-61384323D01*
X136602695Y-61479561D01*
X136697933Y-61527180D01*
X136793171Y-61527180D01*
X138364600Y-61527180D02*
X137888409Y-61527180D01*
X137888409Y-60527180D01*
X139078885Y-61479561D02*
X138983647Y-61527180D01*
X138793171Y-61527180D01*
X138697933Y-61479561D01*
X138650314Y-61384323D01*
X138650314Y-61003371D01*
X138697933Y-60908133D01*
X138793171Y-60860514D01*
X138983647Y-60860514D01*
X139078885Y-60908133D01*
X139126504Y-61003371D01*
X139126504Y-61098609D01*
X138650314Y-61193847D01*
X139459838Y-60860514D02*
X139697933Y-61527180D01*
X139936028Y-60860514D01*
X140697933Y-61479561D02*
X140602695Y-61527180D01*
X140412219Y-61527180D01*
X140316980Y-61479561D01*
X140269361Y-61384323D01*
X140269361Y-61003371D01*
X140316980Y-60908133D01*
X140412219Y-60860514D01*
X140602695Y-60860514D01*
X140697933Y-60908133D01*
X140745552Y-61003371D01*
X140745552Y-61098609D01*
X140269361Y-61193847D01*
X141316980Y-61527180D02*
X141221742Y-61479561D01*
X141174123Y-61384323D01*
X141174123Y-60527180D01*
X142412219Y-61479561D02*
X142555076Y-61527180D01*
X142793171Y-61527180D01*
X142888409Y-61479561D01*
X142936028Y-61431942D01*
X142983647Y-61336704D01*
X142983647Y-61241466D01*
X142936028Y-61146228D01*
X142888409Y-61098609D01*
X142793171Y-61050990D01*
X142602695Y-61003371D01*
X142507457Y-60955752D01*
X142459838Y-60908133D01*
X142412219Y-60812895D01*
X142412219Y-60717657D01*
X142459838Y-60622419D01*
X142507457Y-60574800D01*
X142602695Y-60527180D01*
X142840790Y-60527180D01*
X142983647Y-60574800D01*
X143412219Y-61527180D02*
X143412219Y-60527180D01*
X143840790Y-61527180D02*
X143840790Y-61003371D01*
X143793171Y-60908133D01*
X143697933Y-60860514D01*
X143555076Y-60860514D01*
X143459838Y-60908133D01*
X143412219Y-60955752D01*
X144316980Y-61527180D02*
X144316980Y-60860514D01*
X144316980Y-60527180D02*
X144269361Y-60574800D01*
X144316980Y-60622419D01*
X144364599Y-60574800D01*
X144316980Y-60527180D01*
X144316980Y-60622419D01*
X144650314Y-60860514D02*
X145031266Y-60860514D01*
X144793171Y-61527180D02*
X144793171Y-60670038D01*
X144840790Y-60574800D01*
X144936028Y-60527180D01*
X145031266Y-60527180D01*
X145221742Y-60860514D02*
X145602695Y-60860514D01*
X145364599Y-60527180D02*
X145364599Y-61384323D01*
X145412219Y-61479561D01*
X145507457Y-61527180D01*
X145602695Y-61527180D01*
X146316980Y-61479561D02*
X146221742Y-61527180D01*
X146031266Y-61527180D01*
X145936028Y-61479561D01*
X145888409Y-61384323D01*
X145888409Y-61003371D01*
X145936028Y-60908133D01*
X146031266Y-60860514D01*
X146221742Y-60860514D01*
X146316980Y-60908133D01*
X146364599Y-61003371D01*
X146364599Y-61098609D01*
X145888409Y-61193847D01*
X146793171Y-61527180D02*
X146793171Y-60860514D01*
X146793171Y-61050990D02*
X146840790Y-60955752D01*
X146888409Y-60908133D01*
X146983647Y-60860514D01*
X147078885Y-60860514D01*
X127245552Y-62796228D02*
X128007457Y-62796228D01*
X127626504Y-63177180D02*
X127626504Y-62415276D01*
X129245552Y-62653371D02*
X129578885Y-62653371D01*
X129721742Y-63177180D02*
X129245552Y-63177180D01*
X129245552Y-62177180D01*
X129721742Y-62177180D01*
X130150314Y-63177180D02*
X130150314Y-62177180D01*
X130531266Y-62177180D01*
X130626504Y-62224800D01*
X130674123Y-62272419D01*
X130721742Y-62367657D01*
X130721742Y-62510514D01*
X130674123Y-62605752D01*
X130626504Y-62653371D01*
X130531266Y-62700990D01*
X130150314Y-62700990D01*
X131721742Y-63177180D02*
X131388409Y-62700990D01*
X131150314Y-63177180D02*
X131150314Y-62177180D01*
X131531266Y-62177180D01*
X131626504Y-62224800D01*
X131674123Y-62272419D01*
X131721742Y-62367657D01*
X131721742Y-62510514D01*
X131674123Y-62605752D01*
X131626504Y-62653371D01*
X131531266Y-62700990D01*
X131150314Y-62700990D01*
X132340790Y-62177180D02*
X132531266Y-62177180D01*
X132626504Y-62224800D01*
X132721742Y-62320038D01*
X132769361Y-62510514D01*
X132769361Y-62843847D01*
X132721742Y-63034323D01*
X132626504Y-63129561D01*
X132531266Y-63177180D01*
X132340790Y-63177180D01*
X132245552Y-63129561D01*
X132150314Y-63034323D01*
X132102695Y-62843847D01*
X132102695Y-62510514D01*
X132150314Y-62320038D01*
X132245552Y-62224800D01*
X132340790Y-62177180D01*
X133197933Y-63177180D02*
X133197933Y-62177180D01*
X133531266Y-62891466D01*
X133864599Y-62177180D01*
X133864599Y-63177180D01*
X135102695Y-63177180D02*
X135102695Y-62177180D01*
X135102695Y-62653371D02*
X135674123Y-62653371D01*
X135674123Y-63177180D02*
X135674123Y-62177180D01*
X136150314Y-63177180D02*
X136150314Y-62510514D01*
X136150314Y-62177180D02*
X136102695Y-62224800D01*
X136150314Y-62272419D01*
X136197933Y-62224800D01*
X136150314Y-62177180D01*
X136150314Y-62272419D01*
X137055076Y-62510514D02*
X137055076Y-63320038D01*
X137007457Y-63415276D01*
X136959838Y-63462895D01*
X136864600Y-63510514D01*
X136721742Y-63510514D01*
X136626504Y-63462895D01*
X137055076Y-63129561D02*
X136959838Y-63177180D01*
X136769361Y-63177180D01*
X136674123Y-63129561D01*
X136626504Y-63081942D01*
X136578885Y-62986704D01*
X136578885Y-62700990D01*
X136626504Y-62605752D01*
X136674123Y-62558133D01*
X136769361Y-62510514D01*
X136959838Y-62510514D01*
X137055076Y-62558133D01*
X137531266Y-63177180D02*
X137531266Y-62177180D01*
X137959838Y-63177180D02*
X137959838Y-62653371D01*
X137912219Y-62558133D01*
X137816980Y-62510514D01*
X137674123Y-62510514D01*
X137578885Y-62558133D01*
X137531266Y-62605752D01*
X139150314Y-62891466D02*
X139626504Y-62891466D01*
X139055076Y-63177180D02*
X139388409Y-62177180D01*
X139721742Y-63177180D01*
X140483647Y-63177180D02*
X140483647Y-62177180D01*
X140483647Y-63129561D02*
X140388409Y-63177180D01*
X140197933Y-63177180D01*
X140102695Y-63129561D01*
X140055076Y-63081942D01*
X140007457Y-62986704D01*
X140007457Y-62700990D01*
X140055076Y-62605752D01*
X140102695Y-62558133D01*
X140197933Y-62510514D01*
X140388409Y-62510514D01*
X140483647Y-62558133D01*
X141388409Y-63177180D02*
X141388409Y-62177180D01*
X141388409Y-63129561D02*
X141293171Y-63177180D01*
X141102695Y-63177180D01*
X141007457Y-63129561D01*
X140959838Y-63081942D01*
X140912219Y-62986704D01*
X140912219Y-62700990D01*
X140959838Y-62605752D01*
X141007457Y-62558133D01*
X141102695Y-62510514D01*
X141293171Y-62510514D01*
X141388409Y-62558133D01*
X141864600Y-63177180D02*
X141864600Y-62510514D01*
X141864600Y-62700990D02*
X141912219Y-62605752D01*
X141959838Y-62558133D01*
X142055076Y-62510514D01*
X142150314Y-62510514D01*
X142864600Y-63129561D02*
X142769361Y-63177180D01*
X142578885Y-63177180D01*
X142483647Y-63129561D01*
X142436028Y-63034323D01*
X142436028Y-62653371D01*
X142483647Y-62558133D01*
X142578885Y-62510514D01*
X142769361Y-62510514D01*
X142864600Y-62558133D01*
X142912219Y-62653371D01*
X142912219Y-62748609D01*
X142436028Y-62843847D01*
X143293171Y-63129561D02*
X143388409Y-63177180D01*
X143578885Y-63177180D01*
X143674123Y-63129561D01*
X143721742Y-63034323D01*
X143721742Y-62986704D01*
X143674123Y-62891466D01*
X143578885Y-62843847D01*
X143436028Y-62843847D01*
X143340790Y-62796228D01*
X143293171Y-62700990D01*
X143293171Y-62653371D01*
X143340790Y-62558133D01*
X143436028Y-62510514D01*
X143578885Y-62510514D01*
X143674123Y-62558133D01*
X144102695Y-63129561D02*
X144197933Y-63177180D01*
X144388409Y-63177180D01*
X144483647Y-63129561D01*
X144531266Y-63034323D01*
X144531266Y-62986704D01*
X144483647Y-62891466D01*
X144388409Y-62843847D01*
X144245552Y-62843847D01*
X144150314Y-62796228D01*
X144102695Y-62700990D01*
X144102695Y-62653371D01*
X144150314Y-62558133D01*
X144245552Y-62510514D01*
X144388409Y-62510514D01*
X144483647Y-62558133D01*
X123707380Y-72922380D02*
X124374047Y-72922380D01*
X123945476Y-73922380D01*
X125183571Y-73255714D02*
X125183571Y-73922380D01*
X124945476Y-72874761D02*
X124707380Y-73589047D01*
X125326428Y-73589047D01*
X126183571Y-73922380D02*
X125707380Y-73922380D01*
X125707380Y-72922380D01*
X126374047Y-72922380D02*
X126707380Y-73922380D01*
X127040714Y-72922380D01*
X127945476Y-73827142D02*
X127897857Y-73874761D01*
X127755000Y-73922380D01*
X127659761Y-73922380D01*
X127516904Y-73874761D01*
X127421666Y-73779523D01*
X127374047Y-73684285D01*
X127326428Y-73493809D01*
X127326428Y-73350952D01*
X127374047Y-73160476D01*
X127421666Y-73065238D01*
X127516904Y-72970000D01*
X127659761Y-72922380D01*
X127755000Y-72922380D01*
X127897857Y-72970000D01*
X127945476Y-73017619D01*
X128278809Y-72922380D02*
X128897857Y-72922380D01*
X128564523Y-73303333D01*
X128707380Y-73303333D01*
X128802619Y-73350952D01*
X128850238Y-73398571D01*
X128897857Y-73493809D01*
X128897857Y-73731904D01*
X128850238Y-73827142D01*
X128802619Y-73874761D01*
X128707380Y-73922380D01*
X128421666Y-73922380D01*
X128326428Y-73874761D01*
X128278809Y-73827142D01*
X129231190Y-72922380D02*
X129897857Y-72922380D01*
X129469285Y-73922380D01*
X130707380Y-73255714D02*
X130707380Y-73922380D01*
X130469285Y-72874761D02*
X130231190Y-73589047D01*
X130850238Y-73589047D01*
X132183571Y-72922380D02*
X132374047Y-72922380D01*
X132469285Y-72970000D01*
X132564523Y-73065238D01*
X132612142Y-73255714D01*
X132612142Y-73589047D01*
X132564523Y-73779523D01*
X132469285Y-73874761D01*
X132374047Y-73922380D01*
X132183571Y-73922380D01*
X132088333Y-73874761D01*
X131993095Y-73779523D01*
X131945476Y-73589047D01*
X131945476Y-73255714D01*
X131993095Y-73065238D01*
X132088333Y-72970000D01*
X132183571Y-72922380D01*
X133469285Y-73255714D02*
X133469285Y-73922380D01*
X133040714Y-73255714D02*
X133040714Y-73779523D01*
X133088333Y-73874761D01*
X133183571Y-73922380D01*
X133326428Y-73922380D01*
X133421666Y-73874761D01*
X133469285Y-73827142D01*
X133802619Y-73255714D02*
X134183571Y-73255714D01*
X133945476Y-72922380D02*
X133945476Y-73779523D01*
X133993095Y-73874761D01*
X134088333Y-73922380D01*
X134183571Y-73922380D01*
X134516904Y-73255714D02*
X134516904Y-74255714D01*
X134516904Y-73303333D02*
X134612142Y-73255714D01*
X134802619Y-73255714D01*
X134897857Y-73303333D01*
X134945476Y-73350952D01*
X134993095Y-73446190D01*
X134993095Y-73731904D01*
X134945476Y-73827142D01*
X134897857Y-73874761D01*
X134802619Y-73922380D01*
X134612142Y-73922380D01*
X134516904Y-73874761D01*
X135850238Y-73255714D02*
X135850238Y-73922380D01*
X135421666Y-73255714D02*
X135421666Y-73779523D01*
X135469285Y-73874761D01*
X135564523Y-73922380D01*
X135707380Y-73922380D01*
X135802619Y-73874761D01*
X135850238Y-73827142D01*
X136183571Y-73255714D02*
X136564523Y-73255714D01*
X136326428Y-72922380D02*
X136326428Y-73779523D01*
X136374047Y-73874761D01*
X136469285Y-73922380D01*
X136564523Y-73922380D01*
X138135952Y-73922380D02*
X137659761Y-73922380D01*
X137659761Y-72922380D01*
X138850238Y-73874761D02*
X138755000Y-73922380D01*
X138564523Y-73922380D01*
X138469285Y-73874761D01*
X138421666Y-73779523D01*
X138421666Y-73398571D01*
X138469285Y-73303333D01*
X138564523Y-73255714D01*
X138755000Y-73255714D01*
X138850238Y-73303333D01*
X138897857Y-73398571D01*
X138897857Y-73493809D01*
X138421666Y-73589047D01*
X139231190Y-73255714D02*
X139469285Y-73922380D01*
X139707380Y-73255714D01*
X140469285Y-73874761D02*
X140374047Y-73922380D01*
X140183571Y-73922380D01*
X140088333Y-73874761D01*
X140040714Y-73779523D01*
X140040714Y-73398571D01*
X140088333Y-73303333D01*
X140183571Y-73255714D01*
X140374047Y-73255714D01*
X140469285Y-73303333D01*
X140516904Y-73398571D01*
X140516904Y-73493809D01*
X140040714Y-73589047D01*
X141088333Y-73922380D02*
X140993095Y-73874761D01*
X140945476Y-73779523D01*
X140945476Y-72922380D01*
X142183571Y-73874761D02*
X142326428Y-73922380D01*
X142564523Y-73922380D01*
X142659761Y-73874761D01*
X142707380Y-73827142D01*
X142755000Y-73731904D01*
X142755000Y-73636666D01*
X142707380Y-73541428D01*
X142659761Y-73493809D01*
X142564523Y-73446190D01*
X142374047Y-73398571D01*
X142278809Y-73350952D01*
X142231190Y-73303333D01*
X142183571Y-73208095D01*
X142183571Y-73112857D01*
X142231190Y-73017619D01*
X142278809Y-72970000D01*
X142374047Y-72922380D01*
X142612142Y-72922380D01*
X142755000Y-72970000D01*
X143183571Y-73922380D02*
X143183571Y-72922380D01*
X143612142Y-73922380D02*
X143612142Y-73398571D01*
X143564523Y-73303333D01*
X143469285Y-73255714D01*
X143326428Y-73255714D01*
X143231190Y-73303333D01*
X143183571Y-73350952D01*
X144088333Y-73922380D02*
X144088333Y-73255714D01*
X144088333Y-72922380D02*
X144040714Y-72970000D01*
X144088333Y-73017619D01*
X144135952Y-72970000D01*
X144088333Y-72922380D01*
X144088333Y-73017619D01*
X144421666Y-73255714D02*
X144802619Y-73255714D01*
X144564523Y-73922380D02*
X144564523Y-73065238D01*
X144612142Y-72970000D01*
X144707380Y-72922380D01*
X144802619Y-72922380D01*
X144993095Y-73255714D02*
X145374047Y-73255714D01*
X145135952Y-72922380D02*
X145135952Y-73779523D01*
X145183571Y-73874761D01*
X145278809Y-73922380D01*
X145374047Y-73922380D01*
X146088333Y-73874761D02*
X145993095Y-73922380D01*
X145802619Y-73922380D01*
X145707380Y-73874761D01*
X145659761Y-73779523D01*
X145659761Y-73398571D01*
X145707380Y-73303333D01*
X145802619Y-73255714D01*
X145993095Y-73255714D01*
X146088333Y-73303333D01*
X146135952Y-73398571D01*
X146135952Y-73493809D01*
X145659761Y-73589047D01*
X146564523Y-73922380D02*
X146564523Y-73255714D01*
X146564523Y-73446190D02*
X146612142Y-73350952D01*
X146659761Y-73303333D01*
X146755000Y-73255714D01*
X146850238Y-73255714D01*
X130183571Y-75953333D02*
X130135952Y-75905714D01*
X130040714Y-75762857D01*
X129993095Y-75667619D01*
X129945476Y-75524761D01*
X129897857Y-75286666D01*
X129897857Y-75096190D01*
X129945476Y-74858095D01*
X129993095Y-74715238D01*
X130040714Y-74620000D01*
X130135952Y-74477142D01*
X130183571Y-74429523D01*
X130564523Y-75572380D02*
X130564523Y-74572380D01*
X130945476Y-74572380D01*
X131040714Y-74620000D01*
X131088333Y-74667619D01*
X131135952Y-74762857D01*
X131135952Y-74905714D01*
X131088333Y-75000952D01*
X131040714Y-75048571D01*
X130945476Y-75096190D01*
X130564523Y-75096190D01*
X131564523Y-75572380D02*
X131564523Y-74905714D01*
X131564523Y-75096190D02*
X131612142Y-75000952D01*
X131659761Y-74953333D01*
X131755000Y-74905714D01*
X131850238Y-74905714D01*
X132183571Y-75572380D02*
X132183571Y-74905714D01*
X132183571Y-74572380D02*
X132135952Y-74620000D01*
X132183571Y-74667619D01*
X132231190Y-74620000D01*
X132183571Y-74572380D01*
X132183571Y-74667619D01*
X132659761Y-75572380D02*
X132659761Y-74905714D01*
X132659761Y-75000952D02*
X132707380Y-74953333D01*
X132802619Y-74905714D01*
X132945476Y-74905714D01*
X133040714Y-74953333D01*
X133088333Y-75048571D01*
X133088333Y-75572380D01*
X133088333Y-75048571D02*
X133135952Y-74953333D01*
X133231190Y-74905714D01*
X133374047Y-74905714D01*
X133469285Y-74953333D01*
X133516904Y-75048571D01*
X133516904Y-75572380D01*
X134421666Y-75572380D02*
X134421666Y-75048571D01*
X134374047Y-74953333D01*
X134278809Y-74905714D01*
X134088333Y-74905714D01*
X133993095Y-74953333D01*
X134421666Y-75524761D02*
X134326428Y-75572380D01*
X134088333Y-75572380D01*
X133993095Y-75524761D01*
X133945476Y-75429523D01*
X133945476Y-75334285D01*
X133993095Y-75239047D01*
X134088333Y-75191428D01*
X134326428Y-75191428D01*
X134421666Y-75143809D01*
X134897857Y-75572380D02*
X134897857Y-74905714D01*
X134897857Y-75096190D02*
X134945476Y-75000952D01*
X134993095Y-74953333D01*
X135088333Y-74905714D01*
X135183571Y-74905714D01*
X135421666Y-74905714D02*
X135659761Y-75572380D01*
X135897857Y-74905714D02*
X135659761Y-75572380D01*
X135564523Y-75810476D01*
X135516904Y-75858095D01*
X135421666Y-75905714D01*
X137040714Y-75572380D02*
X137040714Y-74572380D01*
X137278809Y-74572380D01*
X137421666Y-74620000D01*
X137516904Y-74715238D01*
X137564523Y-74810476D01*
X137612142Y-75000952D01*
X137612142Y-75143809D01*
X137564523Y-75334285D01*
X137516904Y-75429523D01*
X137421666Y-75524761D01*
X137278809Y-75572380D01*
X137040714Y-75572380D01*
X138469285Y-75572380D02*
X138469285Y-75048571D01*
X138421666Y-74953333D01*
X138326428Y-74905714D01*
X138135952Y-74905714D01*
X138040714Y-74953333D01*
X138469285Y-75524761D02*
X138374047Y-75572380D01*
X138135952Y-75572380D01*
X138040714Y-75524761D01*
X137993095Y-75429523D01*
X137993095Y-75334285D01*
X138040714Y-75239047D01*
X138135952Y-75191428D01*
X138374047Y-75191428D01*
X138469285Y-75143809D01*
X138802619Y-74905714D02*
X139183571Y-74905714D01*
X138945476Y-74572380D02*
X138945476Y-75429523D01*
X138993095Y-75524761D01*
X139088333Y-75572380D01*
X139183571Y-75572380D01*
X139945476Y-75572380D02*
X139945476Y-75048571D01*
X139897857Y-74953333D01*
X139802619Y-74905714D01*
X139612142Y-74905714D01*
X139516904Y-74953333D01*
X139945476Y-75524761D02*
X139850238Y-75572380D01*
X139612142Y-75572380D01*
X139516904Y-75524761D01*
X139469285Y-75429523D01*
X139469285Y-75334285D01*
X139516904Y-75239047D01*
X139612142Y-75191428D01*
X139850238Y-75191428D01*
X139945476Y-75143809D01*
X140326428Y-75953333D02*
X140374047Y-75905714D01*
X140469285Y-75762857D01*
X140516904Y-75667619D01*
X140564523Y-75524761D01*
X140612142Y-75286666D01*
X140612142Y-75096190D01*
X140564523Y-74858095D01*
X140516904Y-74715238D01*
X140469285Y-74620000D01*
X140374047Y-74477142D01*
X140326428Y-74429523D01*
X124913809Y-85622380D02*
X125580476Y-85622380D01*
X125151904Y-86622380D01*
X126389999Y-85955714D02*
X126389999Y-86622380D01*
X126151904Y-85574761D02*
X125913809Y-86289047D01*
X126532857Y-86289047D01*
X127389999Y-86622380D02*
X126913809Y-86622380D01*
X126913809Y-85622380D01*
X127580476Y-85622380D02*
X127913809Y-86622380D01*
X128247142Y-85622380D01*
X129151904Y-86527142D02*
X129104285Y-86574761D01*
X128961428Y-86622380D01*
X128866190Y-86622380D01*
X128723333Y-86574761D01*
X128628095Y-86479523D01*
X128580476Y-86384285D01*
X128532857Y-86193809D01*
X128532857Y-86050952D01*
X128580476Y-85860476D01*
X128628095Y-85765238D01*
X128723333Y-85670000D01*
X128866190Y-85622380D01*
X128961428Y-85622380D01*
X129104285Y-85670000D01*
X129151904Y-85717619D01*
X129532857Y-85717619D02*
X129580476Y-85670000D01*
X129675714Y-85622380D01*
X129913809Y-85622380D01*
X130009047Y-85670000D01*
X130056666Y-85717619D01*
X130104285Y-85812857D01*
X130104285Y-85908095D01*
X130056666Y-86050952D01*
X129485238Y-86622380D01*
X130104285Y-86622380D01*
X130961428Y-85955714D02*
X130961428Y-86622380D01*
X130723333Y-85574761D02*
X130485238Y-86289047D01*
X131104285Y-86289047D01*
X131961428Y-85622380D02*
X131485238Y-85622380D01*
X131437619Y-86098571D01*
X131485238Y-86050952D01*
X131580476Y-86003333D01*
X131818571Y-86003333D01*
X131913809Y-86050952D01*
X131961428Y-86098571D01*
X132009047Y-86193809D01*
X132009047Y-86431904D01*
X131961428Y-86527142D01*
X131913809Y-86574761D01*
X131818571Y-86622380D01*
X131580476Y-86622380D01*
X131485238Y-86574761D01*
X131437619Y-86527142D01*
X133199523Y-86622380D02*
X133199523Y-85622380D01*
X133675714Y-85955714D02*
X133675714Y-86622380D01*
X133675714Y-86050952D02*
X133723333Y-86003333D01*
X133818571Y-85955714D01*
X133961428Y-85955714D01*
X134056666Y-86003333D01*
X134104285Y-86098571D01*
X134104285Y-86622380D01*
X134580476Y-85955714D02*
X134580476Y-86955714D01*
X134580476Y-86003333D02*
X134675714Y-85955714D01*
X134866190Y-85955714D01*
X134961428Y-86003333D01*
X135009047Y-86050952D01*
X135056666Y-86146190D01*
X135056666Y-86431904D01*
X135009047Y-86527142D01*
X134961428Y-86574761D01*
X134866190Y-86622380D01*
X134675714Y-86622380D01*
X134580476Y-86574761D01*
X135913809Y-85955714D02*
X135913809Y-86622380D01*
X135485238Y-85955714D02*
X135485238Y-86479523D01*
X135532857Y-86574761D01*
X135628095Y-86622380D01*
X135770952Y-86622380D01*
X135866190Y-86574761D01*
X135913809Y-86527142D01*
X136247142Y-85955714D02*
X136628095Y-85955714D01*
X136390000Y-85622380D02*
X136390000Y-86479523D01*
X136437619Y-86574761D01*
X136532857Y-86622380D01*
X136628095Y-86622380D01*
X138199523Y-86622380D02*
X137723333Y-86622380D01*
X137723333Y-85622380D01*
X138913809Y-86574761D02*
X138818571Y-86622380D01*
X138628095Y-86622380D01*
X138532857Y-86574761D01*
X138485238Y-86479523D01*
X138485238Y-86098571D01*
X138532857Y-86003333D01*
X138628095Y-85955714D01*
X138818571Y-85955714D01*
X138913809Y-86003333D01*
X138961428Y-86098571D01*
X138961428Y-86193809D01*
X138485238Y-86289047D01*
X139294761Y-85955714D02*
X139532857Y-86622380D01*
X139770952Y-85955714D01*
X140532857Y-86574761D02*
X140437619Y-86622380D01*
X140247142Y-86622380D01*
X140151904Y-86574761D01*
X140104285Y-86479523D01*
X140104285Y-86098571D01*
X140151904Y-86003333D01*
X140247142Y-85955714D01*
X140437619Y-85955714D01*
X140532857Y-86003333D01*
X140580476Y-86098571D01*
X140580476Y-86193809D01*
X140104285Y-86289047D01*
X141151904Y-86622380D02*
X141056666Y-86574761D01*
X141009047Y-86479523D01*
X141009047Y-85622380D01*
X142247142Y-86574761D02*
X142390000Y-86622380D01*
X142628095Y-86622380D01*
X142723333Y-86574761D01*
X142770952Y-86527142D01*
X142818571Y-86431904D01*
X142818571Y-86336666D01*
X142770952Y-86241428D01*
X142723333Y-86193809D01*
X142628095Y-86146190D01*
X142437619Y-86098571D01*
X142342380Y-86050952D01*
X142294761Y-86003333D01*
X142247142Y-85908095D01*
X142247142Y-85812857D01*
X142294761Y-85717619D01*
X142342380Y-85670000D01*
X142437619Y-85622380D01*
X142675714Y-85622380D01*
X142818571Y-85670000D01*
X143247142Y-86622380D02*
X143247142Y-85622380D01*
X143675714Y-86622380D02*
X143675714Y-86098571D01*
X143628095Y-86003333D01*
X143532857Y-85955714D01*
X143390000Y-85955714D01*
X143294761Y-86003333D01*
X143247142Y-86050952D01*
X144151904Y-86622380D02*
X144151904Y-85955714D01*
X144151904Y-85622380D02*
X144104285Y-85670000D01*
X144151904Y-85717619D01*
X144199523Y-85670000D01*
X144151904Y-85622380D01*
X144151904Y-85717619D01*
X144485238Y-85955714D02*
X144866190Y-85955714D01*
X144628095Y-86622380D02*
X144628095Y-85765238D01*
X144675714Y-85670000D01*
X144770952Y-85622380D01*
X144866190Y-85622380D01*
X145056666Y-85955714D02*
X145437619Y-85955714D01*
X145199523Y-85622380D02*
X145199523Y-86479523D01*
X145247142Y-86574761D01*
X145342380Y-86622380D01*
X145437619Y-86622380D01*
X146151904Y-86574761D02*
X146056666Y-86622380D01*
X145866190Y-86622380D01*
X145770952Y-86574761D01*
X145723333Y-86479523D01*
X145723333Y-86098571D01*
X145770952Y-86003333D01*
X145866190Y-85955714D01*
X146056666Y-85955714D01*
X146151904Y-86003333D01*
X146199523Y-86098571D01*
X146199523Y-86193809D01*
X145723333Y-86289047D01*
X146628095Y-86622380D02*
X146628095Y-85955714D01*
X146628095Y-86146190D02*
X146675714Y-86050952D01*
X146723333Y-86003333D01*
X146818571Y-85955714D01*
X146913809Y-85955714D01*
X130818571Y-88653333D02*
X130770952Y-88605714D01*
X130675714Y-88462857D01*
X130628095Y-88367619D01*
X130580476Y-88224761D01*
X130532857Y-87986666D01*
X130532857Y-87796190D01*
X130580476Y-87558095D01*
X130628095Y-87415238D01*
X130675714Y-87320000D01*
X130770952Y-87177142D01*
X130818571Y-87129523D01*
X131199523Y-88272380D02*
X131199523Y-87272380D01*
X131580476Y-87272380D01*
X131675714Y-87320000D01*
X131723333Y-87367619D01*
X131770952Y-87462857D01*
X131770952Y-87605714D01*
X131723333Y-87700952D01*
X131675714Y-87748571D01*
X131580476Y-87796190D01*
X131199523Y-87796190D01*
X132199523Y-88272380D02*
X132199523Y-87605714D01*
X132199523Y-87796190D02*
X132247142Y-87700952D01*
X132294761Y-87653333D01*
X132390000Y-87605714D01*
X132485238Y-87605714D01*
X132818571Y-88272380D02*
X132818571Y-87605714D01*
X132818571Y-87272380D02*
X132770952Y-87320000D01*
X132818571Y-87367619D01*
X132866190Y-87320000D01*
X132818571Y-87272380D01*
X132818571Y-87367619D01*
X133294761Y-88272380D02*
X133294761Y-87605714D01*
X133294761Y-87700952D02*
X133342380Y-87653333D01*
X133437619Y-87605714D01*
X133580476Y-87605714D01*
X133675714Y-87653333D01*
X133723333Y-87748571D01*
X133723333Y-88272380D01*
X133723333Y-87748571D02*
X133770952Y-87653333D01*
X133866190Y-87605714D01*
X134009047Y-87605714D01*
X134104285Y-87653333D01*
X134151904Y-87748571D01*
X134151904Y-88272380D01*
X135056666Y-88272380D02*
X135056666Y-87748571D01*
X135009047Y-87653333D01*
X134913809Y-87605714D01*
X134723333Y-87605714D01*
X134628095Y-87653333D01*
X135056666Y-88224761D02*
X134961428Y-88272380D01*
X134723333Y-88272380D01*
X134628095Y-88224761D01*
X134580476Y-88129523D01*
X134580476Y-88034285D01*
X134628095Y-87939047D01*
X134723333Y-87891428D01*
X134961428Y-87891428D01*
X135056666Y-87843809D01*
X135532857Y-88272380D02*
X135532857Y-87605714D01*
X135532857Y-87796190D02*
X135580476Y-87700952D01*
X135628095Y-87653333D01*
X135723333Y-87605714D01*
X135818571Y-87605714D01*
X136056666Y-87605714D02*
X136294761Y-88272380D01*
X136532857Y-87605714D02*
X136294761Y-88272380D01*
X136199523Y-88510476D01*
X136151904Y-88558095D01*
X136056666Y-88605714D01*
X137675714Y-88272380D02*
X137675714Y-87272380D01*
X137913809Y-87272380D01*
X138056666Y-87320000D01*
X138151904Y-87415238D01*
X138199523Y-87510476D01*
X138247142Y-87700952D01*
X138247142Y-87843809D01*
X138199523Y-88034285D01*
X138151904Y-88129523D01*
X138056666Y-88224761D01*
X137913809Y-88272380D01*
X137675714Y-88272380D01*
X139104285Y-88272380D02*
X139104285Y-87748571D01*
X139056666Y-87653333D01*
X138961428Y-87605714D01*
X138770952Y-87605714D01*
X138675714Y-87653333D01*
X139104285Y-88224761D02*
X139009047Y-88272380D01*
X138770952Y-88272380D01*
X138675714Y-88224761D01*
X138628095Y-88129523D01*
X138628095Y-88034285D01*
X138675714Y-87939047D01*
X138770952Y-87891428D01*
X139009047Y-87891428D01*
X139104285Y-87843809D01*
X139437619Y-87605714D02*
X139818571Y-87605714D01*
X139580476Y-87272380D02*
X139580476Y-88129523D01*
X139628095Y-88224761D01*
X139723333Y-88272380D01*
X139818571Y-88272380D01*
X140580476Y-88272380D02*
X140580476Y-87748571D01*
X140532857Y-87653333D01*
X140437619Y-87605714D01*
X140247142Y-87605714D01*
X140151904Y-87653333D01*
X140580476Y-88224761D02*
X140485238Y-88272380D01*
X140247142Y-88272380D01*
X140151904Y-88224761D01*
X140104285Y-88129523D01*
X140104285Y-88034285D01*
X140151904Y-87939047D01*
X140247142Y-87891428D01*
X140485238Y-87891428D01*
X140580476Y-87843809D01*
X140961428Y-88653333D02*
X141009047Y-88605714D01*
X141104285Y-88462857D01*
X141151904Y-88367619D01*
X141199523Y-88224761D01*
X141247142Y-87986666D01*
X141247142Y-87796190D01*
X141199523Y-87558095D01*
X141151904Y-87415238D01*
X141104285Y-87320000D01*
X141009047Y-87177142D01*
X140961428Y-87129523D01*
X125683571Y-98512380D02*
X126350238Y-98512380D01*
X125921666Y-99512380D01*
X127159761Y-98845714D02*
X127159761Y-99512380D01*
X126921666Y-98464761D02*
X126683571Y-99179047D01*
X127302619Y-99179047D01*
X128159761Y-99512380D02*
X127683571Y-99512380D01*
X127683571Y-98512380D01*
X128445476Y-99464761D02*
X128588333Y-99512380D01*
X128826428Y-99512380D01*
X128921666Y-99464761D01*
X128969285Y-99417142D01*
X129016904Y-99321904D01*
X129016904Y-99226666D01*
X128969285Y-99131428D01*
X128921666Y-99083809D01*
X128826428Y-99036190D01*
X128635952Y-98988571D01*
X128540714Y-98940952D01*
X128493095Y-98893333D01*
X128445476Y-98798095D01*
X128445476Y-98702857D01*
X128493095Y-98607619D01*
X128540714Y-98560000D01*
X128635952Y-98512380D01*
X128874047Y-98512380D01*
X129016904Y-98560000D01*
X129397857Y-98607619D02*
X129445476Y-98560000D01*
X129540714Y-98512380D01*
X129778809Y-98512380D01*
X129874047Y-98560000D01*
X129921666Y-98607619D01*
X129969285Y-98702857D01*
X129969285Y-98798095D01*
X129921666Y-98940952D01*
X129350238Y-99512380D01*
X129969285Y-99512380D01*
X130826428Y-98845714D02*
X130826428Y-99512380D01*
X130588333Y-98464761D02*
X130350238Y-99179047D01*
X130969285Y-99179047D01*
X131826428Y-98512380D02*
X131350238Y-98512380D01*
X131302619Y-98988571D01*
X131350238Y-98940952D01*
X131445476Y-98893333D01*
X131683571Y-98893333D01*
X131778809Y-98940952D01*
X131826428Y-98988571D01*
X131874047Y-99083809D01*
X131874047Y-99321904D01*
X131826428Y-99417142D01*
X131778809Y-99464761D01*
X131683571Y-99512380D01*
X131445476Y-99512380D01*
X131350238Y-99464761D01*
X131302619Y-99417142D01*
X133064523Y-99512380D02*
X133064523Y-98512380D01*
X133302619Y-98512380D01*
X133445476Y-98560000D01*
X133540714Y-98655238D01*
X133588333Y-98750476D01*
X133635952Y-98940952D01*
X133635952Y-99083809D01*
X133588333Y-99274285D01*
X133540714Y-99369523D01*
X133445476Y-99464761D01*
X133302619Y-99512380D01*
X133064523Y-99512380D01*
X134493095Y-99512380D02*
X134493095Y-98988571D01*
X134445476Y-98893333D01*
X134350238Y-98845714D01*
X134159761Y-98845714D01*
X134064523Y-98893333D01*
X134493095Y-99464761D02*
X134397857Y-99512380D01*
X134159761Y-99512380D01*
X134064523Y-99464761D01*
X134016904Y-99369523D01*
X134016904Y-99274285D01*
X134064523Y-99179047D01*
X134159761Y-99131428D01*
X134397857Y-99131428D01*
X134493095Y-99083809D01*
X134826428Y-98845714D02*
X135207380Y-98845714D01*
X134969285Y-98512380D02*
X134969285Y-99369523D01*
X135016904Y-99464761D01*
X135112142Y-99512380D01*
X135207380Y-99512380D01*
X135969285Y-99512380D02*
X135969285Y-98988571D01*
X135921666Y-98893333D01*
X135826428Y-98845714D01*
X135635952Y-98845714D01*
X135540714Y-98893333D01*
X135969285Y-99464761D02*
X135874047Y-99512380D01*
X135635952Y-99512380D01*
X135540714Y-99464761D01*
X135493095Y-99369523D01*
X135493095Y-99274285D01*
X135540714Y-99179047D01*
X135635952Y-99131428D01*
X135874047Y-99131428D01*
X135969285Y-99083809D01*
X137540714Y-98988571D02*
X137683571Y-99036190D01*
X137731190Y-99083809D01*
X137778809Y-99179047D01*
X137778809Y-99321904D01*
X137731190Y-99417142D01*
X137683571Y-99464761D01*
X137588333Y-99512380D01*
X137207380Y-99512380D01*
X137207380Y-98512380D01*
X137540714Y-98512380D01*
X137635952Y-98560000D01*
X137683571Y-98607619D01*
X137731190Y-98702857D01*
X137731190Y-98798095D01*
X137683571Y-98893333D01*
X137635952Y-98940952D01*
X137540714Y-98988571D01*
X137207380Y-98988571D01*
X138635952Y-98845714D02*
X138635952Y-99512380D01*
X138207380Y-98845714D02*
X138207380Y-99369523D01*
X138255000Y-99464761D01*
X138350238Y-99512380D01*
X138493095Y-99512380D01*
X138588333Y-99464761D01*
X138635952Y-99417142D01*
X139064523Y-99464761D02*
X139159761Y-99512380D01*
X139350238Y-99512380D01*
X139445476Y-99464761D01*
X139493095Y-99369523D01*
X139493095Y-99321904D01*
X139445476Y-99226666D01*
X139350238Y-99179047D01*
X139207380Y-99179047D01*
X139112142Y-99131428D01*
X139064523Y-99036190D01*
X139064523Y-98988571D01*
X139112142Y-98893333D01*
X139207380Y-98845714D01*
X139350238Y-98845714D01*
X139445476Y-98893333D01*
X141016904Y-98988571D02*
X141159761Y-99036190D01*
X141207380Y-99083809D01*
X141255000Y-99179047D01*
X141255000Y-99321904D01*
X141207380Y-99417142D01*
X141159761Y-99464761D01*
X141064523Y-99512380D01*
X140683571Y-99512380D01*
X140683571Y-98512380D01*
X141016904Y-98512380D01*
X141112142Y-98560000D01*
X141159761Y-98607619D01*
X141207380Y-98702857D01*
X141207380Y-98798095D01*
X141159761Y-98893333D01*
X141112142Y-98940952D01*
X141016904Y-98988571D01*
X140683571Y-98988571D01*
X142112142Y-98845714D02*
X142112142Y-99512380D01*
X141683571Y-98845714D02*
X141683571Y-99369523D01*
X141731190Y-99464761D01*
X141826428Y-99512380D01*
X141969285Y-99512380D01*
X142064523Y-99464761D01*
X142112142Y-99417142D01*
X142445476Y-98845714D02*
X142826428Y-98845714D01*
X142588333Y-99512380D02*
X142588333Y-98655238D01*
X142635952Y-98560000D01*
X142731190Y-98512380D01*
X142826428Y-98512380D01*
X143016904Y-98845714D02*
X143397857Y-98845714D01*
X143159761Y-99512380D02*
X143159761Y-98655238D01*
X143207380Y-98560000D01*
X143302619Y-98512380D01*
X143397857Y-98512380D01*
X144112142Y-99464761D02*
X144016904Y-99512380D01*
X143826428Y-99512380D01*
X143731190Y-99464761D01*
X143683571Y-99369523D01*
X143683571Y-98988571D01*
X143731190Y-98893333D01*
X143826428Y-98845714D01*
X144016904Y-98845714D01*
X144112142Y-98893333D01*
X144159761Y-98988571D01*
X144159761Y-99083809D01*
X143683571Y-99179047D01*
X144588333Y-99512380D02*
X144588333Y-98845714D01*
X144588333Y-99036190D02*
X144635952Y-98940952D01*
X144683571Y-98893333D01*
X144778809Y-98845714D01*
X144874047Y-98845714D01*
X116117666Y-97160380D02*
X116117666Y-96684190D01*
X116403380Y-97255619D02*
X115403380Y-96922285D01*
X116403380Y-96588952D01*
X115736714Y-96398476D02*
X115736714Y-96017523D01*
X115403380Y-96255619D02*
X116260523Y-96255619D01*
X116355761Y-96208000D01*
X116403380Y-96112761D01*
X116403380Y-96017523D01*
X115736714Y-95827047D02*
X115736714Y-95446095D01*
X115403380Y-95684190D02*
X116260523Y-95684190D01*
X116355761Y-95636571D01*
X116403380Y-95541333D01*
X116403380Y-95446095D01*
X116403380Y-94684190D02*
X115879571Y-94684190D01*
X115784333Y-94731809D01*
X115736714Y-94827047D01*
X115736714Y-95017523D01*
X115784333Y-95112761D01*
X116355761Y-94684190D02*
X116403380Y-94779428D01*
X116403380Y-95017523D01*
X116355761Y-95112761D01*
X116260523Y-95160380D01*
X116165285Y-95160380D01*
X116070047Y-95112761D01*
X116022428Y-95017523D01*
X116022428Y-94779428D01*
X115974809Y-94684190D01*
X116355761Y-93779428D02*
X116403380Y-93874666D01*
X116403380Y-94065142D01*
X116355761Y-94160380D01*
X116308142Y-94208000D01*
X116212904Y-94255619D01*
X115927190Y-94255619D01*
X115831952Y-94208000D01*
X115784333Y-94160380D01*
X115736714Y-94065142D01*
X115736714Y-93874666D01*
X115784333Y-93779428D01*
X116403380Y-93350857D02*
X115403380Y-93350857D01*
X116403380Y-92922285D02*
X115879571Y-92922285D01*
X115784333Y-92969904D01*
X115736714Y-93065142D01*
X115736714Y-93208000D01*
X115784333Y-93303238D01*
X115831952Y-93350857D01*
X116403380Y-91112761D02*
X115927190Y-91446095D01*
X116403380Y-91684190D02*
X115403380Y-91684190D01*
X115403380Y-91303238D01*
X115451000Y-91208000D01*
X115498619Y-91160380D01*
X115593857Y-91112761D01*
X115736714Y-91112761D01*
X115831952Y-91160380D01*
X115879571Y-91208000D01*
X115927190Y-91303238D01*
X115927190Y-91684190D01*
X116403380Y-90255619D02*
X115879571Y-90255619D01*
X115784333Y-90303238D01*
X115736714Y-90398476D01*
X115736714Y-90588952D01*
X115784333Y-90684190D01*
X116355761Y-90255619D02*
X116403380Y-90350857D01*
X116403380Y-90588952D01*
X116355761Y-90684190D01*
X116260523Y-90731809D01*
X116165285Y-90731809D01*
X116070047Y-90684190D01*
X116022428Y-90588952D01*
X116022428Y-90350857D01*
X115974809Y-90255619D01*
X116355761Y-89827047D02*
X116403380Y-89731809D01*
X116403380Y-89541333D01*
X116355761Y-89446095D01*
X116260523Y-89398476D01*
X116212904Y-89398476D01*
X116117666Y-89446095D01*
X116070047Y-89541333D01*
X116070047Y-89684190D01*
X116022428Y-89779428D01*
X115927190Y-89827047D01*
X115879571Y-89827047D01*
X115784333Y-89779428D01*
X115736714Y-89684190D01*
X115736714Y-89541333D01*
X115784333Y-89446095D01*
X115736714Y-88969904D02*
X116736714Y-88969904D01*
X115784333Y-88969904D02*
X115736714Y-88874666D01*
X115736714Y-88684190D01*
X115784333Y-88588952D01*
X115831952Y-88541333D01*
X115927190Y-88493714D01*
X116212904Y-88493714D01*
X116308142Y-88541333D01*
X116355761Y-88588952D01*
X116403380Y-88684190D01*
X116403380Y-88874666D01*
X116355761Y-88969904D01*
X116403380Y-88065142D02*
X115403380Y-88065142D01*
X115784333Y-88065142D02*
X115736714Y-87969904D01*
X115736714Y-87779428D01*
X115784333Y-87684190D01*
X115831952Y-87636571D01*
X115927190Y-87588952D01*
X116212904Y-87588952D01*
X116308142Y-87636571D01*
X116355761Y-87684190D01*
X116403380Y-87779428D01*
X116403380Y-87969904D01*
X116355761Y-88065142D01*
X116355761Y-86779428D02*
X116403380Y-86874666D01*
X116403380Y-87065142D01*
X116355761Y-87160380D01*
X116260523Y-87208000D01*
X115879571Y-87208000D01*
X115784333Y-87160380D01*
X115736714Y-87065142D01*
X115736714Y-86874666D01*
X115784333Y-86779428D01*
X115879571Y-86731809D01*
X115974809Y-86731809D01*
X116070047Y-87208000D01*
X116403380Y-86303238D02*
X115736714Y-86303238D01*
X115927190Y-86303238D02*
X115831952Y-86255619D01*
X115784333Y-86208000D01*
X115736714Y-86112761D01*
X115736714Y-86017523D01*
X116403380Y-85684190D02*
X115736714Y-85684190D01*
X115927190Y-85684190D02*
X115831952Y-85636571D01*
X115784333Y-85588952D01*
X115736714Y-85493714D01*
X115736714Y-85398476D01*
X115736714Y-85160380D02*
X116403380Y-84922285D01*
X115736714Y-84684190D02*
X116403380Y-84922285D01*
X116641476Y-85017523D01*
X116689095Y-85065142D01*
X116736714Y-85160380D01*
X116403380Y-83541333D02*
X115403380Y-83541333D01*
X115403380Y-83160380D01*
X115451000Y-83065142D01*
X115498619Y-83017523D01*
X115593857Y-82969904D01*
X115736714Y-82969904D01*
X115831952Y-83017523D01*
X115879571Y-83065142D01*
X115927190Y-83160380D01*
X115927190Y-83541333D01*
X116403380Y-82541333D02*
X115736714Y-82541333D01*
X115403380Y-82541333D02*
X115451000Y-82588952D01*
X115498619Y-82541333D01*
X115451000Y-82493714D01*
X115403380Y-82541333D01*
X115498619Y-82541333D01*
X115403380Y-81398476D02*
X115403380Y-80731809D01*
X116403380Y-81398476D01*
X116403380Y-80731809D01*
X116355761Y-79969904D02*
X116403380Y-80065142D01*
X116403380Y-80255619D01*
X116355761Y-80350857D01*
X116260523Y-80398476D01*
X115879571Y-80398476D01*
X115784333Y-80350857D01*
X115736714Y-80255619D01*
X115736714Y-80065142D01*
X115784333Y-79969904D01*
X115879571Y-79922285D01*
X115974809Y-79922285D01*
X116070047Y-80398476D01*
X116403380Y-79493714D02*
X115736714Y-79493714D01*
X115927190Y-79493714D02*
X115831952Y-79446095D01*
X115784333Y-79398476D01*
X115736714Y-79303238D01*
X115736714Y-79208000D01*
X116403380Y-78731809D02*
X116355761Y-78827047D01*
X116308142Y-78874666D01*
X116212904Y-78922285D01*
X115927190Y-78922285D01*
X115831952Y-78874666D01*
X115784333Y-78827047D01*
X115736714Y-78731809D01*
X115736714Y-78588952D01*
X115784333Y-78493714D01*
X115831952Y-78446095D01*
X115927190Y-78398476D01*
X116212904Y-78398476D01*
X116308142Y-78446095D01*
X116355761Y-78493714D01*
X116403380Y-78588952D01*
X116403380Y-78731809D01*
X115403380Y-77303238D02*
X116403380Y-77065142D01*
X115689095Y-76874666D01*
X116403380Y-76684190D01*
X115403380Y-76446095D01*
X115736714Y-75446095D02*
X115736714Y-75065142D01*
X116403380Y-75303238D02*
X115546238Y-75303238D01*
X115451000Y-75255619D01*
X115403380Y-75160380D01*
X115403380Y-75065142D01*
X116403380Y-74303238D02*
X115879571Y-74303238D01*
X115784333Y-74350857D01*
X115736714Y-74446095D01*
X115736714Y-74636571D01*
X115784333Y-74731809D01*
X116355761Y-74303238D02*
X116403380Y-74398476D01*
X116403380Y-74636571D01*
X116355761Y-74731809D01*
X116260523Y-74779428D01*
X116165285Y-74779428D01*
X116070047Y-74731809D01*
X116022428Y-74636571D01*
X116022428Y-74398476D01*
X115974809Y-74303238D01*
X116355761Y-73398476D02*
X116403380Y-73493714D01*
X116403380Y-73684190D01*
X116355761Y-73779428D01*
X116308142Y-73827047D01*
X116212904Y-73874666D01*
X115927190Y-73874666D01*
X115831952Y-73827047D01*
X115784333Y-73779428D01*
X115736714Y-73684190D01*
X115736714Y-73493714D01*
X115784333Y-73398476D01*
X116403380Y-72969904D02*
X115736714Y-72969904D01*
X115403380Y-72969904D02*
X115451000Y-73017523D01*
X115498619Y-72969904D01*
X115451000Y-72922285D01*
X115403380Y-72969904D01*
X115498619Y-72969904D01*
X115736714Y-72493714D02*
X116403380Y-72493714D01*
X115831952Y-72493714D02*
X115784333Y-72446095D01*
X115736714Y-72350857D01*
X115736714Y-72208000D01*
X115784333Y-72112761D01*
X115879571Y-72065142D01*
X116403380Y-72065142D01*
X115736714Y-71160380D02*
X116546238Y-71160380D01*
X116641476Y-71208000D01*
X116689095Y-71255619D01*
X116736714Y-71350857D01*
X116736714Y-71493714D01*
X116689095Y-71588952D01*
X116355761Y-71160380D02*
X116403380Y-71255619D01*
X116403380Y-71446095D01*
X116355761Y-71541333D01*
X116308142Y-71588952D01*
X116212904Y-71636571D01*
X115927190Y-71636571D01*
X115831952Y-71588952D01*
X115784333Y-71541333D01*
X115736714Y-71446095D01*
X115736714Y-71255619D01*
X115784333Y-71160380D01*
X116403380Y-69779428D02*
X116355761Y-69874666D01*
X116308142Y-69922285D01*
X116212904Y-69969904D01*
X115927190Y-69969904D01*
X115831952Y-69922285D01*
X115784333Y-69874666D01*
X115736714Y-69779428D01*
X115736714Y-69636571D01*
X115784333Y-69541333D01*
X115831952Y-69493714D01*
X115927190Y-69446095D01*
X116212904Y-69446095D01*
X116308142Y-69493714D01*
X116355761Y-69541333D01*
X116403380Y-69636571D01*
X116403380Y-69779428D01*
X115736714Y-68588952D02*
X116403380Y-68588952D01*
X115736714Y-69017523D02*
X116260523Y-69017523D01*
X116355761Y-68969904D01*
X116403380Y-68874666D01*
X116403380Y-68731809D01*
X116355761Y-68636571D01*
X116308142Y-68588952D01*
X115736714Y-68255619D02*
X115736714Y-67874666D01*
X115403380Y-68112761D02*
X116260523Y-68112761D01*
X116355761Y-68065142D01*
X116403380Y-67969904D01*
X116403380Y-67874666D01*
X115736714Y-67636571D02*
X116403380Y-67446095D01*
X115927190Y-67255619D01*
X116403380Y-67065142D01*
X115736714Y-66874666D01*
X116403380Y-66065142D02*
X115879571Y-66065142D01*
X115784333Y-66112761D01*
X115736714Y-66208000D01*
X115736714Y-66398476D01*
X115784333Y-66493714D01*
X116355761Y-66065142D02*
X116403380Y-66160380D01*
X116403380Y-66398476D01*
X116355761Y-66493714D01*
X116260523Y-66541333D01*
X116165285Y-66541333D01*
X116070047Y-66493714D01*
X116022428Y-66398476D01*
X116022428Y-66160380D01*
X115974809Y-66065142D01*
X116403380Y-65588952D02*
X115736714Y-65588952D01*
X115927190Y-65588952D02*
X115831952Y-65541333D01*
X115784333Y-65493714D01*
X115736714Y-65398476D01*
X115736714Y-65303238D01*
X116403380Y-64541333D02*
X115403380Y-64541333D01*
X116355761Y-64541333D02*
X116403380Y-64636571D01*
X116403380Y-64827047D01*
X116355761Y-64922285D01*
X116308142Y-64969904D01*
X116212904Y-65017523D01*
X115927190Y-65017523D01*
X115831952Y-64969904D01*
X115784333Y-64922285D01*
X115736714Y-64827047D01*
X115736714Y-64636571D01*
X115784333Y-64541333D01*
X115736714Y-63446095D02*
X115736714Y-63065142D01*
X116403380Y-63303238D02*
X115546238Y-63303238D01*
X115451000Y-63255619D01*
X115403380Y-63160380D01*
X115403380Y-63065142D01*
X116403380Y-62731809D02*
X115736714Y-62731809D01*
X115927190Y-62731809D02*
X115831952Y-62684190D01*
X115784333Y-62636571D01*
X115736714Y-62541333D01*
X115736714Y-62446095D01*
X116403380Y-61969904D02*
X116355761Y-62065142D01*
X116308142Y-62112761D01*
X116212904Y-62160380D01*
X115927190Y-62160380D01*
X115831952Y-62112761D01*
X115784333Y-62065142D01*
X115736714Y-61969904D01*
X115736714Y-61827047D01*
X115784333Y-61731809D01*
X115831952Y-61684190D01*
X115927190Y-61636571D01*
X116212904Y-61636571D01*
X116308142Y-61684190D01*
X116355761Y-61731809D01*
X116403380Y-61827047D01*
X116403380Y-61969904D01*
X116403380Y-61208000D02*
X115736714Y-61208000D01*
X115831952Y-61208000D02*
X115784333Y-61160380D01*
X115736714Y-61065142D01*
X115736714Y-60922285D01*
X115784333Y-60827047D01*
X115879571Y-60779428D01*
X116403380Y-60779428D01*
X115879571Y-60779428D02*
X115784333Y-60731809D01*
X115736714Y-60636571D01*
X115736714Y-60493714D01*
X115784333Y-60398476D01*
X115879571Y-60350857D01*
X116403380Y-60350857D01*
X116355761Y-58684190D02*
X116403380Y-58779428D01*
X116403380Y-58969904D01*
X116355761Y-59065142D01*
X116308142Y-59112761D01*
X116212904Y-59160380D01*
X115927190Y-59160380D01*
X115831952Y-59112761D01*
X115784333Y-59065142D01*
X115736714Y-58969904D01*
X115736714Y-58779428D01*
X115784333Y-58684190D01*
X116403380Y-57827047D02*
X115879571Y-57827047D01*
X115784333Y-57874666D01*
X115736714Y-57969904D01*
X115736714Y-58160380D01*
X115784333Y-58255619D01*
X116355761Y-57827047D02*
X116403380Y-57922285D01*
X116403380Y-58160380D01*
X116355761Y-58255619D01*
X116260523Y-58303238D01*
X116165285Y-58303238D01*
X116070047Y-58255619D01*
X116022428Y-58160380D01*
X116022428Y-57922285D01*
X115974809Y-57827047D01*
X116403380Y-57350857D02*
X115736714Y-57350857D01*
X115927190Y-57350857D02*
X115831952Y-57303238D01*
X115784333Y-57255619D01*
X115736714Y-57160380D01*
X115736714Y-57065142D01*
X116403380Y-56303238D02*
X115403380Y-56303238D01*
X116355761Y-56303238D02*
X116403380Y-56398476D01*
X116403380Y-56588952D01*
X116355761Y-56684190D01*
X116308142Y-56731809D01*
X116212904Y-56779428D01*
X115927190Y-56779428D01*
X115831952Y-56731809D01*
X115784333Y-56684190D01*
X115736714Y-56588952D01*
X115736714Y-56398476D01*
X115784333Y-56303238D01*
X159094301Y-87180781D02*
X159141920Y-87133162D01*
X159237158Y-87085542D01*
X159475253Y-87085542D01*
X159570491Y-87133162D01*
X159618110Y-87180781D01*
X159665729Y-87276019D01*
X159665729Y-87371257D01*
X159618110Y-87514114D01*
X159046682Y-88085542D01*
X159665729Y-88085542D01*
X159999063Y-87085542D02*
X160665729Y-87085542D01*
X160237158Y-88085542D01*
X160999063Y-87180781D02*
X161046682Y-87133162D01*
X161141920Y-87085542D01*
X161380015Y-87085542D01*
X161475253Y-87133162D01*
X161522872Y-87180781D01*
X161570491Y-87276019D01*
X161570491Y-87371257D01*
X161522872Y-87514114D01*
X160951444Y-88085542D01*
X161570491Y-88085542D01*
X162475253Y-87085542D02*
X161999063Y-87085542D01*
X161951444Y-87561733D01*
X161999063Y-87514114D01*
X162094301Y-87466495D01*
X162332396Y-87466495D01*
X162427634Y-87514114D01*
X162475253Y-87561733D01*
X162522872Y-87656971D01*
X162522872Y-87895066D01*
X162475253Y-87990304D01*
X162427634Y-88037923D01*
X162332396Y-88085542D01*
X162094301Y-88085542D01*
X161999063Y-88037923D01*
X161951444Y-87990304D01*
X163380015Y-87085542D02*
X163189539Y-87085542D01*
X163094301Y-87133162D01*
X163046682Y-87180781D01*
X162951444Y-87323638D01*
X162903825Y-87514114D01*
X162903825Y-87895066D01*
X162951444Y-87990304D01*
X162999063Y-88037923D01*
X163094301Y-88085542D01*
X163284777Y-88085542D01*
X163380015Y-88037923D01*
X163427634Y-87990304D01*
X163475253Y-87895066D01*
X163475253Y-87656971D01*
X163427634Y-87561733D01*
X163380015Y-87514114D01*
X163284777Y-87466495D01*
X163094301Y-87466495D01*
X162999063Y-87514114D01*
X162951444Y-87561733D01*
X162903825Y-87656971D01*
X164665729Y-87561733D02*
X164999063Y-87561733D01*
X165141920Y-88085542D02*
X164665729Y-88085542D01*
X164665729Y-87085542D01*
X165141920Y-87085542D01*
X165570491Y-88085542D02*
X165570491Y-87085542D01*
X165951444Y-87085542D01*
X166046682Y-87133162D01*
X166094301Y-87180781D01*
X166141920Y-87276019D01*
X166141920Y-87418876D01*
X166094301Y-87514114D01*
X166046682Y-87561733D01*
X165951444Y-87609352D01*
X165570491Y-87609352D01*
X167141920Y-88085542D02*
X166808586Y-87609352D01*
X166570491Y-88085542D02*
X166570491Y-87085542D01*
X166951444Y-87085542D01*
X167046682Y-87133162D01*
X167094301Y-87180781D01*
X167141920Y-87276019D01*
X167141920Y-87418876D01*
X167094301Y-87514114D01*
X167046682Y-87561733D01*
X166951444Y-87609352D01*
X166570491Y-87609352D01*
X167760967Y-87085542D02*
X167951444Y-87085542D01*
X168046682Y-87133162D01*
X168141920Y-87228400D01*
X168189539Y-87418876D01*
X168189539Y-87752209D01*
X168141920Y-87942685D01*
X168046682Y-88037923D01*
X167951444Y-88085542D01*
X167760967Y-88085542D01*
X167665729Y-88037923D01*
X167570491Y-87942685D01*
X167522872Y-87752209D01*
X167522872Y-87418876D01*
X167570491Y-87228400D01*
X167665729Y-87133162D01*
X167760967Y-87085542D01*
X168618110Y-88085542D02*
X168618110Y-87085542D01*
X168951444Y-87799828D01*
X169284777Y-87085542D01*
X169284777Y-88085542D01*
X159475253Y-89211733D02*
X159141920Y-89211733D01*
X159141920Y-89735542D02*
X159141920Y-88735542D01*
X159618110Y-88735542D01*
X159999063Y-89735542D02*
X159999063Y-89068876D01*
X159999063Y-88735542D02*
X159951444Y-88783162D01*
X159999063Y-88830781D01*
X160046682Y-88783162D01*
X159999063Y-88735542D01*
X159999063Y-88830781D01*
X160475253Y-89735542D02*
X160475253Y-89068876D01*
X160475253Y-89259352D02*
X160522872Y-89164114D01*
X160570491Y-89116495D01*
X160665729Y-89068876D01*
X160760967Y-89068876D01*
X161094301Y-89735542D02*
X161094301Y-89068876D01*
X161094301Y-89164114D02*
X161141920Y-89116495D01*
X161237158Y-89068876D01*
X161380015Y-89068876D01*
X161475253Y-89116495D01*
X161522872Y-89211733D01*
X161522872Y-89735542D01*
X161522872Y-89211733D02*
X161570491Y-89116495D01*
X161665729Y-89068876D01*
X161808586Y-89068876D01*
X161903825Y-89116495D01*
X161951444Y-89211733D01*
X161951444Y-89735542D01*
X162332396Y-89068876D02*
X162522872Y-89735542D01*
X162713348Y-89259352D01*
X162903825Y-89735542D01*
X163094301Y-89068876D01*
X163903825Y-89735542D02*
X163903825Y-89211733D01*
X163856205Y-89116495D01*
X163760967Y-89068876D01*
X163570491Y-89068876D01*
X163475253Y-89116495D01*
X163903825Y-89687923D02*
X163808586Y-89735542D01*
X163570491Y-89735542D01*
X163475253Y-89687923D01*
X163427634Y-89592685D01*
X163427634Y-89497447D01*
X163475253Y-89402209D01*
X163570491Y-89354590D01*
X163808586Y-89354590D01*
X163903825Y-89306971D01*
X164380015Y-89735542D02*
X164380015Y-89068876D01*
X164380015Y-89259352D02*
X164427634Y-89164114D01*
X164475253Y-89116495D01*
X164570491Y-89068876D01*
X164665729Y-89068876D01*
X165380015Y-89687923D02*
X165284777Y-89735542D01*
X165094301Y-89735542D01*
X164999063Y-89687923D01*
X164951444Y-89592685D01*
X164951444Y-89211733D01*
X164999063Y-89116495D01*
X165094301Y-89068876D01*
X165284777Y-89068876D01*
X165380015Y-89116495D01*
X165427634Y-89211733D01*
X165427634Y-89306971D01*
X164951444Y-89402209D01*
X167046682Y-89735542D02*
X167046682Y-89211733D01*
X166999063Y-89116495D01*
X166903825Y-89068876D01*
X166713348Y-89068876D01*
X166618110Y-89116495D01*
X167046682Y-89687923D02*
X166951444Y-89735542D01*
X166713348Y-89735542D01*
X166618110Y-89687923D01*
X166570491Y-89592685D01*
X166570491Y-89497447D01*
X166618110Y-89402209D01*
X166713348Y-89354590D01*
X166951444Y-89354590D01*
X167046682Y-89306971D01*
X167380015Y-89068876D02*
X167760967Y-89068876D01*
X167522872Y-88735542D02*
X167522872Y-89592685D01*
X167570491Y-89687923D01*
X167665729Y-89735542D01*
X167760967Y-89735542D01*
X168808586Y-89687923D02*
X168951444Y-89735542D01*
X169189539Y-89735542D01*
X169284777Y-89687923D01*
X169332396Y-89640304D01*
X169380015Y-89545066D01*
X169380015Y-89449828D01*
X169332396Y-89354590D01*
X169284777Y-89306971D01*
X169189539Y-89259352D01*
X168999063Y-89211733D01*
X168903825Y-89164114D01*
X168856205Y-89116495D01*
X168808586Y-89021257D01*
X168808586Y-88926019D01*
X168856205Y-88830781D01*
X168903825Y-88783162D01*
X168999063Y-88735542D01*
X169237158Y-88735542D01*
X169380015Y-88783162D01*
X169094301Y-88592685D02*
X169094301Y-89878400D01*
X170380015Y-89640304D02*
X170332396Y-89687923D01*
X170189539Y-89735542D01*
X170094301Y-89735542D01*
X169951444Y-89687923D01*
X169856205Y-89592685D01*
X169808586Y-89497447D01*
X169760967Y-89306971D01*
X169760967Y-89164114D01*
X169808586Y-88973638D01*
X169856205Y-88878400D01*
X169951444Y-88783162D01*
X170094301Y-88735542D01*
X170189539Y-88735542D01*
X170332396Y-88783162D01*
X170380015Y-88830781D01*
X170808586Y-89068876D02*
X170808586Y-89735542D01*
X170808586Y-89164114D02*
X170856205Y-89116495D01*
X170951444Y-89068876D01*
X171094301Y-89068876D01*
X171189539Y-89116495D01*
X171237158Y-89211733D01*
X171237158Y-89735542D01*
X171903825Y-88735542D02*
X171999063Y-88735542D01*
X172094301Y-88783162D01*
X172141920Y-88830781D01*
X172189539Y-88926019D01*
X172237158Y-89116495D01*
X172237158Y-89354590D01*
X172189539Y-89545066D01*
X172141920Y-89640304D01*
X172094301Y-89687923D01*
X171999063Y-89735542D01*
X171903825Y-89735542D01*
X171808586Y-89687923D01*
X171760967Y-89640304D01*
X171713348Y-89545066D01*
X171665729Y-89354590D01*
X171665729Y-89116495D01*
X171713348Y-88926019D01*
X171760967Y-88830781D01*
X171808586Y-88783162D01*
X171903825Y-88735542D01*
X172856205Y-88735542D02*
X172951444Y-88735542D01*
X173046682Y-88783162D01*
X173094301Y-88830781D01*
X173141920Y-88926019D01*
X173189539Y-89116495D01*
X173189539Y-89354590D01*
X173141920Y-89545066D01*
X173094301Y-89640304D01*
X173046682Y-89687923D01*
X172951444Y-89735542D01*
X172856205Y-89735542D01*
X172760967Y-89687923D01*
X172713348Y-89640304D01*
X172665729Y-89545066D01*
X172618110Y-89354590D01*
X172618110Y-89116495D01*
X172665729Y-88926019D01*
X172713348Y-88830781D01*
X172760967Y-88783162D01*
X172856205Y-88735542D01*
X174380015Y-89354590D02*
X175141920Y-89354590D01*
X176332396Y-89687923D02*
X176475253Y-89735542D01*
X176713348Y-89735542D01*
X176808586Y-89687923D01*
X176856205Y-89640304D01*
X176903825Y-89545066D01*
X176903825Y-89449828D01*
X176856205Y-89354590D01*
X176808586Y-89306971D01*
X176713348Y-89259352D01*
X176522872Y-89211733D01*
X176427634Y-89164114D01*
X176380015Y-89116495D01*
X176332396Y-89021257D01*
X176332396Y-88926019D01*
X176380015Y-88830781D01*
X176427634Y-88783162D01*
X176522872Y-88735542D01*
X176760967Y-88735542D01*
X176903825Y-88783162D01*
X176618110Y-88592685D02*
X176618110Y-89878400D01*
X177903825Y-89640304D02*
X177856205Y-89687923D01*
X177713348Y-89735542D01*
X177618110Y-89735542D01*
X177475253Y-89687923D01*
X177380015Y-89592685D01*
X177332396Y-89497447D01*
X177284777Y-89306971D01*
X177284777Y-89164114D01*
X177332396Y-88973638D01*
X177380015Y-88878400D01*
X177475253Y-88783162D01*
X177618110Y-88735542D01*
X177713348Y-88735542D01*
X177856205Y-88783162D01*
X177903825Y-88830781D01*
X178332396Y-89068876D02*
X178332396Y-89735542D01*
X178332396Y-89164114D02*
X178380015Y-89116495D01*
X178475253Y-89068876D01*
X178618110Y-89068876D01*
X178713348Y-89116495D01*
X178760967Y-89211733D01*
X178760967Y-89735542D01*
X179570491Y-89211733D02*
X179237158Y-89211733D01*
X179237158Y-89735542D02*
X179237158Y-88735542D01*
X179713348Y-88735542D01*
X180427634Y-89211733D02*
X180094301Y-89211733D01*
X180094301Y-89735542D02*
X180094301Y-88735542D01*
X180570491Y-88735542D01*
X159046682Y-90385542D02*
X159284777Y-91385542D01*
X159475253Y-90671257D01*
X159665729Y-91385542D01*
X159903825Y-90385542D01*
X160284777Y-91385542D02*
X160284777Y-90385542D01*
X160713348Y-91385542D02*
X160713348Y-90861733D01*
X160665729Y-90766495D01*
X160570491Y-90718876D01*
X160427634Y-90718876D01*
X160332396Y-90766495D01*
X160284777Y-90814114D01*
X161570491Y-91337923D02*
X161475253Y-91385542D01*
X161284777Y-91385542D01*
X161189539Y-91337923D01*
X161141920Y-91242685D01*
X161141920Y-90861733D01*
X161189539Y-90766495D01*
X161284777Y-90718876D01*
X161475253Y-90718876D01*
X161570491Y-90766495D01*
X161618110Y-90861733D01*
X161618110Y-90956971D01*
X161141920Y-91052209D01*
X162046682Y-91385542D02*
X162046682Y-90718876D01*
X162046682Y-90909352D02*
X162094301Y-90814114D01*
X162141920Y-90766495D01*
X162237158Y-90718876D01*
X162332396Y-90718876D01*
X163046682Y-91337923D02*
X162951444Y-91385542D01*
X162760967Y-91385542D01*
X162665729Y-91337923D01*
X162618110Y-91242685D01*
X162618110Y-90861733D01*
X162665729Y-90766495D01*
X162760967Y-90718876D01*
X162951444Y-90718876D01*
X163046682Y-90766495D01*
X163094301Y-90861733D01*
X163094301Y-90956971D01*
X162618110Y-91052209D01*
X164284777Y-90718876D02*
X164284777Y-91385542D01*
X164284777Y-90814114D02*
X164332396Y-90766495D01*
X164427634Y-90718876D01*
X164570491Y-90718876D01*
X164665729Y-90766495D01*
X164713348Y-90861733D01*
X164713348Y-91385542D01*
X165951444Y-90861733D02*
X166713348Y-90861733D01*
X166713348Y-91147447D02*
X165951444Y-91147447D01*
X167903825Y-91337923D02*
X167999063Y-91385542D01*
X168189539Y-91385542D01*
X168284777Y-91337923D01*
X168332396Y-91242685D01*
X168332396Y-91195066D01*
X168284777Y-91099828D01*
X168189539Y-91052209D01*
X168046682Y-91052209D01*
X167951444Y-91004590D01*
X167903825Y-90909352D01*
X167903825Y-90861733D01*
X167951444Y-90766495D01*
X168046682Y-90718876D01*
X168189539Y-90718876D01*
X168284777Y-90766495D01*
X168903825Y-91385542D02*
X168808586Y-91337923D01*
X168760967Y-91242685D01*
X168760967Y-90385542D01*
X169427634Y-91385542D02*
X169332396Y-91337923D01*
X169284777Y-91290304D01*
X169237158Y-91195066D01*
X169237158Y-90909352D01*
X169284777Y-90814114D01*
X169332396Y-90766495D01*
X169427634Y-90718876D01*
X169570491Y-90718876D01*
X169665729Y-90766495D01*
X169713348Y-90814114D01*
X169760967Y-90909352D01*
X169760967Y-91195066D01*
X169713348Y-91290304D01*
X169665729Y-91337923D01*
X169570491Y-91385542D01*
X169427634Y-91385542D01*
X170046682Y-90718876D02*
X170427634Y-90718876D01*
X170189539Y-90385542D02*
X170189539Y-91242685D01*
X170237158Y-91337923D01*
X170332396Y-91385542D01*
X170427634Y-91385542D01*
X171522872Y-90718876D02*
X171522872Y-91385542D01*
X171522872Y-90814114D02*
X171570491Y-90766495D01*
X171665729Y-90718876D01*
X171808586Y-90718876D01*
X171903825Y-90766495D01*
X171951444Y-90861733D01*
X171951444Y-91385542D01*
X172856205Y-90718876D02*
X172856205Y-91385542D01*
X172427634Y-90718876D02*
X172427634Y-91242685D01*
X172475253Y-91337923D01*
X172570491Y-91385542D01*
X172713348Y-91385542D01*
X172808586Y-91337923D01*
X172856205Y-91290304D01*
X173332396Y-91385542D02*
X173332396Y-90718876D01*
X173332396Y-90814114D02*
X173380015Y-90766495D01*
X173475253Y-90718876D01*
X173618110Y-90718876D01*
X173713348Y-90766495D01*
X173760967Y-90861733D01*
X173760967Y-91385542D01*
X173760967Y-90861733D02*
X173808586Y-90766495D01*
X173903825Y-90718876D01*
X174046682Y-90718876D01*
X174141920Y-90766495D01*
X174189539Y-90861733D01*
X174189539Y-91385542D01*
X174665729Y-91385542D02*
X174665729Y-90385542D01*
X174665729Y-90766495D02*
X174760967Y-90718876D01*
X174951444Y-90718876D01*
X175046682Y-90766495D01*
X175094301Y-90814114D01*
X175141920Y-90909352D01*
X175141920Y-91195066D01*
X175094301Y-91290304D01*
X175046682Y-91337923D01*
X174951444Y-91385542D01*
X174760967Y-91385542D01*
X174665729Y-91337923D01*
X175951444Y-91337923D02*
X175856205Y-91385542D01*
X175665729Y-91385542D01*
X175570491Y-91337923D01*
X175522872Y-91242685D01*
X175522872Y-90861733D01*
X175570491Y-90766495D01*
X175665729Y-90718876D01*
X175856205Y-90718876D01*
X175951444Y-90766495D01*
X175999063Y-90861733D01*
X175999063Y-90956971D01*
X175522872Y-91052209D01*
X176427634Y-91385542D02*
X176427634Y-90718876D01*
X176427634Y-90909352D02*
X176475253Y-90814114D01*
X176522872Y-90766495D01*
X176618110Y-90718876D01*
X176713348Y-90718876D01*
D11*
G04 #@! TO.C,U5*
X122495000Y-73295000D02*
G75*
G02X122495000Y-75295000I0J-1000000D01*
G01*
X122495000Y-75295000D02*
X122495000Y-76945000D01*
X122495000Y-76945000D02*
X148015000Y-76945000D01*
X148015000Y-76945000D02*
X148015000Y-71645000D01*
X148015000Y-71645000D02*
X122495000Y-71645000D01*
X122495000Y-71645000D02*
X122495000Y-73295000D01*
G04 #@! TO.C,J1*
X114360000Y-101914000D02*
X111760000Y-101914000D01*
X114360000Y-101914000D02*
X114360000Y-50994000D01*
X114360000Y-50994000D02*
X109160000Y-50994000D01*
X109160000Y-99314000D02*
X109160000Y-50994000D01*
X111760000Y-99314000D02*
X109160000Y-99314000D01*
X111760000Y-101914000D02*
X111760000Y-99314000D01*
X109160000Y-101914000D02*
X109160000Y-100584000D01*
X110490000Y-101914000D02*
X109160000Y-101914000D01*
G04 #@! TO.C,U8*
X174151072Y-69898014D02*
G75*
G02X173631800Y-68963800I580728J934214D01*
G01*
X173956800Y-65338800D02*
X173956800Y-68488800D01*
X174181800Y-69938800D02*
X174181800Y-70463800D01*
X174181800Y-70463800D02*
X175131800Y-70463800D01*
X175156800Y-67888800D02*
X174431800Y-67888800D01*
X174431800Y-67888800D02*
X174431800Y-68538800D01*
X175156800Y-65338800D02*
X173956800Y-65338800D01*
X174131800Y-69913800D02*
G75*
G03X174730337Y-68934752I-501463J979048D01*
G01*
X174731800Y-68963800D02*
X174731800Y-68413800D01*
X173631800Y-68388800D02*
X173631800Y-68963800D01*
X174714789Y-68400593D02*
G75*
G02X173631801Y-68388799I-532989J786793D01*
G01*
X171239789Y-65702593D02*
G75*
G02X170156801Y-65690799I-532989J786793D01*
G01*
X170156800Y-65690800D02*
X170156800Y-66265800D01*
X171256800Y-66265800D02*
X171256800Y-65715800D01*
X170676072Y-67200014D02*
G75*
G02X170156800Y-66265800I580728J934214D01*
G01*
X170656800Y-67215800D02*
G75*
G03X171255337Y-66236752I-501463J979048D01*
G01*
X169881800Y-65290800D02*
X170456800Y-65290800D01*
X170456800Y-65290800D02*
X170456800Y-65840800D01*
X170931800Y-65790800D02*
X170931800Y-62915800D01*
X170931800Y-62915800D02*
X169881800Y-62915800D01*
X170656800Y-67190800D02*
X170656800Y-67940800D01*
X170656800Y-67940800D02*
X169881800Y-67940800D01*
X173956800Y-57718800D02*
X173956800Y-60868800D01*
X175156800Y-57718800D02*
X173956800Y-57718800D01*
X174431800Y-60268800D02*
X174431800Y-60918800D01*
X175156800Y-60268800D02*
X174431800Y-60268800D01*
X174181800Y-62843800D02*
X175131800Y-62843800D01*
X174181800Y-62318800D02*
X174181800Y-62843800D01*
X170656800Y-60193800D02*
X169881800Y-60193800D01*
X170656800Y-59443800D02*
X170656800Y-60193800D01*
X170931800Y-55168800D02*
X169881800Y-55168800D01*
X170931800Y-58043800D02*
X170931800Y-55168800D01*
X170456800Y-57543800D02*
X170456800Y-58093800D01*
X169881800Y-57543800D02*
X170456800Y-57543800D01*
X173631800Y-60768800D02*
X173631800Y-61343800D01*
X174731800Y-61343800D02*
X174731800Y-60793800D01*
X174131800Y-62293800D02*
G75*
G03X174730337Y-61314752I-501463J979048D01*
G01*
X174151072Y-62278014D02*
G75*
G02X173631800Y-61343800I580728J934214D01*
G01*
X174714789Y-60780593D02*
G75*
G02X173631801Y-60768799I-532989J786793D01*
G01*
X170656800Y-59468800D02*
G75*
G03X171255337Y-58489752I-501463J979048D01*
G01*
X170676072Y-59453014D02*
G75*
G02X170156800Y-58518800I580728J934214D01*
G01*
X171256800Y-58518800D02*
X171256800Y-57968800D01*
X170156800Y-57943800D02*
X170156800Y-58518800D01*
X171239789Y-57955593D02*
G75*
G02X170156801Y-57943799I-532989J786793D01*
G01*
X175166800Y-53838800D02*
X173516800Y-53838800D01*
X175166800Y-71738800D02*
X175166800Y-53838800D01*
X169866800Y-71738800D02*
X175166800Y-71738800D01*
X169866800Y-53838800D02*
X169866800Y-71738800D01*
X171516800Y-53838800D02*
X169866800Y-53838800D01*
X173516800Y-53838800D02*
G75*
G02X171516800Y-53838800I-1000000J0D01*
G01*
G04 #@! TO.C,U6*
X122495000Y-46245000D02*
X122495000Y-47895000D01*
X148015000Y-46245000D02*
X122495000Y-46245000D01*
X148015000Y-51545000D02*
X148015000Y-46245000D01*
X122495000Y-51545000D02*
X148015000Y-51545000D01*
X122495000Y-49895000D02*
X122495000Y-51545000D01*
X122495000Y-47895000D02*
G75*
G02X122495000Y-49895000I0J-1000000D01*
G01*
G04 #@! TO.C,U7*
X122495000Y-60595000D02*
G75*
G02X122495000Y-62595000I0J-1000000D01*
G01*
X122495000Y-62595000D02*
X122495000Y-64245000D01*
X122495000Y-64245000D02*
X148015000Y-64245000D01*
X148015000Y-64245000D02*
X148015000Y-58945000D01*
X148015000Y-58945000D02*
X122495000Y-58945000D01*
X122495000Y-58945000D02*
X122495000Y-60595000D01*
G04 #@! TO.C,U1*
X188431925Y-90206962D02*
G75*
G02X188431925Y-88206962I0J1000000D01*
G01*
X188431925Y-88206962D02*
X188431925Y-82746962D01*
X188431925Y-82746962D02*
X152751925Y-82746962D01*
X152751925Y-82746962D02*
X152751925Y-95666962D01*
X152751925Y-95666962D02*
X188431925Y-95666962D01*
X188431925Y-95666962D02*
X188431925Y-90206962D01*
X188491925Y-80256962D02*
X152691925Y-80256962D01*
X152691925Y-80256962D02*
X152691925Y-98156962D01*
X152691925Y-98156962D02*
X188491925Y-98156962D01*
X188491925Y-98156962D02*
X188491925Y-80256962D01*
G04 #@! TO.C,U3*
X161020000Y-53915000D02*
G75*
G02X159020000Y-53915000I-1000000J0D01*
G01*
X159020000Y-53915000D02*
X157370000Y-53915000D01*
X157370000Y-53915000D02*
X157370000Y-71815000D01*
X157370000Y-71815000D02*
X162670000Y-71815000D01*
X162670000Y-71815000D02*
X162670000Y-53915000D01*
X162670000Y-53915000D02*
X161020000Y-53915000D01*
X158742989Y-58031793D02*
G75*
G02X157660001Y-58019999I-532989J786793D01*
G01*
X157660000Y-58020000D02*
X157660000Y-58595000D01*
X158760000Y-58595000D02*
X158760000Y-58045000D01*
X158179272Y-59529214D02*
G75*
G02X157660000Y-58595000I580728J934214D01*
G01*
X158160000Y-59545000D02*
G75*
G03X158758537Y-58565952I-501463J979048D01*
G01*
X162217989Y-60856793D02*
G75*
G02X161135001Y-60844999I-532989J786793D01*
G01*
X161654272Y-62354214D02*
G75*
G02X161135000Y-61420000I580728J934214D01*
G01*
X161635000Y-62370000D02*
G75*
G03X162233537Y-61390952I-501463J979048D01*
G01*
X162235000Y-61420000D02*
X162235000Y-60870000D01*
X161135000Y-60845000D02*
X161135000Y-61420000D01*
X157385000Y-57620000D02*
X157960000Y-57620000D01*
X157960000Y-57620000D02*
X157960000Y-58170000D01*
X158435000Y-58120000D02*
X158435000Y-55245000D01*
X158435000Y-55245000D02*
X157385000Y-55245000D01*
X158160000Y-59520000D02*
X158160000Y-60270000D01*
X158160000Y-60270000D02*
X157385000Y-60270000D01*
X161685000Y-62395000D02*
X161685000Y-62920000D01*
X161685000Y-62920000D02*
X162635000Y-62920000D01*
X162660000Y-60345000D02*
X161935000Y-60345000D01*
X161935000Y-60345000D02*
X161935000Y-60995000D01*
X162660000Y-57795000D02*
X161460000Y-57795000D01*
X161460000Y-57795000D02*
X161460000Y-60945000D01*
X158160000Y-68017000D02*
X157385000Y-68017000D01*
X158160000Y-67267000D02*
X158160000Y-68017000D01*
X158435000Y-62992000D02*
X157385000Y-62992000D01*
X158435000Y-65867000D02*
X158435000Y-62992000D01*
X157960000Y-65367000D02*
X157960000Y-65917000D01*
X157385000Y-65367000D02*
X157960000Y-65367000D01*
X158160000Y-67292000D02*
G75*
G03X158758537Y-66312952I-501463J979048D01*
G01*
X158179272Y-67276214D02*
G75*
G02X157660000Y-66342000I580728J934214D01*
G01*
X158760000Y-66342000D02*
X158760000Y-65792000D01*
X157660000Y-65767000D02*
X157660000Y-66342000D01*
X158742989Y-65778793D02*
G75*
G02X157660001Y-65766999I-532989J786793D01*
G01*
X162217989Y-68476793D02*
G75*
G02X161135001Y-68464999I-532989J786793D01*
G01*
X161135000Y-68465000D02*
X161135000Y-69040000D01*
X162235000Y-69040000D02*
X162235000Y-68490000D01*
X161635000Y-69990000D02*
G75*
G03X162233537Y-69010952I-501463J979048D01*
G01*
X162660000Y-65415000D02*
X161460000Y-65415000D01*
X161935000Y-67965000D02*
X161935000Y-68615000D01*
X162660000Y-67965000D02*
X161935000Y-67965000D01*
X161685000Y-70540000D02*
X162635000Y-70540000D01*
X161685000Y-70015000D02*
X161685000Y-70540000D01*
X161460000Y-65415000D02*
X161460000Y-68565000D01*
X161654272Y-69974214D02*
G75*
G02X161135000Y-69040000I580728J934214D01*
G01*
G04 #@! TO.C,U2*
X187231800Y-53915000D02*
X185581800Y-53915000D01*
X187231800Y-71815000D02*
X187231800Y-53915000D01*
X181931800Y-71815000D02*
X187231800Y-71815000D01*
X181931800Y-53915000D02*
X181931800Y-71815000D01*
X183581800Y-53915000D02*
X181931800Y-53915000D01*
X185581800Y-53915000D02*
G75*
G02X183581800Y-53915000I-1000000J0D01*
G01*
X182323740Y-58313320D02*
X183276240Y-58313320D01*
X182321200Y-58326020D02*
X182321200Y-58912760D01*
X183290904Y-58904363D02*
G75*
G02X182321200Y-58928000I-484564J-23637D01*
G01*
X182884289Y-59482037D02*
G75*
G02X182834279Y-59466481I-65249J-121603D01*
G01*
X183296560Y-58920380D02*
X183296560Y-58318400D01*
X183255344Y-66948543D02*
G75*
G02X182285640Y-66972180I-484564J-23637D01*
G01*
X182848729Y-67526217D02*
G75*
G02X182798719Y-67510661I-65249J-121603D01*
G01*
X182288180Y-66357500D02*
X183240680Y-66357500D01*
X183261000Y-66964560D02*
X183261000Y-66362580D01*
X182285640Y-66370200D02*
X182285640Y-66956940D01*
X186933264Y-61711063D02*
G75*
G02X185963560Y-61734700I-484564J-23637D01*
G01*
X186526649Y-62288737D02*
G75*
G02X186476639Y-62273181I-65249J-121603D01*
G01*
X185966100Y-61120020D02*
X186918600Y-61120020D01*
X186938920Y-61727080D02*
X186938920Y-61125100D01*
X185963560Y-61132720D02*
X185963560Y-61719460D01*
X186933264Y-69021183D02*
G75*
G02X185963560Y-69044820I-484564J-23637D01*
G01*
X186526649Y-69598857D02*
G75*
G02X186476639Y-69583301I-65249J-121603D01*
G01*
X185966100Y-68430140D02*
X186918600Y-68430140D01*
X186938920Y-69037200D02*
X186938920Y-68435220D01*
X185963560Y-68442840D02*
X185963560Y-69029580D01*
X181914800Y-55245000D02*
X183057800Y-55245000D01*
X183057800Y-55245000D02*
X183057800Y-58293000D01*
X181914800Y-57785000D02*
X182676800Y-57785000D01*
X182676800Y-57785000D02*
X182676800Y-58293000D01*
X181914800Y-60325000D02*
X182803800Y-60325000D01*
X182803800Y-60325000D02*
X182803800Y-59817000D01*
X183057800Y-66294000D02*
X183057800Y-62865000D01*
X183057800Y-62865000D02*
X181914800Y-62865000D01*
X182549800Y-66294000D02*
X182549800Y-65405000D01*
X182549800Y-65405000D02*
X181914800Y-65405000D01*
X182803800Y-67818000D02*
X182803800Y-68199000D01*
X182803800Y-68199000D02*
X181914800Y-68199000D01*
X186232800Y-61087000D02*
X186232800Y-57785000D01*
X186232800Y-57785000D02*
X187248800Y-57785000D01*
X186613800Y-61087000D02*
X186613800Y-60325000D01*
X186613800Y-60325000D02*
X187248800Y-60325000D01*
X187248800Y-62992000D02*
X186486800Y-62992000D01*
X186486800Y-62992000D02*
X186486800Y-62611000D01*
X186232800Y-68326000D02*
X186232800Y-65532000D01*
X186232800Y-65532000D02*
X187248800Y-65532000D01*
X186613800Y-68326000D02*
X186613800Y-67945000D01*
X186613800Y-67945000D02*
X187248800Y-67945000D01*
X187248800Y-70612000D02*
X186486800Y-70612000D01*
X186486800Y-70612000D02*
X186486800Y-69850000D01*
G04 #@! TO.C,U0*
X122622000Y-98060000D02*
G75*
G02X122622000Y-100060000I0J-1000000D01*
G01*
X122622000Y-100060000D02*
X122622000Y-101710000D01*
X122622000Y-101710000D02*
X148142000Y-101710000D01*
X148142000Y-101710000D02*
X148142000Y-96410000D01*
X148142000Y-96410000D02*
X122622000Y-96410000D01*
X122622000Y-96410000D02*
X122622000Y-98060000D01*
G04 #@! TO.C,U4*
X122495000Y-84345000D02*
X122495000Y-85995000D01*
X148015000Y-84345000D02*
X122495000Y-84345000D01*
X148015000Y-89645000D02*
X148015000Y-84345000D01*
X122495000Y-89645000D02*
X148015000Y-89645000D01*
X122495000Y-87995000D02*
X122495000Y-89645000D01*
X122495000Y-85995000D02*
G75*
G02X122495000Y-87995000I0J-1000000D01*
G01*
G04 #@! TO.C,U8*
D10*
X172034180Y-65361657D02*
X172034180Y-64694990D01*
X173034180Y-65123561D01*
X172367514Y-63885466D02*
X173034180Y-63885466D01*
X171986561Y-64123561D02*
X172700847Y-64361657D01*
X172700847Y-63742609D01*
X173034180Y-62885466D02*
X173034180Y-63361657D01*
X172034180Y-63361657D01*
X172986561Y-62599752D02*
X173034180Y-62456895D01*
X173034180Y-62218800D01*
X172986561Y-62123561D01*
X172938942Y-62075942D01*
X172843704Y-62028323D01*
X172748466Y-62028323D01*
X172653228Y-62075942D01*
X172605609Y-62123561D01*
X172557990Y-62218800D01*
X172510371Y-62409276D01*
X172462752Y-62504514D01*
X172415133Y-62552133D01*
X172319895Y-62599752D01*
X172224657Y-62599752D01*
X172129419Y-62552133D01*
X172081800Y-62504514D01*
X172034180Y-62409276D01*
X172034180Y-62171180D01*
X172081800Y-62028323D01*
X172034180Y-61694990D02*
X172034180Y-61075942D01*
X172415133Y-61409276D01*
X172415133Y-61266419D01*
X172462752Y-61171180D01*
X172510371Y-61123561D01*
X172605609Y-61075942D01*
X172843704Y-61075942D01*
X172938942Y-61123561D01*
X172986561Y-61171180D01*
X173034180Y-61266419D01*
X173034180Y-61552133D01*
X172986561Y-61647371D01*
X172938942Y-61694990D01*
X172129419Y-60694990D02*
X172081800Y-60647371D01*
X172034180Y-60552133D01*
X172034180Y-60314038D01*
X172081800Y-60218800D01*
X172129419Y-60171180D01*
X172224657Y-60123561D01*
X172319895Y-60123561D01*
X172462752Y-60171180D01*
X173034180Y-60742609D01*
X173034180Y-60123561D01*
G04 #@! TO.C,U3*
X159537380Y-65437857D02*
X159537380Y-64771190D01*
X160537380Y-65199761D01*
X159870714Y-63961666D02*
X160537380Y-63961666D01*
X159489761Y-64199761D02*
X160204047Y-64437857D01*
X160204047Y-63818809D01*
X160537380Y-62961666D02*
X160537380Y-63437857D01*
X159537380Y-63437857D01*
X160489761Y-62675952D02*
X160537380Y-62533095D01*
X160537380Y-62295000D01*
X160489761Y-62199761D01*
X160442142Y-62152142D01*
X160346904Y-62104523D01*
X160251666Y-62104523D01*
X160156428Y-62152142D01*
X160108809Y-62199761D01*
X160061190Y-62295000D01*
X160013571Y-62485476D01*
X159965952Y-62580714D01*
X159918333Y-62628333D01*
X159823095Y-62675952D01*
X159727857Y-62675952D01*
X159632619Y-62628333D01*
X159585000Y-62580714D01*
X159537380Y-62485476D01*
X159537380Y-62247380D01*
X159585000Y-62104523D01*
X159537380Y-61771190D02*
X159537380Y-61152142D01*
X159918333Y-61485476D01*
X159918333Y-61342619D01*
X159965952Y-61247380D01*
X160013571Y-61199761D01*
X160108809Y-61152142D01*
X160346904Y-61152142D01*
X160442142Y-61199761D01*
X160489761Y-61247380D01*
X160537380Y-61342619D01*
X160537380Y-61628333D01*
X160489761Y-61723571D01*
X160442142Y-61771190D01*
X159632619Y-60771190D02*
X159585000Y-60723571D01*
X159537380Y-60628333D01*
X159537380Y-60390238D01*
X159585000Y-60295000D01*
X159632619Y-60247380D01*
X159727857Y-60199761D01*
X159823095Y-60199761D01*
X159965952Y-60247380D01*
X160537380Y-60818809D01*
X160537380Y-60199761D01*
G04 #@! TO.C,U2*
X184099180Y-65637857D02*
X184099180Y-64971190D01*
X185099180Y-65399761D01*
X184432514Y-64161666D02*
X185099180Y-64161666D01*
X184051561Y-64399761D02*
X184765847Y-64637857D01*
X184765847Y-64018809D01*
X185099180Y-63161666D02*
X185099180Y-63637857D01*
X184099180Y-63637857D01*
X185051561Y-62875952D02*
X185099180Y-62733095D01*
X185099180Y-62495000D01*
X185051561Y-62399761D01*
X185003942Y-62352142D01*
X184908704Y-62304523D01*
X184813466Y-62304523D01*
X184718228Y-62352142D01*
X184670609Y-62399761D01*
X184622990Y-62495000D01*
X184575371Y-62685476D01*
X184527752Y-62780714D01*
X184480133Y-62828333D01*
X184384895Y-62875952D01*
X184289657Y-62875952D01*
X184194419Y-62828333D01*
X184146800Y-62780714D01*
X184099180Y-62685476D01*
X184099180Y-62447380D01*
X184146800Y-62304523D01*
X184099180Y-61685476D02*
X184099180Y-61590238D01*
X184146800Y-61495000D01*
X184194419Y-61447380D01*
X184289657Y-61399761D01*
X184480133Y-61352142D01*
X184718228Y-61352142D01*
X184908704Y-61399761D01*
X185003942Y-61447380D01*
X185051561Y-61495000D01*
X185099180Y-61590238D01*
X185099180Y-61685476D01*
X185051561Y-61780714D01*
X185003942Y-61828333D01*
X184908704Y-61875952D01*
X184718228Y-61923571D01*
X184480133Y-61923571D01*
X184289657Y-61875952D01*
X184194419Y-61828333D01*
X184146800Y-61780714D01*
X184099180Y-61685476D01*
X184099180Y-60733095D02*
X184099180Y-60637857D01*
X184146800Y-60542619D01*
X184194419Y-60495000D01*
X184289657Y-60447380D01*
X184480133Y-60399761D01*
X184718228Y-60399761D01*
X184908704Y-60447380D01*
X185003942Y-60495000D01*
X185051561Y-60542619D01*
X185099180Y-60637857D01*
X185099180Y-60733095D01*
X185051561Y-60828333D01*
X185003942Y-60875952D01*
X184908704Y-60923571D01*
X184718228Y-60971190D01*
X184480133Y-60971190D01*
X184289657Y-60923571D01*
X184194419Y-60875952D01*
X184146800Y-60828333D01*
X184099180Y-60733095D01*
G04 #@! TD*
M02*
