M48
;DRILL file {KiCad (5.0.2)-1} date 2020-12-13 22:30:29
;FORMAT={-:-/ absolute / inch / decimal}
FMAT,2
INCH,TZ
T1C0.0197
T2C0.0280
T3C0.0315
T4C0.0394
%
G90
G05
T1
X4.555Y-3.365
X4.575Y-2.785
X4.58Y-2.88
X4.595Y-3.04
X4.61Y-3.185
X4.6355Y-3.285
X4.64Y-3.38
X4.67Y-3.175
X4.6717Y-3.3522
X4.705Y-3.63
X4.715Y-3.33
X4.755Y-3.605
X4.9Y-3.805
X4.93Y-3.475
X4.93Y-3.57
X4.96Y-3.035
X5.025Y-2.905
X5.025Y-3.535
X5.05Y-3.76
X5.085Y-2.7545
X5.1Y-3.0095
X5.1Y-3.195
X5.14Y-3.57
X5.185Y-2.72
X5.195Y-3.
X5.225Y-3.4695
X5.235Y-2.89
X5.345Y-2.93
X5.405Y-2.656
X5.405Y-3.77
X5.4255Y-3.5605
X5.44Y-2.605
X5.4835Y-2.9855
X5.515Y-3.76
X5.565Y-2.63
X5.59Y-2.445
X5.605Y-3.785
X5.63Y-2.72
X5.72Y-3.77
X5.785Y-2.96
X5.785Y-3.741
X5.93Y-3.15
X5.93Y-3.505
X5.995Y-3.215
X6.005Y-3.86
X6.035Y-3.395
X6.05Y-3.835
X6.11Y-2.925
X6.17Y-3.815
X6.205Y-3.575
X6.27Y-3.79
X6.305Y-3.025
X6.35Y-3.615
X6.36Y-3.75
X6.475Y-4.1295
X6.56Y-4.155
X6.565Y-4.365
X6.655Y-4.17
X6.76Y-4.2
X6.86Y-4.205
X6.905Y-4.33
X6.95Y-4.2
X6.955Y-4.305
X6.96Y-3.905
X7.01Y-4.31
X7.103Y-4.365
X7.105Y-4.26
X7.203Y-4.365
X7.365Y-2.855
T2
X7.2Y-3.9
T3
X6.5266Y-2.475
X6.625Y-2.475
X4.775Y-3.725
X4.775Y-3.8234
X4.775Y-2.625
X4.775Y-2.7234
X7.Y-2.6
X7.Y-2.7
X7.Y-2.8
X7.Y-2.9
X7.Y-3.
X7.Y-3.1
X7.Y-3.2
X7.3Y-2.6
X7.3Y-2.7
X7.3Y-2.8
X7.3Y-2.9
X7.3Y-3.
X7.3Y-3.1
X7.3Y-3.2
X7.1016Y-2.475
X7.2Y-2.475
X4.9Y-2.525
X4.9Y-2.825
X5.Y-2.525
X5.Y-2.825
X5.1Y-2.525
X5.1Y-2.825
X5.2Y-2.525
X5.2Y-2.825
X5.3Y-2.525
X5.3Y-2.825
X5.4Y-2.525
X5.4Y-2.825
X5.5Y-2.525
X5.5Y-2.825
X5.6Y-2.525
X5.6Y-2.825
X5.7Y-2.525
X5.7Y-2.825
X5.8Y-2.525
X5.8Y-2.825
X4.9Y-3.625
X4.9Y-3.925
X5.Y-3.625
X5.Y-3.925
X5.1Y-3.625
X5.1Y-3.925
X5.2Y-3.625
X5.2Y-3.925
X5.3Y-3.625
X5.3Y-3.925
X5.4Y-3.625
X5.4Y-3.925
X5.5Y-3.625
X5.5Y-3.925
X5.6Y-3.625
X5.6Y-3.925
X5.7Y-3.625
X5.7Y-3.925
X5.8Y-3.625
X5.8Y-3.925
X4.775Y-3.2
X4.775Y-3.2984
X6.Y-3.45
X6.Y-4.05
X6.1Y-3.45
X6.1Y-4.05
X6.2Y-3.45
X6.2Y-4.05
X6.3Y-3.45
X6.3Y-4.05
X6.4Y-3.45
X6.4Y-4.05
X6.5Y-3.45
X6.5Y-4.05
X6.6Y-3.45
X6.6Y-4.05
X6.7Y-3.45
X6.7Y-4.05
X6.8Y-3.45
X6.8Y-4.05
X6.9Y-3.45
X6.9Y-4.05
X7.Y-3.45
X7.Y-4.05
X7.1Y-3.45
X7.1Y-4.05
X7.2Y-3.45
X7.2Y-4.05
X7.3Y-3.45
X7.3Y-4.05
X4.9Y-3.1
X4.9Y-3.4
X5.Y-3.1
X5.Y-3.4
X5.1Y-3.1
X5.1Y-3.4
X5.2Y-3.1
X5.2Y-3.4
X5.3Y-3.1
X5.3Y-3.4
X5.4Y-3.1
X5.4Y-3.4
X5.5Y-3.1
X5.5Y-3.4
X5.6Y-3.1
X5.6Y-3.4
X5.7Y-3.1
X5.7Y-3.4
X5.8Y-3.1
X5.8Y-3.4
X6.425Y-2.6
X6.425Y-2.7
X6.425Y-2.8
X6.425Y-2.9
X6.425Y-3.
X6.425Y-3.1
X6.425Y-3.2
X6.725Y-2.6
X6.725Y-2.7
X6.725Y-2.8
X6.725Y-2.9
X6.725Y-3.
X6.725Y-3.1
X6.725Y-3.2
X7.425Y-3.7
X7.425Y-3.7984
T4
X4.35Y-2.375
X4.35Y-2.475
X4.35Y-2.575
X4.35Y-2.675
X4.35Y-2.775
X4.35Y-2.875
X4.35Y-2.975
X4.35Y-3.075
X4.35Y-3.175
X4.35Y-3.275
X4.35Y-3.375
X4.35Y-3.475
X4.35Y-3.575
X4.35Y-3.675
X4.35Y-3.775
X4.35Y-3.875
X4.35Y-3.975
X4.35Y-4.075
X4.35Y-4.175
X4.35Y-4.275
X4.45Y-2.375
X4.45Y-2.475
X4.45Y-2.575
X4.45Y-2.675
X4.45Y-2.775
X4.45Y-2.875
X4.45Y-2.975
X4.45Y-3.075
X4.45Y-3.175
X4.45Y-3.275
X4.45Y-3.375
X4.45Y-3.475
X4.45Y-3.575
X4.45Y-3.675
X4.45Y-3.775
X4.45Y-3.875
X4.45Y-3.975
X4.45Y-4.075
X4.45Y-4.175
X4.45Y-4.275
T0
M30
