G04 #@! TF.GenerationSoftware,KiCad,Pcbnew,(5.0.2)-1*
G04 #@! TF.CreationDate,2020-12-29T22:22:50-05:00*
G04 #@! TF.ProjectId,Apple2IORPi,4170706c-6532-4494-9f52-50692e6b6963,0.3*
G04 #@! TF.SameCoordinates,Original*
G04 #@! TF.FileFunction,Legend,Top*
G04 #@! TF.FilePolarity,Positive*
%FSLAX46Y46*%
G04 Gerber Fmt 4.6, Leading zero omitted, Abs format (unit mm)*
G04 Created by KiCad (PCBNEW (5.0.2)-1) date 2020-12-29 22:22:50*
%MOMM*%
%LPD*%
G01*
G04 APERTURE LIST*
%ADD10C,0.150000*%
%ADD11C,0.120000*%
G04 APERTURE END LIST*
D10*
X124913809Y-60222380D02*
X125580476Y-60222380D01*
X125151904Y-61222380D01*
X126389999Y-60555714D02*
X126389999Y-61222380D01*
X126151904Y-60174761D02*
X125913809Y-60889047D01*
X126532857Y-60889047D01*
X127389999Y-61222380D02*
X126913809Y-61222380D01*
X126913809Y-60222380D01*
X127580476Y-60222380D02*
X127913809Y-61222380D01*
X128247142Y-60222380D01*
X129151904Y-61127142D02*
X129104285Y-61174761D01*
X128961428Y-61222380D01*
X128866190Y-61222380D01*
X128723333Y-61174761D01*
X128628095Y-61079523D01*
X128580476Y-60984285D01*
X128532857Y-60793809D01*
X128532857Y-60650952D01*
X128580476Y-60460476D01*
X128628095Y-60365238D01*
X128723333Y-60270000D01*
X128866190Y-60222380D01*
X128961428Y-60222380D01*
X129104285Y-60270000D01*
X129151904Y-60317619D01*
X129532857Y-60317619D02*
X129580476Y-60270000D01*
X129675714Y-60222380D01*
X129913809Y-60222380D01*
X130009047Y-60270000D01*
X130056666Y-60317619D01*
X130104285Y-60412857D01*
X130104285Y-60508095D01*
X130056666Y-60650952D01*
X129485238Y-61222380D01*
X130104285Y-61222380D01*
X130961428Y-60555714D02*
X130961428Y-61222380D01*
X130723333Y-60174761D02*
X130485238Y-60889047D01*
X131104285Y-60889047D01*
X131961428Y-60222380D02*
X131485238Y-60222380D01*
X131437619Y-60698571D01*
X131485238Y-60650952D01*
X131580476Y-60603333D01*
X131818571Y-60603333D01*
X131913809Y-60650952D01*
X131961428Y-60698571D01*
X132009047Y-60793809D01*
X132009047Y-61031904D01*
X131961428Y-61127142D01*
X131913809Y-61174761D01*
X131818571Y-61222380D01*
X131580476Y-61222380D01*
X131485238Y-61174761D01*
X131437619Y-61127142D01*
X133199523Y-61222380D02*
X133199523Y-60222380D01*
X133675714Y-60555714D02*
X133675714Y-61222380D01*
X133675714Y-60650952D02*
X133723333Y-60603333D01*
X133818571Y-60555714D01*
X133961428Y-60555714D01*
X134056666Y-60603333D01*
X134104285Y-60698571D01*
X134104285Y-61222380D01*
X134580476Y-60555714D02*
X134580476Y-61555714D01*
X134580476Y-60603333D02*
X134675714Y-60555714D01*
X134866190Y-60555714D01*
X134961428Y-60603333D01*
X135009047Y-60650952D01*
X135056666Y-60746190D01*
X135056666Y-61031904D01*
X135009047Y-61127142D01*
X134961428Y-61174761D01*
X134866190Y-61222380D01*
X134675714Y-61222380D01*
X134580476Y-61174761D01*
X135913809Y-60555714D02*
X135913809Y-61222380D01*
X135485238Y-60555714D02*
X135485238Y-61079523D01*
X135532857Y-61174761D01*
X135628095Y-61222380D01*
X135770952Y-61222380D01*
X135866190Y-61174761D01*
X135913809Y-61127142D01*
X136247142Y-60555714D02*
X136628095Y-60555714D01*
X136390000Y-60222380D02*
X136390000Y-61079523D01*
X136437619Y-61174761D01*
X136532857Y-61222380D01*
X136628095Y-61222380D01*
X138199523Y-61222380D02*
X137723333Y-61222380D01*
X137723333Y-60222380D01*
X138913809Y-61174761D02*
X138818571Y-61222380D01*
X138628095Y-61222380D01*
X138532857Y-61174761D01*
X138485238Y-61079523D01*
X138485238Y-60698571D01*
X138532857Y-60603333D01*
X138628095Y-60555714D01*
X138818571Y-60555714D01*
X138913809Y-60603333D01*
X138961428Y-60698571D01*
X138961428Y-60793809D01*
X138485238Y-60889047D01*
X139294761Y-60555714D02*
X139532857Y-61222380D01*
X139770952Y-60555714D01*
X140532857Y-61174761D02*
X140437619Y-61222380D01*
X140247142Y-61222380D01*
X140151904Y-61174761D01*
X140104285Y-61079523D01*
X140104285Y-60698571D01*
X140151904Y-60603333D01*
X140247142Y-60555714D01*
X140437619Y-60555714D01*
X140532857Y-60603333D01*
X140580476Y-60698571D01*
X140580476Y-60793809D01*
X140104285Y-60889047D01*
X141151904Y-61222380D02*
X141056666Y-61174761D01*
X141009047Y-61079523D01*
X141009047Y-60222380D01*
X142247142Y-61174761D02*
X142390000Y-61222380D01*
X142628095Y-61222380D01*
X142723333Y-61174761D01*
X142770952Y-61127142D01*
X142818571Y-61031904D01*
X142818571Y-60936666D01*
X142770952Y-60841428D01*
X142723333Y-60793809D01*
X142628095Y-60746190D01*
X142437619Y-60698571D01*
X142342380Y-60650952D01*
X142294761Y-60603333D01*
X142247142Y-60508095D01*
X142247142Y-60412857D01*
X142294761Y-60317619D01*
X142342380Y-60270000D01*
X142437619Y-60222380D01*
X142675714Y-60222380D01*
X142818571Y-60270000D01*
X143247142Y-61222380D02*
X143247142Y-60222380D01*
X143675714Y-61222380D02*
X143675714Y-60698571D01*
X143628095Y-60603333D01*
X143532857Y-60555714D01*
X143390000Y-60555714D01*
X143294761Y-60603333D01*
X143247142Y-60650952D01*
X144151904Y-61222380D02*
X144151904Y-60555714D01*
X144151904Y-60222380D02*
X144104285Y-60270000D01*
X144151904Y-60317619D01*
X144199523Y-60270000D01*
X144151904Y-60222380D01*
X144151904Y-60317619D01*
X144485238Y-60555714D02*
X144866190Y-60555714D01*
X144628095Y-61222380D02*
X144628095Y-60365238D01*
X144675714Y-60270000D01*
X144770952Y-60222380D01*
X144866190Y-60222380D01*
X145056666Y-60555714D02*
X145437619Y-60555714D01*
X145199523Y-60222380D02*
X145199523Y-61079523D01*
X145247142Y-61174761D01*
X145342380Y-61222380D01*
X145437619Y-61222380D01*
X146151904Y-61174761D02*
X146056666Y-61222380D01*
X145866190Y-61222380D01*
X145770952Y-61174761D01*
X145723333Y-61079523D01*
X145723333Y-60698571D01*
X145770952Y-60603333D01*
X145866190Y-60555714D01*
X146056666Y-60555714D01*
X146151904Y-60603333D01*
X146199523Y-60698571D01*
X146199523Y-60793809D01*
X145723333Y-60889047D01*
X146628095Y-61222380D02*
X146628095Y-60555714D01*
X146628095Y-60746190D02*
X146675714Y-60650952D01*
X146723333Y-60603333D01*
X146818571Y-60555714D01*
X146913809Y-60555714D01*
X131270952Y-63253333D02*
X131223333Y-63205714D01*
X131128095Y-63062857D01*
X131080476Y-62967619D01*
X131032857Y-62824761D01*
X130985238Y-62586666D01*
X130985238Y-62396190D01*
X131032857Y-62158095D01*
X131080476Y-62015238D01*
X131128095Y-61920000D01*
X131223333Y-61777142D01*
X131270952Y-61729523D01*
X132223333Y-62777142D02*
X132175714Y-62824761D01*
X132032857Y-62872380D01*
X131937619Y-62872380D01*
X131794761Y-62824761D01*
X131699523Y-62729523D01*
X131651904Y-62634285D01*
X131604285Y-62443809D01*
X131604285Y-62300952D01*
X131651904Y-62110476D01*
X131699523Y-62015238D01*
X131794761Y-61920000D01*
X131937619Y-61872380D01*
X132032857Y-61872380D01*
X132175714Y-61920000D01*
X132223333Y-61967619D01*
X132794761Y-62872380D02*
X132699523Y-62824761D01*
X132651904Y-62777142D01*
X132604285Y-62681904D01*
X132604285Y-62396190D01*
X132651904Y-62300952D01*
X132699523Y-62253333D01*
X132794761Y-62205714D01*
X132937619Y-62205714D01*
X133032857Y-62253333D01*
X133080476Y-62300952D01*
X133128095Y-62396190D01*
X133128095Y-62681904D01*
X133080476Y-62777142D01*
X133032857Y-62824761D01*
X132937619Y-62872380D01*
X132794761Y-62872380D01*
X133556666Y-62205714D02*
X133556666Y-62872380D01*
X133556666Y-62300952D02*
X133604285Y-62253333D01*
X133699523Y-62205714D01*
X133842380Y-62205714D01*
X133937619Y-62253333D01*
X133985238Y-62348571D01*
X133985238Y-62872380D01*
X134318571Y-62205714D02*
X134699523Y-62205714D01*
X134461428Y-61872380D02*
X134461428Y-62729523D01*
X134509047Y-62824761D01*
X134604285Y-62872380D01*
X134699523Y-62872380D01*
X135032857Y-62872380D02*
X135032857Y-62205714D01*
X135032857Y-62396190D02*
X135080476Y-62300952D01*
X135128095Y-62253333D01*
X135223333Y-62205714D01*
X135318571Y-62205714D01*
X135794761Y-62872380D02*
X135699523Y-62824761D01*
X135651904Y-62777142D01*
X135604285Y-62681904D01*
X135604285Y-62396190D01*
X135651904Y-62300952D01*
X135699523Y-62253333D01*
X135794761Y-62205714D01*
X135937619Y-62205714D01*
X136032857Y-62253333D01*
X136080476Y-62300952D01*
X136128095Y-62396190D01*
X136128095Y-62681904D01*
X136080476Y-62777142D01*
X136032857Y-62824761D01*
X135937619Y-62872380D01*
X135794761Y-62872380D01*
X136699523Y-62872380D02*
X136604285Y-62824761D01*
X136556666Y-62729523D01*
X136556666Y-61872380D01*
X137842380Y-62872380D02*
X137842380Y-61872380D01*
X137842380Y-62253333D02*
X137937619Y-62205714D01*
X138128095Y-62205714D01*
X138223333Y-62253333D01*
X138270952Y-62300952D01*
X138318571Y-62396190D01*
X138318571Y-62681904D01*
X138270952Y-62777142D01*
X138223333Y-62824761D01*
X138128095Y-62872380D01*
X137937619Y-62872380D01*
X137842380Y-62824761D01*
X138747142Y-62872380D02*
X138747142Y-62205714D01*
X138747142Y-61872380D02*
X138699523Y-61920000D01*
X138747142Y-61967619D01*
X138794761Y-61920000D01*
X138747142Y-61872380D01*
X138747142Y-61967619D01*
X139080476Y-62205714D02*
X139461428Y-62205714D01*
X139223333Y-61872380D02*
X139223333Y-62729523D01*
X139270952Y-62824761D01*
X139366190Y-62872380D01*
X139461428Y-62872380D01*
X139747142Y-62824761D02*
X139842380Y-62872380D01*
X140032857Y-62872380D01*
X140128095Y-62824761D01*
X140175714Y-62729523D01*
X140175714Y-62681904D01*
X140128095Y-62586666D01*
X140032857Y-62539047D01*
X139890000Y-62539047D01*
X139794761Y-62491428D01*
X139747142Y-62396190D01*
X139747142Y-62348571D01*
X139794761Y-62253333D01*
X139890000Y-62205714D01*
X140032857Y-62205714D01*
X140128095Y-62253333D01*
X140509047Y-63253333D02*
X140556666Y-63205714D01*
X140651904Y-63062857D01*
X140699523Y-62967619D01*
X140747142Y-62824761D01*
X140794761Y-62586666D01*
X140794761Y-62396190D01*
X140747142Y-62158095D01*
X140699523Y-62015238D01*
X140651904Y-61920000D01*
X140556666Y-61777142D01*
X140509047Y-61729523D01*
X123961428Y-47522380D02*
X124628095Y-47522380D01*
X124199523Y-48522380D01*
X125437619Y-47855714D02*
X125437619Y-48522380D01*
X125199523Y-47474761D02*
X124961428Y-48189047D01*
X125580476Y-48189047D01*
X126437619Y-48522380D02*
X125961428Y-48522380D01*
X125961428Y-47522380D01*
X126628095Y-47522380D02*
X126961428Y-48522380D01*
X127294761Y-47522380D01*
X128199523Y-48427142D02*
X128151904Y-48474761D01*
X128009047Y-48522380D01*
X127913809Y-48522380D01*
X127770952Y-48474761D01*
X127675714Y-48379523D01*
X127628095Y-48284285D01*
X127580476Y-48093809D01*
X127580476Y-47950952D01*
X127628095Y-47760476D01*
X127675714Y-47665238D01*
X127770952Y-47570000D01*
X127913809Y-47522380D01*
X128009047Y-47522380D01*
X128151904Y-47570000D01*
X128199523Y-47617619D01*
X128532857Y-47522380D02*
X129151904Y-47522380D01*
X128818571Y-47903333D01*
X128961428Y-47903333D01*
X129056666Y-47950952D01*
X129104285Y-47998571D01*
X129151904Y-48093809D01*
X129151904Y-48331904D01*
X129104285Y-48427142D01*
X129056666Y-48474761D01*
X128961428Y-48522380D01*
X128675714Y-48522380D01*
X128580476Y-48474761D01*
X128532857Y-48427142D01*
X129485238Y-47522380D02*
X130151904Y-47522380D01*
X129723333Y-48522380D01*
X130961428Y-47855714D02*
X130961428Y-48522380D01*
X130723333Y-47474761D02*
X130485238Y-48189047D01*
X131104285Y-48189047D01*
X132437619Y-47522380D02*
X132628095Y-47522380D01*
X132723333Y-47570000D01*
X132818571Y-47665238D01*
X132866190Y-47855714D01*
X132866190Y-48189047D01*
X132818571Y-48379523D01*
X132723333Y-48474761D01*
X132628095Y-48522380D01*
X132437619Y-48522380D01*
X132342380Y-48474761D01*
X132247142Y-48379523D01*
X132199523Y-48189047D01*
X132199523Y-47855714D01*
X132247142Y-47665238D01*
X132342380Y-47570000D01*
X132437619Y-47522380D01*
X133723333Y-47855714D02*
X133723333Y-48522380D01*
X133294761Y-47855714D02*
X133294761Y-48379523D01*
X133342380Y-48474761D01*
X133437619Y-48522380D01*
X133580476Y-48522380D01*
X133675714Y-48474761D01*
X133723333Y-48427142D01*
X134056666Y-47855714D02*
X134437619Y-47855714D01*
X134199523Y-47522380D02*
X134199523Y-48379523D01*
X134247142Y-48474761D01*
X134342380Y-48522380D01*
X134437619Y-48522380D01*
X134770952Y-47855714D02*
X134770952Y-48855714D01*
X134770952Y-47903333D02*
X134866190Y-47855714D01*
X135056666Y-47855714D01*
X135151904Y-47903333D01*
X135199523Y-47950952D01*
X135247142Y-48046190D01*
X135247142Y-48331904D01*
X135199523Y-48427142D01*
X135151904Y-48474761D01*
X135056666Y-48522380D01*
X134866190Y-48522380D01*
X134770952Y-48474761D01*
X136104285Y-47855714D02*
X136104285Y-48522380D01*
X135675714Y-47855714D02*
X135675714Y-48379523D01*
X135723333Y-48474761D01*
X135818571Y-48522380D01*
X135961428Y-48522380D01*
X136056666Y-48474761D01*
X136104285Y-48427142D01*
X136437619Y-47855714D02*
X136818571Y-47855714D01*
X136580476Y-47522380D02*
X136580476Y-48379523D01*
X136628095Y-48474761D01*
X136723333Y-48522380D01*
X136818571Y-48522380D01*
X138390000Y-48522380D02*
X137913809Y-48522380D01*
X137913809Y-47522380D01*
X139104285Y-48474761D02*
X139009047Y-48522380D01*
X138818571Y-48522380D01*
X138723333Y-48474761D01*
X138675714Y-48379523D01*
X138675714Y-47998571D01*
X138723333Y-47903333D01*
X138818571Y-47855714D01*
X139009047Y-47855714D01*
X139104285Y-47903333D01*
X139151904Y-47998571D01*
X139151904Y-48093809D01*
X138675714Y-48189047D01*
X139485238Y-47855714D02*
X139723333Y-48522380D01*
X139961428Y-47855714D01*
X140723333Y-48474761D02*
X140628095Y-48522380D01*
X140437619Y-48522380D01*
X140342380Y-48474761D01*
X140294761Y-48379523D01*
X140294761Y-47998571D01*
X140342380Y-47903333D01*
X140437619Y-47855714D01*
X140628095Y-47855714D01*
X140723333Y-47903333D01*
X140770952Y-47998571D01*
X140770952Y-48093809D01*
X140294761Y-48189047D01*
X141342380Y-48522380D02*
X141247142Y-48474761D01*
X141199523Y-48379523D01*
X141199523Y-47522380D01*
X142437619Y-48474761D02*
X142580476Y-48522380D01*
X142818571Y-48522380D01*
X142913809Y-48474761D01*
X142961428Y-48427142D01*
X143009047Y-48331904D01*
X143009047Y-48236666D01*
X142961428Y-48141428D01*
X142913809Y-48093809D01*
X142818571Y-48046190D01*
X142628095Y-47998571D01*
X142532857Y-47950952D01*
X142485238Y-47903333D01*
X142437619Y-47808095D01*
X142437619Y-47712857D01*
X142485238Y-47617619D01*
X142532857Y-47570000D01*
X142628095Y-47522380D01*
X142866190Y-47522380D01*
X143009047Y-47570000D01*
X143437619Y-48522380D02*
X143437619Y-47522380D01*
X143866190Y-48522380D02*
X143866190Y-47998571D01*
X143818571Y-47903333D01*
X143723333Y-47855714D01*
X143580476Y-47855714D01*
X143485238Y-47903333D01*
X143437619Y-47950952D01*
X144342380Y-48522380D02*
X144342380Y-47855714D01*
X144342380Y-47522380D02*
X144294761Y-47570000D01*
X144342380Y-47617619D01*
X144389999Y-47570000D01*
X144342380Y-47522380D01*
X144342380Y-47617619D01*
X144675714Y-47855714D02*
X145056666Y-47855714D01*
X144818571Y-48522380D02*
X144818571Y-47665238D01*
X144866190Y-47570000D01*
X144961428Y-47522380D01*
X145056666Y-47522380D01*
X145247142Y-47855714D02*
X145628095Y-47855714D01*
X145389999Y-47522380D02*
X145389999Y-48379523D01*
X145437619Y-48474761D01*
X145532857Y-48522380D01*
X145628095Y-48522380D01*
X146342380Y-48474761D02*
X146247142Y-48522380D01*
X146056666Y-48522380D01*
X145961428Y-48474761D01*
X145913809Y-48379523D01*
X145913809Y-47998571D01*
X145961428Y-47903333D01*
X146056666Y-47855714D01*
X146247142Y-47855714D01*
X146342380Y-47903333D01*
X146389999Y-47998571D01*
X146389999Y-48093809D01*
X145913809Y-48189047D01*
X146818571Y-48522380D02*
X146818571Y-47855714D01*
X146818571Y-48046190D02*
X146866190Y-47950952D01*
X146913809Y-47903333D01*
X147009047Y-47855714D01*
X147104285Y-47855714D01*
X127318571Y-49791428D02*
X128080476Y-49791428D01*
X127699523Y-50172380D02*
X127699523Y-49410476D01*
X129318571Y-49648571D02*
X129651904Y-49648571D01*
X129794761Y-50172380D02*
X129318571Y-50172380D01*
X129318571Y-49172380D01*
X129794761Y-49172380D01*
X130223333Y-50172380D02*
X130223333Y-49172380D01*
X130604285Y-49172380D01*
X130699523Y-49220000D01*
X130747142Y-49267619D01*
X130794761Y-49362857D01*
X130794761Y-49505714D01*
X130747142Y-49600952D01*
X130699523Y-49648571D01*
X130604285Y-49696190D01*
X130223333Y-49696190D01*
X131794761Y-50172380D02*
X131461428Y-49696190D01*
X131223333Y-50172380D02*
X131223333Y-49172380D01*
X131604285Y-49172380D01*
X131699523Y-49220000D01*
X131747142Y-49267619D01*
X131794761Y-49362857D01*
X131794761Y-49505714D01*
X131747142Y-49600952D01*
X131699523Y-49648571D01*
X131604285Y-49696190D01*
X131223333Y-49696190D01*
X132413809Y-49172380D02*
X132604285Y-49172380D01*
X132699523Y-49220000D01*
X132794761Y-49315238D01*
X132842380Y-49505714D01*
X132842380Y-49839047D01*
X132794761Y-50029523D01*
X132699523Y-50124761D01*
X132604285Y-50172380D01*
X132413809Y-50172380D01*
X132318571Y-50124761D01*
X132223333Y-50029523D01*
X132175714Y-49839047D01*
X132175714Y-49505714D01*
X132223333Y-49315238D01*
X132318571Y-49220000D01*
X132413809Y-49172380D01*
X133270952Y-50172380D02*
X133270952Y-49172380D01*
X133604285Y-49886666D01*
X133937619Y-49172380D01*
X133937619Y-50172380D01*
X135175714Y-50172380D02*
X135175714Y-49172380D01*
X135604285Y-50172380D02*
X135604285Y-49648571D01*
X135556666Y-49553333D01*
X135461428Y-49505714D01*
X135318571Y-49505714D01*
X135223333Y-49553333D01*
X135175714Y-49600952D01*
X136080476Y-50172380D02*
X136080476Y-49505714D01*
X136080476Y-49172380D02*
X136032857Y-49220000D01*
X136080476Y-49267619D01*
X136128095Y-49220000D01*
X136080476Y-49172380D01*
X136080476Y-49267619D01*
X136985238Y-49505714D02*
X136985238Y-50315238D01*
X136937619Y-50410476D01*
X136890000Y-50458095D01*
X136794761Y-50505714D01*
X136651904Y-50505714D01*
X136556666Y-50458095D01*
X136985238Y-50124761D02*
X136890000Y-50172380D01*
X136699523Y-50172380D01*
X136604285Y-50124761D01*
X136556666Y-50077142D01*
X136509047Y-49981904D01*
X136509047Y-49696190D01*
X136556666Y-49600952D01*
X136604285Y-49553333D01*
X136699523Y-49505714D01*
X136890000Y-49505714D01*
X136985238Y-49553333D01*
X137461428Y-50172380D02*
X137461428Y-49172380D01*
X137890000Y-50172380D02*
X137890000Y-49648571D01*
X137842380Y-49553333D01*
X137747142Y-49505714D01*
X137604285Y-49505714D01*
X137509047Y-49553333D01*
X137461428Y-49600952D01*
X139556666Y-50172380D02*
X139556666Y-49648571D01*
X139509047Y-49553333D01*
X139413809Y-49505714D01*
X139223333Y-49505714D01*
X139128095Y-49553333D01*
X139556666Y-50124761D02*
X139461428Y-50172380D01*
X139223333Y-50172380D01*
X139128095Y-50124761D01*
X139080476Y-50029523D01*
X139080476Y-49934285D01*
X139128095Y-49839047D01*
X139223333Y-49791428D01*
X139461428Y-49791428D01*
X139556666Y-49743809D01*
X140461428Y-50172380D02*
X140461428Y-49172380D01*
X140461428Y-50124761D02*
X140366190Y-50172380D01*
X140175714Y-50172380D01*
X140080476Y-50124761D01*
X140032857Y-50077142D01*
X139985238Y-49981904D01*
X139985238Y-49696190D01*
X140032857Y-49600952D01*
X140080476Y-49553333D01*
X140175714Y-49505714D01*
X140366190Y-49505714D01*
X140461428Y-49553333D01*
X141366190Y-50172380D02*
X141366190Y-49172380D01*
X141366190Y-50124761D02*
X141270952Y-50172380D01*
X141080476Y-50172380D01*
X140985238Y-50124761D01*
X140937619Y-50077142D01*
X140890000Y-49981904D01*
X140890000Y-49696190D01*
X140937619Y-49600952D01*
X140985238Y-49553333D01*
X141080476Y-49505714D01*
X141270952Y-49505714D01*
X141366190Y-49553333D01*
X141842380Y-50172380D02*
X141842380Y-49505714D01*
X141842380Y-49696190D02*
X141890000Y-49600952D01*
X141937619Y-49553333D01*
X142032857Y-49505714D01*
X142128095Y-49505714D01*
X142842380Y-50124761D02*
X142747142Y-50172380D01*
X142556666Y-50172380D01*
X142461428Y-50124761D01*
X142413809Y-50029523D01*
X142413809Y-49648571D01*
X142461428Y-49553333D01*
X142556666Y-49505714D01*
X142747142Y-49505714D01*
X142842380Y-49553333D01*
X142890000Y-49648571D01*
X142890000Y-49743809D01*
X142413809Y-49839047D01*
X143270952Y-50124761D02*
X143366190Y-50172380D01*
X143556666Y-50172380D01*
X143651904Y-50124761D01*
X143699523Y-50029523D01*
X143699523Y-49981904D01*
X143651904Y-49886666D01*
X143556666Y-49839047D01*
X143413809Y-49839047D01*
X143318571Y-49791428D01*
X143270952Y-49696190D01*
X143270952Y-49648571D01*
X143318571Y-49553333D01*
X143413809Y-49505714D01*
X143556666Y-49505714D01*
X143651904Y-49553333D01*
X144080476Y-50124761D02*
X144175714Y-50172380D01*
X144366190Y-50172380D01*
X144461428Y-50124761D01*
X144509047Y-50029523D01*
X144509047Y-49981904D01*
X144461428Y-49886666D01*
X144366190Y-49839047D01*
X144223333Y-49839047D01*
X144128095Y-49791428D01*
X144080476Y-49696190D01*
X144080476Y-49648571D01*
X144128095Y-49553333D01*
X144223333Y-49505714D01*
X144366190Y-49505714D01*
X144461428Y-49553333D01*
X123707380Y-72922380D02*
X124374047Y-72922380D01*
X123945476Y-73922380D01*
X125183571Y-73255714D02*
X125183571Y-73922380D01*
X124945476Y-72874761D02*
X124707380Y-73589047D01*
X125326428Y-73589047D01*
X126183571Y-73922380D02*
X125707380Y-73922380D01*
X125707380Y-72922380D01*
X126374047Y-72922380D02*
X126707380Y-73922380D01*
X127040714Y-72922380D01*
X127945476Y-73827142D02*
X127897857Y-73874761D01*
X127755000Y-73922380D01*
X127659761Y-73922380D01*
X127516904Y-73874761D01*
X127421666Y-73779523D01*
X127374047Y-73684285D01*
X127326428Y-73493809D01*
X127326428Y-73350952D01*
X127374047Y-73160476D01*
X127421666Y-73065238D01*
X127516904Y-72970000D01*
X127659761Y-72922380D01*
X127755000Y-72922380D01*
X127897857Y-72970000D01*
X127945476Y-73017619D01*
X128278809Y-72922380D02*
X128897857Y-72922380D01*
X128564523Y-73303333D01*
X128707380Y-73303333D01*
X128802619Y-73350952D01*
X128850238Y-73398571D01*
X128897857Y-73493809D01*
X128897857Y-73731904D01*
X128850238Y-73827142D01*
X128802619Y-73874761D01*
X128707380Y-73922380D01*
X128421666Y-73922380D01*
X128326428Y-73874761D01*
X128278809Y-73827142D01*
X129231190Y-72922380D02*
X129897857Y-72922380D01*
X129469285Y-73922380D01*
X130707380Y-73255714D02*
X130707380Y-73922380D01*
X130469285Y-72874761D02*
X130231190Y-73589047D01*
X130850238Y-73589047D01*
X132183571Y-72922380D02*
X132374047Y-72922380D01*
X132469285Y-72970000D01*
X132564523Y-73065238D01*
X132612142Y-73255714D01*
X132612142Y-73589047D01*
X132564523Y-73779523D01*
X132469285Y-73874761D01*
X132374047Y-73922380D01*
X132183571Y-73922380D01*
X132088333Y-73874761D01*
X131993095Y-73779523D01*
X131945476Y-73589047D01*
X131945476Y-73255714D01*
X131993095Y-73065238D01*
X132088333Y-72970000D01*
X132183571Y-72922380D01*
X133469285Y-73255714D02*
X133469285Y-73922380D01*
X133040714Y-73255714D02*
X133040714Y-73779523D01*
X133088333Y-73874761D01*
X133183571Y-73922380D01*
X133326428Y-73922380D01*
X133421666Y-73874761D01*
X133469285Y-73827142D01*
X133802619Y-73255714D02*
X134183571Y-73255714D01*
X133945476Y-72922380D02*
X133945476Y-73779523D01*
X133993095Y-73874761D01*
X134088333Y-73922380D01*
X134183571Y-73922380D01*
X134516904Y-73255714D02*
X134516904Y-74255714D01*
X134516904Y-73303333D02*
X134612142Y-73255714D01*
X134802619Y-73255714D01*
X134897857Y-73303333D01*
X134945476Y-73350952D01*
X134993095Y-73446190D01*
X134993095Y-73731904D01*
X134945476Y-73827142D01*
X134897857Y-73874761D01*
X134802619Y-73922380D01*
X134612142Y-73922380D01*
X134516904Y-73874761D01*
X135850238Y-73255714D02*
X135850238Y-73922380D01*
X135421666Y-73255714D02*
X135421666Y-73779523D01*
X135469285Y-73874761D01*
X135564523Y-73922380D01*
X135707380Y-73922380D01*
X135802619Y-73874761D01*
X135850238Y-73827142D01*
X136183571Y-73255714D02*
X136564523Y-73255714D01*
X136326428Y-72922380D02*
X136326428Y-73779523D01*
X136374047Y-73874761D01*
X136469285Y-73922380D01*
X136564523Y-73922380D01*
X138135952Y-73922380D02*
X137659761Y-73922380D01*
X137659761Y-72922380D01*
X138850238Y-73874761D02*
X138755000Y-73922380D01*
X138564523Y-73922380D01*
X138469285Y-73874761D01*
X138421666Y-73779523D01*
X138421666Y-73398571D01*
X138469285Y-73303333D01*
X138564523Y-73255714D01*
X138755000Y-73255714D01*
X138850238Y-73303333D01*
X138897857Y-73398571D01*
X138897857Y-73493809D01*
X138421666Y-73589047D01*
X139231190Y-73255714D02*
X139469285Y-73922380D01*
X139707380Y-73255714D01*
X140469285Y-73874761D02*
X140374047Y-73922380D01*
X140183571Y-73922380D01*
X140088333Y-73874761D01*
X140040714Y-73779523D01*
X140040714Y-73398571D01*
X140088333Y-73303333D01*
X140183571Y-73255714D01*
X140374047Y-73255714D01*
X140469285Y-73303333D01*
X140516904Y-73398571D01*
X140516904Y-73493809D01*
X140040714Y-73589047D01*
X141088333Y-73922380D02*
X140993095Y-73874761D01*
X140945476Y-73779523D01*
X140945476Y-72922380D01*
X142183571Y-73874761D02*
X142326428Y-73922380D01*
X142564523Y-73922380D01*
X142659761Y-73874761D01*
X142707380Y-73827142D01*
X142755000Y-73731904D01*
X142755000Y-73636666D01*
X142707380Y-73541428D01*
X142659761Y-73493809D01*
X142564523Y-73446190D01*
X142374047Y-73398571D01*
X142278809Y-73350952D01*
X142231190Y-73303333D01*
X142183571Y-73208095D01*
X142183571Y-73112857D01*
X142231190Y-73017619D01*
X142278809Y-72970000D01*
X142374047Y-72922380D01*
X142612142Y-72922380D01*
X142755000Y-72970000D01*
X143183571Y-73922380D02*
X143183571Y-72922380D01*
X143612142Y-73922380D02*
X143612142Y-73398571D01*
X143564523Y-73303333D01*
X143469285Y-73255714D01*
X143326428Y-73255714D01*
X143231190Y-73303333D01*
X143183571Y-73350952D01*
X144088333Y-73922380D02*
X144088333Y-73255714D01*
X144088333Y-72922380D02*
X144040714Y-72970000D01*
X144088333Y-73017619D01*
X144135952Y-72970000D01*
X144088333Y-72922380D01*
X144088333Y-73017619D01*
X144421666Y-73255714D02*
X144802619Y-73255714D01*
X144564523Y-73922380D02*
X144564523Y-73065238D01*
X144612142Y-72970000D01*
X144707380Y-72922380D01*
X144802619Y-72922380D01*
X144993095Y-73255714D02*
X145374047Y-73255714D01*
X145135952Y-72922380D02*
X145135952Y-73779523D01*
X145183571Y-73874761D01*
X145278809Y-73922380D01*
X145374047Y-73922380D01*
X146088333Y-73874761D02*
X145993095Y-73922380D01*
X145802619Y-73922380D01*
X145707380Y-73874761D01*
X145659761Y-73779523D01*
X145659761Y-73398571D01*
X145707380Y-73303333D01*
X145802619Y-73255714D01*
X145993095Y-73255714D01*
X146088333Y-73303333D01*
X146135952Y-73398571D01*
X146135952Y-73493809D01*
X145659761Y-73589047D01*
X146564523Y-73922380D02*
X146564523Y-73255714D01*
X146564523Y-73446190D02*
X146612142Y-73350952D01*
X146659761Y-73303333D01*
X146755000Y-73255714D01*
X146850238Y-73255714D01*
X130183571Y-75953333D02*
X130135952Y-75905714D01*
X130040714Y-75762857D01*
X129993095Y-75667619D01*
X129945476Y-75524761D01*
X129897857Y-75286666D01*
X129897857Y-75096190D01*
X129945476Y-74858095D01*
X129993095Y-74715238D01*
X130040714Y-74620000D01*
X130135952Y-74477142D01*
X130183571Y-74429523D01*
X130564523Y-75572380D02*
X130564523Y-74572380D01*
X130945476Y-74572380D01*
X131040714Y-74620000D01*
X131088333Y-74667619D01*
X131135952Y-74762857D01*
X131135952Y-74905714D01*
X131088333Y-75000952D01*
X131040714Y-75048571D01*
X130945476Y-75096190D01*
X130564523Y-75096190D01*
X131564523Y-75572380D02*
X131564523Y-74905714D01*
X131564523Y-75096190D02*
X131612142Y-75000952D01*
X131659761Y-74953333D01*
X131755000Y-74905714D01*
X131850238Y-74905714D01*
X132183571Y-75572380D02*
X132183571Y-74905714D01*
X132183571Y-74572380D02*
X132135952Y-74620000D01*
X132183571Y-74667619D01*
X132231190Y-74620000D01*
X132183571Y-74572380D01*
X132183571Y-74667619D01*
X132659761Y-75572380D02*
X132659761Y-74905714D01*
X132659761Y-75000952D02*
X132707380Y-74953333D01*
X132802619Y-74905714D01*
X132945476Y-74905714D01*
X133040714Y-74953333D01*
X133088333Y-75048571D01*
X133088333Y-75572380D01*
X133088333Y-75048571D02*
X133135952Y-74953333D01*
X133231190Y-74905714D01*
X133374047Y-74905714D01*
X133469285Y-74953333D01*
X133516904Y-75048571D01*
X133516904Y-75572380D01*
X134421666Y-75572380D02*
X134421666Y-75048571D01*
X134374047Y-74953333D01*
X134278809Y-74905714D01*
X134088333Y-74905714D01*
X133993095Y-74953333D01*
X134421666Y-75524761D02*
X134326428Y-75572380D01*
X134088333Y-75572380D01*
X133993095Y-75524761D01*
X133945476Y-75429523D01*
X133945476Y-75334285D01*
X133993095Y-75239047D01*
X134088333Y-75191428D01*
X134326428Y-75191428D01*
X134421666Y-75143809D01*
X134897857Y-75572380D02*
X134897857Y-74905714D01*
X134897857Y-75096190D02*
X134945476Y-75000952D01*
X134993095Y-74953333D01*
X135088333Y-74905714D01*
X135183571Y-74905714D01*
X135421666Y-74905714D02*
X135659761Y-75572380D01*
X135897857Y-74905714D02*
X135659761Y-75572380D01*
X135564523Y-75810476D01*
X135516904Y-75858095D01*
X135421666Y-75905714D01*
X137040714Y-75572380D02*
X137040714Y-74572380D01*
X137278809Y-74572380D01*
X137421666Y-74620000D01*
X137516904Y-74715238D01*
X137564523Y-74810476D01*
X137612142Y-75000952D01*
X137612142Y-75143809D01*
X137564523Y-75334285D01*
X137516904Y-75429523D01*
X137421666Y-75524761D01*
X137278809Y-75572380D01*
X137040714Y-75572380D01*
X138469285Y-75572380D02*
X138469285Y-75048571D01*
X138421666Y-74953333D01*
X138326428Y-74905714D01*
X138135952Y-74905714D01*
X138040714Y-74953333D01*
X138469285Y-75524761D02*
X138374047Y-75572380D01*
X138135952Y-75572380D01*
X138040714Y-75524761D01*
X137993095Y-75429523D01*
X137993095Y-75334285D01*
X138040714Y-75239047D01*
X138135952Y-75191428D01*
X138374047Y-75191428D01*
X138469285Y-75143809D01*
X138802619Y-74905714D02*
X139183571Y-74905714D01*
X138945476Y-74572380D02*
X138945476Y-75429523D01*
X138993095Y-75524761D01*
X139088333Y-75572380D01*
X139183571Y-75572380D01*
X139945476Y-75572380D02*
X139945476Y-75048571D01*
X139897857Y-74953333D01*
X139802619Y-74905714D01*
X139612142Y-74905714D01*
X139516904Y-74953333D01*
X139945476Y-75524761D02*
X139850238Y-75572380D01*
X139612142Y-75572380D01*
X139516904Y-75524761D01*
X139469285Y-75429523D01*
X139469285Y-75334285D01*
X139516904Y-75239047D01*
X139612142Y-75191428D01*
X139850238Y-75191428D01*
X139945476Y-75143809D01*
X140326428Y-75953333D02*
X140374047Y-75905714D01*
X140469285Y-75762857D01*
X140516904Y-75667619D01*
X140564523Y-75524761D01*
X140612142Y-75286666D01*
X140612142Y-75096190D01*
X140564523Y-74858095D01*
X140516904Y-74715238D01*
X140469285Y-74620000D01*
X140374047Y-74477142D01*
X140326428Y-74429523D01*
X124913809Y-85622380D02*
X125580476Y-85622380D01*
X125151904Y-86622380D01*
X126389999Y-85955714D02*
X126389999Y-86622380D01*
X126151904Y-85574761D02*
X125913809Y-86289047D01*
X126532857Y-86289047D01*
X127389999Y-86622380D02*
X126913809Y-86622380D01*
X126913809Y-85622380D01*
X127580476Y-85622380D02*
X127913809Y-86622380D01*
X128247142Y-85622380D01*
X129151904Y-86527142D02*
X129104285Y-86574761D01*
X128961428Y-86622380D01*
X128866190Y-86622380D01*
X128723333Y-86574761D01*
X128628095Y-86479523D01*
X128580476Y-86384285D01*
X128532857Y-86193809D01*
X128532857Y-86050952D01*
X128580476Y-85860476D01*
X128628095Y-85765238D01*
X128723333Y-85670000D01*
X128866190Y-85622380D01*
X128961428Y-85622380D01*
X129104285Y-85670000D01*
X129151904Y-85717619D01*
X129532857Y-85717619D02*
X129580476Y-85670000D01*
X129675714Y-85622380D01*
X129913809Y-85622380D01*
X130009047Y-85670000D01*
X130056666Y-85717619D01*
X130104285Y-85812857D01*
X130104285Y-85908095D01*
X130056666Y-86050952D01*
X129485238Y-86622380D01*
X130104285Y-86622380D01*
X130961428Y-85955714D02*
X130961428Y-86622380D01*
X130723333Y-85574761D02*
X130485238Y-86289047D01*
X131104285Y-86289047D01*
X131961428Y-85622380D02*
X131485238Y-85622380D01*
X131437619Y-86098571D01*
X131485238Y-86050952D01*
X131580476Y-86003333D01*
X131818571Y-86003333D01*
X131913809Y-86050952D01*
X131961428Y-86098571D01*
X132009047Y-86193809D01*
X132009047Y-86431904D01*
X131961428Y-86527142D01*
X131913809Y-86574761D01*
X131818571Y-86622380D01*
X131580476Y-86622380D01*
X131485238Y-86574761D01*
X131437619Y-86527142D01*
X133199523Y-86622380D02*
X133199523Y-85622380D01*
X133675714Y-85955714D02*
X133675714Y-86622380D01*
X133675714Y-86050952D02*
X133723333Y-86003333D01*
X133818571Y-85955714D01*
X133961428Y-85955714D01*
X134056666Y-86003333D01*
X134104285Y-86098571D01*
X134104285Y-86622380D01*
X134580476Y-85955714D02*
X134580476Y-86955714D01*
X134580476Y-86003333D02*
X134675714Y-85955714D01*
X134866190Y-85955714D01*
X134961428Y-86003333D01*
X135009047Y-86050952D01*
X135056666Y-86146190D01*
X135056666Y-86431904D01*
X135009047Y-86527142D01*
X134961428Y-86574761D01*
X134866190Y-86622380D01*
X134675714Y-86622380D01*
X134580476Y-86574761D01*
X135913809Y-85955714D02*
X135913809Y-86622380D01*
X135485238Y-85955714D02*
X135485238Y-86479523D01*
X135532857Y-86574761D01*
X135628095Y-86622380D01*
X135770952Y-86622380D01*
X135866190Y-86574761D01*
X135913809Y-86527142D01*
X136247142Y-85955714D02*
X136628095Y-85955714D01*
X136390000Y-85622380D02*
X136390000Y-86479523D01*
X136437619Y-86574761D01*
X136532857Y-86622380D01*
X136628095Y-86622380D01*
X138199523Y-86622380D02*
X137723333Y-86622380D01*
X137723333Y-85622380D01*
X138913809Y-86574761D02*
X138818571Y-86622380D01*
X138628095Y-86622380D01*
X138532857Y-86574761D01*
X138485238Y-86479523D01*
X138485238Y-86098571D01*
X138532857Y-86003333D01*
X138628095Y-85955714D01*
X138818571Y-85955714D01*
X138913809Y-86003333D01*
X138961428Y-86098571D01*
X138961428Y-86193809D01*
X138485238Y-86289047D01*
X139294761Y-85955714D02*
X139532857Y-86622380D01*
X139770952Y-85955714D01*
X140532857Y-86574761D02*
X140437619Y-86622380D01*
X140247142Y-86622380D01*
X140151904Y-86574761D01*
X140104285Y-86479523D01*
X140104285Y-86098571D01*
X140151904Y-86003333D01*
X140247142Y-85955714D01*
X140437619Y-85955714D01*
X140532857Y-86003333D01*
X140580476Y-86098571D01*
X140580476Y-86193809D01*
X140104285Y-86289047D01*
X141151904Y-86622380D02*
X141056666Y-86574761D01*
X141009047Y-86479523D01*
X141009047Y-85622380D01*
X142247142Y-86574761D02*
X142390000Y-86622380D01*
X142628095Y-86622380D01*
X142723333Y-86574761D01*
X142770952Y-86527142D01*
X142818571Y-86431904D01*
X142818571Y-86336666D01*
X142770952Y-86241428D01*
X142723333Y-86193809D01*
X142628095Y-86146190D01*
X142437619Y-86098571D01*
X142342380Y-86050952D01*
X142294761Y-86003333D01*
X142247142Y-85908095D01*
X142247142Y-85812857D01*
X142294761Y-85717619D01*
X142342380Y-85670000D01*
X142437619Y-85622380D01*
X142675714Y-85622380D01*
X142818571Y-85670000D01*
X143247142Y-86622380D02*
X143247142Y-85622380D01*
X143675714Y-86622380D02*
X143675714Y-86098571D01*
X143628095Y-86003333D01*
X143532857Y-85955714D01*
X143390000Y-85955714D01*
X143294761Y-86003333D01*
X143247142Y-86050952D01*
X144151904Y-86622380D02*
X144151904Y-85955714D01*
X144151904Y-85622380D02*
X144104285Y-85670000D01*
X144151904Y-85717619D01*
X144199523Y-85670000D01*
X144151904Y-85622380D01*
X144151904Y-85717619D01*
X144485238Y-85955714D02*
X144866190Y-85955714D01*
X144628095Y-86622380D02*
X144628095Y-85765238D01*
X144675714Y-85670000D01*
X144770952Y-85622380D01*
X144866190Y-85622380D01*
X145056666Y-85955714D02*
X145437619Y-85955714D01*
X145199523Y-85622380D02*
X145199523Y-86479523D01*
X145247142Y-86574761D01*
X145342380Y-86622380D01*
X145437619Y-86622380D01*
X146151904Y-86574761D02*
X146056666Y-86622380D01*
X145866190Y-86622380D01*
X145770952Y-86574761D01*
X145723333Y-86479523D01*
X145723333Y-86098571D01*
X145770952Y-86003333D01*
X145866190Y-85955714D01*
X146056666Y-85955714D01*
X146151904Y-86003333D01*
X146199523Y-86098571D01*
X146199523Y-86193809D01*
X145723333Y-86289047D01*
X146628095Y-86622380D02*
X146628095Y-85955714D01*
X146628095Y-86146190D02*
X146675714Y-86050952D01*
X146723333Y-86003333D01*
X146818571Y-85955714D01*
X146913809Y-85955714D01*
X130818571Y-88653333D02*
X130770952Y-88605714D01*
X130675714Y-88462857D01*
X130628095Y-88367619D01*
X130580476Y-88224761D01*
X130532857Y-87986666D01*
X130532857Y-87796190D01*
X130580476Y-87558095D01*
X130628095Y-87415238D01*
X130675714Y-87320000D01*
X130770952Y-87177142D01*
X130818571Y-87129523D01*
X131199523Y-88272380D02*
X131199523Y-87272380D01*
X131580476Y-87272380D01*
X131675714Y-87320000D01*
X131723333Y-87367619D01*
X131770952Y-87462857D01*
X131770952Y-87605714D01*
X131723333Y-87700952D01*
X131675714Y-87748571D01*
X131580476Y-87796190D01*
X131199523Y-87796190D01*
X132199523Y-88272380D02*
X132199523Y-87605714D01*
X132199523Y-87796190D02*
X132247142Y-87700952D01*
X132294761Y-87653333D01*
X132390000Y-87605714D01*
X132485238Y-87605714D01*
X132818571Y-88272380D02*
X132818571Y-87605714D01*
X132818571Y-87272380D02*
X132770952Y-87320000D01*
X132818571Y-87367619D01*
X132866190Y-87320000D01*
X132818571Y-87272380D01*
X132818571Y-87367619D01*
X133294761Y-88272380D02*
X133294761Y-87605714D01*
X133294761Y-87700952D02*
X133342380Y-87653333D01*
X133437619Y-87605714D01*
X133580476Y-87605714D01*
X133675714Y-87653333D01*
X133723333Y-87748571D01*
X133723333Y-88272380D01*
X133723333Y-87748571D02*
X133770952Y-87653333D01*
X133866190Y-87605714D01*
X134009047Y-87605714D01*
X134104285Y-87653333D01*
X134151904Y-87748571D01*
X134151904Y-88272380D01*
X135056666Y-88272380D02*
X135056666Y-87748571D01*
X135009047Y-87653333D01*
X134913809Y-87605714D01*
X134723333Y-87605714D01*
X134628095Y-87653333D01*
X135056666Y-88224761D02*
X134961428Y-88272380D01*
X134723333Y-88272380D01*
X134628095Y-88224761D01*
X134580476Y-88129523D01*
X134580476Y-88034285D01*
X134628095Y-87939047D01*
X134723333Y-87891428D01*
X134961428Y-87891428D01*
X135056666Y-87843809D01*
X135532857Y-88272380D02*
X135532857Y-87605714D01*
X135532857Y-87796190D02*
X135580476Y-87700952D01*
X135628095Y-87653333D01*
X135723333Y-87605714D01*
X135818571Y-87605714D01*
X136056666Y-87605714D02*
X136294761Y-88272380D01*
X136532857Y-87605714D02*
X136294761Y-88272380D01*
X136199523Y-88510476D01*
X136151904Y-88558095D01*
X136056666Y-88605714D01*
X137675714Y-88272380D02*
X137675714Y-87272380D01*
X137913809Y-87272380D01*
X138056666Y-87320000D01*
X138151904Y-87415238D01*
X138199523Y-87510476D01*
X138247142Y-87700952D01*
X138247142Y-87843809D01*
X138199523Y-88034285D01*
X138151904Y-88129523D01*
X138056666Y-88224761D01*
X137913809Y-88272380D01*
X137675714Y-88272380D01*
X139104285Y-88272380D02*
X139104285Y-87748571D01*
X139056666Y-87653333D01*
X138961428Y-87605714D01*
X138770952Y-87605714D01*
X138675714Y-87653333D01*
X139104285Y-88224761D02*
X139009047Y-88272380D01*
X138770952Y-88272380D01*
X138675714Y-88224761D01*
X138628095Y-88129523D01*
X138628095Y-88034285D01*
X138675714Y-87939047D01*
X138770952Y-87891428D01*
X139009047Y-87891428D01*
X139104285Y-87843809D01*
X139437619Y-87605714D02*
X139818571Y-87605714D01*
X139580476Y-87272380D02*
X139580476Y-88129523D01*
X139628095Y-88224761D01*
X139723333Y-88272380D01*
X139818571Y-88272380D01*
X140580476Y-88272380D02*
X140580476Y-87748571D01*
X140532857Y-87653333D01*
X140437619Y-87605714D01*
X140247142Y-87605714D01*
X140151904Y-87653333D01*
X140580476Y-88224761D02*
X140485238Y-88272380D01*
X140247142Y-88272380D01*
X140151904Y-88224761D01*
X140104285Y-88129523D01*
X140104285Y-88034285D01*
X140151904Y-87939047D01*
X140247142Y-87891428D01*
X140485238Y-87891428D01*
X140580476Y-87843809D01*
X140961428Y-88653333D02*
X141009047Y-88605714D01*
X141104285Y-88462857D01*
X141151904Y-88367619D01*
X141199523Y-88224761D01*
X141247142Y-87986666D01*
X141247142Y-87796190D01*
X141199523Y-87558095D01*
X141151904Y-87415238D01*
X141104285Y-87320000D01*
X141009047Y-87177142D01*
X140961428Y-87129523D01*
X125683571Y-98512380D02*
X126350238Y-98512380D01*
X125921666Y-99512380D01*
X127159761Y-98845714D02*
X127159761Y-99512380D01*
X126921666Y-98464761D02*
X126683571Y-99179047D01*
X127302619Y-99179047D01*
X128159761Y-99512380D02*
X127683571Y-99512380D01*
X127683571Y-98512380D01*
X128445476Y-99464761D02*
X128588333Y-99512380D01*
X128826428Y-99512380D01*
X128921666Y-99464761D01*
X128969285Y-99417142D01*
X129016904Y-99321904D01*
X129016904Y-99226666D01*
X128969285Y-99131428D01*
X128921666Y-99083809D01*
X128826428Y-99036190D01*
X128635952Y-98988571D01*
X128540714Y-98940952D01*
X128493095Y-98893333D01*
X128445476Y-98798095D01*
X128445476Y-98702857D01*
X128493095Y-98607619D01*
X128540714Y-98560000D01*
X128635952Y-98512380D01*
X128874047Y-98512380D01*
X129016904Y-98560000D01*
X129397857Y-98607619D02*
X129445476Y-98560000D01*
X129540714Y-98512380D01*
X129778809Y-98512380D01*
X129874047Y-98560000D01*
X129921666Y-98607619D01*
X129969285Y-98702857D01*
X129969285Y-98798095D01*
X129921666Y-98940952D01*
X129350238Y-99512380D01*
X129969285Y-99512380D01*
X130826428Y-98845714D02*
X130826428Y-99512380D01*
X130588333Y-98464761D02*
X130350238Y-99179047D01*
X130969285Y-99179047D01*
X131826428Y-98512380D02*
X131350238Y-98512380D01*
X131302619Y-98988571D01*
X131350238Y-98940952D01*
X131445476Y-98893333D01*
X131683571Y-98893333D01*
X131778809Y-98940952D01*
X131826428Y-98988571D01*
X131874047Y-99083809D01*
X131874047Y-99321904D01*
X131826428Y-99417142D01*
X131778809Y-99464761D01*
X131683571Y-99512380D01*
X131445476Y-99512380D01*
X131350238Y-99464761D01*
X131302619Y-99417142D01*
X133064523Y-99512380D02*
X133064523Y-98512380D01*
X133302619Y-98512380D01*
X133445476Y-98560000D01*
X133540714Y-98655238D01*
X133588333Y-98750476D01*
X133635952Y-98940952D01*
X133635952Y-99083809D01*
X133588333Y-99274285D01*
X133540714Y-99369523D01*
X133445476Y-99464761D01*
X133302619Y-99512380D01*
X133064523Y-99512380D01*
X134493095Y-99512380D02*
X134493095Y-98988571D01*
X134445476Y-98893333D01*
X134350238Y-98845714D01*
X134159761Y-98845714D01*
X134064523Y-98893333D01*
X134493095Y-99464761D02*
X134397857Y-99512380D01*
X134159761Y-99512380D01*
X134064523Y-99464761D01*
X134016904Y-99369523D01*
X134016904Y-99274285D01*
X134064523Y-99179047D01*
X134159761Y-99131428D01*
X134397857Y-99131428D01*
X134493095Y-99083809D01*
X134826428Y-98845714D02*
X135207380Y-98845714D01*
X134969285Y-98512380D02*
X134969285Y-99369523D01*
X135016904Y-99464761D01*
X135112142Y-99512380D01*
X135207380Y-99512380D01*
X135969285Y-99512380D02*
X135969285Y-98988571D01*
X135921666Y-98893333D01*
X135826428Y-98845714D01*
X135635952Y-98845714D01*
X135540714Y-98893333D01*
X135969285Y-99464761D02*
X135874047Y-99512380D01*
X135635952Y-99512380D01*
X135540714Y-99464761D01*
X135493095Y-99369523D01*
X135493095Y-99274285D01*
X135540714Y-99179047D01*
X135635952Y-99131428D01*
X135874047Y-99131428D01*
X135969285Y-99083809D01*
X137540714Y-98988571D02*
X137683571Y-99036190D01*
X137731190Y-99083809D01*
X137778809Y-99179047D01*
X137778809Y-99321904D01*
X137731190Y-99417142D01*
X137683571Y-99464761D01*
X137588333Y-99512380D01*
X137207380Y-99512380D01*
X137207380Y-98512380D01*
X137540714Y-98512380D01*
X137635952Y-98560000D01*
X137683571Y-98607619D01*
X137731190Y-98702857D01*
X137731190Y-98798095D01*
X137683571Y-98893333D01*
X137635952Y-98940952D01*
X137540714Y-98988571D01*
X137207380Y-98988571D01*
X138635952Y-98845714D02*
X138635952Y-99512380D01*
X138207380Y-98845714D02*
X138207380Y-99369523D01*
X138255000Y-99464761D01*
X138350238Y-99512380D01*
X138493095Y-99512380D01*
X138588333Y-99464761D01*
X138635952Y-99417142D01*
X139064523Y-99464761D02*
X139159761Y-99512380D01*
X139350238Y-99512380D01*
X139445476Y-99464761D01*
X139493095Y-99369523D01*
X139493095Y-99321904D01*
X139445476Y-99226666D01*
X139350238Y-99179047D01*
X139207380Y-99179047D01*
X139112142Y-99131428D01*
X139064523Y-99036190D01*
X139064523Y-98988571D01*
X139112142Y-98893333D01*
X139207380Y-98845714D01*
X139350238Y-98845714D01*
X139445476Y-98893333D01*
X141016904Y-98988571D02*
X141159761Y-99036190D01*
X141207380Y-99083809D01*
X141255000Y-99179047D01*
X141255000Y-99321904D01*
X141207380Y-99417142D01*
X141159761Y-99464761D01*
X141064523Y-99512380D01*
X140683571Y-99512380D01*
X140683571Y-98512380D01*
X141016904Y-98512380D01*
X141112142Y-98560000D01*
X141159761Y-98607619D01*
X141207380Y-98702857D01*
X141207380Y-98798095D01*
X141159761Y-98893333D01*
X141112142Y-98940952D01*
X141016904Y-98988571D01*
X140683571Y-98988571D01*
X142112142Y-98845714D02*
X142112142Y-99512380D01*
X141683571Y-98845714D02*
X141683571Y-99369523D01*
X141731190Y-99464761D01*
X141826428Y-99512380D01*
X141969285Y-99512380D01*
X142064523Y-99464761D01*
X142112142Y-99417142D01*
X142445476Y-98845714D02*
X142826428Y-98845714D01*
X142588333Y-99512380D02*
X142588333Y-98655238D01*
X142635952Y-98560000D01*
X142731190Y-98512380D01*
X142826428Y-98512380D01*
X143016904Y-98845714D02*
X143397857Y-98845714D01*
X143159761Y-99512380D02*
X143159761Y-98655238D01*
X143207380Y-98560000D01*
X143302619Y-98512380D01*
X143397857Y-98512380D01*
X144112142Y-99464761D02*
X144016904Y-99512380D01*
X143826428Y-99512380D01*
X143731190Y-99464761D01*
X143683571Y-99369523D01*
X143683571Y-98988571D01*
X143731190Y-98893333D01*
X143826428Y-98845714D01*
X144016904Y-98845714D01*
X144112142Y-98893333D01*
X144159761Y-98988571D01*
X144159761Y-99083809D01*
X143683571Y-99179047D01*
X144588333Y-99512380D02*
X144588333Y-98845714D01*
X144588333Y-99036190D02*
X144635952Y-98940952D01*
X144683571Y-98893333D01*
X144778809Y-98845714D01*
X144874047Y-98845714D01*
X116117666Y-97160380D02*
X116117666Y-96684190D01*
X116403380Y-97255619D02*
X115403380Y-96922285D01*
X116403380Y-96588952D01*
X115736714Y-96398476D02*
X115736714Y-96017523D01*
X115403380Y-96255619D02*
X116260523Y-96255619D01*
X116355761Y-96208000D01*
X116403380Y-96112761D01*
X116403380Y-96017523D01*
X115736714Y-95827047D02*
X115736714Y-95446095D01*
X115403380Y-95684190D02*
X116260523Y-95684190D01*
X116355761Y-95636571D01*
X116403380Y-95541333D01*
X116403380Y-95446095D01*
X116403380Y-94684190D02*
X115879571Y-94684190D01*
X115784333Y-94731809D01*
X115736714Y-94827047D01*
X115736714Y-95017523D01*
X115784333Y-95112761D01*
X116355761Y-94684190D02*
X116403380Y-94779428D01*
X116403380Y-95017523D01*
X116355761Y-95112761D01*
X116260523Y-95160380D01*
X116165285Y-95160380D01*
X116070047Y-95112761D01*
X116022428Y-95017523D01*
X116022428Y-94779428D01*
X115974809Y-94684190D01*
X116355761Y-93779428D02*
X116403380Y-93874666D01*
X116403380Y-94065142D01*
X116355761Y-94160380D01*
X116308142Y-94208000D01*
X116212904Y-94255619D01*
X115927190Y-94255619D01*
X115831952Y-94208000D01*
X115784333Y-94160380D01*
X115736714Y-94065142D01*
X115736714Y-93874666D01*
X115784333Y-93779428D01*
X116403380Y-93350857D02*
X115403380Y-93350857D01*
X116403380Y-92922285D02*
X115879571Y-92922285D01*
X115784333Y-92969904D01*
X115736714Y-93065142D01*
X115736714Y-93208000D01*
X115784333Y-93303238D01*
X115831952Y-93350857D01*
X116403380Y-91112761D02*
X115927190Y-91446095D01*
X116403380Y-91684190D02*
X115403380Y-91684190D01*
X115403380Y-91303238D01*
X115451000Y-91208000D01*
X115498619Y-91160380D01*
X115593857Y-91112761D01*
X115736714Y-91112761D01*
X115831952Y-91160380D01*
X115879571Y-91208000D01*
X115927190Y-91303238D01*
X115927190Y-91684190D01*
X116403380Y-90255619D02*
X115879571Y-90255619D01*
X115784333Y-90303238D01*
X115736714Y-90398476D01*
X115736714Y-90588952D01*
X115784333Y-90684190D01*
X116355761Y-90255619D02*
X116403380Y-90350857D01*
X116403380Y-90588952D01*
X116355761Y-90684190D01*
X116260523Y-90731809D01*
X116165285Y-90731809D01*
X116070047Y-90684190D01*
X116022428Y-90588952D01*
X116022428Y-90350857D01*
X115974809Y-90255619D01*
X116355761Y-89827047D02*
X116403380Y-89731809D01*
X116403380Y-89541333D01*
X116355761Y-89446095D01*
X116260523Y-89398476D01*
X116212904Y-89398476D01*
X116117666Y-89446095D01*
X116070047Y-89541333D01*
X116070047Y-89684190D01*
X116022428Y-89779428D01*
X115927190Y-89827047D01*
X115879571Y-89827047D01*
X115784333Y-89779428D01*
X115736714Y-89684190D01*
X115736714Y-89541333D01*
X115784333Y-89446095D01*
X115736714Y-88969904D02*
X116736714Y-88969904D01*
X115784333Y-88969904D02*
X115736714Y-88874666D01*
X115736714Y-88684190D01*
X115784333Y-88588952D01*
X115831952Y-88541333D01*
X115927190Y-88493714D01*
X116212904Y-88493714D01*
X116308142Y-88541333D01*
X116355761Y-88588952D01*
X116403380Y-88684190D01*
X116403380Y-88874666D01*
X116355761Y-88969904D01*
X116403380Y-88065142D02*
X115403380Y-88065142D01*
X115784333Y-88065142D02*
X115736714Y-87969904D01*
X115736714Y-87779428D01*
X115784333Y-87684190D01*
X115831952Y-87636571D01*
X115927190Y-87588952D01*
X116212904Y-87588952D01*
X116308142Y-87636571D01*
X116355761Y-87684190D01*
X116403380Y-87779428D01*
X116403380Y-87969904D01*
X116355761Y-88065142D01*
X116355761Y-86779428D02*
X116403380Y-86874666D01*
X116403380Y-87065142D01*
X116355761Y-87160380D01*
X116260523Y-87208000D01*
X115879571Y-87208000D01*
X115784333Y-87160380D01*
X115736714Y-87065142D01*
X115736714Y-86874666D01*
X115784333Y-86779428D01*
X115879571Y-86731809D01*
X115974809Y-86731809D01*
X116070047Y-87208000D01*
X116403380Y-86303238D02*
X115736714Y-86303238D01*
X115927190Y-86303238D02*
X115831952Y-86255619D01*
X115784333Y-86208000D01*
X115736714Y-86112761D01*
X115736714Y-86017523D01*
X116403380Y-85684190D02*
X115736714Y-85684190D01*
X115927190Y-85684190D02*
X115831952Y-85636571D01*
X115784333Y-85588952D01*
X115736714Y-85493714D01*
X115736714Y-85398476D01*
X115736714Y-85160380D02*
X116403380Y-84922285D01*
X115736714Y-84684190D02*
X116403380Y-84922285D01*
X116641476Y-85017523D01*
X116689095Y-85065142D01*
X116736714Y-85160380D01*
X116403380Y-83541333D02*
X115403380Y-83541333D01*
X115403380Y-83160380D01*
X115451000Y-83065142D01*
X115498619Y-83017523D01*
X115593857Y-82969904D01*
X115736714Y-82969904D01*
X115831952Y-83017523D01*
X115879571Y-83065142D01*
X115927190Y-83160380D01*
X115927190Y-83541333D01*
X116403380Y-82541333D02*
X115736714Y-82541333D01*
X115403380Y-82541333D02*
X115451000Y-82588952D01*
X115498619Y-82541333D01*
X115451000Y-82493714D01*
X115403380Y-82541333D01*
X115498619Y-82541333D01*
X115403380Y-81398476D02*
X115403380Y-80731809D01*
X116403380Y-81398476D01*
X116403380Y-80731809D01*
X116355761Y-79969904D02*
X116403380Y-80065142D01*
X116403380Y-80255619D01*
X116355761Y-80350857D01*
X116260523Y-80398476D01*
X115879571Y-80398476D01*
X115784333Y-80350857D01*
X115736714Y-80255619D01*
X115736714Y-80065142D01*
X115784333Y-79969904D01*
X115879571Y-79922285D01*
X115974809Y-79922285D01*
X116070047Y-80398476D01*
X116403380Y-79493714D02*
X115736714Y-79493714D01*
X115927190Y-79493714D02*
X115831952Y-79446095D01*
X115784333Y-79398476D01*
X115736714Y-79303238D01*
X115736714Y-79208000D01*
X116403380Y-78731809D02*
X116355761Y-78827047D01*
X116308142Y-78874666D01*
X116212904Y-78922285D01*
X115927190Y-78922285D01*
X115831952Y-78874666D01*
X115784333Y-78827047D01*
X115736714Y-78731809D01*
X115736714Y-78588952D01*
X115784333Y-78493714D01*
X115831952Y-78446095D01*
X115927190Y-78398476D01*
X116212904Y-78398476D01*
X116308142Y-78446095D01*
X116355761Y-78493714D01*
X116403380Y-78588952D01*
X116403380Y-78731809D01*
X115403380Y-77303238D02*
X116403380Y-77065142D01*
X115689095Y-76874666D01*
X116403380Y-76684190D01*
X115403380Y-76446095D01*
X115736714Y-75446095D02*
X115736714Y-75065142D01*
X116403380Y-75303238D02*
X115546238Y-75303238D01*
X115451000Y-75255619D01*
X115403380Y-75160380D01*
X115403380Y-75065142D01*
X116403380Y-74303238D02*
X115879571Y-74303238D01*
X115784333Y-74350857D01*
X115736714Y-74446095D01*
X115736714Y-74636571D01*
X115784333Y-74731809D01*
X116355761Y-74303238D02*
X116403380Y-74398476D01*
X116403380Y-74636571D01*
X116355761Y-74731809D01*
X116260523Y-74779428D01*
X116165285Y-74779428D01*
X116070047Y-74731809D01*
X116022428Y-74636571D01*
X116022428Y-74398476D01*
X115974809Y-74303238D01*
X116355761Y-73398476D02*
X116403380Y-73493714D01*
X116403380Y-73684190D01*
X116355761Y-73779428D01*
X116308142Y-73827047D01*
X116212904Y-73874666D01*
X115927190Y-73874666D01*
X115831952Y-73827047D01*
X115784333Y-73779428D01*
X115736714Y-73684190D01*
X115736714Y-73493714D01*
X115784333Y-73398476D01*
X116403380Y-72969904D02*
X115736714Y-72969904D01*
X115403380Y-72969904D02*
X115451000Y-73017523D01*
X115498619Y-72969904D01*
X115451000Y-72922285D01*
X115403380Y-72969904D01*
X115498619Y-72969904D01*
X115736714Y-72493714D02*
X116403380Y-72493714D01*
X115831952Y-72493714D02*
X115784333Y-72446095D01*
X115736714Y-72350857D01*
X115736714Y-72208000D01*
X115784333Y-72112761D01*
X115879571Y-72065142D01*
X116403380Y-72065142D01*
X115736714Y-71160380D02*
X116546238Y-71160380D01*
X116641476Y-71208000D01*
X116689095Y-71255619D01*
X116736714Y-71350857D01*
X116736714Y-71493714D01*
X116689095Y-71588952D01*
X116355761Y-71160380D02*
X116403380Y-71255619D01*
X116403380Y-71446095D01*
X116355761Y-71541333D01*
X116308142Y-71588952D01*
X116212904Y-71636571D01*
X115927190Y-71636571D01*
X115831952Y-71588952D01*
X115784333Y-71541333D01*
X115736714Y-71446095D01*
X115736714Y-71255619D01*
X115784333Y-71160380D01*
X116403380Y-69779428D02*
X116355761Y-69874666D01*
X116308142Y-69922285D01*
X116212904Y-69969904D01*
X115927190Y-69969904D01*
X115831952Y-69922285D01*
X115784333Y-69874666D01*
X115736714Y-69779428D01*
X115736714Y-69636571D01*
X115784333Y-69541333D01*
X115831952Y-69493714D01*
X115927190Y-69446095D01*
X116212904Y-69446095D01*
X116308142Y-69493714D01*
X116355761Y-69541333D01*
X116403380Y-69636571D01*
X116403380Y-69779428D01*
X115736714Y-68588952D02*
X116403380Y-68588952D01*
X115736714Y-69017523D02*
X116260523Y-69017523D01*
X116355761Y-68969904D01*
X116403380Y-68874666D01*
X116403380Y-68731809D01*
X116355761Y-68636571D01*
X116308142Y-68588952D01*
X115736714Y-68255619D02*
X115736714Y-67874666D01*
X115403380Y-68112761D02*
X116260523Y-68112761D01*
X116355761Y-68065142D01*
X116403380Y-67969904D01*
X116403380Y-67874666D01*
X115736714Y-67636571D02*
X116403380Y-67446095D01*
X115927190Y-67255619D01*
X116403380Y-67065142D01*
X115736714Y-66874666D01*
X116403380Y-66065142D02*
X115879571Y-66065142D01*
X115784333Y-66112761D01*
X115736714Y-66208000D01*
X115736714Y-66398476D01*
X115784333Y-66493714D01*
X116355761Y-66065142D02*
X116403380Y-66160380D01*
X116403380Y-66398476D01*
X116355761Y-66493714D01*
X116260523Y-66541333D01*
X116165285Y-66541333D01*
X116070047Y-66493714D01*
X116022428Y-66398476D01*
X116022428Y-66160380D01*
X115974809Y-66065142D01*
X116403380Y-65588952D02*
X115736714Y-65588952D01*
X115927190Y-65588952D02*
X115831952Y-65541333D01*
X115784333Y-65493714D01*
X115736714Y-65398476D01*
X115736714Y-65303238D01*
X116403380Y-64541333D02*
X115403380Y-64541333D01*
X116355761Y-64541333D02*
X116403380Y-64636571D01*
X116403380Y-64827047D01*
X116355761Y-64922285D01*
X116308142Y-64969904D01*
X116212904Y-65017523D01*
X115927190Y-65017523D01*
X115831952Y-64969904D01*
X115784333Y-64922285D01*
X115736714Y-64827047D01*
X115736714Y-64636571D01*
X115784333Y-64541333D01*
X115736714Y-63446095D02*
X115736714Y-63065142D01*
X116403380Y-63303238D02*
X115546238Y-63303238D01*
X115451000Y-63255619D01*
X115403380Y-63160380D01*
X115403380Y-63065142D01*
X116403380Y-62731809D02*
X115736714Y-62731809D01*
X115927190Y-62731809D02*
X115831952Y-62684190D01*
X115784333Y-62636571D01*
X115736714Y-62541333D01*
X115736714Y-62446095D01*
X116403380Y-61969904D02*
X116355761Y-62065142D01*
X116308142Y-62112761D01*
X116212904Y-62160380D01*
X115927190Y-62160380D01*
X115831952Y-62112761D01*
X115784333Y-62065142D01*
X115736714Y-61969904D01*
X115736714Y-61827047D01*
X115784333Y-61731809D01*
X115831952Y-61684190D01*
X115927190Y-61636571D01*
X116212904Y-61636571D01*
X116308142Y-61684190D01*
X116355761Y-61731809D01*
X116403380Y-61827047D01*
X116403380Y-61969904D01*
X116403380Y-61208000D02*
X115736714Y-61208000D01*
X115831952Y-61208000D02*
X115784333Y-61160380D01*
X115736714Y-61065142D01*
X115736714Y-60922285D01*
X115784333Y-60827047D01*
X115879571Y-60779428D01*
X116403380Y-60779428D01*
X115879571Y-60779428D02*
X115784333Y-60731809D01*
X115736714Y-60636571D01*
X115736714Y-60493714D01*
X115784333Y-60398476D01*
X115879571Y-60350857D01*
X116403380Y-60350857D01*
X116355761Y-58684190D02*
X116403380Y-58779428D01*
X116403380Y-58969904D01*
X116355761Y-59065142D01*
X116308142Y-59112761D01*
X116212904Y-59160380D01*
X115927190Y-59160380D01*
X115831952Y-59112761D01*
X115784333Y-59065142D01*
X115736714Y-58969904D01*
X115736714Y-58779428D01*
X115784333Y-58684190D01*
X116403380Y-57827047D02*
X115879571Y-57827047D01*
X115784333Y-57874666D01*
X115736714Y-57969904D01*
X115736714Y-58160380D01*
X115784333Y-58255619D01*
X116355761Y-57827047D02*
X116403380Y-57922285D01*
X116403380Y-58160380D01*
X116355761Y-58255619D01*
X116260523Y-58303238D01*
X116165285Y-58303238D01*
X116070047Y-58255619D01*
X116022428Y-58160380D01*
X116022428Y-57922285D01*
X115974809Y-57827047D01*
X116403380Y-57350857D02*
X115736714Y-57350857D01*
X115927190Y-57350857D02*
X115831952Y-57303238D01*
X115784333Y-57255619D01*
X115736714Y-57160380D01*
X115736714Y-57065142D01*
X116403380Y-56303238D02*
X115403380Y-56303238D01*
X116355761Y-56303238D02*
X116403380Y-56398476D01*
X116403380Y-56588952D01*
X116355761Y-56684190D01*
X116308142Y-56731809D01*
X116212904Y-56779428D01*
X115927190Y-56779428D01*
X115831952Y-56731809D01*
X115784333Y-56684190D01*
X115736714Y-56588952D01*
X115736714Y-56398476D01*
X115784333Y-56303238D01*
X159094301Y-87180781D02*
X159141920Y-87133162D01*
X159237158Y-87085542D01*
X159475253Y-87085542D01*
X159570491Y-87133162D01*
X159618110Y-87180781D01*
X159665729Y-87276019D01*
X159665729Y-87371257D01*
X159618110Y-87514114D01*
X159046682Y-88085542D01*
X159665729Y-88085542D01*
X159999063Y-87085542D02*
X160665729Y-87085542D01*
X160237158Y-88085542D01*
X160999063Y-87180781D02*
X161046682Y-87133162D01*
X161141920Y-87085542D01*
X161380015Y-87085542D01*
X161475253Y-87133162D01*
X161522872Y-87180781D01*
X161570491Y-87276019D01*
X161570491Y-87371257D01*
X161522872Y-87514114D01*
X160951444Y-88085542D01*
X161570491Y-88085542D01*
X162475253Y-87085542D02*
X161999063Y-87085542D01*
X161951444Y-87561733D01*
X161999063Y-87514114D01*
X162094301Y-87466495D01*
X162332396Y-87466495D01*
X162427634Y-87514114D01*
X162475253Y-87561733D01*
X162522872Y-87656971D01*
X162522872Y-87895066D01*
X162475253Y-87990304D01*
X162427634Y-88037923D01*
X162332396Y-88085542D01*
X162094301Y-88085542D01*
X161999063Y-88037923D01*
X161951444Y-87990304D01*
X163380015Y-87085542D02*
X163189539Y-87085542D01*
X163094301Y-87133162D01*
X163046682Y-87180781D01*
X162951444Y-87323638D01*
X162903825Y-87514114D01*
X162903825Y-87895066D01*
X162951444Y-87990304D01*
X162999063Y-88037923D01*
X163094301Y-88085542D01*
X163284777Y-88085542D01*
X163380015Y-88037923D01*
X163427634Y-87990304D01*
X163475253Y-87895066D01*
X163475253Y-87656971D01*
X163427634Y-87561733D01*
X163380015Y-87514114D01*
X163284777Y-87466495D01*
X163094301Y-87466495D01*
X162999063Y-87514114D01*
X162951444Y-87561733D01*
X162903825Y-87656971D01*
X164665729Y-87561733D02*
X164999063Y-87561733D01*
X165141920Y-88085542D02*
X164665729Y-88085542D01*
X164665729Y-87085542D01*
X165141920Y-87085542D01*
X165570491Y-88085542D02*
X165570491Y-87085542D01*
X165951444Y-87085542D01*
X166046682Y-87133162D01*
X166094301Y-87180781D01*
X166141920Y-87276019D01*
X166141920Y-87418876D01*
X166094301Y-87514114D01*
X166046682Y-87561733D01*
X165951444Y-87609352D01*
X165570491Y-87609352D01*
X167141920Y-88085542D02*
X166808586Y-87609352D01*
X166570491Y-88085542D02*
X166570491Y-87085542D01*
X166951444Y-87085542D01*
X167046682Y-87133162D01*
X167094301Y-87180781D01*
X167141920Y-87276019D01*
X167141920Y-87418876D01*
X167094301Y-87514114D01*
X167046682Y-87561733D01*
X166951444Y-87609352D01*
X166570491Y-87609352D01*
X167760967Y-87085542D02*
X167951444Y-87085542D01*
X168046682Y-87133162D01*
X168141920Y-87228400D01*
X168189539Y-87418876D01*
X168189539Y-87752209D01*
X168141920Y-87942685D01*
X168046682Y-88037923D01*
X167951444Y-88085542D01*
X167760967Y-88085542D01*
X167665729Y-88037923D01*
X167570491Y-87942685D01*
X167522872Y-87752209D01*
X167522872Y-87418876D01*
X167570491Y-87228400D01*
X167665729Y-87133162D01*
X167760967Y-87085542D01*
X168618110Y-88085542D02*
X168618110Y-87085542D01*
X168951444Y-87799828D01*
X169284777Y-87085542D01*
X169284777Y-88085542D01*
X159475253Y-89211733D02*
X159141920Y-89211733D01*
X159141920Y-89735542D02*
X159141920Y-88735542D01*
X159618110Y-88735542D01*
X159999063Y-89735542D02*
X159999063Y-89068876D01*
X159999063Y-88735542D02*
X159951444Y-88783162D01*
X159999063Y-88830781D01*
X160046682Y-88783162D01*
X159999063Y-88735542D01*
X159999063Y-88830781D01*
X160475253Y-89735542D02*
X160475253Y-89068876D01*
X160475253Y-89259352D02*
X160522872Y-89164114D01*
X160570491Y-89116495D01*
X160665729Y-89068876D01*
X160760967Y-89068876D01*
X161094301Y-89735542D02*
X161094301Y-89068876D01*
X161094301Y-89164114D02*
X161141920Y-89116495D01*
X161237158Y-89068876D01*
X161380015Y-89068876D01*
X161475253Y-89116495D01*
X161522872Y-89211733D01*
X161522872Y-89735542D01*
X161522872Y-89211733D02*
X161570491Y-89116495D01*
X161665729Y-89068876D01*
X161808586Y-89068876D01*
X161903825Y-89116495D01*
X161951444Y-89211733D01*
X161951444Y-89735542D01*
X162332396Y-89068876D02*
X162522872Y-89735542D01*
X162713348Y-89259352D01*
X162903825Y-89735542D01*
X163094301Y-89068876D01*
X163903825Y-89735542D02*
X163903825Y-89211733D01*
X163856205Y-89116495D01*
X163760967Y-89068876D01*
X163570491Y-89068876D01*
X163475253Y-89116495D01*
X163903825Y-89687923D02*
X163808586Y-89735542D01*
X163570491Y-89735542D01*
X163475253Y-89687923D01*
X163427634Y-89592685D01*
X163427634Y-89497447D01*
X163475253Y-89402209D01*
X163570491Y-89354590D01*
X163808586Y-89354590D01*
X163903825Y-89306971D01*
X164380015Y-89735542D02*
X164380015Y-89068876D01*
X164380015Y-89259352D02*
X164427634Y-89164114D01*
X164475253Y-89116495D01*
X164570491Y-89068876D01*
X164665729Y-89068876D01*
X165380015Y-89687923D02*
X165284777Y-89735542D01*
X165094301Y-89735542D01*
X164999063Y-89687923D01*
X164951444Y-89592685D01*
X164951444Y-89211733D01*
X164999063Y-89116495D01*
X165094301Y-89068876D01*
X165284777Y-89068876D01*
X165380015Y-89116495D01*
X165427634Y-89211733D01*
X165427634Y-89306971D01*
X164951444Y-89402209D01*
X167046682Y-89735542D02*
X167046682Y-89211733D01*
X166999063Y-89116495D01*
X166903825Y-89068876D01*
X166713348Y-89068876D01*
X166618110Y-89116495D01*
X167046682Y-89687923D02*
X166951444Y-89735542D01*
X166713348Y-89735542D01*
X166618110Y-89687923D01*
X166570491Y-89592685D01*
X166570491Y-89497447D01*
X166618110Y-89402209D01*
X166713348Y-89354590D01*
X166951444Y-89354590D01*
X167046682Y-89306971D01*
X167380015Y-89068876D02*
X167760967Y-89068876D01*
X167522872Y-88735542D02*
X167522872Y-89592685D01*
X167570491Y-89687923D01*
X167665729Y-89735542D01*
X167760967Y-89735542D01*
X168808586Y-89687923D02*
X168951444Y-89735542D01*
X169189539Y-89735542D01*
X169284777Y-89687923D01*
X169332396Y-89640304D01*
X169380015Y-89545066D01*
X169380015Y-89449828D01*
X169332396Y-89354590D01*
X169284777Y-89306971D01*
X169189539Y-89259352D01*
X168999063Y-89211733D01*
X168903825Y-89164114D01*
X168856205Y-89116495D01*
X168808586Y-89021257D01*
X168808586Y-88926019D01*
X168856205Y-88830781D01*
X168903825Y-88783162D01*
X168999063Y-88735542D01*
X169237158Y-88735542D01*
X169380015Y-88783162D01*
X169094301Y-88592685D02*
X169094301Y-89878400D01*
X170380015Y-89640304D02*
X170332396Y-89687923D01*
X170189539Y-89735542D01*
X170094301Y-89735542D01*
X169951444Y-89687923D01*
X169856205Y-89592685D01*
X169808586Y-89497447D01*
X169760967Y-89306971D01*
X169760967Y-89164114D01*
X169808586Y-88973638D01*
X169856205Y-88878400D01*
X169951444Y-88783162D01*
X170094301Y-88735542D01*
X170189539Y-88735542D01*
X170332396Y-88783162D01*
X170380015Y-88830781D01*
X170808586Y-89068876D02*
X170808586Y-89735542D01*
X170808586Y-89164114D02*
X170856205Y-89116495D01*
X170951444Y-89068876D01*
X171094301Y-89068876D01*
X171189539Y-89116495D01*
X171237158Y-89211733D01*
X171237158Y-89735542D01*
X171903825Y-88735542D02*
X171999063Y-88735542D01*
X172094301Y-88783162D01*
X172141920Y-88830781D01*
X172189539Y-88926019D01*
X172237158Y-89116495D01*
X172237158Y-89354590D01*
X172189539Y-89545066D01*
X172141920Y-89640304D01*
X172094301Y-89687923D01*
X171999063Y-89735542D01*
X171903825Y-89735542D01*
X171808586Y-89687923D01*
X171760967Y-89640304D01*
X171713348Y-89545066D01*
X171665729Y-89354590D01*
X171665729Y-89116495D01*
X171713348Y-88926019D01*
X171760967Y-88830781D01*
X171808586Y-88783162D01*
X171903825Y-88735542D01*
X172856205Y-88735542D02*
X172951444Y-88735542D01*
X173046682Y-88783162D01*
X173094301Y-88830781D01*
X173141920Y-88926019D01*
X173189539Y-89116495D01*
X173189539Y-89354590D01*
X173141920Y-89545066D01*
X173094301Y-89640304D01*
X173046682Y-89687923D01*
X172951444Y-89735542D01*
X172856205Y-89735542D01*
X172760967Y-89687923D01*
X172713348Y-89640304D01*
X172665729Y-89545066D01*
X172618110Y-89354590D01*
X172618110Y-89116495D01*
X172665729Y-88926019D01*
X172713348Y-88830781D01*
X172760967Y-88783162D01*
X172856205Y-88735542D01*
X174380015Y-89354590D02*
X175141920Y-89354590D01*
X176332396Y-89687923D02*
X176475253Y-89735542D01*
X176713348Y-89735542D01*
X176808586Y-89687923D01*
X176856205Y-89640304D01*
X176903825Y-89545066D01*
X176903825Y-89449828D01*
X176856205Y-89354590D01*
X176808586Y-89306971D01*
X176713348Y-89259352D01*
X176522872Y-89211733D01*
X176427634Y-89164114D01*
X176380015Y-89116495D01*
X176332396Y-89021257D01*
X176332396Y-88926019D01*
X176380015Y-88830781D01*
X176427634Y-88783162D01*
X176522872Y-88735542D01*
X176760967Y-88735542D01*
X176903825Y-88783162D01*
X176618110Y-88592685D02*
X176618110Y-89878400D01*
X177903825Y-89640304D02*
X177856205Y-89687923D01*
X177713348Y-89735542D01*
X177618110Y-89735542D01*
X177475253Y-89687923D01*
X177380015Y-89592685D01*
X177332396Y-89497447D01*
X177284777Y-89306971D01*
X177284777Y-89164114D01*
X177332396Y-88973638D01*
X177380015Y-88878400D01*
X177475253Y-88783162D01*
X177618110Y-88735542D01*
X177713348Y-88735542D01*
X177856205Y-88783162D01*
X177903825Y-88830781D01*
X178332396Y-89068876D02*
X178332396Y-89735542D01*
X178332396Y-89164114D02*
X178380015Y-89116495D01*
X178475253Y-89068876D01*
X178618110Y-89068876D01*
X178713348Y-89116495D01*
X178760967Y-89211733D01*
X178760967Y-89735542D01*
X179570491Y-89211733D02*
X179237158Y-89211733D01*
X179237158Y-89735542D02*
X179237158Y-88735542D01*
X179713348Y-88735542D01*
X180427634Y-89211733D02*
X180094301Y-89211733D01*
X180094301Y-89735542D02*
X180094301Y-88735542D01*
X180570491Y-88735542D01*
X159046682Y-90385542D02*
X159284777Y-91385542D01*
X159475253Y-90671257D01*
X159665729Y-91385542D01*
X159903825Y-90385542D01*
X160284777Y-91385542D02*
X160284777Y-90385542D01*
X160713348Y-91385542D02*
X160713348Y-90861733D01*
X160665729Y-90766495D01*
X160570491Y-90718876D01*
X160427634Y-90718876D01*
X160332396Y-90766495D01*
X160284777Y-90814114D01*
X161570491Y-91337923D02*
X161475253Y-91385542D01*
X161284777Y-91385542D01*
X161189539Y-91337923D01*
X161141920Y-91242685D01*
X161141920Y-90861733D01*
X161189539Y-90766495D01*
X161284777Y-90718876D01*
X161475253Y-90718876D01*
X161570491Y-90766495D01*
X161618110Y-90861733D01*
X161618110Y-90956971D01*
X161141920Y-91052209D01*
X162046682Y-91385542D02*
X162046682Y-90718876D01*
X162046682Y-90909352D02*
X162094301Y-90814114D01*
X162141920Y-90766495D01*
X162237158Y-90718876D01*
X162332396Y-90718876D01*
X163046682Y-91337923D02*
X162951444Y-91385542D01*
X162760967Y-91385542D01*
X162665729Y-91337923D01*
X162618110Y-91242685D01*
X162618110Y-90861733D01*
X162665729Y-90766495D01*
X162760967Y-90718876D01*
X162951444Y-90718876D01*
X163046682Y-90766495D01*
X163094301Y-90861733D01*
X163094301Y-90956971D01*
X162618110Y-91052209D01*
X164284777Y-90718876D02*
X164284777Y-91385542D01*
X164284777Y-90814114D02*
X164332396Y-90766495D01*
X164427634Y-90718876D01*
X164570491Y-90718876D01*
X164665729Y-90766495D01*
X164713348Y-90861733D01*
X164713348Y-91385542D01*
X165951444Y-90861733D02*
X166713348Y-90861733D01*
X166713348Y-91147447D02*
X165951444Y-91147447D01*
X167903825Y-91337923D02*
X167999063Y-91385542D01*
X168189539Y-91385542D01*
X168284777Y-91337923D01*
X168332396Y-91242685D01*
X168332396Y-91195066D01*
X168284777Y-91099828D01*
X168189539Y-91052209D01*
X168046682Y-91052209D01*
X167951444Y-91004590D01*
X167903825Y-90909352D01*
X167903825Y-90861733D01*
X167951444Y-90766495D01*
X168046682Y-90718876D01*
X168189539Y-90718876D01*
X168284777Y-90766495D01*
X168903825Y-91385542D02*
X168808586Y-91337923D01*
X168760967Y-91242685D01*
X168760967Y-90385542D01*
X169427634Y-91385542D02*
X169332396Y-91337923D01*
X169284777Y-91290304D01*
X169237158Y-91195066D01*
X169237158Y-90909352D01*
X169284777Y-90814114D01*
X169332396Y-90766495D01*
X169427634Y-90718876D01*
X169570491Y-90718876D01*
X169665729Y-90766495D01*
X169713348Y-90814114D01*
X169760967Y-90909352D01*
X169760967Y-91195066D01*
X169713348Y-91290304D01*
X169665729Y-91337923D01*
X169570491Y-91385542D01*
X169427634Y-91385542D01*
X170046682Y-90718876D02*
X170427634Y-90718876D01*
X170189539Y-90385542D02*
X170189539Y-91242685D01*
X170237158Y-91337923D01*
X170332396Y-91385542D01*
X170427634Y-91385542D01*
X171522872Y-90718876D02*
X171522872Y-91385542D01*
X171522872Y-90814114D02*
X171570491Y-90766495D01*
X171665729Y-90718876D01*
X171808586Y-90718876D01*
X171903825Y-90766495D01*
X171951444Y-90861733D01*
X171951444Y-91385542D01*
X172856205Y-90718876D02*
X172856205Y-91385542D01*
X172427634Y-90718876D02*
X172427634Y-91242685D01*
X172475253Y-91337923D01*
X172570491Y-91385542D01*
X172713348Y-91385542D01*
X172808586Y-91337923D01*
X172856205Y-91290304D01*
X173332396Y-91385542D02*
X173332396Y-90718876D01*
X173332396Y-90814114D02*
X173380015Y-90766495D01*
X173475253Y-90718876D01*
X173618110Y-90718876D01*
X173713348Y-90766495D01*
X173760967Y-90861733D01*
X173760967Y-91385542D01*
X173760967Y-90861733D02*
X173808586Y-90766495D01*
X173903825Y-90718876D01*
X174046682Y-90718876D01*
X174141920Y-90766495D01*
X174189539Y-90861733D01*
X174189539Y-91385542D01*
X174665729Y-91385542D02*
X174665729Y-90385542D01*
X174665729Y-90766495D02*
X174760967Y-90718876D01*
X174951444Y-90718876D01*
X175046682Y-90766495D01*
X175094301Y-90814114D01*
X175141920Y-90909352D01*
X175141920Y-91195066D01*
X175094301Y-91290304D01*
X175046682Y-91337923D01*
X174951444Y-91385542D01*
X174760967Y-91385542D01*
X174665729Y-91337923D01*
X175951444Y-91337923D02*
X175856205Y-91385542D01*
X175665729Y-91385542D01*
X175570491Y-91337923D01*
X175522872Y-91242685D01*
X175522872Y-90861733D01*
X175570491Y-90766495D01*
X175665729Y-90718876D01*
X175856205Y-90718876D01*
X175951444Y-90766495D01*
X175999063Y-90861733D01*
X175999063Y-90956971D01*
X175522872Y-91052209D01*
X176427634Y-91385542D02*
X176427634Y-90718876D01*
X176427634Y-90909352D02*
X176475253Y-90814114D01*
X176522872Y-90766495D01*
X176618110Y-90718876D01*
X176713348Y-90718876D01*
D11*
G04 #@! TO.C,U5*
X122495000Y-73295000D02*
G75*
G02X122495000Y-75295000I0J-1000000D01*
G01*
X122495000Y-75295000D02*
X122495000Y-76945000D01*
X122495000Y-76945000D02*
X148015000Y-76945000D01*
X148015000Y-76945000D02*
X148015000Y-71645000D01*
X148015000Y-71645000D02*
X122495000Y-71645000D01*
X122495000Y-71645000D02*
X122495000Y-73295000D01*
G04 #@! TO.C,J1*
X114360000Y-101914000D02*
X111760000Y-101914000D01*
X114360000Y-101914000D02*
X114360000Y-50994000D01*
X114360000Y-50994000D02*
X109160000Y-50994000D01*
X109160000Y-99314000D02*
X109160000Y-50994000D01*
X111760000Y-99314000D02*
X109160000Y-99314000D01*
X111760000Y-101914000D02*
X111760000Y-99314000D01*
X109160000Y-101914000D02*
X109160000Y-100584000D01*
X110490000Y-101914000D02*
X109160000Y-101914000D01*
G04 #@! TO.C,U8*
X174151072Y-69898014D02*
G75*
G02X173631800Y-68963800I580728J934214D01*
G01*
X173956800Y-65338800D02*
X173956800Y-68488800D01*
X174181800Y-69938800D02*
X174181800Y-70463800D01*
X174181800Y-70463800D02*
X175131800Y-70463800D01*
X175156800Y-67888800D02*
X174431800Y-67888800D01*
X174431800Y-67888800D02*
X174431800Y-68538800D01*
X175156800Y-65338800D02*
X173956800Y-65338800D01*
X174131800Y-69913800D02*
G75*
G03X174730337Y-68934752I-501463J979048D01*
G01*
X174731800Y-68963800D02*
X174731800Y-68413800D01*
X173631800Y-68388800D02*
X173631800Y-68963800D01*
X174714789Y-68400593D02*
G75*
G02X173631801Y-68388799I-532989J786793D01*
G01*
X171239789Y-65702593D02*
G75*
G02X170156801Y-65690799I-532989J786793D01*
G01*
X170156800Y-65690800D02*
X170156800Y-66265800D01*
X171256800Y-66265800D02*
X171256800Y-65715800D01*
X170676072Y-67200014D02*
G75*
G02X170156800Y-66265800I580728J934214D01*
G01*
X170656800Y-67215800D02*
G75*
G03X171255337Y-66236752I-501463J979048D01*
G01*
X169881800Y-65290800D02*
X170456800Y-65290800D01*
X170456800Y-65290800D02*
X170456800Y-65840800D01*
X170931800Y-65790800D02*
X170931800Y-62915800D01*
X170931800Y-62915800D02*
X169881800Y-62915800D01*
X170656800Y-67190800D02*
X170656800Y-67940800D01*
X170656800Y-67940800D02*
X169881800Y-67940800D01*
X173956800Y-57718800D02*
X173956800Y-60868800D01*
X175156800Y-57718800D02*
X173956800Y-57718800D01*
X174431800Y-60268800D02*
X174431800Y-60918800D01*
X175156800Y-60268800D02*
X174431800Y-60268800D01*
X174181800Y-62843800D02*
X175131800Y-62843800D01*
X174181800Y-62318800D02*
X174181800Y-62843800D01*
X170656800Y-60193800D02*
X169881800Y-60193800D01*
X170656800Y-59443800D02*
X170656800Y-60193800D01*
X170931800Y-55168800D02*
X169881800Y-55168800D01*
X170931800Y-58043800D02*
X170931800Y-55168800D01*
X170456800Y-57543800D02*
X170456800Y-58093800D01*
X169881800Y-57543800D02*
X170456800Y-57543800D01*
X173631800Y-60768800D02*
X173631800Y-61343800D01*
X174731800Y-61343800D02*
X174731800Y-60793800D01*
X174131800Y-62293800D02*
G75*
G03X174730337Y-61314752I-501463J979048D01*
G01*
X174151072Y-62278014D02*
G75*
G02X173631800Y-61343800I580728J934214D01*
G01*
X174714789Y-60780593D02*
G75*
G02X173631801Y-60768799I-532989J786793D01*
G01*
X170656800Y-59468800D02*
G75*
G03X171255337Y-58489752I-501463J979048D01*
G01*
X170676072Y-59453014D02*
G75*
G02X170156800Y-58518800I580728J934214D01*
G01*
X171256800Y-58518800D02*
X171256800Y-57968800D01*
X170156800Y-57943800D02*
X170156800Y-58518800D01*
X171239789Y-57955593D02*
G75*
G02X170156801Y-57943799I-532989J786793D01*
G01*
X175166800Y-53838800D02*
X173516800Y-53838800D01*
X175166800Y-71738800D02*
X175166800Y-53838800D01*
X169866800Y-71738800D02*
X175166800Y-71738800D01*
X169866800Y-53838800D02*
X169866800Y-71738800D01*
X171516800Y-53838800D02*
X169866800Y-53838800D01*
X173516800Y-53838800D02*
G75*
G02X171516800Y-53838800I-1000000J0D01*
G01*
G04 #@! TO.C,U6*
X122495000Y-46245000D02*
X122495000Y-47895000D01*
X148015000Y-46245000D02*
X122495000Y-46245000D01*
X148015000Y-51545000D02*
X148015000Y-46245000D01*
X122495000Y-51545000D02*
X148015000Y-51545000D01*
X122495000Y-49895000D02*
X122495000Y-51545000D01*
X122495000Y-47895000D02*
G75*
G02X122495000Y-49895000I0J-1000000D01*
G01*
G04 #@! TO.C,U7*
X122495000Y-60595000D02*
G75*
G02X122495000Y-62595000I0J-1000000D01*
G01*
X122495000Y-62595000D02*
X122495000Y-64245000D01*
X122495000Y-64245000D02*
X148015000Y-64245000D01*
X148015000Y-64245000D02*
X148015000Y-58945000D01*
X148015000Y-58945000D02*
X122495000Y-58945000D01*
X122495000Y-58945000D02*
X122495000Y-60595000D01*
G04 #@! TO.C,U1*
X188431925Y-90206962D02*
G75*
G02X188431925Y-88206962I0J1000000D01*
G01*
X188431925Y-88206962D02*
X188431925Y-82746962D01*
X188431925Y-82746962D02*
X152751925Y-82746962D01*
X152751925Y-82746962D02*
X152751925Y-95666962D01*
X152751925Y-95666962D02*
X188431925Y-95666962D01*
X188431925Y-95666962D02*
X188431925Y-90206962D01*
X188491925Y-80256962D02*
X152691925Y-80256962D01*
X152691925Y-80256962D02*
X152691925Y-98156962D01*
X152691925Y-98156962D02*
X188491925Y-98156962D01*
X188491925Y-98156962D02*
X188491925Y-80256962D01*
G04 #@! TO.C,U3*
X161020000Y-53915000D02*
G75*
G02X159020000Y-53915000I-1000000J0D01*
G01*
X159020000Y-53915000D02*
X157370000Y-53915000D01*
X157370000Y-53915000D02*
X157370000Y-71815000D01*
X157370000Y-71815000D02*
X162670000Y-71815000D01*
X162670000Y-71815000D02*
X162670000Y-53915000D01*
X162670000Y-53915000D02*
X161020000Y-53915000D01*
X158742989Y-58031793D02*
G75*
G02X157660001Y-58019999I-532989J786793D01*
G01*
X157660000Y-58020000D02*
X157660000Y-58595000D01*
X158760000Y-58595000D02*
X158760000Y-58045000D01*
X158179272Y-59529214D02*
G75*
G02X157660000Y-58595000I580728J934214D01*
G01*
X158160000Y-59545000D02*
G75*
G03X158758537Y-58565952I-501463J979048D01*
G01*
X162217989Y-60856793D02*
G75*
G02X161135001Y-60844999I-532989J786793D01*
G01*
X161654272Y-62354214D02*
G75*
G02X161135000Y-61420000I580728J934214D01*
G01*
X161635000Y-62370000D02*
G75*
G03X162233537Y-61390952I-501463J979048D01*
G01*
X162235000Y-61420000D02*
X162235000Y-60870000D01*
X161135000Y-60845000D02*
X161135000Y-61420000D01*
X157385000Y-57620000D02*
X157960000Y-57620000D01*
X157960000Y-57620000D02*
X157960000Y-58170000D01*
X158435000Y-58120000D02*
X158435000Y-55245000D01*
X158435000Y-55245000D02*
X157385000Y-55245000D01*
X158160000Y-59520000D02*
X158160000Y-60270000D01*
X158160000Y-60270000D02*
X157385000Y-60270000D01*
X161685000Y-62395000D02*
X161685000Y-62920000D01*
X161685000Y-62920000D02*
X162635000Y-62920000D01*
X162660000Y-60345000D02*
X161935000Y-60345000D01*
X161935000Y-60345000D02*
X161935000Y-60995000D01*
X162660000Y-57795000D02*
X161460000Y-57795000D01*
X161460000Y-57795000D02*
X161460000Y-60945000D01*
X158160000Y-68017000D02*
X157385000Y-68017000D01*
X158160000Y-67267000D02*
X158160000Y-68017000D01*
X158435000Y-62992000D02*
X157385000Y-62992000D01*
X158435000Y-65867000D02*
X158435000Y-62992000D01*
X157960000Y-65367000D02*
X157960000Y-65917000D01*
X157385000Y-65367000D02*
X157960000Y-65367000D01*
X158160000Y-67292000D02*
G75*
G03X158758537Y-66312952I-501463J979048D01*
G01*
X158179272Y-67276214D02*
G75*
G02X157660000Y-66342000I580728J934214D01*
G01*
X158760000Y-66342000D02*
X158760000Y-65792000D01*
X157660000Y-65767000D02*
X157660000Y-66342000D01*
X158742989Y-65778793D02*
G75*
G02X157660001Y-65766999I-532989J786793D01*
G01*
X162217989Y-68476793D02*
G75*
G02X161135001Y-68464999I-532989J786793D01*
G01*
X161135000Y-68465000D02*
X161135000Y-69040000D01*
X162235000Y-69040000D02*
X162235000Y-68490000D01*
X161635000Y-69990000D02*
G75*
G03X162233537Y-69010952I-501463J979048D01*
G01*
X162660000Y-65415000D02*
X161460000Y-65415000D01*
X161935000Y-67965000D02*
X161935000Y-68615000D01*
X162660000Y-67965000D02*
X161935000Y-67965000D01*
X161685000Y-70540000D02*
X162635000Y-70540000D01*
X161685000Y-70015000D02*
X161685000Y-70540000D01*
X161460000Y-65415000D02*
X161460000Y-68565000D01*
X161654272Y-69974214D02*
G75*
G02X161135000Y-69040000I580728J934214D01*
G01*
G04 #@! TO.C,U2*
X187231800Y-53915000D02*
X185581800Y-53915000D01*
X187231800Y-71815000D02*
X187231800Y-53915000D01*
X181931800Y-71815000D02*
X187231800Y-71815000D01*
X181931800Y-53915000D02*
X181931800Y-71815000D01*
X183581800Y-53915000D02*
X181931800Y-53915000D01*
X185581800Y-53915000D02*
G75*
G02X183581800Y-53915000I-1000000J0D01*
G01*
X182323740Y-58313320D02*
X183276240Y-58313320D01*
X182321200Y-58326020D02*
X182321200Y-58912760D01*
X183290904Y-58904363D02*
G75*
G02X182321200Y-58928000I-484564J-23637D01*
G01*
X182884289Y-59482037D02*
G75*
G02X182834279Y-59466481I-65249J-121603D01*
G01*
X183296560Y-58920380D02*
X183296560Y-58318400D01*
X183255344Y-66948543D02*
G75*
G02X182285640Y-66972180I-484564J-23637D01*
G01*
X182848729Y-67526217D02*
G75*
G02X182798719Y-67510661I-65249J-121603D01*
G01*
X182288180Y-66357500D02*
X183240680Y-66357500D01*
X183261000Y-66964560D02*
X183261000Y-66362580D01*
X182285640Y-66370200D02*
X182285640Y-66956940D01*
X186933264Y-61711063D02*
G75*
G02X185963560Y-61734700I-484564J-23637D01*
G01*
X186526649Y-62288737D02*
G75*
G02X186476639Y-62273181I-65249J-121603D01*
G01*
X185966100Y-61120020D02*
X186918600Y-61120020D01*
X186938920Y-61727080D02*
X186938920Y-61125100D01*
X185963560Y-61132720D02*
X185963560Y-61719460D01*
X186933264Y-69021183D02*
G75*
G02X185963560Y-69044820I-484564J-23637D01*
G01*
X186526649Y-69598857D02*
G75*
G02X186476639Y-69583301I-65249J-121603D01*
G01*
X185966100Y-68430140D02*
X186918600Y-68430140D01*
X186938920Y-69037200D02*
X186938920Y-68435220D01*
X185963560Y-68442840D02*
X185963560Y-69029580D01*
X181914800Y-55245000D02*
X183057800Y-55245000D01*
X183057800Y-55245000D02*
X183057800Y-58293000D01*
X181914800Y-57785000D02*
X182676800Y-57785000D01*
X182676800Y-57785000D02*
X182676800Y-58293000D01*
X181914800Y-60325000D02*
X182803800Y-60325000D01*
X182803800Y-60325000D02*
X182803800Y-59817000D01*
X183057800Y-66294000D02*
X183057800Y-62865000D01*
X183057800Y-62865000D02*
X181914800Y-62865000D01*
X182549800Y-66294000D02*
X182549800Y-65405000D01*
X182549800Y-65405000D02*
X181914800Y-65405000D01*
X182803800Y-67818000D02*
X182803800Y-68199000D01*
X182803800Y-68199000D02*
X181914800Y-68199000D01*
X186232800Y-61087000D02*
X186232800Y-57785000D01*
X186232800Y-57785000D02*
X187248800Y-57785000D01*
X186613800Y-61087000D02*
X186613800Y-60325000D01*
X186613800Y-60325000D02*
X187248800Y-60325000D01*
X187248800Y-62992000D02*
X186486800Y-62992000D01*
X186486800Y-62992000D02*
X186486800Y-62611000D01*
X186232800Y-68326000D02*
X186232800Y-65532000D01*
X186232800Y-65532000D02*
X187248800Y-65532000D01*
X186613800Y-68326000D02*
X186613800Y-67945000D01*
X186613800Y-67945000D02*
X187248800Y-67945000D01*
X187248800Y-70612000D02*
X186486800Y-70612000D01*
X186486800Y-70612000D02*
X186486800Y-69850000D01*
G04 #@! TO.C,U0*
X122622000Y-98060000D02*
G75*
G02X122622000Y-100060000I0J-1000000D01*
G01*
X122622000Y-100060000D02*
X122622000Y-101710000D01*
X122622000Y-101710000D02*
X148142000Y-101710000D01*
X148142000Y-101710000D02*
X148142000Y-96410000D01*
X148142000Y-96410000D02*
X122622000Y-96410000D01*
X122622000Y-96410000D02*
X122622000Y-98060000D01*
G04 #@! TO.C,U4*
X122495000Y-84345000D02*
X122495000Y-85995000D01*
X148015000Y-84345000D02*
X122495000Y-84345000D01*
X148015000Y-89645000D02*
X148015000Y-84345000D01*
X122495000Y-89645000D02*
X148015000Y-89645000D01*
X122495000Y-87995000D02*
X122495000Y-89645000D01*
X122495000Y-85995000D02*
G75*
G02X122495000Y-87995000I0J-1000000D01*
G01*
G04 #@! TO.C,U8*
D10*
X172034180Y-65361657D02*
X172034180Y-64694990D01*
X173034180Y-65123561D01*
X172367514Y-63885466D02*
X173034180Y-63885466D01*
X171986561Y-64123561D02*
X172700847Y-64361657D01*
X172700847Y-63742609D01*
X173034180Y-62885466D02*
X173034180Y-63361657D01*
X172034180Y-63361657D01*
X172986561Y-62599752D02*
X173034180Y-62456895D01*
X173034180Y-62218800D01*
X172986561Y-62123561D01*
X172938942Y-62075942D01*
X172843704Y-62028323D01*
X172748466Y-62028323D01*
X172653228Y-62075942D01*
X172605609Y-62123561D01*
X172557990Y-62218800D01*
X172510371Y-62409276D01*
X172462752Y-62504514D01*
X172415133Y-62552133D01*
X172319895Y-62599752D01*
X172224657Y-62599752D01*
X172129419Y-62552133D01*
X172081800Y-62504514D01*
X172034180Y-62409276D01*
X172034180Y-62171180D01*
X172081800Y-62028323D01*
X172034180Y-61694990D02*
X172034180Y-61075942D01*
X172415133Y-61409276D01*
X172415133Y-61266419D01*
X172462752Y-61171180D01*
X172510371Y-61123561D01*
X172605609Y-61075942D01*
X172843704Y-61075942D01*
X172938942Y-61123561D01*
X172986561Y-61171180D01*
X173034180Y-61266419D01*
X173034180Y-61552133D01*
X172986561Y-61647371D01*
X172938942Y-61694990D01*
X172129419Y-60694990D02*
X172081800Y-60647371D01*
X172034180Y-60552133D01*
X172034180Y-60314038D01*
X172081800Y-60218800D01*
X172129419Y-60171180D01*
X172224657Y-60123561D01*
X172319895Y-60123561D01*
X172462752Y-60171180D01*
X173034180Y-60742609D01*
X173034180Y-60123561D01*
G04 #@! TO.C,U3*
X159537380Y-65437857D02*
X159537380Y-64771190D01*
X160537380Y-65199761D01*
X159870714Y-63961666D02*
X160537380Y-63961666D01*
X159489761Y-64199761D02*
X160204047Y-64437857D01*
X160204047Y-63818809D01*
X160537380Y-62961666D02*
X160537380Y-63437857D01*
X159537380Y-63437857D01*
X160489761Y-62675952D02*
X160537380Y-62533095D01*
X160537380Y-62295000D01*
X160489761Y-62199761D01*
X160442142Y-62152142D01*
X160346904Y-62104523D01*
X160251666Y-62104523D01*
X160156428Y-62152142D01*
X160108809Y-62199761D01*
X160061190Y-62295000D01*
X160013571Y-62485476D01*
X159965952Y-62580714D01*
X159918333Y-62628333D01*
X159823095Y-62675952D01*
X159727857Y-62675952D01*
X159632619Y-62628333D01*
X159585000Y-62580714D01*
X159537380Y-62485476D01*
X159537380Y-62247380D01*
X159585000Y-62104523D01*
X159537380Y-61771190D02*
X159537380Y-61152142D01*
X159918333Y-61485476D01*
X159918333Y-61342619D01*
X159965952Y-61247380D01*
X160013571Y-61199761D01*
X160108809Y-61152142D01*
X160346904Y-61152142D01*
X160442142Y-61199761D01*
X160489761Y-61247380D01*
X160537380Y-61342619D01*
X160537380Y-61628333D01*
X160489761Y-61723571D01*
X160442142Y-61771190D01*
X159632619Y-60771190D02*
X159585000Y-60723571D01*
X159537380Y-60628333D01*
X159537380Y-60390238D01*
X159585000Y-60295000D01*
X159632619Y-60247380D01*
X159727857Y-60199761D01*
X159823095Y-60199761D01*
X159965952Y-60247380D01*
X160537380Y-60818809D01*
X160537380Y-60199761D01*
G04 #@! TO.C,U2*
X184099180Y-65637857D02*
X184099180Y-64971190D01*
X185099180Y-65399761D01*
X184432514Y-64161666D02*
X185099180Y-64161666D01*
X184051561Y-64399761D02*
X184765847Y-64637857D01*
X184765847Y-64018809D01*
X185099180Y-63161666D02*
X185099180Y-63637857D01*
X184099180Y-63637857D01*
X185051561Y-62875952D02*
X185099180Y-62733095D01*
X185099180Y-62495000D01*
X185051561Y-62399761D01*
X185003942Y-62352142D01*
X184908704Y-62304523D01*
X184813466Y-62304523D01*
X184718228Y-62352142D01*
X184670609Y-62399761D01*
X184622990Y-62495000D01*
X184575371Y-62685476D01*
X184527752Y-62780714D01*
X184480133Y-62828333D01*
X184384895Y-62875952D01*
X184289657Y-62875952D01*
X184194419Y-62828333D01*
X184146800Y-62780714D01*
X184099180Y-62685476D01*
X184099180Y-62447380D01*
X184146800Y-62304523D01*
X184099180Y-61685476D02*
X184099180Y-61590238D01*
X184146800Y-61495000D01*
X184194419Y-61447380D01*
X184289657Y-61399761D01*
X184480133Y-61352142D01*
X184718228Y-61352142D01*
X184908704Y-61399761D01*
X185003942Y-61447380D01*
X185051561Y-61495000D01*
X185099180Y-61590238D01*
X185099180Y-61685476D01*
X185051561Y-61780714D01*
X185003942Y-61828333D01*
X184908704Y-61875952D01*
X184718228Y-61923571D01*
X184480133Y-61923571D01*
X184289657Y-61875952D01*
X184194419Y-61828333D01*
X184146800Y-61780714D01*
X184099180Y-61685476D01*
X184099180Y-60733095D02*
X184099180Y-60637857D01*
X184146800Y-60542619D01*
X184194419Y-60495000D01*
X184289657Y-60447380D01*
X184480133Y-60399761D01*
X184718228Y-60399761D01*
X184908704Y-60447380D01*
X185003942Y-60495000D01*
X185051561Y-60542619D01*
X185099180Y-60637857D01*
X185099180Y-60733095D01*
X185051561Y-60828333D01*
X185003942Y-60875952D01*
X184908704Y-60923571D01*
X184718228Y-60971190D01*
X184480133Y-60971190D01*
X184289657Y-60923571D01*
X184194419Y-60875952D01*
X184146800Y-60828333D01*
X184099180Y-60733095D01*
G04 #@! TD*
M02*
