G04 #@! TF.GenerationSoftware,KiCad,Pcbnew,(5.1.9-0-10_14)*
G04 #@! TF.CreationDate,2021-03-12T10:10:12-05:00*
G04 #@! TF.ProjectId,Apple2IORPi,4170706c-6532-4494-9f52-50692e6b6963,0.4*
G04 #@! TF.SameCoordinates,Original*
G04 #@! TF.FileFunction,Legend,Bot*
G04 #@! TF.FilePolarity,Positive*
%FSLAX46Y46*%
G04 Gerber Fmt 4.6, Leading zero omitted, Abs format (unit mm)*
G04 Created by KiCad (PCBNEW (5.1.9-0-10_14)) date 2021-03-12 10:10:12*
%MOMM*%
%LPD*%
G01*
G04 APERTURE LIST*
%ADD10C,0.150000*%
G04 APERTURE END LIST*
D10*
X183484204Y-100124980D02*
X183484204Y-99124980D01*
X183150871Y-99839266D01*
X182817538Y-99124980D01*
X182817538Y-100124980D01*
X181912776Y-100124980D02*
X181912776Y-99601171D01*
X181960395Y-99505933D01*
X182055633Y-99458314D01*
X182246109Y-99458314D01*
X182341347Y-99505933D01*
X181912776Y-100077361D02*
X182008014Y-100124980D01*
X182246109Y-100124980D01*
X182341347Y-100077361D01*
X182388966Y-99982123D01*
X182388966Y-99886885D01*
X182341347Y-99791647D01*
X182246109Y-99744028D01*
X182008014Y-99744028D01*
X181912776Y-99696409D01*
X181008014Y-100124980D02*
X181008014Y-99124980D01*
X181008014Y-100077361D02*
X181103252Y-100124980D01*
X181293728Y-100124980D01*
X181388966Y-100077361D01*
X181436585Y-100029742D01*
X181484204Y-99934504D01*
X181484204Y-99648790D01*
X181436585Y-99553552D01*
X181388966Y-99505933D01*
X181293728Y-99458314D01*
X181103252Y-99458314D01*
X181008014Y-99505933D01*
X180150871Y-100077361D02*
X180246109Y-100124980D01*
X180436585Y-100124980D01*
X180531823Y-100077361D01*
X180579442Y-99982123D01*
X180579442Y-99601171D01*
X180531823Y-99505933D01*
X180436585Y-99458314D01*
X180246109Y-99458314D01*
X180150871Y-99505933D01*
X180103252Y-99601171D01*
X180103252Y-99696409D01*
X180579442Y-99791647D01*
X179055633Y-99458314D02*
X178674680Y-99458314D01*
X178912776Y-100124980D02*
X178912776Y-99267838D01*
X178865157Y-99172600D01*
X178769919Y-99124980D01*
X178674680Y-99124980D01*
X178198490Y-100124980D02*
X178293728Y-100077361D01*
X178341347Y-100029742D01*
X178388966Y-99934504D01*
X178388966Y-99648790D01*
X178341347Y-99553552D01*
X178293728Y-99505933D01*
X178198490Y-99458314D01*
X178055633Y-99458314D01*
X177960395Y-99505933D01*
X177912776Y-99553552D01*
X177865157Y-99648790D01*
X177865157Y-99934504D01*
X177912776Y-100029742D01*
X177960395Y-100077361D01*
X178055633Y-100124980D01*
X178198490Y-100124980D01*
X177436585Y-100124980D02*
X177436585Y-99458314D01*
X177436585Y-99648790D02*
X177388966Y-99553552D01*
X177341347Y-99505933D01*
X177246109Y-99458314D01*
X177150871Y-99458314D01*
X176103252Y-99839266D02*
X175627061Y-99839266D01*
X176198490Y-100124980D02*
X175865157Y-99124980D01*
X175531823Y-100124980D01*
X175198490Y-99458314D02*
X175198490Y-100458314D01*
X175198490Y-99505933D02*
X175103252Y-99458314D01*
X174912776Y-99458314D01*
X174817538Y-99505933D01*
X174769919Y-99553552D01*
X174722300Y-99648790D01*
X174722300Y-99934504D01*
X174769919Y-100029742D01*
X174817538Y-100077361D01*
X174912776Y-100124980D01*
X175103252Y-100124980D01*
X175198490Y-100077361D01*
X174293728Y-99458314D02*
X174293728Y-100458314D01*
X174293728Y-99505933D02*
X174198490Y-99458314D01*
X174008014Y-99458314D01*
X173912776Y-99505933D01*
X173865157Y-99553552D01*
X173817538Y-99648790D01*
X173817538Y-99934504D01*
X173865157Y-100029742D01*
X173912776Y-100077361D01*
X174008014Y-100124980D01*
X174198490Y-100124980D01*
X174293728Y-100077361D01*
X173246109Y-100124980D02*
X173341347Y-100077361D01*
X173388966Y-99982123D01*
X173388966Y-99124980D01*
X172484204Y-100077361D02*
X172579442Y-100124980D01*
X172769919Y-100124980D01*
X172865157Y-100077361D01*
X172912776Y-99982123D01*
X172912776Y-99601171D01*
X172865157Y-99505933D01*
X172769919Y-99458314D01*
X172579442Y-99458314D01*
X172484204Y-99505933D01*
X172436585Y-99601171D01*
X172436585Y-99696409D01*
X172912776Y-99791647D01*
X171341347Y-100458314D02*
X171103252Y-100458314D01*
X171103252Y-99029742D01*
X171341347Y-99029742D01*
X170293728Y-100458314D02*
X170531823Y-100458314D01*
X170531823Y-99029742D01*
X170293728Y-99029742D01*
X169198490Y-100077361D02*
X169103252Y-100124980D01*
X168912776Y-100124980D01*
X168817538Y-100077361D01*
X168769919Y-99982123D01*
X168769919Y-99934504D01*
X168817538Y-99839266D01*
X168912776Y-99791647D01*
X169055633Y-99791647D01*
X169150871Y-99744028D01*
X169198490Y-99648790D01*
X169198490Y-99601171D01*
X169150871Y-99505933D01*
X169055633Y-99458314D01*
X168912776Y-99458314D01*
X168817538Y-99505933D01*
X167960395Y-100077361D02*
X168055633Y-100124980D01*
X168246109Y-100124980D01*
X168341347Y-100077361D01*
X168388966Y-99982123D01*
X168388966Y-99601171D01*
X168341347Y-99505933D01*
X168246109Y-99458314D01*
X168055633Y-99458314D01*
X167960395Y-99505933D01*
X167912776Y-99601171D01*
X167912776Y-99696409D01*
X168388966Y-99791647D01*
X167484204Y-100124980D02*
X167484204Y-99458314D01*
X167484204Y-99648790D02*
X167436585Y-99553552D01*
X167388966Y-99505933D01*
X167293728Y-99458314D01*
X167198490Y-99458314D01*
X166865157Y-100124980D02*
X166865157Y-99458314D01*
X166865157Y-99124980D02*
X166912776Y-99172600D01*
X166865157Y-99220219D01*
X166817538Y-99172600D01*
X166865157Y-99124980D01*
X166865157Y-99220219D01*
X166008014Y-100077361D02*
X166103252Y-100124980D01*
X166293728Y-100124980D01*
X166388966Y-100077361D01*
X166436585Y-99982123D01*
X166436585Y-99601171D01*
X166388966Y-99505933D01*
X166293728Y-99458314D01*
X166103252Y-99458314D01*
X166008014Y-99505933D01*
X165960395Y-99601171D01*
X165960395Y-99696409D01*
X166436585Y-99791647D01*
X165579442Y-100077361D02*
X165484204Y-100124980D01*
X165293728Y-100124980D01*
X165198490Y-100077361D01*
X165150871Y-99982123D01*
X165150871Y-99934504D01*
X165198490Y-99839266D01*
X165293728Y-99791647D01*
X165436585Y-99791647D01*
X165531823Y-99744028D01*
X165579442Y-99648790D01*
X165579442Y-99601171D01*
X165531823Y-99505933D01*
X165436585Y-99458314D01*
X165293728Y-99458314D01*
X165198490Y-99505933D01*
X163531823Y-100077361D02*
X163627061Y-100124980D01*
X163817538Y-100124980D01*
X163912776Y-100077361D01*
X163960395Y-100029742D01*
X164008014Y-99934504D01*
X164008014Y-99648790D01*
X163960395Y-99553552D01*
X163912776Y-99505933D01*
X163817538Y-99458314D01*
X163627061Y-99458314D01*
X163531823Y-99505933D01*
X162960395Y-100124980D02*
X163055633Y-100077361D01*
X163103252Y-100029742D01*
X163150871Y-99934504D01*
X163150871Y-99648790D01*
X163103252Y-99553552D01*
X163055633Y-99505933D01*
X162960395Y-99458314D01*
X162817538Y-99458314D01*
X162722300Y-99505933D01*
X162674680Y-99553552D01*
X162627061Y-99648790D01*
X162627061Y-99934504D01*
X162674680Y-100029742D01*
X162722300Y-100077361D01*
X162817538Y-100124980D01*
X162960395Y-100124980D01*
X162198490Y-100124980D02*
X162198490Y-99458314D01*
X162198490Y-99553552D02*
X162150871Y-99505933D01*
X162055633Y-99458314D01*
X161912776Y-99458314D01*
X161817538Y-99505933D01*
X161769919Y-99601171D01*
X161769919Y-100124980D01*
X161769919Y-99601171D02*
X161722300Y-99505933D01*
X161627061Y-99458314D01*
X161484204Y-99458314D01*
X161388966Y-99505933D01*
X161341347Y-99601171D01*
X161341347Y-100124980D01*
X160865157Y-99458314D02*
X160865157Y-100458314D01*
X160865157Y-99505933D02*
X160769919Y-99458314D01*
X160579442Y-99458314D01*
X160484204Y-99505933D01*
X160436585Y-99553552D01*
X160388966Y-99648790D01*
X160388966Y-99934504D01*
X160436585Y-100029742D01*
X160484204Y-100077361D01*
X160579442Y-100124980D01*
X160769919Y-100124980D01*
X160865157Y-100077361D01*
X159531823Y-99458314D02*
X159531823Y-100124980D01*
X159960395Y-99458314D02*
X159960395Y-99982123D01*
X159912776Y-100077361D01*
X159817538Y-100124980D01*
X159674680Y-100124980D01*
X159579442Y-100077361D01*
X159531823Y-100029742D01*
X159198490Y-99458314D02*
X158817538Y-99458314D01*
X159055633Y-99124980D02*
X159055633Y-99982123D01*
X159008014Y-100077361D01*
X158912776Y-100124980D01*
X158817538Y-100124980D01*
X158103252Y-100077361D02*
X158198490Y-100124980D01*
X158388966Y-100124980D01*
X158484204Y-100077361D01*
X158531823Y-99982123D01*
X158531823Y-99601171D01*
X158484204Y-99505933D01*
X158388966Y-99458314D01*
X158198490Y-99458314D01*
X158103252Y-99505933D01*
X158055633Y-99601171D01*
X158055633Y-99696409D01*
X158531823Y-99791647D01*
X157627061Y-100124980D02*
X157627061Y-99458314D01*
X157627061Y-99648790D02*
X157579442Y-99553552D01*
X157531823Y-99505933D01*
X157436585Y-99458314D01*
X157341347Y-99458314D01*
X157055633Y-100077361D02*
X156960395Y-100124980D01*
X156769919Y-100124980D01*
X156674680Y-100077361D01*
X156627061Y-99982123D01*
X156627061Y-99934504D01*
X156674680Y-99839266D01*
X156769919Y-99791647D01*
X156912776Y-99791647D01*
X157008014Y-99744028D01*
X157055633Y-99648790D01*
X157055633Y-99601171D01*
X157008014Y-99505933D01*
X156912776Y-99458314D01*
X156769919Y-99458314D01*
X156674680Y-99505933D01*
X183150871Y-101251171D02*
X183484204Y-101251171D01*
X183484204Y-101774980D02*
X183484204Y-100774980D01*
X183008014Y-100774980D01*
X182484204Y-101774980D02*
X182579442Y-101727361D01*
X182627061Y-101679742D01*
X182674680Y-101584504D01*
X182674680Y-101298790D01*
X182627061Y-101203552D01*
X182579442Y-101155933D01*
X182484204Y-101108314D01*
X182341347Y-101108314D01*
X182246109Y-101155933D01*
X182198490Y-101203552D01*
X182150871Y-101298790D01*
X182150871Y-101584504D01*
X182198490Y-101679742D01*
X182246109Y-101727361D01*
X182341347Y-101774980D01*
X182484204Y-101774980D01*
X181722300Y-101774980D02*
X181722300Y-101108314D01*
X181722300Y-101298790D02*
X181674680Y-101203552D01*
X181627061Y-101155933D01*
X181531823Y-101108314D01*
X181436585Y-101108314D01*
X179912776Y-101108314D02*
X179912776Y-101774980D01*
X180341347Y-101108314D02*
X180341347Y-101632123D01*
X180293728Y-101727361D01*
X180198490Y-101774980D01*
X180055633Y-101774980D01*
X179960395Y-101727361D01*
X179912776Y-101679742D01*
X179484204Y-101727361D02*
X179388966Y-101774980D01*
X179198490Y-101774980D01*
X179103252Y-101727361D01*
X179055633Y-101632123D01*
X179055633Y-101584504D01*
X179103252Y-101489266D01*
X179198490Y-101441647D01*
X179341347Y-101441647D01*
X179436585Y-101394028D01*
X179484204Y-101298790D01*
X179484204Y-101251171D01*
X179436585Y-101155933D01*
X179341347Y-101108314D01*
X179198490Y-101108314D01*
X179103252Y-101155933D01*
X178246109Y-101727361D02*
X178341347Y-101774980D01*
X178531823Y-101774980D01*
X178627061Y-101727361D01*
X178674680Y-101632123D01*
X178674680Y-101251171D01*
X178627061Y-101155933D01*
X178531823Y-101108314D01*
X178341347Y-101108314D01*
X178246109Y-101155933D01*
X178198490Y-101251171D01*
X178198490Y-101346409D01*
X178674680Y-101441647D01*
X177103252Y-101108314D02*
X176912776Y-101774980D01*
X176722300Y-101298790D01*
X176531823Y-101774980D01*
X176341347Y-101108314D01*
X175960395Y-101774980D02*
X175960395Y-101108314D01*
X175960395Y-100774980D02*
X176008014Y-100822600D01*
X175960395Y-100870219D01*
X175912776Y-100822600D01*
X175960395Y-100774980D01*
X175960395Y-100870219D01*
X175627061Y-101108314D02*
X175246109Y-101108314D01*
X175484204Y-100774980D02*
X175484204Y-101632123D01*
X175436585Y-101727361D01*
X175341347Y-101774980D01*
X175246109Y-101774980D01*
X174912776Y-101774980D02*
X174912776Y-100774980D01*
X174484204Y-101774980D02*
X174484204Y-101251171D01*
X174531823Y-101155933D01*
X174627061Y-101108314D01*
X174769919Y-101108314D01*
X174865157Y-101155933D01*
X174912776Y-101203552D01*
X173103252Y-101774980D02*
X173198490Y-101727361D01*
X173246109Y-101632123D01*
X173246109Y-100774980D01*
X172579442Y-101774980D02*
X172674680Y-101727361D01*
X172722300Y-101679742D01*
X172769919Y-101584504D01*
X172769919Y-101298790D01*
X172722300Y-101203552D01*
X172674680Y-101155933D01*
X172579442Y-101108314D01*
X172436585Y-101108314D01*
X172341347Y-101155933D01*
X172293728Y-101203552D01*
X172246109Y-101298790D01*
X172246109Y-101584504D01*
X172293728Y-101679742D01*
X172341347Y-101727361D01*
X172436585Y-101774980D01*
X172579442Y-101774980D01*
X171912776Y-101108314D02*
X171722300Y-101774980D01*
X171531823Y-101298790D01*
X171341347Y-101774980D01*
X171150871Y-101108314D01*
X169579442Y-101727361D02*
X169674680Y-101774980D01*
X169865157Y-101774980D01*
X169960395Y-101727361D01*
X170008014Y-101679742D01*
X170055633Y-101584504D01*
X170055633Y-101298790D01*
X170008014Y-101203552D01*
X169960395Y-101155933D01*
X169865157Y-101108314D01*
X169674680Y-101108314D01*
X169579442Y-101155933D01*
X168722300Y-101108314D02*
X168722300Y-101774980D01*
X169150871Y-101108314D02*
X169150871Y-101632123D01*
X169103252Y-101727361D01*
X169008014Y-101774980D01*
X168865157Y-101774980D01*
X168769919Y-101727361D01*
X168722300Y-101679742D01*
X168246109Y-101774980D02*
X168246109Y-101108314D01*
X168246109Y-101298790D02*
X168198490Y-101203552D01*
X168150871Y-101155933D01*
X168055633Y-101108314D01*
X167960395Y-101108314D01*
X167627061Y-101774980D02*
X167627061Y-101108314D01*
X167627061Y-101298790D02*
X167579442Y-101203552D01*
X167531823Y-101155933D01*
X167436585Y-101108314D01*
X167341347Y-101108314D01*
X166627061Y-101727361D02*
X166722300Y-101774980D01*
X166912776Y-101774980D01*
X167008014Y-101727361D01*
X167055633Y-101632123D01*
X167055633Y-101251171D01*
X167008014Y-101155933D01*
X166912776Y-101108314D01*
X166722300Y-101108314D01*
X166627061Y-101155933D01*
X166579442Y-101251171D01*
X166579442Y-101346409D01*
X167055633Y-101441647D01*
X166150871Y-101108314D02*
X166150871Y-101774980D01*
X166150871Y-101203552D02*
X166103252Y-101155933D01*
X166008014Y-101108314D01*
X165865157Y-101108314D01*
X165769919Y-101155933D01*
X165722300Y-101251171D01*
X165722300Y-101774980D01*
X165388966Y-101108314D02*
X165008014Y-101108314D01*
X165246109Y-100774980D02*
X165246109Y-101632123D01*
X165198490Y-101727361D01*
X165103252Y-101774980D01*
X165008014Y-101774980D01*
X163341347Y-101774980D02*
X163674680Y-101298790D01*
X163912776Y-101774980D02*
X163912776Y-100774980D01*
X163531823Y-100774980D01*
X163436585Y-100822600D01*
X163388966Y-100870219D01*
X163341347Y-100965457D01*
X163341347Y-101108314D01*
X163388966Y-101203552D01*
X163436585Y-101251171D01*
X163531823Y-101298790D01*
X163912776Y-101298790D01*
X162484204Y-101774980D02*
X162484204Y-101251171D01*
X162531823Y-101155933D01*
X162627061Y-101108314D01*
X162817538Y-101108314D01*
X162912776Y-101155933D01*
X162484204Y-101727361D02*
X162579442Y-101774980D01*
X162817538Y-101774980D01*
X162912776Y-101727361D01*
X162960395Y-101632123D01*
X162960395Y-101536885D01*
X162912776Y-101441647D01*
X162817538Y-101394028D01*
X162579442Y-101394028D01*
X162484204Y-101346409D01*
X162055633Y-101727361D02*
X161960395Y-101774980D01*
X161769919Y-101774980D01*
X161674680Y-101727361D01*
X161627061Y-101632123D01*
X161627061Y-101584504D01*
X161674680Y-101489266D01*
X161769919Y-101441647D01*
X161912776Y-101441647D01*
X162008014Y-101394028D01*
X162055633Y-101298790D01*
X162055633Y-101251171D01*
X162008014Y-101155933D01*
X161912776Y-101108314D01*
X161769919Y-101108314D01*
X161674680Y-101155933D01*
X161198490Y-101108314D02*
X161198490Y-102108314D01*
X161198490Y-101155933D02*
X161103252Y-101108314D01*
X160912776Y-101108314D01*
X160817538Y-101155933D01*
X160769919Y-101203552D01*
X160722300Y-101298790D01*
X160722300Y-101584504D01*
X160769919Y-101679742D01*
X160817538Y-101727361D01*
X160912776Y-101774980D01*
X161103252Y-101774980D01*
X161198490Y-101727361D01*
X160293728Y-101774980D02*
X160293728Y-100774980D01*
X160293728Y-101155933D02*
X160198490Y-101108314D01*
X160008014Y-101108314D01*
X159912776Y-101155933D01*
X159865157Y-101203552D01*
X159817538Y-101298790D01*
X159817538Y-101584504D01*
X159865157Y-101679742D01*
X159912776Y-101727361D01*
X160008014Y-101774980D01*
X160198490Y-101774980D01*
X160293728Y-101727361D01*
X159008014Y-101727361D02*
X159103252Y-101774980D01*
X159293728Y-101774980D01*
X159388966Y-101727361D01*
X159436585Y-101632123D01*
X159436585Y-101251171D01*
X159388966Y-101155933D01*
X159293728Y-101108314D01*
X159103252Y-101108314D01*
X159008014Y-101155933D01*
X158960395Y-101251171D01*
X158960395Y-101346409D01*
X159436585Y-101441647D01*
X158531823Y-101774980D02*
X158531823Y-101108314D01*
X158531823Y-101298790D02*
X158484204Y-101203552D01*
X158436585Y-101155933D01*
X158341347Y-101108314D01*
X158246109Y-101108314D01*
X157912776Y-101774980D02*
X157912776Y-101108314D01*
X157912776Y-101298790D02*
X157865157Y-101203552D01*
X157817538Y-101155933D01*
X157722300Y-101108314D01*
X157627061Y-101108314D01*
X157388966Y-101108314D02*
X157150871Y-101774980D01*
X156912776Y-101108314D02*
X157150871Y-101774980D01*
X157246109Y-102013076D01*
X157293728Y-102060695D01*
X157388966Y-102108314D01*
X155769919Y-101774980D02*
X155769919Y-100774980D01*
X155388966Y-100774980D01*
X155293728Y-100822600D01*
X155246109Y-100870219D01*
X155198490Y-100965457D01*
X155198490Y-101108314D01*
X155246109Y-101203552D01*
X155293728Y-101251171D01*
X155388966Y-101298790D01*
X155769919Y-101298790D01*
X154769919Y-101774980D02*
X154769919Y-101108314D01*
X154769919Y-100774980D02*
X154817538Y-100822600D01*
X154769919Y-100870219D01*
X154722300Y-100822600D01*
X154769919Y-100774980D01*
X154769919Y-100870219D01*
X153388966Y-101774980D02*
X153484204Y-101727361D01*
X153531823Y-101679742D01*
X153579442Y-101584504D01*
X153579442Y-101298790D01*
X153531823Y-101203552D01*
X153484204Y-101155933D01*
X153388966Y-101108314D01*
X153246109Y-101108314D01*
X153150871Y-101155933D01*
X153103252Y-101203552D01*
X153055633Y-101298790D01*
X153055633Y-101584504D01*
X153103252Y-101679742D01*
X153150871Y-101727361D01*
X153246109Y-101774980D01*
X153388966Y-101774980D01*
X152627061Y-101108314D02*
X152627061Y-101774980D01*
X152627061Y-101203552D02*
X152579442Y-101155933D01*
X152484204Y-101108314D01*
X152341347Y-101108314D01*
X152246109Y-101155933D01*
X152198490Y-101251171D01*
X152198490Y-101774980D01*
X151579442Y-101774980D02*
X151674680Y-101727361D01*
X151722300Y-101632123D01*
X151722300Y-100774980D01*
X151293728Y-101108314D02*
X151055633Y-101774980D01*
X150817538Y-101108314D02*
X151055633Y-101774980D01*
X151150871Y-102013076D01*
X151198490Y-102060695D01*
X151293728Y-102108314D01*
X182912776Y-103424980D02*
X183246109Y-102948790D01*
X183484204Y-103424980D02*
X183484204Y-102424980D01*
X183103252Y-102424980D01*
X183008014Y-102472600D01*
X182960395Y-102520219D01*
X182912776Y-102615457D01*
X182912776Y-102758314D01*
X182960395Y-102853552D01*
X183008014Y-102901171D01*
X183103252Y-102948790D01*
X183484204Y-102948790D01*
X182055633Y-103424980D02*
X182055633Y-102901171D01*
X182103252Y-102805933D01*
X182198490Y-102758314D01*
X182388966Y-102758314D01*
X182484204Y-102805933D01*
X182055633Y-103377361D02*
X182150871Y-103424980D01*
X182388966Y-103424980D01*
X182484204Y-103377361D01*
X182531823Y-103282123D01*
X182531823Y-103186885D01*
X182484204Y-103091647D01*
X182388966Y-103044028D01*
X182150871Y-103044028D01*
X182055633Y-102996409D01*
X181627061Y-103377361D02*
X181531823Y-103424980D01*
X181341347Y-103424980D01*
X181246109Y-103377361D01*
X181198490Y-103282123D01*
X181198490Y-103234504D01*
X181246109Y-103139266D01*
X181341347Y-103091647D01*
X181484204Y-103091647D01*
X181579442Y-103044028D01*
X181627061Y-102948790D01*
X181627061Y-102901171D01*
X181579442Y-102805933D01*
X181484204Y-102758314D01*
X181341347Y-102758314D01*
X181246109Y-102805933D01*
X180769919Y-102758314D02*
X180769919Y-103758314D01*
X180769919Y-102805933D02*
X180674680Y-102758314D01*
X180484204Y-102758314D01*
X180388966Y-102805933D01*
X180341347Y-102853552D01*
X180293728Y-102948790D01*
X180293728Y-103234504D01*
X180341347Y-103329742D01*
X180388966Y-103377361D01*
X180484204Y-103424980D01*
X180674680Y-103424980D01*
X180769919Y-103377361D01*
X179865157Y-103424980D02*
X179865157Y-102424980D01*
X179865157Y-102805933D02*
X179769919Y-102758314D01*
X179579442Y-102758314D01*
X179484204Y-102805933D01*
X179436585Y-102853552D01*
X179388966Y-102948790D01*
X179388966Y-103234504D01*
X179436585Y-103329742D01*
X179484204Y-103377361D01*
X179579442Y-103424980D01*
X179769919Y-103424980D01*
X179865157Y-103377361D01*
X178579442Y-103377361D02*
X178674680Y-103424980D01*
X178865157Y-103424980D01*
X178960395Y-103377361D01*
X179008014Y-103282123D01*
X179008014Y-102901171D01*
X178960395Y-102805933D01*
X178865157Y-102758314D01*
X178674680Y-102758314D01*
X178579442Y-102805933D01*
X178531823Y-102901171D01*
X178531823Y-102996409D01*
X179008014Y-103091647D01*
X178103252Y-103424980D02*
X178103252Y-102758314D01*
X178103252Y-102948790D02*
X178055633Y-102853552D01*
X178008014Y-102805933D01*
X177912776Y-102758314D01*
X177817538Y-102758314D01*
X177484204Y-103424980D02*
X177484204Y-102758314D01*
X177484204Y-102948790D02*
X177436585Y-102853552D01*
X177388966Y-102805933D01*
X177293728Y-102758314D01*
X177198490Y-102758314D01*
X176960395Y-102758314D02*
X176722300Y-103424980D01*
X176484204Y-102758314D02*
X176722300Y-103424980D01*
X176817538Y-103663076D01*
X176865157Y-103710695D01*
X176960395Y-103758314D01*
X175341347Y-103424980D02*
X175341347Y-102424980D01*
X174960395Y-102424980D01*
X174865157Y-102472600D01*
X174817538Y-102520219D01*
X174769919Y-102615457D01*
X174769919Y-102758314D01*
X174817538Y-102853552D01*
X174865157Y-102901171D01*
X174960395Y-102948790D01*
X175341347Y-102948790D01*
X174341347Y-103424980D02*
X174341347Y-102758314D01*
X174341347Y-102424980D02*
X174388966Y-102472600D01*
X174341347Y-102520219D01*
X174293728Y-102472600D01*
X174341347Y-102424980D01*
X174341347Y-102520219D01*
X173198490Y-102424980D02*
X172531823Y-102424980D01*
X173198490Y-103424980D01*
X172531823Y-103424980D01*
X171769919Y-103377361D02*
X171865157Y-103424980D01*
X172055633Y-103424980D01*
X172150871Y-103377361D01*
X172198490Y-103282123D01*
X172198490Y-102901171D01*
X172150871Y-102805933D01*
X172055633Y-102758314D01*
X171865157Y-102758314D01*
X171769919Y-102805933D01*
X171722300Y-102901171D01*
X171722300Y-102996409D01*
X172198490Y-103091647D01*
X171293728Y-103424980D02*
X171293728Y-102758314D01*
X171293728Y-102948790D02*
X171246109Y-102853552D01*
X171198490Y-102805933D01*
X171103252Y-102758314D01*
X171008014Y-102758314D01*
X170531823Y-103424980D02*
X170627061Y-103377361D01*
X170674680Y-103329742D01*
X170722300Y-103234504D01*
X170722300Y-102948790D01*
X170674680Y-102853552D01*
X170627061Y-102805933D01*
X170531823Y-102758314D01*
X170388966Y-102758314D01*
X170293728Y-102805933D01*
X170246109Y-102853552D01*
X170198490Y-102948790D01*
X170198490Y-103234504D01*
X170246109Y-103329742D01*
X170293728Y-103377361D01*
X170388966Y-103424980D01*
X170531823Y-103424980D01*
X169103252Y-102424980D02*
X168865157Y-103424980D01*
X168674680Y-102710695D01*
X168484204Y-103424980D01*
X168246109Y-102424980D01*
X166531823Y-103424980D02*
X166865157Y-102948790D01*
X167103252Y-103424980D02*
X167103252Y-102424980D01*
X166722300Y-102424980D01*
X166627061Y-102472600D01*
X166579442Y-102520219D01*
X166531823Y-102615457D01*
X166531823Y-102758314D01*
X166579442Y-102853552D01*
X166627061Y-102901171D01*
X166722300Y-102948790D01*
X167103252Y-102948790D01*
X165722300Y-103377361D02*
X165817538Y-103424980D01*
X166008014Y-103424980D01*
X166103252Y-103377361D01*
X166150871Y-103282123D01*
X166150871Y-102901171D01*
X166103252Y-102805933D01*
X166008014Y-102758314D01*
X165817538Y-102758314D01*
X165722300Y-102805933D01*
X165674680Y-102901171D01*
X165674680Y-102996409D01*
X166150871Y-103091647D01*
X164817538Y-103377361D02*
X164912776Y-103424980D01*
X165103252Y-103424980D01*
X165198490Y-103377361D01*
X165246109Y-103329742D01*
X165293728Y-103234504D01*
X165293728Y-102948790D01*
X165246109Y-102853552D01*
X165198490Y-102805933D01*
X165103252Y-102758314D01*
X164912776Y-102758314D01*
X164817538Y-102805933D01*
X164246109Y-103424980D02*
X164341347Y-103377361D01*
X164388966Y-103329742D01*
X164436585Y-103234504D01*
X164436585Y-102948790D01*
X164388966Y-102853552D01*
X164341347Y-102805933D01*
X164246109Y-102758314D01*
X164103252Y-102758314D01*
X164008014Y-102805933D01*
X163960395Y-102853552D01*
X163912776Y-102948790D01*
X163912776Y-103234504D01*
X163960395Y-103329742D01*
X164008014Y-103377361D01*
X164103252Y-103424980D01*
X164246109Y-103424980D01*
X163484204Y-103424980D02*
X163484204Y-102758314D01*
X163484204Y-102853552D02*
X163436585Y-102805933D01*
X163341347Y-102758314D01*
X163198490Y-102758314D01*
X163103252Y-102805933D01*
X163055633Y-102901171D01*
X163055633Y-103424980D01*
X163055633Y-102901171D02*
X163008014Y-102805933D01*
X162912776Y-102758314D01*
X162769919Y-102758314D01*
X162674680Y-102805933D01*
X162627061Y-102901171D01*
X162627061Y-103424980D01*
X162150871Y-103424980D02*
X162150871Y-102758314D01*
X162150871Y-102853552D02*
X162103252Y-102805933D01*
X162008014Y-102758314D01*
X161865157Y-102758314D01*
X161769919Y-102805933D01*
X161722300Y-102901171D01*
X161722300Y-103424980D01*
X161722300Y-102901171D02*
X161674680Y-102805933D01*
X161579442Y-102758314D01*
X161436585Y-102758314D01*
X161341347Y-102805933D01*
X161293728Y-102901171D01*
X161293728Y-103424980D01*
X160436585Y-103377361D02*
X160531823Y-103424980D01*
X160722300Y-103424980D01*
X160817538Y-103377361D01*
X160865157Y-103282123D01*
X160865157Y-102901171D01*
X160817538Y-102805933D01*
X160722300Y-102758314D01*
X160531823Y-102758314D01*
X160436585Y-102805933D01*
X160388966Y-102901171D01*
X160388966Y-102996409D01*
X160865157Y-103091647D01*
X159960395Y-102758314D02*
X159960395Y-103424980D01*
X159960395Y-102853552D02*
X159912776Y-102805933D01*
X159817538Y-102758314D01*
X159674680Y-102758314D01*
X159579442Y-102805933D01*
X159531823Y-102901171D01*
X159531823Y-103424980D01*
X158627061Y-103424980D02*
X158627061Y-102424980D01*
X158627061Y-103377361D02*
X158722300Y-103424980D01*
X158912776Y-103424980D01*
X159008014Y-103377361D01*
X159055633Y-103329742D01*
X159103252Y-103234504D01*
X159103252Y-102948790D01*
X159055633Y-102853552D01*
X159008014Y-102805933D01*
X158912776Y-102758314D01*
X158722300Y-102758314D01*
X158627061Y-102805933D01*
X157769919Y-103377361D02*
X157865157Y-103424980D01*
X158055633Y-103424980D01*
X158150871Y-103377361D01*
X158198490Y-103282123D01*
X158198490Y-102901171D01*
X158150871Y-102805933D01*
X158055633Y-102758314D01*
X157865157Y-102758314D01*
X157769919Y-102805933D01*
X157722300Y-102901171D01*
X157722300Y-102996409D01*
X158198490Y-103091647D01*
X156865157Y-103424980D02*
X156865157Y-102424980D01*
X156865157Y-103377361D02*
X156960395Y-103424980D01*
X157150871Y-103424980D01*
X157246109Y-103377361D01*
X157293728Y-103329742D01*
X157341347Y-103234504D01*
X157341347Y-102948790D01*
X157293728Y-102853552D01*
X157246109Y-102805933D01*
X157150871Y-102758314D01*
X156960395Y-102758314D01*
X156865157Y-102805933D01*
X183484204Y-106724980D02*
X183484204Y-105724980D01*
X183055633Y-106724980D02*
X183055633Y-106201171D01*
X183103252Y-106105933D01*
X183198490Y-106058314D01*
X183341347Y-106058314D01*
X183436585Y-106105933D01*
X183484204Y-106153552D01*
X182722300Y-106058314D02*
X182341347Y-106058314D01*
X182579442Y-105724980D02*
X182579442Y-106582123D01*
X182531823Y-106677361D01*
X182436585Y-106724980D01*
X182341347Y-106724980D01*
X182150871Y-106058314D02*
X181769919Y-106058314D01*
X182008014Y-105724980D02*
X182008014Y-106582123D01*
X181960395Y-106677361D01*
X181865157Y-106724980D01*
X181769919Y-106724980D01*
X181436585Y-106058314D02*
X181436585Y-107058314D01*
X181436585Y-106105933D02*
X181341347Y-106058314D01*
X181150871Y-106058314D01*
X181055633Y-106105933D01*
X181008014Y-106153552D01*
X180960395Y-106248790D01*
X180960395Y-106534504D01*
X181008014Y-106629742D01*
X181055633Y-106677361D01*
X181150871Y-106724980D01*
X181341347Y-106724980D01*
X181436585Y-106677361D01*
X180579442Y-106677361D02*
X180484204Y-106724980D01*
X180293728Y-106724980D01*
X180198490Y-106677361D01*
X180150871Y-106582123D01*
X180150871Y-106534504D01*
X180198490Y-106439266D01*
X180293728Y-106391647D01*
X180436585Y-106391647D01*
X180531823Y-106344028D01*
X180579442Y-106248790D01*
X180579442Y-106201171D01*
X180531823Y-106105933D01*
X180436585Y-106058314D01*
X180293728Y-106058314D01*
X180198490Y-106105933D01*
X179722300Y-106629742D02*
X179674680Y-106677361D01*
X179722300Y-106724980D01*
X179769919Y-106677361D01*
X179722300Y-106629742D01*
X179722300Y-106724980D01*
X179722300Y-106105933D02*
X179674680Y-106153552D01*
X179722300Y-106201171D01*
X179769919Y-106153552D01*
X179722300Y-106105933D01*
X179722300Y-106201171D01*
X178531823Y-105677361D02*
X179388966Y-106963076D01*
X177484204Y-105677361D02*
X178341347Y-106963076D01*
X176722300Y-106058314D02*
X176722300Y-106867838D01*
X176769919Y-106963076D01*
X176817538Y-107010695D01*
X176912776Y-107058314D01*
X177055633Y-107058314D01*
X177150871Y-107010695D01*
X176722300Y-106677361D02*
X176817538Y-106724980D01*
X177008014Y-106724980D01*
X177103252Y-106677361D01*
X177150871Y-106629742D01*
X177198490Y-106534504D01*
X177198490Y-106248790D01*
X177150871Y-106153552D01*
X177103252Y-106105933D01*
X177008014Y-106058314D01*
X176817538Y-106058314D01*
X176722300Y-106105933D01*
X176246109Y-106724980D02*
X176246109Y-106058314D01*
X176246109Y-105724980D02*
X176293728Y-105772600D01*
X176246109Y-105820219D01*
X176198490Y-105772600D01*
X176246109Y-105724980D01*
X176246109Y-105820219D01*
X175912776Y-106058314D02*
X175531823Y-106058314D01*
X175769919Y-105724980D02*
X175769919Y-106582123D01*
X175722300Y-106677361D01*
X175627061Y-106724980D01*
X175531823Y-106724980D01*
X175198490Y-106724980D02*
X175198490Y-105724980D01*
X174769919Y-106724980D02*
X174769919Y-106201171D01*
X174817538Y-106105933D01*
X174912776Y-106058314D01*
X175055633Y-106058314D01*
X175150871Y-106105933D01*
X175198490Y-106153552D01*
X173865157Y-106058314D02*
X173865157Y-106724980D01*
X174293728Y-106058314D02*
X174293728Y-106582123D01*
X174246109Y-106677361D01*
X174150871Y-106724980D01*
X174008014Y-106724980D01*
X173912776Y-106677361D01*
X173865157Y-106629742D01*
X173388966Y-106724980D02*
X173388966Y-105724980D01*
X173388966Y-106105933D02*
X173293728Y-106058314D01*
X173103252Y-106058314D01*
X173008014Y-106105933D01*
X172960395Y-106153552D01*
X172912776Y-106248790D01*
X172912776Y-106534504D01*
X172960395Y-106629742D01*
X173008014Y-106677361D01*
X173103252Y-106724980D01*
X173293728Y-106724980D01*
X173388966Y-106677361D01*
X172484204Y-106629742D02*
X172436585Y-106677361D01*
X172484204Y-106724980D01*
X172531823Y-106677361D01*
X172484204Y-106629742D01*
X172484204Y-106724980D01*
X171579442Y-106677361D02*
X171674680Y-106724980D01*
X171865157Y-106724980D01*
X171960395Y-106677361D01*
X172008014Y-106629742D01*
X172055633Y-106534504D01*
X172055633Y-106248790D01*
X172008014Y-106153552D01*
X171960395Y-106105933D01*
X171865157Y-106058314D01*
X171674680Y-106058314D01*
X171579442Y-106105933D01*
X171008014Y-106724980D02*
X171103252Y-106677361D01*
X171150871Y-106629742D01*
X171198490Y-106534504D01*
X171198490Y-106248790D01*
X171150871Y-106153552D01*
X171103252Y-106105933D01*
X171008014Y-106058314D01*
X170865157Y-106058314D01*
X170769919Y-106105933D01*
X170722300Y-106153552D01*
X170674680Y-106248790D01*
X170674680Y-106534504D01*
X170722300Y-106629742D01*
X170769919Y-106677361D01*
X170865157Y-106724980D01*
X171008014Y-106724980D01*
X170246109Y-106724980D02*
X170246109Y-106058314D01*
X170246109Y-106153552D02*
X170198490Y-106105933D01*
X170103252Y-106058314D01*
X169960395Y-106058314D01*
X169865157Y-106105933D01*
X169817538Y-106201171D01*
X169817538Y-106724980D01*
X169817538Y-106201171D02*
X169769919Y-106105933D01*
X169674680Y-106058314D01*
X169531823Y-106058314D01*
X169436585Y-106105933D01*
X169388966Y-106201171D01*
X169388966Y-106724980D01*
X168198490Y-105677361D02*
X169055633Y-106963076D01*
X168008014Y-106058314D02*
X167627061Y-106058314D01*
X167865157Y-105724980D02*
X167865157Y-106582123D01*
X167817538Y-106677361D01*
X167722300Y-106724980D01*
X167627061Y-106724980D01*
X167293728Y-106058314D02*
X167293728Y-106915457D01*
X167341347Y-107010695D01*
X167436585Y-107058314D01*
X167484204Y-107058314D01*
X167293728Y-105724980D02*
X167341347Y-105772600D01*
X167293728Y-105820219D01*
X167246109Y-105772600D01*
X167293728Y-105724980D01*
X167293728Y-105820219D01*
X166817538Y-106724980D02*
X166817538Y-105724980D01*
X166817538Y-106105933D02*
X166722300Y-106058314D01*
X166531823Y-106058314D01*
X166436585Y-106105933D01*
X166388966Y-106153552D01*
X166341347Y-106248790D01*
X166341347Y-106534504D01*
X166388966Y-106629742D01*
X166436585Y-106677361D01*
X166531823Y-106724980D01*
X166722300Y-106724980D01*
X166817538Y-106677361D01*
X165769919Y-106724980D02*
X165865157Y-106677361D01*
X165912776Y-106629742D01*
X165960395Y-106534504D01*
X165960395Y-106248790D01*
X165912776Y-106153552D01*
X165865157Y-106105933D01*
X165769919Y-106058314D01*
X165627061Y-106058314D01*
X165531823Y-106105933D01*
X165484204Y-106153552D01*
X165436585Y-106248790D01*
X165436585Y-106534504D01*
X165484204Y-106629742D01*
X165531823Y-106677361D01*
X165627061Y-106724980D01*
X165769919Y-106724980D01*
X164865157Y-106724980D02*
X164960395Y-106677361D01*
X165008014Y-106582123D01*
X165008014Y-105724980D01*
X164055633Y-106724980D02*
X164055633Y-105724980D01*
X164055633Y-106677361D02*
X164150871Y-106724980D01*
X164341347Y-106724980D01*
X164436585Y-106677361D01*
X164484204Y-106629742D01*
X164531823Y-106534504D01*
X164531823Y-106248790D01*
X164484204Y-106153552D01*
X164436585Y-106105933D01*
X164341347Y-106058314D01*
X164150871Y-106058314D01*
X164055633Y-106105933D01*
X163722300Y-106058314D02*
X163341347Y-106058314D01*
X163579442Y-105724980D02*
X163579442Y-106582123D01*
X163531823Y-106677361D01*
X163436585Y-106724980D01*
X163341347Y-106724980D01*
X162293728Y-105677361D02*
X163150871Y-106963076D01*
X162008014Y-106439266D02*
X161531823Y-106439266D01*
X162103252Y-106724980D02*
X161769919Y-105724980D01*
X161436585Y-106724980D01*
X161103252Y-106058314D02*
X161103252Y-107058314D01*
X161103252Y-106105933D02*
X161008014Y-106058314D01*
X160817538Y-106058314D01*
X160722300Y-106105933D01*
X160674680Y-106153552D01*
X160627061Y-106248790D01*
X160627061Y-106534504D01*
X160674680Y-106629742D01*
X160722300Y-106677361D01*
X160817538Y-106724980D01*
X161008014Y-106724980D01*
X161103252Y-106677361D01*
X160198490Y-106058314D02*
X160198490Y-107058314D01*
X160198490Y-106105933D02*
X160103252Y-106058314D01*
X159912776Y-106058314D01*
X159817538Y-106105933D01*
X159769919Y-106153552D01*
X159722300Y-106248790D01*
X159722300Y-106534504D01*
X159769919Y-106629742D01*
X159817538Y-106677361D01*
X159912776Y-106724980D01*
X160103252Y-106724980D01*
X160198490Y-106677361D01*
X159150871Y-106724980D02*
X159246109Y-106677361D01*
X159293728Y-106582123D01*
X159293728Y-105724980D01*
X158388966Y-106677361D02*
X158484204Y-106724980D01*
X158674680Y-106724980D01*
X158769919Y-106677361D01*
X158817538Y-106582123D01*
X158817538Y-106201171D01*
X158769919Y-106105933D01*
X158674680Y-106058314D01*
X158484204Y-106058314D01*
X158388966Y-106105933D01*
X158341347Y-106201171D01*
X158341347Y-106296409D01*
X158817538Y-106391647D01*
X157960395Y-105820219D02*
X157912776Y-105772600D01*
X157817538Y-105724980D01*
X157579442Y-105724980D01*
X157484204Y-105772600D01*
X157436585Y-105820219D01*
X157388966Y-105915457D01*
X157388966Y-106010695D01*
X157436585Y-106153552D01*
X158008014Y-106724980D01*
X157388966Y-106724980D01*
X156960395Y-106344028D02*
X156198490Y-106344028D01*
X155722300Y-106724980D02*
X155722300Y-105724980D01*
X155055633Y-105724980D02*
X154865157Y-105724980D01*
X154769919Y-105772600D01*
X154674680Y-105867838D01*
X154627061Y-106058314D01*
X154627061Y-106391647D01*
X154674680Y-106582123D01*
X154769919Y-106677361D01*
X154865157Y-106724980D01*
X155055633Y-106724980D01*
X155150871Y-106677361D01*
X155246109Y-106582123D01*
X155293728Y-106391647D01*
X155293728Y-106058314D01*
X155246109Y-105867838D01*
X155150871Y-105772600D01*
X155055633Y-105724980D01*
X154198490Y-106344028D02*
X153436585Y-106344028D01*
X152388966Y-106724980D02*
X152722300Y-106248790D01*
X152960395Y-106724980D02*
X152960395Y-105724980D01*
X152579442Y-105724980D01*
X152484204Y-105772600D01*
X152436585Y-105820219D01*
X152388966Y-105915457D01*
X152388966Y-106058314D01*
X152436585Y-106153552D01*
X152484204Y-106201171D01*
X152579442Y-106248790D01*
X152960395Y-106248790D01*
X151960395Y-106724980D02*
X151960395Y-105724980D01*
X151579442Y-105724980D01*
X151484204Y-105772600D01*
X151436585Y-105820219D01*
X151388966Y-105915457D01*
X151388966Y-106058314D01*
X151436585Y-106153552D01*
X151484204Y-106201171D01*
X151579442Y-106248790D01*
X151960395Y-106248790D01*
X150960395Y-106724980D02*
X150960395Y-106058314D01*
X150960395Y-105724980D02*
X151008014Y-105772600D01*
X150960395Y-105820219D01*
X150912776Y-105772600D01*
X150960395Y-105724980D01*
X150960395Y-105820219D01*
X183150871Y-107851171D02*
X183484204Y-107851171D01*
X183484204Y-108374980D02*
X183484204Y-107374980D01*
X183008014Y-107374980D01*
X182484204Y-108374980D02*
X182579442Y-108327361D01*
X182627061Y-108279742D01*
X182674680Y-108184504D01*
X182674680Y-107898790D01*
X182627061Y-107803552D01*
X182579442Y-107755933D01*
X182484204Y-107708314D01*
X182341347Y-107708314D01*
X182246109Y-107755933D01*
X182198490Y-107803552D01*
X182150871Y-107898790D01*
X182150871Y-108184504D01*
X182198490Y-108279742D01*
X182246109Y-108327361D01*
X182341347Y-108374980D01*
X182484204Y-108374980D01*
X181293728Y-107708314D02*
X181293728Y-108374980D01*
X181722300Y-107708314D02*
X181722300Y-108232123D01*
X181674680Y-108327361D01*
X181579442Y-108374980D01*
X181436585Y-108374980D01*
X181341347Y-108327361D01*
X181293728Y-108279742D01*
X180817538Y-108374980D02*
X180817538Y-107708314D01*
X180817538Y-107898790D02*
X180769919Y-107803552D01*
X180722300Y-107755933D01*
X180627061Y-107708314D01*
X180531823Y-107708314D01*
X180341347Y-107708314D02*
X179960395Y-107708314D01*
X180198490Y-107374980D02*
X180198490Y-108232123D01*
X180150871Y-108327361D01*
X180055633Y-108374980D01*
X179960395Y-108374980D01*
X179627061Y-108374980D02*
X179627061Y-107374980D01*
X179198490Y-108374980D02*
X179198490Y-107851171D01*
X179246109Y-107755933D01*
X179341347Y-107708314D01*
X179484204Y-107708314D01*
X179579442Y-107755933D01*
X179627061Y-107803552D01*
X177960395Y-108374980D02*
X177960395Y-107374980D01*
X177579442Y-107374980D01*
X177484204Y-107422600D01*
X177436585Y-107470219D01*
X177388966Y-107565457D01*
X177388966Y-107708314D01*
X177436585Y-107803552D01*
X177484204Y-107851171D01*
X177579442Y-107898790D01*
X177960395Y-107898790D01*
X176960395Y-108374980D02*
X176960395Y-107708314D01*
X176960395Y-107898790D02*
X176912776Y-107803552D01*
X176865157Y-107755933D01*
X176769919Y-107708314D01*
X176674680Y-107708314D01*
X176198490Y-108374980D02*
X176293728Y-108327361D01*
X176341347Y-108279742D01*
X176388966Y-108184504D01*
X176388966Y-107898790D01*
X176341347Y-107803552D01*
X176293728Y-107755933D01*
X176198490Y-107708314D01*
X176055633Y-107708314D01*
X175960395Y-107755933D01*
X175912776Y-107803552D01*
X175865157Y-107898790D01*
X175865157Y-108184504D01*
X175912776Y-108279742D01*
X175960395Y-108327361D01*
X176055633Y-108374980D01*
X176198490Y-108374980D01*
X175579442Y-107708314D02*
X175198490Y-107708314D01*
X175436585Y-107374980D02*
X175436585Y-108232123D01*
X175388966Y-108327361D01*
X175293728Y-108374980D01*
X175198490Y-108374980D01*
X174722300Y-108374980D02*
X174817538Y-108327361D01*
X174865157Y-108279742D01*
X174912776Y-108184504D01*
X174912776Y-107898790D01*
X174865157Y-107803552D01*
X174817538Y-107755933D01*
X174722300Y-107708314D01*
X174579442Y-107708314D01*
X174484204Y-107755933D01*
X174436585Y-107803552D01*
X174388966Y-107898790D01*
X174388966Y-108184504D01*
X174436585Y-108279742D01*
X174484204Y-108327361D01*
X174579442Y-108374980D01*
X174722300Y-108374980D01*
X174103252Y-107708314D02*
X173722300Y-107708314D01*
X173960395Y-107374980D02*
X173960395Y-108232123D01*
X173912776Y-108327361D01*
X173817538Y-108374980D01*
X173722300Y-108374980D01*
X173484204Y-107708314D02*
X173246109Y-108374980D01*
X173008014Y-107708314D02*
X173246109Y-108374980D01*
X173341347Y-108613076D01*
X173388966Y-108660695D01*
X173484204Y-108708314D01*
X172627061Y-107708314D02*
X172627061Y-108708314D01*
X172627061Y-107755933D02*
X172531823Y-107708314D01*
X172341347Y-107708314D01*
X172246109Y-107755933D01*
X172198490Y-107803552D01*
X172150871Y-107898790D01*
X172150871Y-108184504D01*
X172198490Y-108279742D01*
X172246109Y-108327361D01*
X172341347Y-108374980D01*
X172531823Y-108374980D01*
X172627061Y-108327361D01*
X171341347Y-108327361D02*
X171436585Y-108374980D01*
X171627061Y-108374980D01*
X171722300Y-108327361D01*
X171769919Y-108232123D01*
X171769919Y-107851171D01*
X171722300Y-107755933D01*
X171627061Y-107708314D01*
X171436585Y-107708314D01*
X171341347Y-107755933D01*
X171293728Y-107851171D01*
X171293728Y-107946409D01*
X171769919Y-108041647D01*
X170150871Y-107470219D02*
X170103252Y-107422600D01*
X170008014Y-107374980D01*
X169769919Y-107374980D01*
X169674680Y-107422600D01*
X169627061Y-107470219D01*
X169579442Y-107565457D01*
X169579442Y-107660695D01*
X169627061Y-107803552D01*
X170198490Y-108374980D01*
X169579442Y-108374980D01*
X168960395Y-107374980D02*
X168865157Y-107374980D01*
X168769919Y-107422600D01*
X168722300Y-107470219D01*
X168674680Y-107565457D01*
X168627061Y-107755933D01*
X168627061Y-107994028D01*
X168674680Y-108184504D01*
X168722300Y-108279742D01*
X168769919Y-108327361D01*
X168865157Y-108374980D01*
X168960395Y-108374980D01*
X169055633Y-108327361D01*
X169103252Y-108279742D01*
X169150871Y-108184504D01*
X169198490Y-107994028D01*
X169198490Y-107755933D01*
X169150871Y-107565457D01*
X169103252Y-107470219D01*
X169055633Y-107422600D01*
X168960395Y-107374980D01*
X168246109Y-107470219D02*
X168198490Y-107422600D01*
X168103252Y-107374980D01*
X167865157Y-107374980D01*
X167769919Y-107422600D01*
X167722300Y-107470219D01*
X167674680Y-107565457D01*
X167674680Y-107660695D01*
X167722300Y-107803552D01*
X168293728Y-108374980D01*
X167674680Y-108374980D01*
X166722300Y-108374980D02*
X167293728Y-108374980D01*
X167008014Y-108374980D02*
X167008014Y-107374980D01*
X167103252Y-107517838D01*
X167198490Y-107613076D01*
X167293728Y-107660695D01*
X166293728Y-107994028D02*
X165531823Y-107994028D01*
X165055633Y-108374980D02*
X165055633Y-107374980D01*
X164722300Y-108089266D01*
X164388966Y-107374980D01*
X164388966Y-108374980D01*
X163484204Y-108374980D02*
X163484204Y-107851171D01*
X163531823Y-107755933D01*
X163627061Y-107708314D01*
X163817538Y-107708314D01*
X163912776Y-107755933D01*
X163484204Y-108327361D02*
X163579442Y-108374980D01*
X163817538Y-108374980D01*
X163912776Y-108327361D01*
X163960395Y-108232123D01*
X163960395Y-108136885D01*
X163912776Y-108041647D01*
X163817538Y-107994028D01*
X163579442Y-107994028D01*
X163484204Y-107946409D01*
X163008014Y-108374980D02*
X163008014Y-107708314D01*
X163008014Y-107898790D02*
X162960395Y-107803552D01*
X162912776Y-107755933D01*
X162817538Y-107708314D01*
X162722300Y-107708314D01*
X162388966Y-107994028D02*
X161627061Y-107994028D01*
X160627061Y-108374980D02*
X161198490Y-108374980D01*
X160912776Y-108374980D02*
X160912776Y-107374980D01*
X161008014Y-107517838D01*
X161103252Y-107613076D01*
X161198490Y-107660695D01*
X160246109Y-107470219D02*
X160198490Y-107422600D01*
X160103252Y-107374980D01*
X159865157Y-107374980D01*
X159769919Y-107422600D01*
X159722300Y-107470219D01*
X159674680Y-107565457D01*
X159674680Y-107660695D01*
X159722300Y-107803552D01*
X160293728Y-108374980D01*
X159674680Y-108374980D01*
X183198490Y-110405933D02*
X183246109Y-110358314D01*
X183341347Y-110215457D01*
X183388966Y-110120219D01*
X183436585Y-109977361D01*
X183484204Y-109739266D01*
X183484204Y-109548790D01*
X183436585Y-109310695D01*
X183388966Y-109167838D01*
X183341347Y-109072600D01*
X183246109Y-108929742D01*
X183198490Y-108882123D01*
X182388966Y-109977361D02*
X182484204Y-110024980D01*
X182674680Y-110024980D01*
X182769919Y-109977361D01*
X182817538Y-109929742D01*
X182865157Y-109834504D01*
X182865157Y-109548790D01*
X182817538Y-109453552D01*
X182769919Y-109405933D01*
X182674680Y-109358314D01*
X182484204Y-109358314D01*
X182388966Y-109405933D01*
X182055633Y-110405933D02*
X182008014Y-110358314D01*
X181912776Y-110215457D01*
X181865157Y-110120219D01*
X181817538Y-109977361D01*
X181769919Y-109739266D01*
X181769919Y-109548790D01*
X181817538Y-109310695D01*
X181865157Y-109167838D01*
X181912776Y-109072600D01*
X182008014Y-108929742D01*
X182055633Y-108882123D01*
X181341347Y-109120219D02*
X181293728Y-109072600D01*
X181198490Y-109024980D01*
X180960395Y-109024980D01*
X180865157Y-109072600D01*
X180817538Y-109120219D01*
X180769919Y-109215457D01*
X180769919Y-109310695D01*
X180817538Y-109453552D01*
X181388966Y-110024980D01*
X180769919Y-110024980D01*
X180150871Y-109024980D02*
X180055633Y-109024980D01*
X179960395Y-109072600D01*
X179912776Y-109120219D01*
X179865157Y-109215457D01*
X179817538Y-109405933D01*
X179817538Y-109644028D01*
X179865157Y-109834504D01*
X179912776Y-109929742D01*
X179960395Y-109977361D01*
X180055633Y-110024980D01*
X180150871Y-110024980D01*
X180246109Y-109977361D01*
X180293728Y-109929742D01*
X180341347Y-109834504D01*
X180388966Y-109644028D01*
X180388966Y-109405933D01*
X180341347Y-109215457D01*
X180293728Y-109120219D01*
X180246109Y-109072600D01*
X180150871Y-109024980D01*
X179436585Y-109120219D02*
X179388966Y-109072600D01*
X179293728Y-109024980D01*
X179055633Y-109024980D01*
X178960395Y-109072600D01*
X178912776Y-109120219D01*
X178865157Y-109215457D01*
X178865157Y-109310695D01*
X178912776Y-109453552D01*
X179484204Y-110024980D01*
X178865157Y-110024980D01*
X178246109Y-109024980D02*
X178150871Y-109024980D01*
X178055633Y-109072600D01*
X178008014Y-109120219D01*
X177960395Y-109215457D01*
X177912776Y-109405933D01*
X177912776Y-109644028D01*
X177960395Y-109834504D01*
X178008014Y-109929742D01*
X178055633Y-109977361D01*
X178150871Y-110024980D01*
X178246109Y-110024980D01*
X178341347Y-109977361D01*
X178388966Y-109929742D01*
X178436585Y-109834504D01*
X178484204Y-109644028D01*
X178484204Y-109405933D01*
X178436585Y-109215457D01*
X178388966Y-109120219D01*
X178341347Y-109072600D01*
X178246109Y-109024980D01*
X177484204Y-109644028D02*
X176722300Y-109644028D01*
X176293728Y-109120219D02*
X176246109Y-109072600D01*
X176150871Y-109024980D01*
X175912776Y-109024980D01*
X175817538Y-109072600D01*
X175769919Y-109120219D01*
X175722300Y-109215457D01*
X175722300Y-109310695D01*
X175769919Y-109453552D01*
X176341347Y-110024980D01*
X175722300Y-110024980D01*
X175103252Y-109024980D02*
X175008014Y-109024980D01*
X174912776Y-109072600D01*
X174865157Y-109120219D01*
X174817538Y-109215457D01*
X174769919Y-109405933D01*
X174769919Y-109644028D01*
X174817538Y-109834504D01*
X174865157Y-109929742D01*
X174912776Y-109977361D01*
X175008014Y-110024980D01*
X175103252Y-110024980D01*
X175198490Y-109977361D01*
X175246109Y-109929742D01*
X175293728Y-109834504D01*
X175341347Y-109644028D01*
X175341347Y-109405933D01*
X175293728Y-109215457D01*
X175246109Y-109120219D01*
X175198490Y-109072600D01*
X175103252Y-109024980D01*
X174388966Y-109120219D02*
X174341347Y-109072600D01*
X174246109Y-109024980D01*
X174008014Y-109024980D01*
X173912776Y-109072600D01*
X173865157Y-109120219D01*
X173817538Y-109215457D01*
X173817538Y-109310695D01*
X173865157Y-109453552D01*
X174436585Y-110024980D01*
X173817538Y-110024980D01*
X172865157Y-110024980D02*
X173436585Y-110024980D01*
X173150871Y-110024980D02*
X173150871Y-109024980D01*
X173246109Y-109167838D01*
X173341347Y-109263076D01*
X173436585Y-109310695D01*
X171817538Y-109024980D02*
X171246109Y-109024980D01*
X171531823Y-110024980D02*
X171531823Y-109024980D01*
X170531823Y-109977361D02*
X170627061Y-110024980D01*
X170817538Y-110024980D01*
X170912776Y-109977361D01*
X170960395Y-109882123D01*
X170960395Y-109501171D01*
X170912776Y-109405933D01*
X170817538Y-109358314D01*
X170627061Y-109358314D01*
X170531823Y-109405933D01*
X170484204Y-109501171D01*
X170484204Y-109596409D01*
X170960395Y-109691647D01*
X170055633Y-110024980D02*
X170055633Y-109358314D01*
X170055633Y-109548790D02*
X170008014Y-109453552D01*
X169960395Y-109405933D01*
X169865157Y-109358314D01*
X169769919Y-109358314D01*
X169055633Y-109977361D02*
X169150871Y-110024980D01*
X169341347Y-110024980D01*
X169436585Y-109977361D01*
X169484204Y-109882123D01*
X169484204Y-109501171D01*
X169436585Y-109405933D01*
X169341347Y-109358314D01*
X169150871Y-109358314D01*
X169055633Y-109405933D01*
X169008014Y-109501171D01*
X169008014Y-109596409D01*
X169484204Y-109691647D01*
X168579442Y-109358314D02*
X168579442Y-110024980D01*
X168579442Y-109453552D02*
X168531823Y-109405933D01*
X168436585Y-109358314D01*
X168293728Y-109358314D01*
X168198490Y-109405933D01*
X168150871Y-109501171D01*
X168150871Y-110024980D01*
X167246109Y-109977361D02*
X167341347Y-110024980D01*
X167531823Y-110024980D01*
X167627061Y-109977361D01*
X167674680Y-109929742D01*
X167722300Y-109834504D01*
X167722300Y-109548790D01*
X167674680Y-109453552D01*
X167627061Y-109405933D01*
X167531823Y-109358314D01*
X167341347Y-109358314D01*
X167246109Y-109405933D01*
X166436585Y-109977361D02*
X166531823Y-110024980D01*
X166722300Y-110024980D01*
X166817538Y-109977361D01*
X166865157Y-109882123D01*
X166865157Y-109501171D01*
X166817538Y-109405933D01*
X166722300Y-109358314D01*
X166531823Y-109358314D01*
X166436585Y-109405933D01*
X166388966Y-109501171D01*
X166388966Y-109596409D01*
X166865157Y-109691647D01*
X164912776Y-109024980D02*
X164912776Y-109739266D01*
X164960395Y-109882123D01*
X165055633Y-109977361D01*
X165198490Y-110024980D01*
X165293728Y-110024980D01*
X164436585Y-109929742D02*
X164388966Y-109977361D01*
X164436585Y-110024980D01*
X164484204Y-109977361D01*
X164436585Y-109929742D01*
X164436585Y-110024980D01*
X162865157Y-109501171D02*
X162722300Y-109548790D01*
X162674680Y-109596409D01*
X162627061Y-109691647D01*
X162627061Y-109834504D01*
X162674680Y-109929742D01*
X162722300Y-109977361D01*
X162817538Y-110024980D01*
X163198490Y-110024980D01*
X163198490Y-109024980D01*
X162865157Y-109024980D01*
X162769919Y-109072600D01*
X162722300Y-109120219D01*
X162674680Y-109215457D01*
X162674680Y-109310695D01*
X162722300Y-109405933D01*
X162769919Y-109453552D01*
X162865157Y-109501171D01*
X163198490Y-109501171D01*
X162055633Y-110024980D02*
X162150871Y-109977361D01*
X162198490Y-109929742D01*
X162246109Y-109834504D01*
X162246109Y-109548790D01*
X162198490Y-109453552D01*
X162150871Y-109405933D01*
X162055633Y-109358314D01*
X161912776Y-109358314D01*
X161817538Y-109405933D01*
X161769919Y-109453552D01*
X161722300Y-109548790D01*
X161722300Y-109834504D01*
X161769919Y-109929742D01*
X161817538Y-109977361D01*
X161912776Y-110024980D01*
X162055633Y-110024980D01*
X161150871Y-110024980D02*
X161246109Y-109977361D01*
X161293728Y-109882123D01*
X161293728Y-109024980D01*
X160341347Y-110024980D02*
X160341347Y-109024980D01*
X160341347Y-109977361D02*
X160436585Y-110024980D01*
X160627061Y-110024980D01*
X160722300Y-109977361D01*
X160769919Y-109929742D01*
X160817538Y-109834504D01*
X160817538Y-109548790D01*
X160769919Y-109453552D01*
X160722300Y-109405933D01*
X160627061Y-109358314D01*
X160436585Y-109358314D01*
X160341347Y-109405933D01*
X160008014Y-109358314D02*
X159627061Y-109358314D01*
X159865157Y-109024980D02*
X159865157Y-109882123D01*
X159817538Y-109977361D01*
X159722300Y-110024980D01*
X159627061Y-110024980D01*
M02*
