G04 #@! TF.GenerationSoftware,KiCad,Pcbnew,8.0.3*
G04 #@! TF.CreationDate,2024-06-18T13:39:18-04:00*
G04 #@! TF.ProjectId,Apple2IORPi,4170706c-6532-4494-9f52-50692e6b6963,0.7*
G04 #@! TF.SameCoordinates,Original*
G04 #@! TF.FileFunction,Legend,Bot*
G04 #@! TF.FilePolarity,Positive*
%FSLAX46Y46*%
G04 Gerber Fmt 4.6, Leading zero omitted, Abs format (unit mm)*
G04 Created by KiCad (PCBNEW 8.0.3) date 2024-06-18 13:39:18*
%MOMM*%
%LPD*%
G01*
G04 APERTURE LIST*
%ADD10C,0.635000*%
%ADD11C,0.203200*%
%ADD12C,0.150000*%
G04 APERTURE END LIST*
D10*
X190594341Y-46607185D02*
X189142913Y-46607185D01*
X190884627Y-47478042D02*
X189868627Y-44430042D01*
X189868627Y-44430042D02*
X188852627Y-47478042D01*
X187836627Y-45446042D02*
X187836627Y-48494042D01*
X187836627Y-45591185D02*
X187546342Y-45446042D01*
X187546342Y-45446042D02*
X186965770Y-45446042D01*
X186965770Y-45446042D02*
X186675484Y-45591185D01*
X186675484Y-45591185D02*
X186530342Y-45736328D01*
X186530342Y-45736328D02*
X186385199Y-46026614D01*
X186385199Y-46026614D02*
X186385199Y-46897471D01*
X186385199Y-46897471D02*
X186530342Y-47187757D01*
X186530342Y-47187757D02*
X186675484Y-47332900D01*
X186675484Y-47332900D02*
X186965770Y-47478042D01*
X186965770Y-47478042D02*
X187546342Y-47478042D01*
X187546342Y-47478042D02*
X187836627Y-47332900D01*
X185078913Y-45446042D02*
X185078913Y-48494042D01*
X185078913Y-45591185D02*
X184788628Y-45446042D01*
X184788628Y-45446042D02*
X184208056Y-45446042D01*
X184208056Y-45446042D02*
X183917770Y-45591185D01*
X183917770Y-45591185D02*
X183772628Y-45736328D01*
X183772628Y-45736328D02*
X183627485Y-46026614D01*
X183627485Y-46026614D02*
X183627485Y-46897471D01*
X183627485Y-46897471D02*
X183772628Y-47187757D01*
X183772628Y-47187757D02*
X183917770Y-47332900D01*
X183917770Y-47332900D02*
X184208056Y-47478042D01*
X184208056Y-47478042D02*
X184788628Y-47478042D01*
X184788628Y-47478042D02*
X185078913Y-47332900D01*
X181885771Y-47478042D02*
X182176056Y-47332900D01*
X182176056Y-47332900D02*
X182321199Y-47042614D01*
X182321199Y-47042614D02*
X182321199Y-44430042D01*
X179563485Y-47332900D02*
X179853771Y-47478042D01*
X179853771Y-47478042D02*
X180434343Y-47478042D01*
X180434343Y-47478042D02*
X180724628Y-47332900D01*
X180724628Y-47332900D02*
X180869771Y-47042614D01*
X180869771Y-47042614D02*
X180869771Y-45881471D01*
X180869771Y-45881471D02*
X180724628Y-45591185D01*
X180724628Y-45591185D02*
X180434343Y-45446042D01*
X180434343Y-45446042D02*
X179853771Y-45446042D01*
X179853771Y-45446042D02*
X179563485Y-45591185D01*
X179563485Y-45591185D02*
X179418343Y-45881471D01*
X179418343Y-45881471D02*
X179418343Y-46171757D01*
X179418343Y-46171757D02*
X180869771Y-46462042D01*
X178257200Y-44720328D02*
X178112057Y-44575185D01*
X178112057Y-44575185D02*
X177821772Y-44430042D01*
X177821772Y-44430042D02*
X177096057Y-44430042D01*
X177096057Y-44430042D02*
X176805772Y-44575185D01*
X176805772Y-44575185D02*
X176660629Y-44720328D01*
X176660629Y-44720328D02*
X176515486Y-45010614D01*
X176515486Y-45010614D02*
X176515486Y-45300900D01*
X176515486Y-45300900D02*
X176660629Y-45736328D01*
X176660629Y-45736328D02*
X178402343Y-47478042D01*
X178402343Y-47478042D02*
X176515486Y-47478042D01*
X175209200Y-46316900D02*
X172886915Y-46316900D01*
X171435486Y-47478042D02*
X171435486Y-44430042D01*
X169403486Y-44430042D02*
X168822914Y-44430042D01*
X168822914Y-44430042D02*
X168532629Y-44575185D01*
X168532629Y-44575185D02*
X168242343Y-44865471D01*
X168242343Y-44865471D02*
X168097200Y-45446042D01*
X168097200Y-45446042D02*
X168097200Y-46462042D01*
X168097200Y-46462042D02*
X168242343Y-47042614D01*
X168242343Y-47042614D02*
X168532629Y-47332900D01*
X168532629Y-47332900D02*
X168822914Y-47478042D01*
X168822914Y-47478042D02*
X169403486Y-47478042D01*
X169403486Y-47478042D02*
X169693772Y-47332900D01*
X169693772Y-47332900D02*
X169984057Y-47042614D01*
X169984057Y-47042614D02*
X170129200Y-46462042D01*
X170129200Y-46462042D02*
X170129200Y-45446042D01*
X170129200Y-45446042D02*
X169984057Y-44865471D01*
X169984057Y-44865471D02*
X169693772Y-44575185D01*
X169693772Y-44575185D02*
X169403486Y-44430042D01*
X166790914Y-46316900D02*
X164468629Y-46316900D01*
X161275486Y-47478042D02*
X162291486Y-46026614D01*
X163017200Y-47478042D02*
X163017200Y-44430042D01*
X163017200Y-44430042D02*
X161856057Y-44430042D01*
X161856057Y-44430042D02*
X161565772Y-44575185D01*
X161565772Y-44575185D02*
X161420629Y-44720328D01*
X161420629Y-44720328D02*
X161275486Y-45010614D01*
X161275486Y-45010614D02*
X161275486Y-45446042D01*
X161275486Y-45446042D02*
X161420629Y-45736328D01*
X161420629Y-45736328D02*
X161565772Y-45881471D01*
X161565772Y-45881471D02*
X161856057Y-46026614D01*
X161856057Y-46026614D02*
X163017200Y-46026614D01*
X159969200Y-47478042D02*
X159969200Y-44430042D01*
X159969200Y-44430042D02*
X158808057Y-44430042D01*
X158808057Y-44430042D02*
X158517772Y-44575185D01*
X158517772Y-44575185D02*
X158372629Y-44720328D01*
X158372629Y-44720328D02*
X158227486Y-45010614D01*
X158227486Y-45010614D02*
X158227486Y-45446042D01*
X158227486Y-45446042D02*
X158372629Y-45736328D01*
X158372629Y-45736328D02*
X158517772Y-45881471D01*
X158517772Y-45881471D02*
X158808057Y-46026614D01*
X158808057Y-46026614D02*
X159969200Y-46026614D01*
X156921200Y-47478042D02*
X156921200Y-45446042D01*
X156921200Y-44430042D02*
X157066343Y-44575185D01*
X157066343Y-44575185D02*
X156921200Y-44720328D01*
X156921200Y-44720328D02*
X156776057Y-44575185D01*
X156776057Y-44575185D02*
X156921200Y-44430042D01*
X156921200Y-44430042D02*
X156921200Y-44720328D01*
D11*
X176221173Y-72583022D02*
X175350316Y-72583022D01*
X175785744Y-74107022D02*
X175785744Y-72583022D01*
X174189173Y-73091022D02*
X174189173Y-74107022D01*
X174842315Y-73091022D02*
X174842315Y-73889308D01*
X174842315Y-73889308D02*
X174769744Y-74034451D01*
X174769744Y-74034451D02*
X174624601Y-74107022D01*
X174624601Y-74107022D02*
X174406887Y-74107022D01*
X174406887Y-74107022D02*
X174261744Y-74034451D01*
X174261744Y-74034451D02*
X174189173Y-73961879D01*
X173463458Y-74107022D02*
X173463458Y-73091022D01*
X173463458Y-73381308D02*
X173390887Y-73236165D01*
X173390887Y-73236165D02*
X173318316Y-73163593D01*
X173318316Y-73163593D02*
X173173173Y-73091022D01*
X173173173Y-73091022D02*
X173028030Y-73091022D01*
X172520029Y-73091022D02*
X172520029Y-74107022D01*
X172520029Y-73236165D02*
X172447458Y-73163593D01*
X172447458Y-73163593D02*
X172302315Y-73091022D01*
X172302315Y-73091022D02*
X172084601Y-73091022D01*
X172084601Y-73091022D02*
X171939458Y-73163593D01*
X171939458Y-73163593D02*
X171866887Y-73308736D01*
X171866887Y-73308736D02*
X171866887Y-74107022D01*
X169762315Y-74107022D02*
X169907458Y-74034451D01*
X169907458Y-74034451D02*
X169980029Y-73961879D01*
X169980029Y-73961879D02*
X170052601Y-73816736D01*
X170052601Y-73816736D02*
X170052601Y-73381308D01*
X170052601Y-73381308D02*
X169980029Y-73236165D01*
X169980029Y-73236165D02*
X169907458Y-73163593D01*
X169907458Y-73163593D02*
X169762315Y-73091022D01*
X169762315Y-73091022D02*
X169544601Y-73091022D01*
X169544601Y-73091022D02*
X169399458Y-73163593D01*
X169399458Y-73163593D02*
X169326887Y-73236165D01*
X169326887Y-73236165D02*
X169254315Y-73381308D01*
X169254315Y-73381308D02*
X169254315Y-73816736D01*
X169254315Y-73816736D02*
X169326887Y-73961879D01*
X169326887Y-73961879D02*
X169399458Y-74034451D01*
X169399458Y-74034451D02*
X169544601Y-74107022D01*
X169544601Y-74107022D02*
X169762315Y-74107022D01*
X168818887Y-73091022D02*
X168238315Y-73091022D01*
X168601172Y-74107022D02*
X168601172Y-72800736D01*
X168601172Y-72800736D02*
X168528601Y-72655593D01*
X168528601Y-72655593D02*
X168383458Y-72583022D01*
X168383458Y-72583022D02*
X168238315Y-72583022D01*
X167948030Y-73091022D02*
X167367458Y-73091022D01*
X167730315Y-74107022D02*
X167730315Y-72800736D01*
X167730315Y-72800736D02*
X167657744Y-72655593D01*
X167657744Y-72655593D02*
X167512601Y-72583022D01*
X167512601Y-72583022D02*
X167367458Y-72583022D01*
X165698315Y-73091022D02*
X165698315Y-74615022D01*
X165698315Y-73163593D02*
X165553173Y-73091022D01*
X165553173Y-73091022D02*
X165262887Y-73091022D01*
X165262887Y-73091022D02*
X165117744Y-73163593D01*
X165117744Y-73163593D02*
X165045173Y-73236165D01*
X165045173Y-73236165D02*
X164972601Y-73381308D01*
X164972601Y-73381308D02*
X164972601Y-73816736D01*
X164972601Y-73816736D02*
X165045173Y-73961879D01*
X165045173Y-73961879D02*
X165117744Y-74034451D01*
X165117744Y-74034451D02*
X165262887Y-74107022D01*
X165262887Y-74107022D02*
X165553173Y-74107022D01*
X165553173Y-74107022D02*
X165698315Y-74034451D01*
X164101744Y-74107022D02*
X164246887Y-74034451D01*
X164246887Y-74034451D02*
X164319458Y-73961879D01*
X164319458Y-73961879D02*
X164392030Y-73816736D01*
X164392030Y-73816736D02*
X164392030Y-73381308D01*
X164392030Y-73381308D02*
X164319458Y-73236165D01*
X164319458Y-73236165D02*
X164246887Y-73163593D01*
X164246887Y-73163593D02*
X164101744Y-73091022D01*
X164101744Y-73091022D02*
X163884030Y-73091022D01*
X163884030Y-73091022D02*
X163738887Y-73163593D01*
X163738887Y-73163593D02*
X163666316Y-73236165D01*
X163666316Y-73236165D02*
X163593744Y-73381308D01*
X163593744Y-73381308D02*
X163593744Y-73816736D01*
X163593744Y-73816736D02*
X163666316Y-73961879D01*
X163666316Y-73961879D02*
X163738887Y-74034451D01*
X163738887Y-74034451D02*
X163884030Y-74107022D01*
X163884030Y-74107022D02*
X164101744Y-74107022D01*
X163085744Y-73091022D02*
X162795459Y-74107022D01*
X162795459Y-74107022D02*
X162505173Y-73381308D01*
X162505173Y-73381308D02*
X162214887Y-74107022D01*
X162214887Y-74107022D02*
X161924601Y-73091022D01*
X160763459Y-74034451D02*
X160908602Y-74107022D01*
X160908602Y-74107022D02*
X161198888Y-74107022D01*
X161198888Y-74107022D02*
X161344030Y-74034451D01*
X161344030Y-74034451D02*
X161416602Y-73889308D01*
X161416602Y-73889308D02*
X161416602Y-73308736D01*
X161416602Y-73308736D02*
X161344030Y-73163593D01*
X161344030Y-73163593D02*
X161198888Y-73091022D01*
X161198888Y-73091022D02*
X160908602Y-73091022D01*
X160908602Y-73091022D02*
X160763459Y-73163593D01*
X160763459Y-73163593D02*
X160690888Y-73308736D01*
X160690888Y-73308736D02*
X160690888Y-73453879D01*
X160690888Y-73453879D02*
X161416602Y-73599022D01*
X160037744Y-74107022D02*
X160037744Y-73091022D01*
X160037744Y-73381308D02*
X159965173Y-73236165D01*
X159965173Y-73236165D02*
X159892602Y-73163593D01*
X159892602Y-73163593D02*
X159747459Y-73091022D01*
X159747459Y-73091022D02*
X159602316Y-73091022D01*
X157933172Y-74107022D02*
X157933172Y-72583022D01*
X157933172Y-73163593D02*
X157788030Y-73091022D01*
X157788030Y-73091022D02*
X157497744Y-73091022D01*
X157497744Y-73091022D02*
X157352601Y-73163593D01*
X157352601Y-73163593D02*
X157280030Y-73236165D01*
X157280030Y-73236165D02*
X157207458Y-73381308D01*
X157207458Y-73381308D02*
X157207458Y-73816736D01*
X157207458Y-73816736D02*
X157280030Y-73961879D01*
X157280030Y-73961879D02*
X157352601Y-74034451D01*
X157352601Y-74034451D02*
X157497744Y-74107022D01*
X157497744Y-74107022D02*
X157788030Y-74107022D01*
X157788030Y-74107022D02*
X157933172Y-74034451D01*
X155973744Y-74034451D02*
X156118887Y-74107022D01*
X156118887Y-74107022D02*
X156409173Y-74107022D01*
X156409173Y-74107022D02*
X156554315Y-74034451D01*
X156554315Y-74034451D02*
X156626887Y-73889308D01*
X156626887Y-73889308D02*
X156626887Y-73308736D01*
X156626887Y-73308736D02*
X156554315Y-73163593D01*
X156554315Y-73163593D02*
X156409173Y-73091022D01*
X156409173Y-73091022D02*
X156118887Y-73091022D01*
X156118887Y-73091022D02*
X155973744Y-73163593D01*
X155973744Y-73163593D02*
X155901173Y-73308736D01*
X155901173Y-73308736D02*
X155901173Y-73453879D01*
X155901173Y-73453879D02*
X156626887Y-73599022D01*
X155465744Y-73091022D02*
X154885172Y-73091022D01*
X155248029Y-74107022D02*
X155248029Y-72800736D01*
X155248029Y-72800736D02*
X155175458Y-72655593D01*
X155175458Y-72655593D02*
X155030315Y-72583022D01*
X155030315Y-72583022D02*
X154885172Y-72583022D01*
X154159458Y-74107022D02*
X154304601Y-74034451D01*
X154304601Y-74034451D02*
X154377172Y-73961879D01*
X154377172Y-73961879D02*
X154449744Y-73816736D01*
X154449744Y-73816736D02*
X154449744Y-73381308D01*
X154449744Y-73381308D02*
X154377172Y-73236165D01*
X154377172Y-73236165D02*
X154304601Y-73163593D01*
X154304601Y-73163593D02*
X154159458Y-73091022D01*
X154159458Y-73091022D02*
X153941744Y-73091022D01*
X153941744Y-73091022D02*
X153796601Y-73163593D01*
X153796601Y-73163593D02*
X153724030Y-73236165D01*
X153724030Y-73236165D02*
X153651458Y-73381308D01*
X153651458Y-73381308D02*
X153651458Y-73816736D01*
X153651458Y-73816736D02*
X153724030Y-73961879D01*
X153724030Y-73961879D02*
X153796601Y-74034451D01*
X153796601Y-74034451D02*
X153941744Y-74107022D01*
X153941744Y-74107022D02*
X154159458Y-74107022D01*
X152998315Y-74107022D02*
X152998315Y-73091022D01*
X152998315Y-73381308D02*
X152925744Y-73236165D01*
X152925744Y-73236165D02*
X152853173Y-73163593D01*
X152853173Y-73163593D02*
X152708030Y-73091022D01*
X152708030Y-73091022D02*
X152562887Y-73091022D01*
X151474315Y-74034451D02*
X151619458Y-74107022D01*
X151619458Y-74107022D02*
X151909744Y-74107022D01*
X151909744Y-74107022D02*
X152054886Y-74034451D01*
X152054886Y-74034451D02*
X152127458Y-73889308D01*
X152127458Y-73889308D02*
X152127458Y-73308736D01*
X152127458Y-73308736D02*
X152054886Y-73163593D01*
X152054886Y-73163593D02*
X151909744Y-73091022D01*
X151909744Y-73091022D02*
X151619458Y-73091022D01*
X151619458Y-73091022D02*
X151474315Y-73163593D01*
X151474315Y-73163593D02*
X151401744Y-73308736D01*
X151401744Y-73308736D02*
X151401744Y-73453879D01*
X151401744Y-73453879D02*
X152127458Y-73599022D01*
X149587457Y-74107022D02*
X149587457Y-73091022D01*
X149587457Y-72583022D02*
X149660029Y-72655593D01*
X149660029Y-72655593D02*
X149587457Y-72728165D01*
X149587457Y-72728165D02*
X149514886Y-72655593D01*
X149514886Y-72655593D02*
X149587457Y-72583022D01*
X149587457Y-72583022D02*
X149587457Y-72728165D01*
X148861743Y-73091022D02*
X148861743Y-74107022D01*
X148861743Y-73236165D02*
X148789172Y-73163593D01*
X148789172Y-73163593D02*
X148644029Y-73091022D01*
X148644029Y-73091022D02*
X148426315Y-73091022D01*
X148426315Y-73091022D02*
X148281172Y-73163593D01*
X148281172Y-73163593D02*
X148208601Y-73308736D01*
X148208601Y-73308736D02*
X148208601Y-74107022D01*
X147555458Y-74034451D02*
X147410315Y-74107022D01*
X147410315Y-74107022D02*
X147120029Y-74107022D01*
X147120029Y-74107022D02*
X146974886Y-74034451D01*
X146974886Y-74034451D02*
X146902315Y-73889308D01*
X146902315Y-73889308D02*
X146902315Y-73816736D01*
X146902315Y-73816736D02*
X146974886Y-73671593D01*
X146974886Y-73671593D02*
X147120029Y-73599022D01*
X147120029Y-73599022D02*
X147337744Y-73599022D01*
X147337744Y-73599022D02*
X147482886Y-73526451D01*
X147482886Y-73526451D02*
X147555458Y-73381308D01*
X147555458Y-73381308D02*
X147555458Y-73308736D01*
X147555458Y-73308736D02*
X147482886Y-73163593D01*
X147482886Y-73163593D02*
X147337744Y-73091022D01*
X147337744Y-73091022D02*
X147120029Y-73091022D01*
X147120029Y-73091022D02*
X146974886Y-73163593D01*
X145668601Y-74034451D02*
X145813744Y-74107022D01*
X145813744Y-74107022D02*
X146104030Y-74107022D01*
X146104030Y-74107022D02*
X146249172Y-74034451D01*
X146249172Y-74034451D02*
X146321744Y-73889308D01*
X146321744Y-73889308D02*
X146321744Y-73308736D01*
X146321744Y-73308736D02*
X146249172Y-73163593D01*
X146249172Y-73163593D02*
X146104030Y-73091022D01*
X146104030Y-73091022D02*
X145813744Y-73091022D01*
X145813744Y-73091022D02*
X145668601Y-73163593D01*
X145668601Y-73163593D02*
X145596030Y-73308736D01*
X145596030Y-73308736D02*
X145596030Y-73453879D01*
X145596030Y-73453879D02*
X146321744Y-73599022D01*
X144942886Y-74107022D02*
X144942886Y-73091022D01*
X144942886Y-73381308D02*
X144870315Y-73236165D01*
X144870315Y-73236165D02*
X144797744Y-73163593D01*
X144797744Y-73163593D02*
X144652601Y-73091022D01*
X144652601Y-73091022D02*
X144507458Y-73091022D01*
X144217172Y-73091022D02*
X143636600Y-73091022D01*
X143999457Y-72583022D02*
X143999457Y-73889308D01*
X143999457Y-73889308D02*
X143926886Y-74034451D01*
X143926886Y-74034451D02*
X143781743Y-74107022D01*
X143781743Y-74107022D02*
X143636600Y-74107022D01*
X143128600Y-74107022D02*
X143128600Y-73091022D01*
X143128600Y-72583022D02*
X143201172Y-72655593D01*
X143201172Y-72655593D02*
X143128600Y-72728165D01*
X143128600Y-72728165D02*
X143056029Y-72655593D01*
X143056029Y-72655593D02*
X143128600Y-72583022D01*
X143128600Y-72583022D02*
X143128600Y-72728165D01*
X142402886Y-73091022D02*
X142402886Y-74107022D01*
X142402886Y-73236165D02*
X142330315Y-73163593D01*
X142330315Y-73163593D02*
X142185172Y-73091022D01*
X142185172Y-73091022D02*
X141967458Y-73091022D01*
X141967458Y-73091022D02*
X141822315Y-73163593D01*
X141822315Y-73163593D02*
X141749744Y-73308736D01*
X141749744Y-73308736D02*
X141749744Y-74107022D01*
X140370887Y-73091022D02*
X140370887Y-74324736D01*
X140370887Y-74324736D02*
X140443458Y-74469879D01*
X140443458Y-74469879D02*
X140516029Y-74542451D01*
X140516029Y-74542451D02*
X140661172Y-74615022D01*
X140661172Y-74615022D02*
X140878887Y-74615022D01*
X140878887Y-74615022D02*
X141024029Y-74542451D01*
X140370887Y-74034451D02*
X140516029Y-74107022D01*
X140516029Y-74107022D02*
X140806315Y-74107022D01*
X140806315Y-74107022D02*
X140951458Y-74034451D01*
X140951458Y-74034451D02*
X141024029Y-73961879D01*
X141024029Y-73961879D02*
X141096601Y-73816736D01*
X141096601Y-73816736D02*
X141096601Y-73381308D01*
X141096601Y-73381308D02*
X141024029Y-73236165D01*
X141024029Y-73236165D02*
X140951458Y-73163593D01*
X140951458Y-73163593D02*
X140806315Y-73091022D01*
X140806315Y-73091022D02*
X140516029Y-73091022D01*
X140516029Y-73091022D02*
X140370887Y-73163593D01*
X175785744Y-76560577D02*
X175930887Y-76488006D01*
X175930887Y-76488006D02*
X176003458Y-76415434D01*
X176003458Y-76415434D02*
X176076030Y-76270291D01*
X176076030Y-76270291D02*
X176076030Y-75834863D01*
X176076030Y-75834863D02*
X176003458Y-75689720D01*
X176003458Y-75689720D02*
X175930887Y-75617148D01*
X175930887Y-75617148D02*
X175785744Y-75544577D01*
X175785744Y-75544577D02*
X175568030Y-75544577D01*
X175568030Y-75544577D02*
X175422887Y-75617148D01*
X175422887Y-75617148D02*
X175350316Y-75689720D01*
X175350316Y-75689720D02*
X175277744Y-75834863D01*
X175277744Y-75834863D02*
X175277744Y-76270291D01*
X175277744Y-76270291D02*
X175350316Y-76415434D01*
X175350316Y-76415434D02*
X175422887Y-76488006D01*
X175422887Y-76488006D02*
X175568030Y-76560577D01*
X175568030Y-76560577D02*
X175785744Y-76560577D01*
X174624601Y-76560577D02*
X174624601Y-75544577D01*
X174624601Y-75834863D02*
X174552030Y-75689720D01*
X174552030Y-75689720D02*
X174479459Y-75617148D01*
X174479459Y-75617148D02*
X174334316Y-75544577D01*
X174334316Y-75544577D02*
X174189173Y-75544577D01*
X172520029Y-76560577D02*
X172520029Y-75544577D01*
X172520029Y-75834863D02*
X172447458Y-75689720D01*
X172447458Y-75689720D02*
X172374887Y-75617148D01*
X172374887Y-75617148D02*
X172229744Y-75544577D01*
X172229744Y-75544577D02*
X172084601Y-75544577D01*
X170996029Y-76488006D02*
X171141172Y-76560577D01*
X171141172Y-76560577D02*
X171431458Y-76560577D01*
X171431458Y-76560577D02*
X171576600Y-76488006D01*
X171576600Y-76488006D02*
X171649172Y-76342863D01*
X171649172Y-76342863D02*
X171649172Y-75762291D01*
X171649172Y-75762291D02*
X171576600Y-75617148D01*
X171576600Y-75617148D02*
X171431458Y-75544577D01*
X171431458Y-75544577D02*
X171141172Y-75544577D01*
X171141172Y-75544577D02*
X170996029Y-75617148D01*
X170996029Y-75617148D02*
X170923458Y-75762291D01*
X170923458Y-75762291D02*
X170923458Y-75907434D01*
X170923458Y-75907434D02*
X171649172Y-76052577D01*
X170270314Y-76560577D02*
X170270314Y-75544577D01*
X170270314Y-75689720D02*
X170197743Y-75617148D01*
X170197743Y-75617148D02*
X170052600Y-75544577D01*
X170052600Y-75544577D02*
X169834886Y-75544577D01*
X169834886Y-75544577D02*
X169689743Y-75617148D01*
X169689743Y-75617148D02*
X169617172Y-75762291D01*
X169617172Y-75762291D02*
X169617172Y-76560577D01*
X169617172Y-75762291D02*
X169544600Y-75617148D01*
X169544600Y-75617148D02*
X169399457Y-75544577D01*
X169399457Y-75544577D02*
X169181743Y-75544577D01*
X169181743Y-75544577D02*
X169036600Y-75617148D01*
X169036600Y-75617148D02*
X168964029Y-75762291D01*
X168964029Y-75762291D02*
X168964029Y-76560577D01*
X168020600Y-76560577D02*
X168165743Y-76488006D01*
X168165743Y-76488006D02*
X168238314Y-76415434D01*
X168238314Y-76415434D02*
X168310886Y-76270291D01*
X168310886Y-76270291D02*
X168310886Y-75834863D01*
X168310886Y-75834863D02*
X168238314Y-75689720D01*
X168238314Y-75689720D02*
X168165743Y-75617148D01*
X168165743Y-75617148D02*
X168020600Y-75544577D01*
X168020600Y-75544577D02*
X167802886Y-75544577D01*
X167802886Y-75544577D02*
X167657743Y-75617148D01*
X167657743Y-75617148D02*
X167585172Y-75689720D01*
X167585172Y-75689720D02*
X167512600Y-75834863D01*
X167512600Y-75834863D02*
X167512600Y-76270291D01*
X167512600Y-76270291D02*
X167585172Y-76415434D01*
X167585172Y-76415434D02*
X167657743Y-76488006D01*
X167657743Y-76488006D02*
X167802886Y-76560577D01*
X167802886Y-76560577D02*
X168020600Y-76560577D01*
X167004600Y-75544577D02*
X166641743Y-76560577D01*
X166641743Y-76560577D02*
X166278886Y-75544577D01*
X165698314Y-76560577D02*
X165698314Y-75544577D01*
X165698314Y-75036577D02*
X165770886Y-75109148D01*
X165770886Y-75109148D02*
X165698314Y-75181720D01*
X165698314Y-75181720D02*
X165625743Y-75109148D01*
X165625743Y-75109148D02*
X165698314Y-75036577D01*
X165698314Y-75036577D02*
X165698314Y-75181720D01*
X164972600Y-75544577D02*
X164972600Y-76560577D01*
X164972600Y-75689720D02*
X164900029Y-75617148D01*
X164900029Y-75617148D02*
X164754886Y-75544577D01*
X164754886Y-75544577D02*
X164537172Y-75544577D01*
X164537172Y-75544577D02*
X164392029Y-75617148D01*
X164392029Y-75617148D02*
X164319458Y-75762291D01*
X164319458Y-75762291D02*
X164319458Y-76560577D01*
X162940601Y-75544577D02*
X162940601Y-76778291D01*
X162940601Y-76778291D02*
X163013172Y-76923434D01*
X163013172Y-76923434D02*
X163085743Y-76996006D01*
X163085743Y-76996006D02*
X163230886Y-77068577D01*
X163230886Y-77068577D02*
X163448601Y-77068577D01*
X163448601Y-77068577D02*
X163593743Y-76996006D01*
X162940601Y-76488006D02*
X163085743Y-76560577D01*
X163085743Y-76560577D02*
X163376029Y-76560577D01*
X163376029Y-76560577D02*
X163521172Y-76488006D01*
X163521172Y-76488006D02*
X163593743Y-76415434D01*
X163593743Y-76415434D02*
X163666315Y-76270291D01*
X163666315Y-76270291D02*
X163666315Y-75834863D01*
X163666315Y-75834863D02*
X163593743Y-75689720D01*
X163593743Y-75689720D02*
X163521172Y-75617148D01*
X163521172Y-75617148D02*
X163376029Y-75544577D01*
X163376029Y-75544577D02*
X163085743Y-75544577D01*
X163085743Y-75544577D02*
X162940601Y-75617148D01*
X161271458Y-75544577D02*
X160690886Y-75544577D01*
X161053743Y-75036577D02*
X161053743Y-76342863D01*
X161053743Y-76342863D02*
X160981172Y-76488006D01*
X160981172Y-76488006D02*
X160836029Y-76560577D01*
X160836029Y-76560577D02*
X160690886Y-76560577D01*
X160182886Y-76560577D02*
X160182886Y-75036577D01*
X159529744Y-76560577D02*
X159529744Y-75762291D01*
X159529744Y-75762291D02*
X159602315Y-75617148D01*
X159602315Y-75617148D02*
X159747458Y-75544577D01*
X159747458Y-75544577D02*
X159965172Y-75544577D01*
X159965172Y-75544577D02*
X160110315Y-75617148D01*
X160110315Y-75617148D02*
X160182886Y-75689720D01*
X158223458Y-76488006D02*
X158368601Y-76560577D01*
X158368601Y-76560577D02*
X158658887Y-76560577D01*
X158658887Y-76560577D02*
X158804029Y-76488006D01*
X158804029Y-76488006D02*
X158876601Y-76342863D01*
X158876601Y-76342863D02*
X158876601Y-75762291D01*
X158876601Y-75762291D02*
X158804029Y-75617148D01*
X158804029Y-75617148D02*
X158658887Y-75544577D01*
X158658887Y-75544577D02*
X158368601Y-75544577D01*
X158368601Y-75544577D02*
X158223458Y-75617148D01*
X158223458Y-75617148D02*
X158150887Y-75762291D01*
X158150887Y-75762291D02*
X158150887Y-75907434D01*
X158150887Y-75907434D02*
X158876601Y-76052577D01*
X155683458Y-76488006D02*
X155828600Y-76560577D01*
X155828600Y-76560577D02*
X156118886Y-76560577D01*
X156118886Y-76560577D02*
X156264029Y-76488006D01*
X156264029Y-76488006D02*
X156336600Y-76415434D01*
X156336600Y-76415434D02*
X156409172Y-76270291D01*
X156409172Y-76270291D02*
X156409172Y-75834863D01*
X156409172Y-75834863D02*
X156336600Y-75689720D01*
X156336600Y-75689720D02*
X156264029Y-75617148D01*
X156264029Y-75617148D02*
X156118886Y-75544577D01*
X156118886Y-75544577D02*
X155828600Y-75544577D01*
X155828600Y-75544577D02*
X155683458Y-75617148D01*
X154377172Y-76560577D02*
X154377172Y-75762291D01*
X154377172Y-75762291D02*
X154449743Y-75617148D01*
X154449743Y-75617148D02*
X154594886Y-75544577D01*
X154594886Y-75544577D02*
X154885172Y-75544577D01*
X154885172Y-75544577D02*
X155030314Y-75617148D01*
X154377172Y-76488006D02*
X154522314Y-76560577D01*
X154522314Y-76560577D02*
X154885172Y-76560577D01*
X154885172Y-76560577D02*
X155030314Y-76488006D01*
X155030314Y-76488006D02*
X155102886Y-76342863D01*
X155102886Y-76342863D02*
X155102886Y-76197720D01*
X155102886Y-76197720D02*
X155030314Y-76052577D01*
X155030314Y-76052577D02*
X154885172Y-75980006D01*
X154885172Y-75980006D02*
X154522314Y-75980006D01*
X154522314Y-75980006D02*
X154377172Y-75907434D01*
X153651457Y-76560577D02*
X153651457Y-75544577D01*
X153651457Y-75834863D02*
X153578886Y-75689720D01*
X153578886Y-75689720D02*
X153506315Y-75617148D01*
X153506315Y-75617148D02*
X153361172Y-75544577D01*
X153361172Y-75544577D02*
X153216029Y-75544577D01*
X152054886Y-76560577D02*
X152054886Y-75036577D01*
X152054886Y-76488006D02*
X152200028Y-76560577D01*
X152200028Y-76560577D02*
X152490314Y-76560577D01*
X152490314Y-76560577D02*
X152635457Y-76488006D01*
X152635457Y-76488006D02*
X152708028Y-76415434D01*
X152708028Y-76415434D02*
X152780600Y-76270291D01*
X152780600Y-76270291D02*
X152780600Y-75834863D01*
X152780600Y-75834863D02*
X152708028Y-75689720D01*
X152708028Y-75689720D02*
X152635457Y-75617148D01*
X152635457Y-75617148D02*
X152490314Y-75544577D01*
X152490314Y-75544577D02*
X152200028Y-75544577D01*
X152200028Y-75544577D02*
X152054886Y-75617148D01*
X150385743Y-75544577D02*
X149805171Y-75544577D01*
X150168028Y-76560577D02*
X150168028Y-75254291D01*
X150168028Y-75254291D02*
X150095457Y-75109148D01*
X150095457Y-75109148D02*
X149950314Y-75036577D01*
X149950314Y-75036577D02*
X149805171Y-75036577D01*
X149297171Y-76560577D02*
X149297171Y-75544577D01*
X149297171Y-75834863D02*
X149224600Y-75689720D01*
X149224600Y-75689720D02*
X149152029Y-75617148D01*
X149152029Y-75617148D02*
X149006886Y-75544577D01*
X149006886Y-75544577D02*
X148861743Y-75544577D01*
X148136028Y-76560577D02*
X148281171Y-76488006D01*
X148281171Y-76488006D02*
X148353742Y-76415434D01*
X148353742Y-76415434D02*
X148426314Y-76270291D01*
X148426314Y-76270291D02*
X148426314Y-75834863D01*
X148426314Y-75834863D02*
X148353742Y-75689720D01*
X148353742Y-75689720D02*
X148281171Y-75617148D01*
X148281171Y-75617148D02*
X148136028Y-75544577D01*
X148136028Y-75544577D02*
X147918314Y-75544577D01*
X147918314Y-75544577D02*
X147773171Y-75617148D01*
X147773171Y-75617148D02*
X147700600Y-75689720D01*
X147700600Y-75689720D02*
X147628028Y-75834863D01*
X147628028Y-75834863D02*
X147628028Y-76270291D01*
X147628028Y-76270291D02*
X147700600Y-76415434D01*
X147700600Y-76415434D02*
X147773171Y-76488006D01*
X147773171Y-76488006D02*
X147918314Y-76560577D01*
X147918314Y-76560577D02*
X148136028Y-76560577D01*
X146974885Y-76560577D02*
X146974885Y-75544577D01*
X146974885Y-75689720D02*
X146902314Y-75617148D01*
X146902314Y-75617148D02*
X146757171Y-75544577D01*
X146757171Y-75544577D02*
X146539457Y-75544577D01*
X146539457Y-75544577D02*
X146394314Y-75617148D01*
X146394314Y-75617148D02*
X146321743Y-75762291D01*
X146321743Y-75762291D02*
X146321743Y-76560577D01*
X146321743Y-75762291D02*
X146249171Y-75617148D01*
X146249171Y-75617148D02*
X146104028Y-75544577D01*
X146104028Y-75544577D02*
X145886314Y-75544577D01*
X145886314Y-75544577D02*
X145741171Y-75617148D01*
X145741171Y-75617148D02*
X145668600Y-75762291D01*
X145668600Y-75762291D02*
X145668600Y-76560577D01*
X143854314Y-76488006D02*
X143709171Y-76560577D01*
X143709171Y-76560577D02*
X143418885Y-76560577D01*
X143418885Y-76560577D02*
X143273742Y-76488006D01*
X143273742Y-76488006D02*
X143201171Y-76342863D01*
X143201171Y-76342863D02*
X143201171Y-76270291D01*
X143201171Y-76270291D02*
X143273742Y-76125148D01*
X143273742Y-76125148D02*
X143418885Y-76052577D01*
X143418885Y-76052577D02*
X143636600Y-76052577D01*
X143636600Y-76052577D02*
X143781742Y-75980006D01*
X143781742Y-75980006D02*
X143854314Y-75834863D01*
X143854314Y-75834863D02*
X143854314Y-75762291D01*
X143854314Y-75762291D02*
X143781742Y-75617148D01*
X143781742Y-75617148D02*
X143636600Y-75544577D01*
X143636600Y-75544577D02*
X143418885Y-75544577D01*
X143418885Y-75544577D02*
X143273742Y-75617148D01*
X142330314Y-76560577D02*
X142475457Y-76488006D01*
X142475457Y-76488006D02*
X142548028Y-76342863D01*
X142548028Y-76342863D02*
X142548028Y-75036577D01*
X141532028Y-76560577D02*
X141677171Y-76488006D01*
X141677171Y-76488006D02*
X141749742Y-76415434D01*
X141749742Y-76415434D02*
X141822314Y-76270291D01*
X141822314Y-76270291D02*
X141822314Y-75834863D01*
X141822314Y-75834863D02*
X141749742Y-75689720D01*
X141749742Y-75689720D02*
X141677171Y-75617148D01*
X141677171Y-75617148D02*
X141532028Y-75544577D01*
X141532028Y-75544577D02*
X141314314Y-75544577D01*
X141314314Y-75544577D02*
X141169171Y-75617148D01*
X141169171Y-75617148D02*
X141096600Y-75689720D01*
X141096600Y-75689720D02*
X141024028Y-75834863D01*
X141024028Y-75834863D02*
X141024028Y-76270291D01*
X141024028Y-76270291D02*
X141096600Y-76415434D01*
X141096600Y-76415434D02*
X141169171Y-76488006D01*
X141169171Y-76488006D02*
X141314314Y-76560577D01*
X141314314Y-76560577D02*
X141532028Y-76560577D01*
X140588600Y-75544577D02*
X140008028Y-75544577D01*
X140370885Y-75036577D02*
X140370885Y-76342863D01*
X140370885Y-76342863D02*
X140298314Y-76488006D01*
X140298314Y-76488006D02*
X140153171Y-76560577D01*
X140153171Y-76560577D02*
X140008028Y-76560577D01*
X176003458Y-86374797D02*
X176003458Y-84850797D01*
X176003458Y-84850797D02*
X175640601Y-84850797D01*
X175640601Y-84850797D02*
X175422887Y-84923368D01*
X175422887Y-84923368D02*
X175277744Y-85068511D01*
X175277744Y-85068511D02*
X175205173Y-85213654D01*
X175205173Y-85213654D02*
X175132601Y-85503940D01*
X175132601Y-85503940D02*
X175132601Y-85721654D01*
X175132601Y-85721654D02*
X175205173Y-86011940D01*
X175205173Y-86011940D02*
X175277744Y-86157083D01*
X175277744Y-86157083D02*
X175422887Y-86302226D01*
X175422887Y-86302226D02*
X175640601Y-86374797D01*
X175640601Y-86374797D02*
X176003458Y-86374797D01*
X174261744Y-86374797D02*
X174406887Y-86302226D01*
X174406887Y-86302226D02*
X174479458Y-86229654D01*
X174479458Y-86229654D02*
X174552030Y-86084511D01*
X174552030Y-86084511D02*
X174552030Y-85649083D01*
X174552030Y-85649083D02*
X174479458Y-85503940D01*
X174479458Y-85503940D02*
X174406887Y-85431368D01*
X174406887Y-85431368D02*
X174261744Y-85358797D01*
X174261744Y-85358797D02*
X174044030Y-85358797D01*
X174044030Y-85358797D02*
X173898887Y-85431368D01*
X173898887Y-85431368D02*
X173826316Y-85503940D01*
X173826316Y-85503940D02*
X173753744Y-85649083D01*
X173753744Y-85649083D02*
X173753744Y-86084511D01*
X173753744Y-86084511D02*
X173826316Y-86229654D01*
X173826316Y-86229654D02*
X173898887Y-86302226D01*
X173898887Y-86302226D02*
X174044030Y-86374797D01*
X174044030Y-86374797D02*
X174261744Y-86374797D01*
X171939458Y-85358797D02*
X171939458Y-86374797D01*
X171939458Y-85503940D02*
X171866887Y-85431368D01*
X171866887Y-85431368D02*
X171721744Y-85358797D01*
X171721744Y-85358797D02*
X171504030Y-85358797D01*
X171504030Y-85358797D02*
X171358887Y-85431368D01*
X171358887Y-85431368D02*
X171286316Y-85576511D01*
X171286316Y-85576511D02*
X171286316Y-86374797D01*
X170342887Y-86374797D02*
X170488030Y-86302226D01*
X170488030Y-86302226D02*
X170560601Y-86229654D01*
X170560601Y-86229654D02*
X170633173Y-86084511D01*
X170633173Y-86084511D02*
X170633173Y-85649083D01*
X170633173Y-85649083D02*
X170560601Y-85503940D01*
X170560601Y-85503940D02*
X170488030Y-85431368D01*
X170488030Y-85431368D02*
X170342887Y-85358797D01*
X170342887Y-85358797D02*
X170125173Y-85358797D01*
X170125173Y-85358797D02*
X169980030Y-85431368D01*
X169980030Y-85431368D02*
X169907459Y-85503940D01*
X169907459Y-85503940D02*
X169834887Y-85649083D01*
X169834887Y-85649083D02*
X169834887Y-86084511D01*
X169834887Y-86084511D02*
X169907459Y-86229654D01*
X169907459Y-86229654D02*
X169980030Y-86302226D01*
X169980030Y-86302226D02*
X170125173Y-86374797D01*
X170125173Y-86374797D02*
X170342887Y-86374797D01*
X169399459Y-85358797D02*
X168818887Y-85358797D01*
X169181744Y-84850797D02*
X169181744Y-86157083D01*
X169181744Y-86157083D02*
X169109173Y-86302226D01*
X169109173Y-86302226D02*
X168964030Y-86374797D01*
X168964030Y-86374797D02*
X168818887Y-86374797D01*
X166496602Y-86302226D02*
X166641744Y-86374797D01*
X166641744Y-86374797D02*
X166932030Y-86374797D01*
X166932030Y-86374797D02*
X167077173Y-86302226D01*
X167077173Y-86302226D02*
X167149744Y-86229654D01*
X167149744Y-86229654D02*
X167222316Y-86084511D01*
X167222316Y-86084511D02*
X167222316Y-85649083D01*
X167222316Y-85649083D02*
X167149744Y-85503940D01*
X167149744Y-85503940D02*
X167077173Y-85431368D01*
X167077173Y-85431368D02*
X166932030Y-85358797D01*
X166932030Y-85358797D02*
X166641744Y-85358797D01*
X166641744Y-85358797D02*
X166496602Y-85431368D01*
X165625744Y-86374797D02*
X165770887Y-86302226D01*
X165770887Y-86302226D02*
X165843458Y-86229654D01*
X165843458Y-86229654D02*
X165916030Y-86084511D01*
X165916030Y-86084511D02*
X165916030Y-85649083D01*
X165916030Y-85649083D02*
X165843458Y-85503940D01*
X165843458Y-85503940D02*
X165770887Y-85431368D01*
X165770887Y-85431368D02*
X165625744Y-85358797D01*
X165625744Y-85358797D02*
X165408030Y-85358797D01*
X165408030Y-85358797D02*
X165262887Y-85431368D01*
X165262887Y-85431368D02*
X165190316Y-85503940D01*
X165190316Y-85503940D02*
X165117744Y-85649083D01*
X165117744Y-85649083D02*
X165117744Y-86084511D01*
X165117744Y-86084511D02*
X165190316Y-86229654D01*
X165190316Y-86229654D02*
X165262887Y-86302226D01*
X165262887Y-86302226D02*
X165408030Y-86374797D01*
X165408030Y-86374797D02*
X165625744Y-86374797D01*
X164464601Y-85358797D02*
X164464601Y-86374797D01*
X164464601Y-85503940D02*
X164392030Y-85431368D01*
X164392030Y-85431368D02*
X164246887Y-85358797D01*
X164246887Y-85358797D02*
X164029173Y-85358797D01*
X164029173Y-85358797D02*
X163884030Y-85431368D01*
X163884030Y-85431368D02*
X163811459Y-85576511D01*
X163811459Y-85576511D02*
X163811459Y-86374797D01*
X163085744Y-85358797D02*
X163085744Y-86374797D01*
X163085744Y-85503940D02*
X163013173Y-85431368D01*
X163013173Y-85431368D02*
X162868030Y-85358797D01*
X162868030Y-85358797D02*
X162650316Y-85358797D01*
X162650316Y-85358797D02*
X162505173Y-85431368D01*
X162505173Y-85431368D02*
X162432602Y-85576511D01*
X162432602Y-85576511D02*
X162432602Y-86374797D01*
X161126316Y-86302226D02*
X161271459Y-86374797D01*
X161271459Y-86374797D02*
X161561745Y-86374797D01*
X161561745Y-86374797D02*
X161706887Y-86302226D01*
X161706887Y-86302226D02*
X161779459Y-86157083D01*
X161779459Y-86157083D02*
X161779459Y-85576511D01*
X161779459Y-85576511D02*
X161706887Y-85431368D01*
X161706887Y-85431368D02*
X161561745Y-85358797D01*
X161561745Y-85358797D02*
X161271459Y-85358797D01*
X161271459Y-85358797D02*
X161126316Y-85431368D01*
X161126316Y-85431368D02*
X161053745Y-85576511D01*
X161053745Y-85576511D02*
X161053745Y-85721654D01*
X161053745Y-85721654D02*
X161779459Y-85866797D01*
X159747459Y-86302226D02*
X159892601Y-86374797D01*
X159892601Y-86374797D02*
X160182887Y-86374797D01*
X160182887Y-86374797D02*
X160328030Y-86302226D01*
X160328030Y-86302226D02*
X160400601Y-86229654D01*
X160400601Y-86229654D02*
X160473173Y-86084511D01*
X160473173Y-86084511D02*
X160473173Y-85649083D01*
X160473173Y-85649083D02*
X160400601Y-85503940D01*
X160400601Y-85503940D02*
X160328030Y-85431368D01*
X160328030Y-85431368D02*
X160182887Y-85358797D01*
X160182887Y-85358797D02*
X159892601Y-85358797D01*
X159892601Y-85358797D02*
X159747459Y-85431368D01*
X159312030Y-85358797D02*
X158731458Y-85358797D01*
X159094315Y-84850797D02*
X159094315Y-86157083D01*
X159094315Y-86157083D02*
X159021744Y-86302226D01*
X159021744Y-86302226D02*
X158876601Y-86374797D01*
X158876601Y-86374797D02*
X158731458Y-86374797D01*
X157062315Y-84850797D02*
X157062315Y-86084511D01*
X157062315Y-86084511D02*
X156989744Y-86229654D01*
X156989744Y-86229654D02*
X156917173Y-86302226D01*
X156917173Y-86302226D02*
X156772030Y-86374797D01*
X156772030Y-86374797D02*
X156481744Y-86374797D01*
X156481744Y-86374797D02*
X156336601Y-86302226D01*
X156336601Y-86302226D02*
X156264030Y-86229654D01*
X156264030Y-86229654D02*
X156191458Y-86084511D01*
X156191458Y-86084511D02*
X156191458Y-84850797D01*
X155538316Y-86302226D02*
X155320602Y-86374797D01*
X155320602Y-86374797D02*
X154957744Y-86374797D01*
X154957744Y-86374797D02*
X154812602Y-86302226D01*
X154812602Y-86302226D02*
X154740030Y-86229654D01*
X154740030Y-86229654D02*
X154667459Y-86084511D01*
X154667459Y-86084511D02*
X154667459Y-85939368D01*
X154667459Y-85939368D02*
X154740030Y-85794226D01*
X154740030Y-85794226D02*
X154812602Y-85721654D01*
X154812602Y-85721654D02*
X154957744Y-85649083D01*
X154957744Y-85649083D02*
X155248030Y-85576511D01*
X155248030Y-85576511D02*
X155393173Y-85503940D01*
X155393173Y-85503940D02*
X155465744Y-85431368D01*
X155465744Y-85431368D02*
X155538316Y-85286226D01*
X155538316Y-85286226D02*
X155538316Y-85141083D01*
X155538316Y-85141083D02*
X155465744Y-84995940D01*
X155465744Y-84995940D02*
X155393173Y-84923368D01*
X155393173Y-84923368D02*
X155248030Y-84850797D01*
X155248030Y-84850797D02*
X154885173Y-84850797D01*
X154885173Y-84850797D02*
X154667459Y-84923368D01*
X153506315Y-85576511D02*
X153288601Y-85649083D01*
X153288601Y-85649083D02*
X153216030Y-85721654D01*
X153216030Y-85721654D02*
X153143458Y-85866797D01*
X153143458Y-85866797D02*
X153143458Y-86084511D01*
X153143458Y-86084511D02*
X153216030Y-86229654D01*
X153216030Y-86229654D02*
X153288601Y-86302226D01*
X153288601Y-86302226D02*
X153433744Y-86374797D01*
X153433744Y-86374797D02*
X154014315Y-86374797D01*
X154014315Y-86374797D02*
X154014315Y-84850797D01*
X154014315Y-84850797D02*
X153506315Y-84850797D01*
X153506315Y-84850797D02*
X153361173Y-84923368D01*
X153361173Y-84923368D02*
X153288601Y-84995940D01*
X153288601Y-84995940D02*
X153216030Y-85141083D01*
X153216030Y-85141083D02*
X153216030Y-85286226D01*
X153216030Y-85286226D02*
X153288601Y-85431368D01*
X153288601Y-85431368D02*
X153361173Y-85503940D01*
X153361173Y-85503940D02*
X153506315Y-85576511D01*
X153506315Y-85576511D02*
X154014315Y-85576511D01*
X151329172Y-85358797D02*
X151329172Y-86882797D01*
X151329172Y-85431368D02*
X151184030Y-85358797D01*
X151184030Y-85358797D02*
X150893744Y-85358797D01*
X150893744Y-85358797D02*
X150748601Y-85431368D01*
X150748601Y-85431368D02*
X150676030Y-85503940D01*
X150676030Y-85503940D02*
X150603458Y-85649083D01*
X150603458Y-85649083D02*
X150603458Y-86084511D01*
X150603458Y-86084511D02*
X150676030Y-86229654D01*
X150676030Y-86229654D02*
X150748601Y-86302226D01*
X150748601Y-86302226D02*
X150893744Y-86374797D01*
X150893744Y-86374797D02*
X151184030Y-86374797D01*
X151184030Y-86374797D02*
X151329172Y-86302226D01*
X149732601Y-86374797D02*
X149877744Y-86302226D01*
X149877744Y-86302226D02*
X149950315Y-86229654D01*
X149950315Y-86229654D02*
X150022887Y-86084511D01*
X150022887Y-86084511D02*
X150022887Y-85649083D01*
X150022887Y-85649083D02*
X149950315Y-85503940D01*
X149950315Y-85503940D02*
X149877744Y-85431368D01*
X149877744Y-85431368D02*
X149732601Y-85358797D01*
X149732601Y-85358797D02*
X149514887Y-85358797D01*
X149514887Y-85358797D02*
X149369744Y-85431368D01*
X149369744Y-85431368D02*
X149297173Y-85503940D01*
X149297173Y-85503940D02*
X149224601Y-85649083D01*
X149224601Y-85649083D02*
X149224601Y-86084511D01*
X149224601Y-86084511D02*
X149297173Y-86229654D01*
X149297173Y-86229654D02*
X149369744Y-86302226D01*
X149369744Y-86302226D02*
X149514887Y-86374797D01*
X149514887Y-86374797D02*
X149732601Y-86374797D01*
X148716601Y-85358797D02*
X148426316Y-86374797D01*
X148426316Y-86374797D02*
X148136030Y-85649083D01*
X148136030Y-85649083D02*
X147845744Y-86374797D01*
X147845744Y-86374797D02*
X147555458Y-85358797D01*
X146394316Y-86302226D02*
X146539459Y-86374797D01*
X146539459Y-86374797D02*
X146829745Y-86374797D01*
X146829745Y-86374797D02*
X146974887Y-86302226D01*
X146974887Y-86302226D02*
X147047459Y-86157083D01*
X147047459Y-86157083D02*
X147047459Y-85576511D01*
X147047459Y-85576511D02*
X146974887Y-85431368D01*
X146974887Y-85431368D02*
X146829745Y-85358797D01*
X146829745Y-85358797D02*
X146539459Y-85358797D01*
X146539459Y-85358797D02*
X146394316Y-85431368D01*
X146394316Y-85431368D02*
X146321745Y-85576511D01*
X146321745Y-85576511D02*
X146321745Y-85721654D01*
X146321745Y-85721654D02*
X147047459Y-85866797D01*
X145668601Y-86374797D02*
X145668601Y-85358797D01*
X145668601Y-85649083D02*
X145596030Y-85503940D01*
X145596030Y-85503940D02*
X145523459Y-85431368D01*
X145523459Y-85431368D02*
X145378316Y-85358797D01*
X145378316Y-85358797D02*
X145233173Y-85358797D01*
X143781744Y-85358797D02*
X143201172Y-85358797D01*
X143564029Y-84850797D02*
X143564029Y-86157083D01*
X143564029Y-86157083D02*
X143491458Y-86302226D01*
X143491458Y-86302226D02*
X143346315Y-86374797D01*
X143346315Y-86374797D02*
X143201172Y-86374797D01*
X142475458Y-86374797D02*
X142620601Y-86302226D01*
X142620601Y-86302226D02*
X142693172Y-86229654D01*
X142693172Y-86229654D02*
X142765744Y-86084511D01*
X142765744Y-86084511D02*
X142765744Y-85649083D01*
X142765744Y-85649083D02*
X142693172Y-85503940D01*
X142693172Y-85503940D02*
X142620601Y-85431368D01*
X142620601Y-85431368D02*
X142475458Y-85358797D01*
X142475458Y-85358797D02*
X142257744Y-85358797D01*
X142257744Y-85358797D02*
X142112601Y-85431368D01*
X142112601Y-85431368D02*
X142040030Y-85503940D01*
X142040030Y-85503940D02*
X141967458Y-85649083D01*
X141967458Y-85649083D02*
X141967458Y-86084511D01*
X141967458Y-86084511D02*
X142040030Y-86229654D01*
X142040030Y-86229654D02*
X142112601Y-86302226D01*
X142112601Y-86302226D02*
X142257744Y-86374797D01*
X142257744Y-86374797D02*
X142475458Y-86374797D01*
X140370887Y-85358797D02*
X139790315Y-85358797D01*
X140153172Y-84850797D02*
X140153172Y-86157083D01*
X140153172Y-86157083D02*
X140080601Y-86302226D01*
X140080601Y-86302226D02*
X139935458Y-86374797D01*
X139935458Y-86374797D02*
X139790315Y-86374797D01*
X139282315Y-86374797D02*
X139282315Y-84850797D01*
X138629173Y-86374797D02*
X138629173Y-85576511D01*
X138629173Y-85576511D02*
X138701744Y-85431368D01*
X138701744Y-85431368D02*
X138846887Y-85358797D01*
X138846887Y-85358797D02*
X139064601Y-85358797D01*
X139064601Y-85358797D02*
X139209744Y-85431368D01*
X139209744Y-85431368D02*
X139282315Y-85503940D01*
X137322887Y-86302226D02*
X137468030Y-86374797D01*
X137468030Y-86374797D02*
X137758316Y-86374797D01*
X137758316Y-86374797D02*
X137903458Y-86302226D01*
X137903458Y-86302226D02*
X137976030Y-86157083D01*
X137976030Y-86157083D02*
X137976030Y-85576511D01*
X137976030Y-85576511D02*
X137903458Y-85431368D01*
X137903458Y-85431368D02*
X137758316Y-85358797D01*
X137758316Y-85358797D02*
X137468030Y-85358797D01*
X137468030Y-85358797D02*
X137322887Y-85431368D01*
X137322887Y-85431368D02*
X137250316Y-85576511D01*
X137250316Y-85576511D02*
X137250316Y-85721654D01*
X137250316Y-85721654D02*
X137976030Y-85866797D01*
X134565172Y-86374797D02*
X135073172Y-85649083D01*
X135436029Y-86374797D02*
X135436029Y-84850797D01*
X135436029Y-84850797D02*
X134855458Y-84850797D01*
X134855458Y-84850797D02*
X134710315Y-84923368D01*
X134710315Y-84923368D02*
X134637744Y-84995940D01*
X134637744Y-84995940D02*
X134565172Y-85141083D01*
X134565172Y-85141083D02*
X134565172Y-85358797D01*
X134565172Y-85358797D02*
X134637744Y-85503940D01*
X134637744Y-85503940D02*
X134710315Y-85576511D01*
X134710315Y-85576511D02*
X134855458Y-85649083D01*
X134855458Y-85649083D02*
X135436029Y-85649083D01*
X133912029Y-86374797D02*
X133912029Y-84850797D01*
X133912029Y-84850797D02*
X133331458Y-84850797D01*
X133331458Y-84850797D02*
X133186315Y-84923368D01*
X133186315Y-84923368D02*
X133113744Y-84995940D01*
X133113744Y-84995940D02*
X133041172Y-85141083D01*
X133041172Y-85141083D02*
X133041172Y-85358797D01*
X133041172Y-85358797D02*
X133113744Y-85503940D01*
X133113744Y-85503940D02*
X133186315Y-85576511D01*
X133186315Y-85576511D02*
X133331458Y-85649083D01*
X133331458Y-85649083D02*
X133912029Y-85649083D01*
X132388029Y-86374797D02*
X132388029Y-85358797D01*
X132388029Y-84850797D02*
X132460601Y-84923368D01*
X132460601Y-84923368D02*
X132388029Y-84995940D01*
X132388029Y-84995940D02*
X132315458Y-84923368D01*
X132315458Y-84923368D02*
X132388029Y-84850797D01*
X132388029Y-84850797D02*
X132388029Y-84995940D01*
X175350316Y-87812352D02*
X175350316Y-88828352D01*
X176003458Y-87812352D02*
X176003458Y-88610638D01*
X176003458Y-88610638D02*
X175930887Y-88755781D01*
X175930887Y-88755781D02*
X175785744Y-88828352D01*
X175785744Y-88828352D02*
X175568030Y-88828352D01*
X175568030Y-88828352D02*
X175422887Y-88755781D01*
X175422887Y-88755781D02*
X175350316Y-88683209D01*
X174624601Y-87812352D02*
X174624601Y-88828352D01*
X174624601Y-87957495D02*
X174552030Y-87884923D01*
X174552030Y-87884923D02*
X174406887Y-87812352D01*
X174406887Y-87812352D02*
X174189173Y-87812352D01*
X174189173Y-87812352D02*
X174044030Y-87884923D01*
X174044030Y-87884923D02*
X173971459Y-88030066D01*
X173971459Y-88030066D02*
X173971459Y-88828352D01*
X173028030Y-88828352D02*
X173173173Y-88755781D01*
X173173173Y-88755781D02*
X173245744Y-88610638D01*
X173245744Y-88610638D02*
X173245744Y-87304352D01*
X171866887Y-88755781D02*
X172012030Y-88828352D01*
X172012030Y-88828352D02*
X172302316Y-88828352D01*
X172302316Y-88828352D02*
X172447458Y-88755781D01*
X172447458Y-88755781D02*
X172520030Y-88610638D01*
X172520030Y-88610638D02*
X172520030Y-88030066D01*
X172520030Y-88030066D02*
X172447458Y-87884923D01*
X172447458Y-87884923D02*
X172302316Y-87812352D01*
X172302316Y-87812352D02*
X172012030Y-87812352D01*
X172012030Y-87812352D02*
X171866887Y-87884923D01*
X171866887Y-87884923D02*
X171794316Y-88030066D01*
X171794316Y-88030066D02*
X171794316Y-88175209D01*
X171794316Y-88175209D02*
X172520030Y-88320352D01*
X171213744Y-88755781D02*
X171068601Y-88828352D01*
X171068601Y-88828352D02*
X170778315Y-88828352D01*
X170778315Y-88828352D02*
X170633172Y-88755781D01*
X170633172Y-88755781D02*
X170560601Y-88610638D01*
X170560601Y-88610638D02*
X170560601Y-88538066D01*
X170560601Y-88538066D02*
X170633172Y-88392923D01*
X170633172Y-88392923D02*
X170778315Y-88320352D01*
X170778315Y-88320352D02*
X170996030Y-88320352D01*
X170996030Y-88320352D02*
X171141172Y-88247781D01*
X171141172Y-88247781D02*
X171213744Y-88102638D01*
X171213744Y-88102638D02*
X171213744Y-88030066D01*
X171213744Y-88030066D02*
X171141172Y-87884923D01*
X171141172Y-87884923D02*
X170996030Y-87812352D01*
X170996030Y-87812352D02*
X170778315Y-87812352D01*
X170778315Y-87812352D02*
X170633172Y-87884923D01*
X169980030Y-88755781D02*
X169834887Y-88828352D01*
X169834887Y-88828352D02*
X169544601Y-88828352D01*
X169544601Y-88828352D02*
X169399458Y-88755781D01*
X169399458Y-88755781D02*
X169326887Y-88610638D01*
X169326887Y-88610638D02*
X169326887Y-88538066D01*
X169326887Y-88538066D02*
X169399458Y-88392923D01*
X169399458Y-88392923D02*
X169544601Y-88320352D01*
X169544601Y-88320352D02*
X169762316Y-88320352D01*
X169762316Y-88320352D02*
X169907458Y-88247781D01*
X169907458Y-88247781D02*
X169980030Y-88102638D01*
X169980030Y-88102638D02*
X169980030Y-88030066D01*
X169980030Y-88030066D02*
X169907458Y-87884923D01*
X169907458Y-87884923D02*
X169762316Y-87812352D01*
X169762316Y-87812352D02*
X169544601Y-87812352D01*
X169544601Y-87812352D02*
X169399458Y-87884923D01*
X167730316Y-87812352D02*
X167149744Y-87812352D01*
X167512601Y-87304352D02*
X167512601Y-88610638D01*
X167512601Y-88610638D02*
X167440030Y-88755781D01*
X167440030Y-88755781D02*
X167294887Y-88828352D01*
X167294887Y-88828352D02*
X167149744Y-88828352D01*
X166641744Y-88828352D02*
X166641744Y-87304352D01*
X165988602Y-88828352D02*
X165988602Y-88030066D01*
X165988602Y-88030066D02*
X166061173Y-87884923D01*
X166061173Y-87884923D02*
X166206316Y-87812352D01*
X166206316Y-87812352D02*
X166424030Y-87812352D01*
X166424030Y-87812352D02*
X166569173Y-87884923D01*
X166569173Y-87884923D02*
X166641744Y-87957495D01*
X164682316Y-88755781D02*
X164827459Y-88828352D01*
X164827459Y-88828352D02*
X165117745Y-88828352D01*
X165117745Y-88828352D02*
X165262887Y-88755781D01*
X165262887Y-88755781D02*
X165335459Y-88610638D01*
X165335459Y-88610638D02*
X165335459Y-88030066D01*
X165335459Y-88030066D02*
X165262887Y-87884923D01*
X165262887Y-87884923D02*
X165117745Y-87812352D01*
X165117745Y-87812352D02*
X164827459Y-87812352D01*
X164827459Y-87812352D02*
X164682316Y-87884923D01*
X164682316Y-87884923D02*
X164609745Y-88030066D01*
X164609745Y-88030066D02*
X164609745Y-88175209D01*
X164609745Y-88175209D02*
X165335459Y-88320352D01*
X162795458Y-87812352D02*
X162795458Y-89336352D01*
X162795458Y-87884923D02*
X162650316Y-87812352D01*
X162650316Y-87812352D02*
X162360030Y-87812352D01*
X162360030Y-87812352D02*
X162214887Y-87884923D01*
X162214887Y-87884923D02*
X162142316Y-87957495D01*
X162142316Y-87957495D02*
X162069744Y-88102638D01*
X162069744Y-88102638D02*
X162069744Y-88538066D01*
X162069744Y-88538066D02*
X162142316Y-88683209D01*
X162142316Y-88683209D02*
X162214887Y-88755781D01*
X162214887Y-88755781D02*
X162360030Y-88828352D01*
X162360030Y-88828352D02*
X162650316Y-88828352D01*
X162650316Y-88828352D02*
X162795458Y-88755781D01*
X161198887Y-88828352D02*
X161344030Y-88755781D01*
X161344030Y-88755781D02*
X161416601Y-88683209D01*
X161416601Y-88683209D02*
X161489173Y-88538066D01*
X161489173Y-88538066D02*
X161489173Y-88102638D01*
X161489173Y-88102638D02*
X161416601Y-87957495D01*
X161416601Y-87957495D02*
X161344030Y-87884923D01*
X161344030Y-87884923D02*
X161198887Y-87812352D01*
X161198887Y-87812352D02*
X160981173Y-87812352D01*
X160981173Y-87812352D02*
X160836030Y-87884923D01*
X160836030Y-87884923D02*
X160763459Y-87957495D01*
X160763459Y-87957495D02*
X160690887Y-88102638D01*
X160690887Y-88102638D02*
X160690887Y-88538066D01*
X160690887Y-88538066D02*
X160763459Y-88683209D01*
X160763459Y-88683209D02*
X160836030Y-88755781D01*
X160836030Y-88755781D02*
X160981173Y-88828352D01*
X160981173Y-88828352D02*
X161198887Y-88828352D01*
X160182887Y-87812352D02*
X159892602Y-88828352D01*
X159892602Y-88828352D02*
X159602316Y-88102638D01*
X159602316Y-88102638D02*
X159312030Y-88828352D01*
X159312030Y-88828352D02*
X159021744Y-87812352D01*
X157860602Y-88755781D02*
X158005745Y-88828352D01*
X158005745Y-88828352D02*
X158296031Y-88828352D01*
X158296031Y-88828352D02*
X158441173Y-88755781D01*
X158441173Y-88755781D02*
X158513745Y-88610638D01*
X158513745Y-88610638D02*
X158513745Y-88030066D01*
X158513745Y-88030066D02*
X158441173Y-87884923D01*
X158441173Y-87884923D02*
X158296031Y-87812352D01*
X158296031Y-87812352D02*
X158005745Y-87812352D01*
X158005745Y-87812352D02*
X157860602Y-87884923D01*
X157860602Y-87884923D02*
X157788031Y-88030066D01*
X157788031Y-88030066D02*
X157788031Y-88175209D01*
X157788031Y-88175209D02*
X158513745Y-88320352D01*
X157134887Y-88828352D02*
X157134887Y-87812352D01*
X157134887Y-88102638D02*
X157062316Y-87957495D01*
X157062316Y-87957495D02*
X156989745Y-87884923D01*
X156989745Y-87884923D02*
X156844602Y-87812352D01*
X156844602Y-87812352D02*
X156699459Y-87812352D01*
X155030315Y-87812352D02*
X155030315Y-89118638D01*
X155030315Y-89118638D02*
X155102887Y-89263781D01*
X155102887Y-89263781D02*
X155248030Y-89336352D01*
X155248030Y-89336352D02*
X155320601Y-89336352D01*
X155030315Y-87304352D02*
X155102887Y-87376923D01*
X155102887Y-87376923D02*
X155030315Y-87449495D01*
X155030315Y-87449495D02*
X154957744Y-87376923D01*
X154957744Y-87376923D02*
X155030315Y-87304352D01*
X155030315Y-87304352D02*
X155030315Y-87449495D01*
X153651459Y-87812352D02*
X153651459Y-88828352D01*
X154304601Y-87812352D02*
X154304601Y-88610638D01*
X154304601Y-88610638D02*
X154232030Y-88755781D01*
X154232030Y-88755781D02*
X154086887Y-88828352D01*
X154086887Y-88828352D02*
X153869173Y-88828352D01*
X153869173Y-88828352D02*
X153724030Y-88755781D01*
X153724030Y-88755781D02*
X153651459Y-88683209D01*
X152925744Y-88828352D02*
X152925744Y-87812352D01*
X152925744Y-87957495D02*
X152853173Y-87884923D01*
X152853173Y-87884923D02*
X152708030Y-87812352D01*
X152708030Y-87812352D02*
X152490316Y-87812352D01*
X152490316Y-87812352D02*
X152345173Y-87884923D01*
X152345173Y-87884923D02*
X152272602Y-88030066D01*
X152272602Y-88030066D02*
X152272602Y-88828352D01*
X152272602Y-88030066D02*
X152200030Y-87884923D01*
X152200030Y-87884923D02*
X152054887Y-87812352D01*
X152054887Y-87812352D02*
X151837173Y-87812352D01*
X151837173Y-87812352D02*
X151692030Y-87884923D01*
X151692030Y-87884923D02*
X151619459Y-88030066D01*
X151619459Y-88030066D02*
X151619459Y-88828352D01*
X150893744Y-87812352D02*
X150893744Y-89336352D01*
X150893744Y-87884923D02*
X150748602Y-87812352D01*
X150748602Y-87812352D02*
X150458316Y-87812352D01*
X150458316Y-87812352D02*
X150313173Y-87884923D01*
X150313173Y-87884923D02*
X150240602Y-87957495D01*
X150240602Y-87957495D02*
X150168030Y-88102638D01*
X150168030Y-88102638D02*
X150168030Y-88538066D01*
X150168030Y-88538066D02*
X150240602Y-88683209D01*
X150240602Y-88683209D02*
X150313173Y-88755781D01*
X150313173Y-88755781D02*
X150458316Y-88828352D01*
X150458316Y-88828352D02*
X150748602Y-88828352D01*
X150748602Y-88828352D02*
X150893744Y-88755781D01*
X148934316Y-88755781D02*
X149079459Y-88828352D01*
X149079459Y-88828352D02*
X149369745Y-88828352D01*
X149369745Y-88828352D02*
X149514887Y-88755781D01*
X149514887Y-88755781D02*
X149587459Y-88610638D01*
X149587459Y-88610638D02*
X149587459Y-88030066D01*
X149587459Y-88030066D02*
X149514887Y-87884923D01*
X149514887Y-87884923D02*
X149369745Y-87812352D01*
X149369745Y-87812352D02*
X149079459Y-87812352D01*
X149079459Y-87812352D02*
X148934316Y-87884923D01*
X148934316Y-87884923D02*
X148861745Y-88030066D01*
X148861745Y-88030066D02*
X148861745Y-88175209D01*
X148861745Y-88175209D02*
X149587459Y-88320352D01*
X148208601Y-88828352D02*
X148208601Y-87812352D01*
X148208601Y-88102638D02*
X148136030Y-87957495D01*
X148136030Y-87957495D02*
X148063459Y-87884923D01*
X148063459Y-87884923D02*
X147918316Y-87812352D01*
X147918316Y-87812352D02*
X147773173Y-87812352D01*
X146104029Y-88828352D02*
X146104029Y-87812352D01*
X146104029Y-87304352D02*
X146176601Y-87376923D01*
X146176601Y-87376923D02*
X146104029Y-87449495D01*
X146104029Y-87449495D02*
X146031458Y-87376923D01*
X146031458Y-87376923D02*
X146104029Y-87304352D01*
X146104029Y-87304352D02*
X146104029Y-87449495D01*
X145450887Y-88755781D02*
X145305744Y-88828352D01*
X145305744Y-88828352D02*
X145015458Y-88828352D01*
X145015458Y-88828352D02*
X144870315Y-88755781D01*
X144870315Y-88755781D02*
X144797744Y-88610638D01*
X144797744Y-88610638D02*
X144797744Y-88538066D01*
X144797744Y-88538066D02*
X144870315Y-88392923D01*
X144870315Y-88392923D02*
X145015458Y-88320352D01*
X145015458Y-88320352D02*
X145233173Y-88320352D01*
X145233173Y-88320352D02*
X145378315Y-88247781D01*
X145378315Y-88247781D02*
X145450887Y-88102638D01*
X145450887Y-88102638D02*
X145450887Y-88030066D01*
X145450887Y-88030066D02*
X145378315Y-87884923D01*
X145378315Y-87884923D02*
X145233173Y-87812352D01*
X145233173Y-87812352D02*
X145015458Y-87812352D01*
X145015458Y-87812352D02*
X144870315Y-87884923D01*
X142983458Y-88828352D02*
X142983458Y-87812352D01*
X142983458Y-88102638D02*
X142910887Y-87957495D01*
X142910887Y-87957495D02*
X142838316Y-87884923D01*
X142838316Y-87884923D02*
X142693173Y-87812352D01*
X142693173Y-87812352D02*
X142548030Y-87812352D01*
X141459458Y-88755781D02*
X141604601Y-88828352D01*
X141604601Y-88828352D02*
X141894887Y-88828352D01*
X141894887Y-88828352D02*
X142040029Y-88755781D01*
X142040029Y-88755781D02*
X142112601Y-88610638D01*
X142112601Y-88610638D02*
X142112601Y-88030066D01*
X142112601Y-88030066D02*
X142040029Y-87884923D01*
X142040029Y-87884923D02*
X141894887Y-87812352D01*
X141894887Y-87812352D02*
X141604601Y-87812352D01*
X141604601Y-87812352D02*
X141459458Y-87884923D01*
X141459458Y-87884923D02*
X141386887Y-88030066D01*
X141386887Y-88030066D02*
X141386887Y-88175209D01*
X141386887Y-88175209D02*
X142112601Y-88320352D01*
X140733743Y-88828352D02*
X140733743Y-87812352D01*
X140733743Y-87957495D02*
X140661172Y-87884923D01*
X140661172Y-87884923D02*
X140516029Y-87812352D01*
X140516029Y-87812352D02*
X140298315Y-87812352D01*
X140298315Y-87812352D02*
X140153172Y-87884923D01*
X140153172Y-87884923D02*
X140080601Y-88030066D01*
X140080601Y-88030066D02*
X140080601Y-88828352D01*
X140080601Y-88030066D02*
X140008029Y-87884923D01*
X140008029Y-87884923D02*
X139862886Y-87812352D01*
X139862886Y-87812352D02*
X139645172Y-87812352D01*
X139645172Y-87812352D02*
X139500029Y-87884923D01*
X139500029Y-87884923D02*
X139427458Y-88030066D01*
X139427458Y-88030066D02*
X139427458Y-88828352D01*
X138484029Y-88828352D02*
X138629172Y-88755781D01*
X138629172Y-88755781D02*
X138701743Y-88683209D01*
X138701743Y-88683209D02*
X138774315Y-88538066D01*
X138774315Y-88538066D02*
X138774315Y-88102638D01*
X138774315Y-88102638D02*
X138701743Y-87957495D01*
X138701743Y-87957495D02*
X138629172Y-87884923D01*
X138629172Y-87884923D02*
X138484029Y-87812352D01*
X138484029Y-87812352D02*
X138266315Y-87812352D01*
X138266315Y-87812352D02*
X138121172Y-87884923D01*
X138121172Y-87884923D02*
X138048601Y-87957495D01*
X138048601Y-87957495D02*
X137976029Y-88102638D01*
X137976029Y-88102638D02*
X137976029Y-88538066D01*
X137976029Y-88538066D02*
X138048601Y-88683209D01*
X138048601Y-88683209D02*
X138121172Y-88755781D01*
X138121172Y-88755781D02*
X138266315Y-88828352D01*
X138266315Y-88828352D02*
X138484029Y-88828352D01*
X137468029Y-87812352D02*
X137105172Y-88828352D01*
X137105172Y-88828352D02*
X136742315Y-87812352D01*
X135581172Y-88755781D02*
X135726315Y-88828352D01*
X135726315Y-88828352D02*
X136016601Y-88828352D01*
X136016601Y-88828352D02*
X136161743Y-88755781D01*
X136161743Y-88755781D02*
X136234315Y-88610638D01*
X136234315Y-88610638D02*
X136234315Y-88030066D01*
X136234315Y-88030066D02*
X136161743Y-87884923D01*
X136161743Y-87884923D02*
X136016601Y-87812352D01*
X136016601Y-87812352D02*
X135726315Y-87812352D01*
X135726315Y-87812352D02*
X135581172Y-87884923D01*
X135581172Y-87884923D02*
X135508601Y-88030066D01*
X135508601Y-88030066D02*
X135508601Y-88175209D01*
X135508601Y-88175209D02*
X136234315Y-88320352D01*
X134202315Y-88828352D02*
X134202315Y-87304352D01*
X134202315Y-88755781D02*
X134347457Y-88828352D01*
X134347457Y-88828352D02*
X134637743Y-88828352D01*
X134637743Y-88828352D02*
X134782886Y-88755781D01*
X134782886Y-88755781D02*
X134855457Y-88683209D01*
X134855457Y-88683209D02*
X134928029Y-88538066D01*
X134928029Y-88538066D02*
X134928029Y-88102638D01*
X134928029Y-88102638D02*
X134855457Y-87957495D01*
X134855457Y-87957495D02*
X134782886Y-87884923D01*
X134782886Y-87884923D02*
X134637743Y-87812352D01*
X134637743Y-87812352D02*
X134347457Y-87812352D01*
X134347457Y-87812352D02*
X134202315Y-87884923D01*
X176221173Y-90265907D02*
X175640601Y-90265907D01*
X176003458Y-91281907D02*
X176003458Y-89975621D01*
X176003458Y-89975621D02*
X175930887Y-89830478D01*
X175930887Y-89830478D02*
X175785744Y-89757907D01*
X175785744Y-89757907D02*
X175640601Y-89757907D01*
X175132601Y-91281907D02*
X175132601Y-90265907D01*
X175132601Y-90556193D02*
X175060030Y-90411050D01*
X175060030Y-90411050D02*
X174987459Y-90338478D01*
X174987459Y-90338478D02*
X174842316Y-90265907D01*
X174842316Y-90265907D02*
X174697173Y-90265907D01*
X173971458Y-91281907D02*
X174116601Y-91209336D01*
X174116601Y-91209336D02*
X174189172Y-91136764D01*
X174189172Y-91136764D02*
X174261744Y-90991621D01*
X174261744Y-90991621D02*
X174261744Y-90556193D01*
X174261744Y-90556193D02*
X174189172Y-90411050D01*
X174189172Y-90411050D02*
X174116601Y-90338478D01*
X174116601Y-90338478D02*
X173971458Y-90265907D01*
X173971458Y-90265907D02*
X173753744Y-90265907D01*
X173753744Y-90265907D02*
X173608601Y-90338478D01*
X173608601Y-90338478D02*
X173536030Y-90411050D01*
X173536030Y-90411050D02*
X173463458Y-90556193D01*
X173463458Y-90556193D02*
X173463458Y-90991621D01*
X173463458Y-90991621D02*
X173536030Y-91136764D01*
X173536030Y-91136764D02*
X173608601Y-91209336D01*
X173608601Y-91209336D02*
X173753744Y-91281907D01*
X173753744Y-91281907D02*
X173971458Y-91281907D01*
X172810315Y-91281907D02*
X172810315Y-90265907D01*
X172810315Y-90411050D02*
X172737744Y-90338478D01*
X172737744Y-90338478D02*
X172592601Y-90265907D01*
X172592601Y-90265907D02*
X172374887Y-90265907D01*
X172374887Y-90265907D02*
X172229744Y-90338478D01*
X172229744Y-90338478D02*
X172157173Y-90483621D01*
X172157173Y-90483621D02*
X172157173Y-91281907D01*
X172157173Y-90483621D02*
X172084601Y-90338478D01*
X172084601Y-90338478D02*
X171939458Y-90265907D01*
X171939458Y-90265907D02*
X171721744Y-90265907D01*
X171721744Y-90265907D02*
X171576601Y-90338478D01*
X171576601Y-90338478D02*
X171504030Y-90483621D01*
X171504030Y-90483621D02*
X171504030Y-91281907D01*
X169834887Y-90265907D02*
X169254315Y-90265907D01*
X169617172Y-89757907D02*
X169617172Y-91064193D01*
X169617172Y-91064193D02*
X169544601Y-91209336D01*
X169544601Y-91209336D02*
X169399458Y-91281907D01*
X169399458Y-91281907D02*
X169254315Y-91281907D01*
X168746315Y-91281907D02*
X168746315Y-89757907D01*
X168093173Y-91281907D02*
X168093173Y-90483621D01*
X168093173Y-90483621D02*
X168165744Y-90338478D01*
X168165744Y-90338478D02*
X168310887Y-90265907D01*
X168310887Y-90265907D02*
X168528601Y-90265907D01*
X168528601Y-90265907D02*
X168673744Y-90338478D01*
X168673744Y-90338478D02*
X168746315Y-90411050D01*
X167367458Y-91281907D02*
X167367458Y-90265907D01*
X167367458Y-89757907D02*
X167440030Y-89830478D01*
X167440030Y-89830478D02*
X167367458Y-89903050D01*
X167367458Y-89903050D02*
X167294887Y-89830478D01*
X167294887Y-89830478D02*
X167367458Y-89757907D01*
X167367458Y-89757907D02*
X167367458Y-89903050D01*
X166714316Y-91209336D02*
X166569173Y-91281907D01*
X166569173Y-91281907D02*
X166278887Y-91281907D01*
X166278887Y-91281907D02*
X166133744Y-91209336D01*
X166133744Y-91209336D02*
X166061173Y-91064193D01*
X166061173Y-91064193D02*
X166061173Y-90991621D01*
X166061173Y-90991621D02*
X166133744Y-90846478D01*
X166133744Y-90846478D02*
X166278887Y-90773907D01*
X166278887Y-90773907D02*
X166496602Y-90773907D01*
X166496602Y-90773907D02*
X166641744Y-90701336D01*
X166641744Y-90701336D02*
X166714316Y-90556193D01*
X166714316Y-90556193D02*
X166714316Y-90483621D01*
X166714316Y-90483621D02*
X166641744Y-90338478D01*
X166641744Y-90338478D02*
X166496602Y-90265907D01*
X166496602Y-90265907D02*
X166278887Y-90265907D01*
X166278887Y-90265907D02*
X166133744Y-90338478D01*
X164246887Y-91281907D02*
X164246887Y-89757907D01*
X164246887Y-90338478D02*
X164101745Y-90265907D01*
X164101745Y-90265907D02*
X163811459Y-90265907D01*
X163811459Y-90265907D02*
X163666316Y-90338478D01*
X163666316Y-90338478D02*
X163593745Y-90411050D01*
X163593745Y-90411050D02*
X163521173Y-90556193D01*
X163521173Y-90556193D02*
X163521173Y-90991621D01*
X163521173Y-90991621D02*
X163593745Y-91136764D01*
X163593745Y-91136764D02*
X163666316Y-91209336D01*
X163666316Y-91209336D02*
X163811459Y-91281907D01*
X163811459Y-91281907D02*
X164101745Y-91281907D01*
X164101745Y-91281907D02*
X164246887Y-91209336D01*
X162650316Y-91281907D02*
X162795459Y-91209336D01*
X162795459Y-91209336D02*
X162868030Y-91136764D01*
X162868030Y-91136764D02*
X162940602Y-90991621D01*
X162940602Y-90991621D02*
X162940602Y-90556193D01*
X162940602Y-90556193D02*
X162868030Y-90411050D01*
X162868030Y-90411050D02*
X162795459Y-90338478D01*
X162795459Y-90338478D02*
X162650316Y-90265907D01*
X162650316Y-90265907D02*
X162432602Y-90265907D01*
X162432602Y-90265907D02*
X162287459Y-90338478D01*
X162287459Y-90338478D02*
X162214888Y-90411050D01*
X162214888Y-90411050D02*
X162142316Y-90556193D01*
X162142316Y-90556193D02*
X162142316Y-90991621D01*
X162142316Y-90991621D02*
X162214888Y-91136764D01*
X162214888Y-91136764D02*
X162287459Y-91209336D01*
X162287459Y-91209336D02*
X162432602Y-91281907D01*
X162432602Y-91281907D02*
X162650316Y-91281907D01*
X160836031Y-91281907D02*
X160836031Y-90483621D01*
X160836031Y-90483621D02*
X160908602Y-90338478D01*
X160908602Y-90338478D02*
X161053745Y-90265907D01*
X161053745Y-90265907D02*
X161344031Y-90265907D01*
X161344031Y-90265907D02*
X161489173Y-90338478D01*
X160836031Y-91209336D02*
X160981173Y-91281907D01*
X160981173Y-91281907D02*
X161344031Y-91281907D01*
X161344031Y-91281907D02*
X161489173Y-91209336D01*
X161489173Y-91209336D02*
X161561745Y-91064193D01*
X161561745Y-91064193D02*
X161561745Y-90919050D01*
X161561745Y-90919050D02*
X161489173Y-90773907D01*
X161489173Y-90773907D02*
X161344031Y-90701336D01*
X161344031Y-90701336D02*
X160981173Y-90701336D01*
X160981173Y-90701336D02*
X160836031Y-90628764D01*
X160110316Y-91281907D02*
X160110316Y-90265907D01*
X160110316Y-90556193D02*
X160037745Y-90411050D01*
X160037745Y-90411050D02*
X159965174Y-90338478D01*
X159965174Y-90338478D02*
X159820031Y-90265907D01*
X159820031Y-90265907D02*
X159674888Y-90265907D01*
X158513745Y-91281907D02*
X158513745Y-89757907D01*
X158513745Y-91209336D02*
X158658887Y-91281907D01*
X158658887Y-91281907D02*
X158949173Y-91281907D01*
X158949173Y-91281907D02*
X159094316Y-91209336D01*
X159094316Y-91209336D02*
X159166887Y-91136764D01*
X159166887Y-91136764D02*
X159239459Y-90991621D01*
X159239459Y-90991621D02*
X159239459Y-90556193D01*
X159239459Y-90556193D02*
X159166887Y-90411050D01*
X159166887Y-90411050D02*
X159094316Y-90338478D01*
X159094316Y-90338478D02*
X158949173Y-90265907D01*
X158949173Y-90265907D02*
X158658887Y-90265907D01*
X158658887Y-90265907D02*
X158513745Y-90338478D01*
D12*
X183483020Y-100247587D02*
X183483020Y-99247587D01*
X183483020Y-99247587D02*
X183149687Y-99961872D01*
X183149687Y-99961872D02*
X182816354Y-99247587D01*
X182816354Y-99247587D02*
X182816354Y-100247587D01*
X181911592Y-100247587D02*
X181911592Y-99723777D01*
X181911592Y-99723777D02*
X181959211Y-99628539D01*
X181959211Y-99628539D02*
X182054449Y-99580920D01*
X182054449Y-99580920D02*
X182244925Y-99580920D01*
X182244925Y-99580920D02*
X182340163Y-99628539D01*
X181911592Y-100199968D02*
X182006830Y-100247587D01*
X182006830Y-100247587D02*
X182244925Y-100247587D01*
X182244925Y-100247587D02*
X182340163Y-100199968D01*
X182340163Y-100199968D02*
X182387782Y-100104729D01*
X182387782Y-100104729D02*
X182387782Y-100009491D01*
X182387782Y-100009491D02*
X182340163Y-99914253D01*
X182340163Y-99914253D02*
X182244925Y-99866634D01*
X182244925Y-99866634D02*
X182006830Y-99866634D01*
X182006830Y-99866634D02*
X181911592Y-99819015D01*
X181006830Y-100247587D02*
X181006830Y-99247587D01*
X181006830Y-100199968D02*
X181102068Y-100247587D01*
X181102068Y-100247587D02*
X181292544Y-100247587D01*
X181292544Y-100247587D02*
X181387782Y-100199968D01*
X181387782Y-100199968D02*
X181435401Y-100152348D01*
X181435401Y-100152348D02*
X181483020Y-100057110D01*
X181483020Y-100057110D02*
X181483020Y-99771396D01*
X181483020Y-99771396D02*
X181435401Y-99676158D01*
X181435401Y-99676158D02*
X181387782Y-99628539D01*
X181387782Y-99628539D02*
X181292544Y-99580920D01*
X181292544Y-99580920D02*
X181102068Y-99580920D01*
X181102068Y-99580920D02*
X181006830Y-99628539D01*
X180149687Y-100199968D02*
X180244925Y-100247587D01*
X180244925Y-100247587D02*
X180435401Y-100247587D01*
X180435401Y-100247587D02*
X180530639Y-100199968D01*
X180530639Y-100199968D02*
X180578258Y-100104729D01*
X180578258Y-100104729D02*
X180578258Y-99723777D01*
X180578258Y-99723777D02*
X180530639Y-99628539D01*
X180530639Y-99628539D02*
X180435401Y-99580920D01*
X180435401Y-99580920D02*
X180244925Y-99580920D01*
X180244925Y-99580920D02*
X180149687Y-99628539D01*
X180149687Y-99628539D02*
X180102068Y-99723777D01*
X180102068Y-99723777D02*
X180102068Y-99819015D01*
X180102068Y-99819015D02*
X180578258Y-99914253D01*
X179054448Y-99580920D02*
X178673496Y-99580920D01*
X178911591Y-100247587D02*
X178911591Y-99390444D01*
X178911591Y-99390444D02*
X178863972Y-99295206D01*
X178863972Y-99295206D02*
X178768734Y-99247587D01*
X178768734Y-99247587D02*
X178673496Y-99247587D01*
X178197305Y-100247587D02*
X178292543Y-100199968D01*
X178292543Y-100199968D02*
X178340162Y-100152348D01*
X178340162Y-100152348D02*
X178387781Y-100057110D01*
X178387781Y-100057110D02*
X178387781Y-99771396D01*
X178387781Y-99771396D02*
X178340162Y-99676158D01*
X178340162Y-99676158D02*
X178292543Y-99628539D01*
X178292543Y-99628539D02*
X178197305Y-99580920D01*
X178197305Y-99580920D02*
X178054448Y-99580920D01*
X178054448Y-99580920D02*
X177959210Y-99628539D01*
X177959210Y-99628539D02*
X177911591Y-99676158D01*
X177911591Y-99676158D02*
X177863972Y-99771396D01*
X177863972Y-99771396D02*
X177863972Y-100057110D01*
X177863972Y-100057110D02*
X177911591Y-100152348D01*
X177911591Y-100152348D02*
X177959210Y-100199968D01*
X177959210Y-100199968D02*
X178054448Y-100247587D01*
X178054448Y-100247587D02*
X178197305Y-100247587D01*
X177435400Y-100247587D02*
X177435400Y-99580920D01*
X177435400Y-99771396D02*
X177387781Y-99676158D01*
X177387781Y-99676158D02*
X177340162Y-99628539D01*
X177340162Y-99628539D02*
X177244924Y-99580920D01*
X177244924Y-99580920D02*
X177149686Y-99580920D01*
X176102066Y-99961872D02*
X175625876Y-99961872D01*
X176197304Y-100247587D02*
X175863971Y-99247587D01*
X175863971Y-99247587D02*
X175530638Y-100247587D01*
X175197304Y-99580920D02*
X175197304Y-100580920D01*
X175197304Y-99628539D02*
X175102066Y-99580920D01*
X175102066Y-99580920D02*
X174911590Y-99580920D01*
X174911590Y-99580920D02*
X174816352Y-99628539D01*
X174816352Y-99628539D02*
X174768733Y-99676158D01*
X174768733Y-99676158D02*
X174721114Y-99771396D01*
X174721114Y-99771396D02*
X174721114Y-100057110D01*
X174721114Y-100057110D02*
X174768733Y-100152348D01*
X174768733Y-100152348D02*
X174816352Y-100199968D01*
X174816352Y-100199968D02*
X174911590Y-100247587D01*
X174911590Y-100247587D02*
X175102066Y-100247587D01*
X175102066Y-100247587D02*
X175197304Y-100199968D01*
X174292542Y-99580920D02*
X174292542Y-100580920D01*
X174292542Y-99628539D02*
X174197304Y-99580920D01*
X174197304Y-99580920D02*
X174006828Y-99580920D01*
X174006828Y-99580920D02*
X173911590Y-99628539D01*
X173911590Y-99628539D02*
X173863971Y-99676158D01*
X173863971Y-99676158D02*
X173816352Y-99771396D01*
X173816352Y-99771396D02*
X173816352Y-100057110D01*
X173816352Y-100057110D02*
X173863971Y-100152348D01*
X173863971Y-100152348D02*
X173911590Y-100199968D01*
X173911590Y-100199968D02*
X174006828Y-100247587D01*
X174006828Y-100247587D02*
X174197304Y-100247587D01*
X174197304Y-100247587D02*
X174292542Y-100199968D01*
X173244923Y-100247587D02*
X173340161Y-100199968D01*
X173340161Y-100199968D02*
X173387780Y-100104729D01*
X173387780Y-100104729D02*
X173387780Y-99247587D01*
X172483018Y-100199968D02*
X172578256Y-100247587D01*
X172578256Y-100247587D02*
X172768732Y-100247587D01*
X172768732Y-100247587D02*
X172863970Y-100199968D01*
X172863970Y-100199968D02*
X172911589Y-100104729D01*
X172911589Y-100104729D02*
X172911589Y-99723777D01*
X172911589Y-99723777D02*
X172863970Y-99628539D01*
X172863970Y-99628539D02*
X172768732Y-99580920D01*
X172768732Y-99580920D02*
X172578256Y-99580920D01*
X172578256Y-99580920D02*
X172483018Y-99628539D01*
X172483018Y-99628539D02*
X172435399Y-99723777D01*
X172435399Y-99723777D02*
X172435399Y-99819015D01*
X172435399Y-99819015D02*
X172911589Y-99914253D01*
X171340160Y-100580920D02*
X171102065Y-100580920D01*
X171102065Y-100580920D02*
X171102065Y-99152348D01*
X171102065Y-99152348D02*
X171340160Y-99152348D01*
X170292541Y-100580920D02*
X170530636Y-100580920D01*
X170530636Y-100580920D02*
X170530636Y-99152348D01*
X170530636Y-99152348D02*
X170292541Y-99152348D01*
X169197302Y-100199968D02*
X169102064Y-100247587D01*
X169102064Y-100247587D02*
X168911588Y-100247587D01*
X168911588Y-100247587D02*
X168816350Y-100199968D01*
X168816350Y-100199968D02*
X168768731Y-100104729D01*
X168768731Y-100104729D02*
X168768731Y-100057110D01*
X168768731Y-100057110D02*
X168816350Y-99961872D01*
X168816350Y-99961872D02*
X168911588Y-99914253D01*
X168911588Y-99914253D02*
X169054445Y-99914253D01*
X169054445Y-99914253D02*
X169149683Y-99866634D01*
X169149683Y-99866634D02*
X169197302Y-99771396D01*
X169197302Y-99771396D02*
X169197302Y-99723777D01*
X169197302Y-99723777D02*
X169149683Y-99628539D01*
X169149683Y-99628539D02*
X169054445Y-99580920D01*
X169054445Y-99580920D02*
X168911588Y-99580920D01*
X168911588Y-99580920D02*
X168816350Y-99628539D01*
X167959207Y-100199968D02*
X168054445Y-100247587D01*
X168054445Y-100247587D02*
X168244921Y-100247587D01*
X168244921Y-100247587D02*
X168340159Y-100199968D01*
X168340159Y-100199968D02*
X168387778Y-100104729D01*
X168387778Y-100104729D02*
X168387778Y-99723777D01*
X168387778Y-99723777D02*
X168340159Y-99628539D01*
X168340159Y-99628539D02*
X168244921Y-99580920D01*
X168244921Y-99580920D02*
X168054445Y-99580920D01*
X168054445Y-99580920D02*
X167959207Y-99628539D01*
X167959207Y-99628539D02*
X167911588Y-99723777D01*
X167911588Y-99723777D02*
X167911588Y-99819015D01*
X167911588Y-99819015D02*
X168387778Y-99914253D01*
X167483016Y-100247587D02*
X167483016Y-99580920D01*
X167483016Y-99771396D02*
X167435397Y-99676158D01*
X167435397Y-99676158D02*
X167387778Y-99628539D01*
X167387778Y-99628539D02*
X167292540Y-99580920D01*
X167292540Y-99580920D02*
X167197302Y-99580920D01*
X166863968Y-100247587D02*
X166863968Y-99580920D01*
X166863968Y-99247587D02*
X166911587Y-99295206D01*
X166911587Y-99295206D02*
X166863968Y-99342825D01*
X166863968Y-99342825D02*
X166816349Y-99295206D01*
X166816349Y-99295206D02*
X166863968Y-99247587D01*
X166863968Y-99247587D02*
X166863968Y-99342825D01*
X166006826Y-100199968D02*
X166102064Y-100247587D01*
X166102064Y-100247587D02*
X166292540Y-100247587D01*
X166292540Y-100247587D02*
X166387778Y-100199968D01*
X166387778Y-100199968D02*
X166435397Y-100104729D01*
X166435397Y-100104729D02*
X166435397Y-99723777D01*
X166435397Y-99723777D02*
X166387778Y-99628539D01*
X166387778Y-99628539D02*
X166292540Y-99580920D01*
X166292540Y-99580920D02*
X166102064Y-99580920D01*
X166102064Y-99580920D02*
X166006826Y-99628539D01*
X166006826Y-99628539D02*
X165959207Y-99723777D01*
X165959207Y-99723777D02*
X165959207Y-99819015D01*
X165959207Y-99819015D02*
X166435397Y-99914253D01*
X165578254Y-100199968D02*
X165483016Y-100247587D01*
X165483016Y-100247587D02*
X165292540Y-100247587D01*
X165292540Y-100247587D02*
X165197302Y-100199968D01*
X165197302Y-100199968D02*
X165149683Y-100104729D01*
X165149683Y-100104729D02*
X165149683Y-100057110D01*
X165149683Y-100057110D02*
X165197302Y-99961872D01*
X165197302Y-99961872D02*
X165292540Y-99914253D01*
X165292540Y-99914253D02*
X165435397Y-99914253D01*
X165435397Y-99914253D02*
X165530635Y-99866634D01*
X165530635Y-99866634D02*
X165578254Y-99771396D01*
X165578254Y-99771396D02*
X165578254Y-99723777D01*
X165578254Y-99723777D02*
X165530635Y-99628539D01*
X165530635Y-99628539D02*
X165435397Y-99580920D01*
X165435397Y-99580920D02*
X165292540Y-99580920D01*
X165292540Y-99580920D02*
X165197302Y-99628539D01*
X163530635Y-100199968D02*
X163625873Y-100247587D01*
X163625873Y-100247587D02*
X163816349Y-100247587D01*
X163816349Y-100247587D02*
X163911587Y-100199968D01*
X163911587Y-100199968D02*
X163959206Y-100152348D01*
X163959206Y-100152348D02*
X164006825Y-100057110D01*
X164006825Y-100057110D02*
X164006825Y-99771396D01*
X164006825Y-99771396D02*
X163959206Y-99676158D01*
X163959206Y-99676158D02*
X163911587Y-99628539D01*
X163911587Y-99628539D02*
X163816349Y-99580920D01*
X163816349Y-99580920D02*
X163625873Y-99580920D01*
X163625873Y-99580920D02*
X163530635Y-99628539D01*
X162959206Y-100247587D02*
X163054444Y-100199968D01*
X163054444Y-100199968D02*
X163102063Y-100152348D01*
X163102063Y-100152348D02*
X163149682Y-100057110D01*
X163149682Y-100057110D02*
X163149682Y-99771396D01*
X163149682Y-99771396D02*
X163102063Y-99676158D01*
X163102063Y-99676158D02*
X163054444Y-99628539D01*
X163054444Y-99628539D02*
X162959206Y-99580920D01*
X162959206Y-99580920D02*
X162816349Y-99580920D01*
X162816349Y-99580920D02*
X162721111Y-99628539D01*
X162721111Y-99628539D02*
X162673492Y-99676158D01*
X162673492Y-99676158D02*
X162625873Y-99771396D01*
X162625873Y-99771396D02*
X162625873Y-100057110D01*
X162625873Y-100057110D02*
X162673492Y-100152348D01*
X162673492Y-100152348D02*
X162721111Y-100199968D01*
X162721111Y-100199968D02*
X162816349Y-100247587D01*
X162816349Y-100247587D02*
X162959206Y-100247587D01*
X162197301Y-100247587D02*
X162197301Y-99580920D01*
X162197301Y-99676158D02*
X162149682Y-99628539D01*
X162149682Y-99628539D02*
X162054444Y-99580920D01*
X162054444Y-99580920D02*
X161911587Y-99580920D01*
X161911587Y-99580920D02*
X161816349Y-99628539D01*
X161816349Y-99628539D02*
X161768730Y-99723777D01*
X161768730Y-99723777D02*
X161768730Y-100247587D01*
X161768730Y-99723777D02*
X161721111Y-99628539D01*
X161721111Y-99628539D02*
X161625873Y-99580920D01*
X161625873Y-99580920D02*
X161483016Y-99580920D01*
X161483016Y-99580920D02*
X161387777Y-99628539D01*
X161387777Y-99628539D02*
X161340158Y-99723777D01*
X161340158Y-99723777D02*
X161340158Y-100247587D01*
X160863968Y-99580920D02*
X160863968Y-100580920D01*
X160863968Y-99628539D02*
X160768730Y-99580920D01*
X160768730Y-99580920D02*
X160578254Y-99580920D01*
X160578254Y-99580920D02*
X160483016Y-99628539D01*
X160483016Y-99628539D02*
X160435397Y-99676158D01*
X160435397Y-99676158D02*
X160387778Y-99771396D01*
X160387778Y-99771396D02*
X160387778Y-100057110D01*
X160387778Y-100057110D02*
X160435397Y-100152348D01*
X160435397Y-100152348D02*
X160483016Y-100199968D01*
X160483016Y-100199968D02*
X160578254Y-100247587D01*
X160578254Y-100247587D02*
X160768730Y-100247587D01*
X160768730Y-100247587D02*
X160863968Y-100199968D01*
X159530635Y-99580920D02*
X159530635Y-100247587D01*
X159959206Y-99580920D02*
X159959206Y-100104729D01*
X159959206Y-100104729D02*
X159911587Y-100199968D01*
X159911587Y-100199968D02*
X159816349Y-100247587D01*
X159816349Y-100247587D02*
X159673492Y-100247587D01*
X159673492Y-100247587D02*
X159578254Y-100199968D01*
X159578254Y-100199968D02*
X159530635Y-100152348D01*
X159197301Y-99580920D02*
X158816349Y-99580920D01*
X159054444Y-99247587D02*
X159054444Y-100104729D01*
X159054444Y-100104729D02*
X159006825Y-100199968D01*
X159006825Y-100199968D02*
X158911587Y-100247587D01*
X158911587Y-100247587D02*
X158816349Y-100247587D01*
X158102063Y-100199968D02*
X158197301Y-100247587D01*
X158197301Y-100247587D02*
X158387777Y-100247587D01*
X158387777Y-100247587D02*
X158483015Y-100199968D01*
X158483015Y-100199968D02*
X158530634Y-100104729D01*
X158530634Y-100104729D02*
X158530634Y-99723777D01*
X158530634Y-99723777D02*
X158483015Y-99628539D01*
X158483015Y-99628539D02*
X158387777Y-99580920D01*
X158387777Y-99580920D02*
X158197301Y-99580920D01*
X158197301Y-99580920D02*
X158102063Y-99628539D01*
X158102063Y-99628539D02*
X158054444Y-99723777D01*
X158054444Y-99723777D02*
X158054444Y-99819015D01*
X158054444Y-99819015D02*
X158530634Y-99914253D01*
X157625872Y-100247587D02*
X157625872Y-99580920D01*
X157625872Y-99771396D02*
X157578253Y-99676158D01*
X157578253Y-99676158D02*
X157530634Y-99628539D01*
X157530634Y-99628539D02*
X157435396Y-99580920D01*
X157435396Y-99580920D02*
X157340158Y-99580920D01*
X157054443Y-100199968D02*
X156959205Y-100247587D01*
X156959205Y-100247587D02*
X156768729Y-100247587D01*
X156768729Y-100247587D02*
X156673491Y-100199968D01*
X156673491Y-100199968D02*
X156625872Y-100104729D01*
X156625872Y-100104729D02*
X156625872Y-100057110D01*
X156625872Y-100057110D02*
X156673491Y-99961872D01*
X156673491Y-99961872D02*
X156768729Y-99914253D01*
X156768729Y-99914253D02*
X156911586Y-99914253D01*
X156911586Y-99914253D02*
X157006824Y-99866634D01*
X157006824Y-99866634D02*
X157054443Y-99771396D01*
X157054443Y-99771396D02*
X157054443Y-99723777D01*
X157054443Y-99723777D02*
X157006824Y-99628539D01*
X157006824Y-99628539D02*
X156911586Y-99580920D01*
X156911586Y-99580920D02*
X156768729Y-99580920D01*
X156768729Y-99580920D02*
X156673491Y-99628539D01*
X183149687Y-101333721D02*
X183483020Y-101333721D01*
X183483020Y-101857531D02*
X183483020Y-100857531D01*
X183483020Y-100857531D02*
X183006830Y-100857531D01*
X182483020Y-101857531D02*
X182578258Y-101809912D01*
X182578258Y-101809912D02*
X182625877Y-101762292D01*
X182625877Y-101762292D02*
X182673496Y-101667054D01*
X182673496Y-101667054D02*
X182673496Y-101381340D01*
X182673496Y-101381340D02*
X182625877Y-101286102D01*
X182625877Y-101286102D02*
X182578258Y-101238483D01*
X182578258Y-101238483D02*
X182483020Y-101190864D01*
X182483020Y-101190864D02*
X182340163Y-101190864D01*
X182340163Y-101190864D02*
X182244925Y-101238483D01*
X182244925Y-101238483D02*
X182197306Y-101286102D01*
X182197306Y-101286102D02*
X182149687Y-101381340D01*
X182149687Y-101381340D02*
X182149687Y-101667054D01*
X182149687Y-101667054D02*
X182197306Y-101762292D01*
X182197306Y-101762292D02*
X182244925Y-101809912D01*
X182244925Y-101809912D02*
X182340163Y-101857531D01*
X182340163Y-101857531D02*
X182483020Y-101857531D01*
X181721115Y-101857531D02*
X181721115Y-101190864D01*
X181721115Y-101381340D02*
X181673496Y-101286102D01*
X181673496Y-101286102D02*
X181625877Y-101238483D01*
X181625877Y-101238483D02*
X181530639Y-101190864D01*
X181530639Y-101190864D02*
X181435401Y-101190864D01*
X179911591Y-101190864D02*
X179911591Y-101857531D01*
X180340162Y-101190864D02*
X180340162Y-101714673D01*
X180340162Y-101714673D02*
X180292543Y-101809912D01*
X180292543Y-101809912D02*
X180197305Y-101857531D01*
X180197305Y-101857531D02*
X180054448Y-101857531D01*
X180054448Y-101857531D02*
X179959210Y-101809912D01*
X179959210Y-101809912D02*
X179911591Y-101762292D01*
X179483019Y-101809912D02*
X179387781Y-101857531D01*
X179387781Y-101857531D02*
X179197305Y-101857531D01*
X179197305Y-101857531D02*
X179102067Y-101809912D01*
X179102067Y-101809912D02*
X179054448Y-101714673D01*
X179054448Y-101714673D02*
X179054448Y-101667054D01*
X179054448Y-101667054D02*
X179102067Y-101571816D01*
X179102067Y-101571816D02*
X179197305Y-101524197D01*
X179197305Y-101524197D02*
X179340162Y-101524197D01*
X179340162Y-101524197D02*
X179435400Y-101476578D01*
X179435400Y-101476578D02*
X179483019Y-101381340D01*
X179483019Y-101381340D02*
X179483019Y-101333721D01*
X179483019Y-101333721D02*
X179435400Y-101238483D01*
X179435400Y-101238483D02*
X179340162Y-101190864D01*
X179340162Y-101190864D02*
X179197305Y-101190864D01*
X179197305Y-101190864D02*
X179102067Y-101238483D01*
X178244924Y-101809912D02*
X178340162Y-101857531D01*
X178340162Y-101857531D02*
X178530638Y-101857531D01*
X178530638Y-101857531D02*
X178625876Y-101809912D01*
X178625876Y-101809912D02*
X178673495Y-101714673D01*
X178673495Y-101714673D02*
X178673495Y-101333721D01*
X178673495Y-101333721D02*
X178625876Y-101238483D01*
X178625876Y-101238483D02*
X178530638Y-101190864D01*
X178530638Y-101190864D02*
X178340162Y-101190864D01*
X178340162Y-101190864D02*
X178244924Y-101238483D01*
X178244924Y-101238483D02*
X178197305Y-101333721D01*
X178197305Y-101333721D02*
X178197305Y-101428959D01*
X178197305Y-101428959D02*
X178673495Y-101524197D01*
X177102066Y-101190864D02*
X176911590Y-101857531D01*
X176911590Y-101857531D02*
X176721114Y-101381340D01*
X176721114Y-101381340D02*
X176530638Y-101857531D01*
X176530638Y-101857531D02*
X176340162Y-101190864D01*
X175959209Y-101857531D02*
X175959209Y-101190864D01*
X175959209Y-100857531D02*
X176006828Y-100905150D01*
X176006828Y-100905150D02*
X175959209Y-100952769D01*
X175959209Y-100952769D02*
X175911590Y-100905150D01*
X175911590Y-100905150D02*
X175959209Y-100857531D01*
X175959209Y-100857531D02*
X175959209Y-100952769D01*
X175625876Y-101190864D02*
X175244924Y-101190864D01*
X175483019Y-100857531D02*
X175483019Y-101714673D01*
X175483019Y-101714673D02*
X175435400Y-101809912D01*
X175435400Y-101809912D02*
X175340162Y-101857531D01*
X175340162Y-101857531D02*
X175244924Y-101857531D01*
X174911590Y-101857531D02*
X174911590Y-100857531D01*
X174483019Y-101857531D02*
X174483019Y-101333721D01*
X174483019Y-101333721D02*
X174530638Y-101238483D01*
X174530638Y-101238483D02*
X174625876Y-101190864D01*
X174625876Y-101190864D02*
X174768733Y-101190864D01*
X174768733Y-101190864D02*
X174863971Y-101238483D01*
X174863971Y-101238483D02*
X174911590Y-101286102D01*
X173102066Y-101857531D02*
X173197304Y-101809912D01*
X173197304Y-101809912D02*
X173244923Y-101714673D01*
X173244923Y-101714673D02*
X173244923Y-100857531D01*
X172578256Y-101857531D02*
X172673494Y-101809912D01*
X172673494Y-101809912D02*
X172721113Y-101762292D01*
X172721113Y-101762292D02*
X172768732Y-101667054D01*
X172768732Y-101667054D02*
X172768732Y-101381340D01*
X172768732Y-101381340D02*
X172721113Y-101286102D01*
X172721113Y-101286102D02*
X172673494Y-101238483D01*
X172673494Y-101238483D02*
X172578256Y-101190864D01*
X172578256Y-101190864D02*
X172435399Y-101190864D01*
X172435399Y-101190864D02*
X172340161Y-101238483D01*
X172340161Y-101238483D02*
X172292542Y-101286102D01*
X172292542Y-101286102D02*
X172244923Y-101381340D01*
X172244923Y-101381340D02*
X172244923Y-101667054D01*
X172244923Y-101667054D02*
X172292542Y-101762292D01*
X172292542Y-101762292D02*
X172340161Y-101809912D01*
X172340161Y-101809912D02*
X172435399Y-101857531D01*
X172435399Y-101857531D02*
X172578256Y-101857531D01*
X171911589Y-101190864D02*
X171721113Y-101857531D01*
X171721113Y-101857531D02*
X171530637Y-101381340D01*
X171530637Y-101381340D02*
X171340161Y-101857531D01*
X171340161Y-101857531D02*
X171149685Y-101190864D01*
X169578256Y-101809912D02*
X169673494Y-101857531D01*
X169673494Y-101857531D02*
X169863970Y-101857531D01*
X169863970Y-101857531D02*
X169959208Y-101809912D01*
X169959208Y-101809912D02*
X170006827Y-101762292D01*
X170006827Y-101762292D02*
X170054446Y-101667054D01*
X170054446Y-101667054D02*
X170054446Y-101381340D01*
X170054446Y-101381340D02*
X170006827Y-101286102D01*
X170006827Y-101286102D02*
X169959208Y-101238483D01*
X169959208Y-101238483D02*
X169863970Y-101190864D01*
X169863970Y-101190864D02*
X169673494Y-101190864D01*
X169673494Y-101190864D02*
X169578256Y-101238483D01*
X168721113Y-101190864D02*
X168721113Y-101857531D01*
X169149684Y-101190864D02*
X169149684Y-101714673D01*
X169149684Y-101714673D02*
X169102065Y-101809912D01*
X169102065Y-101809912D02*
X169006827Y-101857531D01*
X169006827Y-101857531D02*
X168863970Y-101857531D01*
X168863970Y-101857531D02*
X168768732Y-101809912D01*
X168768732Y-101809912D02*
X168721113Y-101762292D01*
X168244922Y-101857531D02*
X168244922Y-101190864D01*
X168244922Y-101381340D02*
X168197303Y-101286102D01*
X168197303Y-101286102D02*
X168149684Y-101238483D01*
X168149684Y-101238483D02*
X168054446Y-101190864D01*
X168054446Y-101190864D02*
X167959208Y-101190864D01*
X167625874Y-101857531D02*
X167625874Y-101190864D01*
X167625874Y-101381340D02*
X167578255Y-101286102D01*
X167578255Y-101286102D02*
X167530636Y-101238483D01*
X167530636Y-101238483D02*
X167435398Y-101190864D01*
X167435398Y-101190864D02*
X167340160Y-101190864D01*
X166625874Y-101809912D02*
X166721112Y-101857531D01*
X166721112Y-101857531D02*
X166911588Y-101857531D01*
X166911588Y-101857531D02*
X167006826Y-101809912D01*
X167006826Y-101809912D02*
X167054445Y-101714673D01*
X167054445Y-101714673D02*
X167054445Y-101333721D01*
X167054445Y-101333721D02*
X167006826Y-101238483D01*
X167006826Y-101238483D02*
X166911588Y-101190864D01*
X166911588Y-101190864D02*
X166721112Y-101190864D01*
X166721112Y-101190864D02*
X166625874Y-101238483D01*
X166625874Y-101238483D02*
X166578255Y-101333721D01*
X166578255Y-101333721D02*
X166578255Y-101428959D01*
X166578255Y-101428959D02*
X167054445Y-101524197D01*
X166149683Y-101190864D02*
X166149683Y-101857531D01*
X166149683Y-101286102D02*
X166102064Y-101238483D01*
X166102064Y-101238483D02*
X166006826Y-101190864D01*
X166006826Y-101190864D02*
X165863969Y-101190864D01*
X165863969Y-101190864D02*
X165768731Y-101238483D01*
X165768731Y-101238483D02*
X165721112Y-101333721D01*
X165721112Y-101333721D02*
X165721112Y-101857531D01*
X165387778Y-101190864D02*
X165006826Y-101190864D01*
X165244921Y-100857531D02*
X165244921Y-101714673D01*
X165244921Y-101714673D02*
X165197302Y-101809912D01*
X165197302Y-101809912D02*
X165102064Y-101857531D01*
X165102064Y-101857531D02*
X165006826Y-101857531D01*
X163340159Y-101857531D02*
X163673492Y-101381340D01*
X163911587Y-101857531D02*
X163911587Y-100857531D01*
X163911587Y-100857531D02*
X163530635Y-100857531D01*
X163530635Y-100857531D02*
X163435397Y-100905150D01*
X163435397Y-100905150D02*
X163387778Y-100952769D01*
X163387778Y-100952769D02*
X163340159Y-101048007D01*
X163340159Y-101048007D02*
X163340159Y-101190864D01*
X163340159Y-101190864D02*
X163387778Y-101286102D01*
X163387778Y-101286102D02*
X163435397Y-101333721D01*
X163435397Y-101333721D02*
X163530635Y-101381340D01*
X163530635Y-101381340D02*
X163911587Y-101381340D01*
X162483016Y-101857531D02*
X162483016Y-101333721D01*
X162483016Y-101333721D02*
X162530635Y-101238483D01*
X162530635Y-101238483D02*
X162625873Y-101190864D01*
X162625873Y-101190864D02*
X162816349Y-101190864D01*
X162816349Y-101190864D02*
X162911587Y-101238483D01*
X162483016Y-101809912D02*
X162578254Y-101857531D01*
X162578254Y-101857531D02*
X162816349Y-101857531D01*
X162816349Y-101857531D02*
X162911587Y-101809912D01*
X162911587Y-101809912D02*
X162959206Y-101714673D01*
X162959206Y-101714673D02*
X162959206Y-101619435D01*
X162959206Y-101619435D02*
X162911587Y-101524197D01*
X162911587Y-101524197D02*
X162816349Y-101476578D01*
X162816349Y-101476578D02*
X162578254Y-101476578D01*
X162578254Y-101476578D02*
X162483016Y-101428959D01*
X162054444Y-101809912D02*
X161959206Y-101857531D01*
X161959206Y-101857531D02*
X161768730Y-101857531D01*
X161768730Y-101857531D02*
X161673492Y-101809912D01*
X161673492Y-101809912D02*
X161625873Y-101714673D01*
X161625873Y-101714673D02*
X161625873Y-101667054D01*
X161625873Y-101667054D02*
X161673492Y-101571816D01*
X161673492Y-101571816D02*
X161768730Y-101524197D01*
X161768730Y-101524197D02*
X161911587Y-101524197D01*
X161911587Y-101524197D02*
X162006825Y-101476578D01*
X162006825Y-101476578D02*
X162054444Y-101381340D01*
X162054444Y-101381340D02*
X162054444Y-101333721D01*
X162054444Y-101333721D02*
X162006825Y-101238483D01*
X162006825Y-101238483D02*
X161911587Y-101190864D01*
X161911587Y-101190864D02*
X161768730Y-101190864D01*
X161768730Y-101190864D02*
X161673492Y-101238483D01*
X161197301Y-101190864D02*
X161197301Y-102190864D01*
X161197301Y-101238483D02*
X161102063Y-101190864D01*
X161102063Y-101190864D02*
X160911587Y-101190864D01*
X160911587Y-101190864D02*
X160816349Y-101238483D01*
X160816349Y-101238483D02*
X160768730Y-101286102D01*
X160768730Y-101286102D02*
X160721111Y-101381340D01*
X160721111Y-101381340D02*
X160721111Y-101667054D01*
X160721111Y-101667054D02*
X160768730Y-101762292D01*
X160768730Y-101762292D02*
X160816349Y-101809912D01*
X160816349Y-101809912D02*
X160911587Y-101857531D01*
X160911587Y-101857531D02*
X161102063Y-101857531D01*
X161102063Y-101857531D02*
X161197301Y-101809912D01*
X160292539Y-101857531D02*
X160292539Y-100857531D01*
X160292539Y-101238483D02*
X160197301Y-101190864D01*
X160197301Y-101190864D02*
X160006825Y-101190864D01*
X160006825Y-101190864D02*
X159911587Y-101238483D01*
X159911587Y-101238483D02*
X159863968Y-101286102D01*
X159863968Y-101286102D02*
X159816349Y-101381340D01*
X159816349Y-101381340D02*
X159816349Y-101667054D01*
X159816349Y-101667054D02*
X159863968Y-101762292D01*
X159863968Y-101762292D02*
X159911587Y-101809912D01*
X159911587Y-101809912D02*
X160006825Y-101857531D01*
X160006825Y-101857531D02*
X160197301Y-101857531D01*
X160197301Y-101857531D02*
X160292539Y-101809912D01*
X159006825Y-101809912D02*
X159102063Y-101857531D01*
X159102063Y-101857531D02*
X159292539Y-101857531D01*
X159292539Y-101857531D02*
X159387777Y-101809912D01*
X159387777Y-101809912D02*
X159435396Y-101714673D01*
X159435396Y-101714673D02*
X159435396Y-101333721D01*
X159435396Y-101333721D02*
X159387777Y-101238483D01*
X159387777Y-101238483D02*
X159292539Y-101190864D01*
X159292539Y-101190864D02*
X159102063Y-101190864D01*
X159102063Y-101190864D02*
X159006825Y-101238483D01*
X159006825Y-101238483D02*
X158959206Y-101333721D01*
X158959206Y-101333721D02*
X158959206Y-101428959D01*
X158959206Y-101428959D02*
X159435396Y-101524197D01*
X158530634Y-101857531D02*
X158530634Y-101190864D01*
X158530634Y-101381340D02*
X158483015Y-101286102D01*
X158483015Y-101286102D02*
X158435396Y-101238483D01*
X158435396Y-101238483D02*
X158340158Y-101190864D01*
X158340158Y-101190864D02*
X158244920Y-101190864D01*
X157911586Y-101857531D02*
X157911586Y-101190864D01*
X157911586Y-101381340D02*
X157863967Y-101286102D01*
X157863967Y-101286102D02*
X157816348Y-101238483D01*
X157816348Y-101238483D02*
X157721110Y-101190864D01*
X157721110Y-101190864D02*
X157625872Y-101190864D01*
X157387776Y-101190864D02*
X157149681Y-101857531D01*
X156911586Y-101190864D02*
X157149681Y-101857531D01*
X157149681Y-101857531D02*
X157244919Y-102095626D01*
X157244919Y-102095626D02*
X157292538Y-102143245D01*
X157292538Y-102143245D02*
X157387776Y-102190864D01*
X155768728Y-101857531D02*
X155768728Y-100857531D01*
X155768728Y-100857531D02*
X155387776Y-100857531D01*
X155387776Y-100857531D02*
X155292538Y-100905150D01*
X155292538Y-100905150D02*
X155244919Y-100952769D01*
X155244919Y-100952769D02*
X155197300Y-101048007D01*
X155197300Y-101048007D02*
X155197300Y-101190864D01*
X155197300Y-101190864D02*
X155244919Y-101286102D01*
X155244919Y-101286102D02*
X155292538Y-101333721D01*
X155292538Y-101333721D02*
X155387776Y-101381340D01*
X155387776Y-101381340D02*
X155768728Y-101381340D01*
X154768728Y-101857531D02*
X154768728Y-101190864D01*
X154768728Y-100857531D02*
X154816347Y-100905150D01*
X154816347Y-100905150D02*
X154768728Y-100952769D01*
X154768728Y-100952769D02*
X154721109Y-100905150D01*
X154721109Y-100905150D02*
X154768728Y-100857531D01*
X154768728Y-100857531D02*
X154768728Y-100952769D01*
X153387776Y-101857531D02*
X153483014Y-101809912D01*
X153483014Y-101809912D02*
X153530633Y-101762292D01*
X153530633Y-101762292D02*
X153578252Y-101667054D01*
X153578252Y-101667054D02*
X153578252Y-101381340D01*
X153578252Y-101381340D02*
X153530633Y-101286102D01*
X153530633Y-101286102D02*
X153483014Y-101238483D01*
X153483014Y-101238483D02*
X153387776Y-101190864D01*
X153387776Y-101190864D02*
X153244919Y-101190864D01*
X153244919Y-101190864D02*
X153149681Y-101238483D01*
X153149681Y-101238483D02*
X153102062Y-101286102D01*
X153102062Y-101286102D02*
X153054443Y-101381340D01*
X153054443Y-101381340D02*
X153054443Y-101667054D01*
X153054443Y-101667054D02*
X153102062Y-101762292D01*
X153102062Y-101762292D02*
X153149681Y-101809912D01*
X153149681Y-101809912D02*
X153244919Y-101857531D01*
X153244919Y-101857531D02*
X153387776Y-101857531D01*
X152625871Y-101190864D02*
X152625871Y-101857531D01*
X152625871Y-101286102D02*
X152578252Y-101238483D01*
X152578252Y-101238483D02*
X152483014Y-101190864D01*
X152483014Y-101190864D02*
X152340157Y-101190864D01*
X152340157Y-101190864D02*
X152244919Y-101238483D01*
X152244919Y-101238483D02*
X152197300Y-101333721D01*
X152197300Y-101333721D02*
X152197300Y-101857531D01*
X151578252Y-101857531D02*
X151673490Y-101809912D01*
X151673490Y-101809912D02*
X151721109Y-101714673D01*
X151721109Y-101714673D02*
X151721109Y-100857531D01*
X151292537Y-101190864D02*
X151054442Y-101857531D01*
X150816347Y-101190864D02*
X151054442Y-101857531D01*
X151054442Y-101857531D02*
X151149680Y-102095626D01*
X151149680Y-102095626D02*
X151197299Y-102143245D01*
X151197299Y-102143245D02*
X151292537Y-102190864D01*
X182911592Y-103467475D02*
X183244925Y-102991284D01*
X183483020Y-103467475D02*
X183483020Y-102467475D01*
X183483020Y-102467475D02*
X183102068Y-102467475D01*
X183102068Y-102467475D02*
X183006830Y-102515094D01*
X183006830Y-102515094D02*
X182959211Y-102562713D01*
X182959211Y-102562713D02*
X182911592Y-102657951D01*
X182911592Y-102657951D02*
X182911592Y-102800808D01*
X182911592Y-102800808D02*
X182959211Y-102896046D01*
X182959211Y-102896046D02*
X183006830Y-102943665D01*
X183006830Y-102943665D02*
X183102068Y-102991284D01*
X183102068Y-102991284D02*
X183483020Y-102991284D01*
X182054449Y-103467475D02*
X182054449Y-102943665D01*
X182054449Y-102943665D02*
X182102068Y-102848427D01*
X182102068Y-102848427D02*
X182197306Y-102800808D01*
X182197306Y-102800808D02*
X182387782Y-102800808D01*
X182387782Y-102800808D02*
X182483020Y-102848427D01*
X182054449Y-103419856D02*
X182149687Y-103467475D01*
X182149687Y-103467475D02*
X182387782Y-103467475D01*
X182387782Y-103467475D02*
X182483020Y-103419856D01*
X182483020Y-103419856D02*
X182530639Y-103324617D01*
X182530639Y-103324617D02*
X182530639Y-103229379D01*
X182530639Y-103229379D02*
X182483020Y-103134141D01*
X182483020Y-103134141D02*
X182387782Y-103086522D01*
X182387782Y-103086522D02*
X182149687Y-103086522D01*
X182149687Y-103086522D02*
X182054449Y-103038903D01*
X181625877Y-103419856D02*
X181530639Y-103467475D01*
X181530639Y-103467475D02*
X181340163Y-103467475D01*
X181340163Y-103467475D02*
X181244925Y-103419856D01*
X181244925Y-103419856D02*
X181197306Y-103324617D01*
X181197306Y-103324617D02*
X181197306Y-103276998D01*
X181197306Y-103276998D02*
X181244925Y-103181760D01*
X181244925Y-103181760D02*
X181340163Y-103134141D01*
X181340163Y-103134141D02*
X181483020Y-103134141D01*
X181483020Y-103134141D02*
X181578258Y-103086522D01*
X181578258Y-103086522D02*
X181625877Y-102991284D01*
X181625877Y-102991284D02*
X181625877Y-102943665D01*
X181625877Y-102943665D02*
X181578258Y-102848427D01*
X181578258Y-102848427D02*
X181483020Y-102800808D01*
X181483020Y-102800808D02*
X181340163Y-102800808D01*
X181340163Y-102800808D02*
X181244925Y-102848427D01*
X180768734Y-102800808D02*
X180768734Y-103800808D01*
X180768734Y-102848427D02*
X180673496Y-102800808D01*
X180673496Y-102800808D02*
X180483020Y-102800808D01*
X180483020Y-102800808D02*
X180387782Y-102848427D01*
X180387782Y-102848427D02*
X180340163Y-102896046D01*
X180340163Y-102896046D02*
X180292544Y-102991284D01*
X180292544Y-102991284D02*
X180292544Y-103276998D01*
X180292544Y-103276998D02*
X180340163Y-103372236D01*
X180340163Y-103372236D02*
X180387782Y-103419856D01*
X180387782Y-103419856D02*
X180483020Y-103467475D01*
X180483020Y-103467475D02*
X180673496Y-103467475D01*
X180673496Y-103467475D02*
X180768734Y-103419856D01*
X179863972Y-103467475D02*
X179863972Y-102467475D01*
X179863972Y-102848427D02*
X179768734Y-102800808D01*
X179768734Y-102800808D02*
X179578258Y-102800808D01*
X179578258Y-102800808D02*
X179483020Y-102848427D01*
X179483020Y-102848427D02*
X179435401Y-102896046D01*
X179435401Y-102896046D02*
X179387782Y-102991284D01*
X179387782Y-102991284D02*
X179387782Y-103276998D01*
X179387782Y-103276998D02*
X179435401Y-103372236D01*
X179435401Y-103372236D02*
X179483020Y-103419856D01*
X179483020Y-103419856D02*
X179578258Y-103467475D01*
X179578258Y-103467475D02*
X179768734Y-103467475D01*
X179768734Y-103467475D02*
X179863972Y-103419856D01*
X178578258Y-103419856D02*
X178673496Y-103467475D01*
X178673496Y-103467475D02*
X178863972Y-103467475D01*
X178863972Y-103467475D02*
X178959210Y-103419856D01*
X178959210Y-103419856D02*
X179006829Y-103324617D01*
X179006829Y-103324617D02*
X179006829Y-102943665D01*
X179006829Y-102943665D02*
X178959210Y-102848427D01*
X178959210Y-102848427D02*
X178863972Y-102800808D01*
X178863972Y-102800808D02*
X178673496Y-102800808D01*
X178673496Y-102800808D02*
X178578258Y-102848427D01*
X178578258Y-102848427D02*
X178530639Y-102943665D01*
X178530639Y-102943665D02*
X178530639Y-103038903D01*
X178530639Y-103038903D02*
X179006829Y-103134141D01*
X178102067Y-103467475D02*
X178102067Y-102800808D01*
X178102067Y-102991284D02*
X178054448Y-102896046D01*
X178054448Y-102896046D02*
X178006829Y-102848427D01*
X178006829Y-102848427D02*
X177911591Y-102800808D01*
X177911591Y-102800808D02*
X177816353Y-102800808D01*
X177483019Y-103467475D02*
X177483019Y-102800808D01*
X177483019Y-102991284D02*
X177435400Y-102896046D01*
X177435400Y-102896046D02*
X177387781Y-102848427D01*
X177387781Y-102848427D02*
X177292543Y-102800808D01*
X177292543Y-102800808D02*
X177197305Y-102800808D01*
X176959209Y-102800808D02*
X176721114Y-103467475D01*
X176483019Y-102800808D02*
X176721114Y-103467475D01*
X176721114Y-103467475D02*
X176816352Y-103705570D01*
X176816352Y-103705570D02*
X176863971Y-103753189D01*
X176863971Y-103753189D02*
X176959209Y-103800808D01*
X175340161Y-103467475D02*
X175340161Y-102467475D01*
X175340161Y-102467475D02*
X174959209Y-102467475D01*
X174959209Y-102467475D02*
X174863971Y-102515094D01*
X174863971Y-102515094D02*
X174816352Y-102562713D01*
X174816352Y-102562713D02*
X174768733Y-102657951D01*
X174768733Y-102657951D02*
X174768733Y-102800808D01*
X174768733Y-102800808D02*
X174816352Y-102896046D01*
X174816352Y-102896046D02*
X174863971Y-102943665D01*
X174863971Y-102943665D02*
X174959209Y-102991284D01*
X174959209Y-102991284D02*
X175340161Y-102991284D01*
X174340161Y-103467475D02*
X174340161Y-102800808D01*
X174340161Y-102467475D02*
X174387780Y-102515094D01*
X174387780Y-102515094D02*
X174340161Y-102562713D01*
X174340161Y-102562713D02*
X174292542Y-102515094D01*
X174292542Y-102515094D02*
X174340161Y-102467475D01*
X174340161Y-102467475D02*
X174340161Y-102562713D01*
X173197304Y-102467475D02*
X172530638Y-102467475D01*
X172530638Y-102467475D02*
X173197304Y-103467475D01*
X173197304Y-103467475D02*
X172530638Y-103467475D01*
X171768733Y-103419856D02*
X171863971Y-103467475D01*
X171863971Y-103467475D02*
X172054447Y-103467475D01*
X172054447Y-103467475D02*
X172149685Y-103419856D01*
X172149685Y-103419856D02*
X172197304Y-103324617D01*
X172197304Y-103324617D02*
X172197304Y-102943665D01*
X172197304Y-102943665D02*
X172149685Y-102848427D01*
X172149685Y-102848427D02*
X172054447Y-102800808D01*
X172054447Y-102800808D02*
X171863971Y-102800808D01*
X171863971Y-102800808D02*
X171768733Y-102848427D01*
X171768733Y-102848427D02*
X171721114Y-102943665D01*
X171721114Y-102943665D02*
X171721114Y-103038903D01*
X171721114Y-103038903D02*
X172197304Y-103134141D01*
X171292542Y-103467475D02*
X171292542Y-102800808D01*
X171292542Y-102991284D02*
X171244923Y-102896046D01*
X171244923Y-102896046D02*
X171197304Y-102848427D01*
X171197304Y-102848427D02*
X171102066Y-102800808D01*
X171102066Y-102800808D02*
X171006828Y-102800808D01*
X170530637Y-103467475D02*
X170625875Y-103419856D01*
X170625875Y-103419856D02*
X170673494Y-103372236D01*
X170673494Y-103372236D02*
X170721113Y-103276998D01*
X170721113Y-103276998D02*
X170721113Y-102991284D01*
X170721113Y-102991284D02*
X170673494Y-102896046D01*
X170673494Y-102896046D02*
X170625875Y-102848427D01*
X170625875Y-102848427D02*
X170530637Y-102800808D01*
X170530637Y-102800808D02*
X170387780Y-102800808D01*
X170387780Y-102800808D02*
X170292542Y-102848427D01*
X170292542Y-102848427D02*
X170244923Y-102896046D01*
X170244923Y-102896046D02*
X170197304Y-102991284D01*
X170197304Y-102991284D02*
X170197304Y-103276998D01*
X170197304Y-103276998D02*
X170244923Y-103372236D01*
X170244923Y-103372236D02*
X170292542Y-103419856D01*
X170292542Y-103419856D02*
X170387780Y-103467475D01*
X170387780Y-103467475D02*
X170530637Y-103467475D01*
X169102065Y-102467475D02*
X168863970Y-103467475D01*
X168863970Y-103467475D02*
X168673494Y-102753189D01*
X168673494Y-102753189D02*
X168483018Y-103467475D01*
X168483018Y-103467475D02*
X168244923Y-102467475D01*
X167149684Y-102562713D02*
X167102065Y-102515094D01*
X167102065Y-102515094D02*
X167006827Y-102467475D01*
X167006827Y-102467475D02*
X166768732Y-102467475D01*
X166768732Y-102467475D02*
X166673494Y-102515094D01*
X166673494Y-102515094D02*
X166625875Y-102562713D01*
X166625875Y-102562713D02*
X166578256Y-102657951D01*
X166578256Y-102657951D02*
X166578256Y-102753189D01*
X166578256Y-102753189D02*
X166625875Y-102896046D01*
X166625875Y-102896046D02*
X167197303Y-103467475D01*
X167197303Y-103467475D02*
X166578256Y-103467475D01*
X164816351Y-103467475D02*
X165149684Y-102991284D01*
X165387779Y-103467475D02*
X165387779Y-102467475D01*
X165387779Y-102467475D02*
X165006827Y-102467475D01*
X165006827Y-102467475D02*
X164911589Y-102515094D01*
X164911589Y-102515094D02*
X164863970Y-102562713D01*
X164863970Y-102562713D02*
X164816351Y-102657951D01*
X164816351Y-102657951D02*
X164816351Y-102800808D01*
X164816351Y-102800808D02*
X164863970Y-102896046D01*
X164863970Y-102896046D02*
X164911589Y-102943665D01*
X164911589Y-102943665D02*
X165006827Y-102991284D01*
X165006827Y-102991284D02*
X165387779Y-102991284D01*
X164006827Y-103419856D02*
X164102065Y-103467475D01*
X164102065Y-103467475D02*
X164292541Y-103467475D01*
X164292541Y-103467475D02*
X164387779Y-103419856D01*
X164387779Y-103419856D02*
X164435398Y-103324617D01*
X164435398Y-103324617D02*
X164435398Y-102943665D01*
X164435398Y-102943665D02*
X164387779Y-102848427D01*
X164387779Y-102848427D02*
X164292541Y-102800808D01*
X164292541Y-102800808D02*
X164102065Y-102800808D01*
X164102065Y-102800808D02*
X164006827Y-102848427D01*
X164006827Y-102848427D02*
X163959208Y-102943665D01*
X163959208Y-102943665D02*
X163959208Y-103038903D01*
X163959208Y-103038903D02*
X164435398Y-103134141D01*
X163102065Y-103419856D02*
X163197303Y-103467475D01*
X163197303Y-103467475D02*
X163387779Y-103467475D01*
X163387779Y-103467475D02*
X163483017Y-103419856D01*
X163483017Y-103419856D02*
X163530636Y-103372236D01*
X163530636Y-103372236D02*
X163578255Y-103276998D01*
X163578255Y-103276998D02*
X163578255Y-102991284D01*
X163578255Y-102991284D02*
X163530636Y-102896046D01*
X163530636Y-102896046D02*
X163483017Y-102848427D01*
X163483017Y-102848427D02*
X163387779Y-102800808D01*
X163387779Y-102800808D02*
X163197303Y-102800808D01*
X163197303Y-102800808D02*
X163102065Y-102848427D01*
X162530636Y-103467475D02*
X162625874Y-103419856D01*
X162625874Y-103419856D02*
X162673493Y-103372236D01*
X162673493Y-103372236D02*
X162721112Y-103276998D01*
X162721112Y-103276998D02*
X162721112Y-102991284D01*
X162721112Y-102991284D02*
X162673493Y-102896046D01*
X162673493Y-102896046D02*
X162625874Y-102848427D01*
X162625874Y-102848427D02*
X162530636Y-102800808D01*
X162530636Y-102800808D02*
X162387779Y-102800808D01*
X162387779Y-102800808D02*
X162292541Y-102848427D01*
X162292541Y-102848427D02*
X162244922Y-102896046D01*
X162244922Y-102896046D02*
X162197303Y-102991284D01*
X162197303Y-102991284D02*
X162197303Y-103276998D01*
X162197303Y-103276998D02*
X162244922Y-103372236D01*
X162244922Y-103372236D02*
X162292541Y-103419856D01*
X162292541Y-103419856D02*
X162387779Y-103467475D01*
X162387779Y-103467475D02*
X162530636Y-103467475D01*
X161768731Y-103467475D02*
X161768731Y-102800808D01*
X161768731Y-102896046D02*
X161721112Y-102848427D01*
X161721112Y-102848427D02*
X161625874Y-102800808D01*
X161625874Y-102800808D02*
X161483017Y-102800808D01*
X161483017Y-102800808D02*
X161387779Y-102848427D01*
X161387779Y-102848427D02*
X161340160Y-102943665D01*
X161340160Y-102943665D02*
X161340160Y-103467475D01*
X161340160Y-102943665D02*
X161292541Y-102848427D01*
X161292541Y-102848427D02*
X161197303Y-102800808D01*
X161197303Y-102800808D02*
X161054446Y-102800808D01*
X161054446Y-102800808D02*
X160959207Y-102848427D01*
X160959207Y-102848427D02*
X160911588Y-102943665D01*
X160911588Y-102943665D02*
X160911588Y-103467475D01*
X160435398Y-103467475D02*
X160435398Y-102800808D01*
X160435398Y-102896046D02*
X160387779Y-102848427D01*
X160387779Y-102848427D02*
X160292541Y-102800808D01*
X160292541Y-102800808D02*
X160149684Y-102800808D01*
X160149684Y-102800808D02*
X160054446Y-102848427D01*
X160054446Y-102848427D02*
X160006827Y-102943665D01*
X160006827Y-102943665D02*
X160006827Y-103467475D01*
X160006827Y-102943665D02*
X159959208Y-102848427D01*
X159959208Y-102848427D02*
X159863970Y-102800808D01*
X159863970Y-102800808D02*
X159721113Y-102800808D01*
X159721113Y-102800808D02*
X159625874Y-102848427D01*
X159625874Y-102848427D02*
X159578255Y-102943665D01*
X159578255Y-102943665D02*
X159578255Y-103467475D01*
X158721113Y-103419856D02*
X158816351Y-103467475D01*
X158816351Y-103467475D02*
X159006827Y-103467475D01*
X159006827Y-103467475D02*
X159102065Y-103419856D01*
X159102065Y-103419856D02*
X159149684Y-103324617D01*
X159149684Y-103324617D02*
X159149684Y-102943665D01*
X159149684Y-102943665D02*
X159102065Y-102848427D01*
X159102065Y-102848427D02*
X159006827Y-102800808D01*
X159006827Y-102800808D02*
X158816351Y-102800808D01*
X158816351Y-102800808D02*
X158721113Y-102848427D01*
X158721113Y-102848427D02*
X158673494Y-102943665D01*
X158673494Y-102943665D02*
X158673494Y-103038903D01*
X158673494Y-103038903D02*
X159149684Y-103134141D01*
X158244922Y-102800808D02*
X158244922Y-103467475D01*
X158244922Y-102896046D02*
X158197303Y-102848427D01*
X158197303Y-102848427D02*
X158102065Y-102800808D01*
X158102065Y-102800808D02*
X157959208Y-102800808D01*
X157959208Y-102800808D02*
X157863970Y-102848427D01*
X157863970Y-102848427D02*
X157816351Y-102943665D01*
X157816351Y-102943665D02*
X157816351Y-103467475D01*
X156911589Y-103467475D02*
X156911589Y-102467475D01*
X156911589Y-103419856D02*
X157006827Y-103467475D01*
X157006827Y-103467475D02*
X157197303Y-103467475D01*
X157197303Y-103467475D02*
X157292541Y-103419856D01*
X157292541Y-103419856D02*
X157340160Y-103372236D01*
X157340160Y-103372236D02*
X157387779Y-103276998D01*
X157387779Y-103276998D02*
X157387779Y-102991284D01*
X157387779Y-102991284D02*
X157340160Y-102896046D01*
X157340160Y-102896046D02*
X157292541Y-102848427D01*
X157292541Y-102848427D02*
X157197303Y-102800808D01*
X157197303Y-102800808D02*
X157006827Y-102800808D01*
X157006827Y-102800808D02*
X156911589Y-102848427D01*
X156054446Y-103419856D02*
X156149684Y-103467475D01*
X156149684Y-103467475D02*
X156340160Y-103467475D01*
X156340160Y-103467475D02*
X156435398Y-103419856D01*
X156435398Y-103419856D02*
X156483017Y-103324617D01*
X156483017Y-103324617D02*
X156483017Y-102943665D01*
X156483017Y-102943665D02*
X156435398Y-102848427D01*
X156435398Y-102848427D02*
X156340160Y-102800808D01*
X156340160Y-102800808D02*
X156149684Y-102800808D01*
X156149684Y-102800808D02*
X156054446Y-102848427D01*
X156054446Y-102848427D02*
X156006827Y-102943665D01*
X156006827Y-102943665D02*
X156006827Y-103038903D01*
X156006827Y-103038903D02*
X156483017Y-103134141D01*
X155149684Y-103467475D02*
X155149684Y-102467475D01*
X155149684Y-103419856D02*
X155244922Y-103467475D01*
X155244922Y-103467475D02*
X155435398Y-103467475D01*
X155435398Y-103467475D02*
X155530636Y-103419856D01*
X155530636Y-103419856D02*
X155578255Y-103372236D01*
X155578255Y-103372236D02*
X155625874Y-103276998D01*
X155625874Y-103276998D02*
X155625874Y-102991284D01*
X155625874Y-102991284D02*
X155578255Y-102896046D01*
X155578255Y-102896046D02*
X155530636Y-102848427D01*
X155530636Y-102848427D02*
X155435398Y-102800808D01*
X155435398Y-102800808D02*
X155244922Y-102800808D01*
X155244922Y-102800808D02*
X155149684Y-102848427D01*
X183483020Y-106687363D02*
X183483020Y-105687363D01*
X183054449Y-106687363D02*
X183054449Y-106163553D01*
X183054449Y-106163553D02*
X183102068Y-106068315D01*
X183102068Y-106068315D02*
X183197306Y-106020696D01*
X183197306Y-106020696D02*
X183340163Y-106020696D01*
X183340163Y-106020696D02*
X183435401Y-106068315D01*
X183435401Y-106068315D02*
X183483020Y-106115934D01*
X182721115Y-106020696D02*
X182340163Y-106020696D01*
X182578258Y-105687363D02*
X182578258Y-106544505D01*
X182578258Y-106544505D02*
X182530639Y-106639744D01*
X182530639Y-106639744D02*
X182435401Y-106687363D01*
X182435401Y-106687363D02*
X182340163Y-106687363D01*
X182149686Y-106020696D02*
X181768734Y-106020696D01*
X182006829Y-105687363D02*
X182006829Y-106544505D01*
X182006829Y-106544505D02*
X181959210Y-106639744D01*
X181959210Y-106639744D02*
X181863972Y-106687363D01*
X181863972Y-106687363D02*
X181768734Y-106687363D01*
X181435400Y-106020696D02*
X181435400Y-107020696D01*
X181435400Y-106068315D02*
X181340162Y-106020696D01*
X181340162Y-106020696D02*
X181149686Y-106020696D01*
X181149686Y-106020696D02*
X181054448Y-106068315D01*
X181054448Y-106068315D02*
X181006829Y-106115934D01*
X181006829Y-106115934D02*
X180959210Y-106211172D01*
X180959210Y-106211172D02*
X180959210Y-106496886D01*
X180959210Y-106496886D02*
X181006829Y-106592124D01*
X181006829Y-106592124D02*
X181054448Y-106639744D01*
X181054448Y-106639744D02*
X181149686Y-106687363D01*
X181149686Y-106687363D02*
X181340162Y-106687363D01*
X181340162Y-106687363D02*
X181435400Y-106639744D01*
X180578257Y-106639744D02*
X180483019Y-106687363D01*
X180483019Y-106687363D02*
X180292543Y-106687363D01*
X180292543Y-106687363D02*
X180197305Y-106639744D01*
X180197305Y-106639744D02*
X180149686Y-106544505D01*
X180149686Y-106544505D02*
X180149686Y-106496886D01*
X180149686Y-106496886D02*
X180197305Y-106401648D01*
X180197305Y-106401648D02*
X180292543Y-106354029D01*
X180292543Y-106354029D02*
X180435400Y-106354029D01*
X180435400Y-106354029D02*
X180530638Y-106306410D01*
X180530638Y-106306410D02*
X180578257Y-106211172D01*
X180578257Y-106211172D02*
X180578257Y-106163553D01*
X180578257Y-106163553D02*
X180530638Y-106068315D01*
X180530638Y-106068315D02*
X180435400Y-106020696D01*
X180435400Y-106020696D02*
X180292543Y-106020696D01*
X180292543Y-106020696D02*
X180197305Y-106068315D01*
X179721114Y-106592124D02*
X179673495Y-106639744D01*
X179673495Y-106639744D02*
X179721114Y-106687363D01*
X179721114Y-106687363D02*
X179768733Y-106639744D01*
X179768733Y-106639744D02*
X179721114Y-106592124D01*
X179721114Y-106592124D02*
X179721114Y-106687363D01*
X179721114Y-106068315D02*
X179673495Y-106115934D01*
X179673495Y-106115934D02*
X179721114Y-106163553D01*
X179721114Y-106163553D02*
X179768733Y-106115934D01*
X179768733Y-106115934D02*
X179721114Y-106068315D01*
X179721114Y-106068315D02*
X179721114Y-106163553D01*
X178530639Y-105639744D02*
X179387781Y-106925458D01*
X177483020Y-105639744D02*
X178340162Y-106925458D01*
X176721115Y-106020696D02*
X176721115Y-106830220D01*
X176721115Y-106830220D02*
X176768734Y-106925458D01*
X176768734Y-106925458D02*
X176816353Y-106973077D01*
X176816353Y-106973077D02*
X176911591Y-107020696D01*
X176911591Y-107020696D02*
X177054448Y-107020696D01*
X177054448Y-107020696D02*
X177149686Y-106973077D01*
X176721115Y-106639744D02*
X176816353Y-106687363D01*
X176816353Y-106687363D02*
X177006829Y-106687363D01*
X177006829Y-106687363D02*
X177102067Y-106639744D01*
X177102067Y-106639744D02*
X177149686Y-106592124D01*
X177149686Y-106592124D02*
X177197305Y-106496886D01*
X177197305Y-106496886D02*
X177197305Y-106211172D01*
X177197305Y-106211172D02*
X177149686Y-106115934D01*
X177149686Y-106115934D02*
X177102067Y-106068315D01*
X177102067Y-106068315D02*
X177006829Y-106020696D01*
X177006829Y-106020696D02*
X176816353Y-106020696D01*
X176816353Y-106020696D02*
X176721115Y-106068315D01*
X176244924Y-106687363D02*
X176244924Y-106020696D01*
X176244924Y-105687363D02*
X176292543Y-105734982D01*
X176292543Y-105734982D02*
X176244924Y-105782601D01*
X176244924Y-105782601D02*
X176197305Y-105734982D01*
X176197305Y-105734982D02*
X176244924Y-105687363D01*
X176244924Y-105687363D02*
X176244924Y-105782601D01*
X175911591Y-106020696D02*
X175530639Y-106020696D01*
X175768734Y-105687363D02*
X175768734Y-106544505D01*
X175768734Y-106544505D02*
X175721115Y-106639744D01*
X175721115Y-106639744D02*
X175625877Y-106687363D01*
X175625877Y-106687363D02*
X175530639Y-106687363D01*
X175197305Y-106687363D02*
X175197305Y-105687363D01*
X174768734Y-106687363D02*
X174768734Y-106163553D01*
X174768734Y-106163553D02*
X174816353Y-106068315D01*
X174816353Y-106068315D02*
X174911591Y-106020696D01*
X174911591Y-106020696D02*
X175054448Y-106020696D01*
X175054448Y-106020696D02*
X175149686Y-106068315D01*
X175149686Y-106068315D02*
X175197305Y-106115934D01*
X173863972Y-106020696D02*
X173863972Y-106687363D01*
X174292543Y-106020696D02*
X174292543Y-106544505D01*
X174292543Y-106544505D02*
X174244924Y-106639744D01*
X174244924Y-106639744D02*
X174149686Y-106687363D01*
X174149686Y-106687363D02*
X174006829Y-106687363D01*
X174006829Y-106687363D02*
X173911591Y-106639744D01*
X173911591Y-106639744D02*
X173863972Y-106592124D01*
X173387781Y-106687363D02*
X173387781Y-105687363D01*
X173387781Y-106068315D02*
X173292543Y-106020696D01*
X173292543Y-106020696D02*
X173102067Y-106020696D01*
X173102067Y-106020696D02*
X173006829Y-106068315D01*
X173006829Y-106068315D02*
X172959210Y-106115934D01*
X172959210Y-106115934D02*
X172911591Y-106211172D01*
X172911591Y-106211172D02*
X172911591Y-106496886D01*
X172911591Y-106496886D02*
X172959210Y-106592124D01*
X172959210Y-106592124D02*
X173006829Y-106639744D01*
X173006829Y-106639744D02*
X173102067Y-106687363D01*
X173102067Y-106687363D02*
X173292543Y-106687363D01*
X173292543Y-106687363D02*
X173387781Y-106639744D01*
X172483019Y-106592124D02*
X172435400Y-106639744D01*
X172435400Y-106639744D02*
X172483019Y-106687363D01*
X172483019Y-106687363D02*
X172530638Y-106639744D01*
X172530638Y-106639744D02*
X172483019Y-106592124D01*
X172483019Y-106592124D02*
X172483019Y-106687363D01*
X171578258Y-106639744D02*
X171673496Y-106687363D01*
X171673496Y-106687363D02*
X171863972Y-106687363D01*
X171863972Y-106687363D02*
X171959210Y-106639744D01*
X171959210Y-106639744D02*
X172006829Y-106592124D01*
X172006829Y-106592124D02*
X172054448Y-106496886D01*
X172054448Y-106496886D02*
X172054448Y-106211172D01*
X172054448Y-106211172D02*
X172006829Y-106115934D01*
X172006829Y-106115934D02*
X171959210Y-106068315D01*
X171959210Y-106068315D02*
X171863972Y-106020696D01*
X171863972Y-106020696D02*
X171673496Y-106020696D01*
X171673496Y-106020696D02*
X171578258Y-106068315D01*
X171006829Y-106687363D02*
X171102067Y-106639744D01*
X171102067Y-106639744D02*
X171149686Y-106592124D01*
X171149686Y-106592124D02*
X171197305Y-106496886D01*
X171197305Y-106496886D02*
X171197305Y-106211172D01*
X171197305Y-106211172D02*
X171149686Y-106115934D01*
X171149686Y-106115934D02*
X171102067Y-106068315D01*
X171102067Y-106068315D02*
X171006829Y-106020696D01*
X171006829Y-106020696D02*
X170863972Y-106020696D01*
X170863972Y-106020696D02*
X170768734Y-106068315D01*
X170768734Y-106068315D02*
X170721115Y-106115934D01*
X170721115Y-106115934D02*
X170673496Y-106211172D01*
X170673496Y-106211172D02*
X170673496Y-106496886D01*
X170673496Y-106496886D02*
X170721115Y-106592124D01*
X170721115Y-106592124D02*
X170768734Y-106639744D01*
X170768734Y-106639744D02*
X170863972Y-106687363D01*
X170863972Y-106687363D02*
X171006829Y-106687363D01*
X170244924Y-106687363D02*
X170244924Y-106020696D01*
X170244924Y-106115934D02*
X170197305Y-106068315D01*
X170197305Y-106068315D02*
X170102067Y-106020696D01*
X170102067Y-106020696D02*
X169959210Y-106020696D01*
X169959210Y-106020696D02*
X169863972Y-106068315D01*
X169863972Y-106068315D02*
X169816353Y-106163553D01*
X169816353Y-106163553D02*
X169816353Y-106687363D01*
X169816353Y-106163553D02*
X169768734Y-106068315D01*
X169768734Y-106068315D02*
X169673496Y-106020696D01*
X169673496Y-106020696D02*
X169530639Y-106020696D01*
X169530639Y-106020696D02*
X169435400Y-106068315D01*
X169435400Y-106068315D02*
X169387781Y-106163553D01*
X169387781Y-106163553D02*
X169387781Y-106687363D01*
X168197306Y-105639744D02*
X169054448Y-106925458D01*
X168006829Y-106020696D02*
X167625877Y-106020696D01*
X167863972Y-105687363D02*
X167863972Y-106544505D01*
X167863972Y-106544505D02*
X167816353Y-106639744D01*
X167816353Y-106639744D02*
X167721115Y-106687363D01*
X167721115Y-106687363D02*
X167625877Y-106687363D01*
X167292543Y-106020696D02*
X167292543Y-106877839D01*
X167292543Y-106877839D02*
X167340162Y-106973077D01*
X167340162Y-106973077D02*
X167435400Y-107020696D01*
X167435400Y-107020696D02*
X167483019Y-107020696D01*
X167292543Y-105687363D02*
X167340162Y-105734982D01*
X167340162Y-105734982D02*
X167292543Y-105782601D01*
X167292543Y-105782601D02*
X167244924Y-105734982D01*
X167244924Y-105734982D02*
X167292543Y-105687363D01*
X167292543Y-105687363D02*
X167292543Y-105782601D01*
X166816353Y-106687363D02*
X166816353Y-105687363D01*
X166816353Y-106068315D02*
X166721115Y-106020696D01*
X166721115Y-106020696D02*
X166530639Y-106020696D01*
X166530639Y-106020696D02*
X166435401Y-106068315D01*
X166435401Y-106068315D02*
X166387782Y-106115934D01*
X166387782Y-106115934D02*
X166340163Y-106211172D01*
X166340163Y-106211172D02*
X166340163Y-106496886D01*
X166340163Y-106496886D02*
X166387782Y-106592124D01*
X166387782Y-106592124D02*
X166435401Y-106639744D01*
X166435401Y-106639744D02*
X166530639Y-106687363D01*
X166530639Y-106687363D02*
X166721115Y-106687363D01*
X166721115Y-106687363D02*
X166816353Y-106639744D01*
X165768734Y-106687363D02*
X165863972Y-106639744D01*
X165863972Y-106639744D02*
X165911591Y-106592124D01*
X165911591Y-106592124D02*
X165959210Y-106496886D01*
X165959210Y-106496886D02*
X165959210Y-106211172D01*
X165959210Y-106211172D02*
X165911591Y-106115934D01*
X165911591Y-106115934D02*
X165863972Y-106068315D01*
X165863972Y-106068315D02*
X165768734Y-106020696D01*
X165768734Y-106020696D02*
X165625877Y-106020696D01*
X165625877Y-106020696D02*
X165530639Y-106068315D01*
X165530639Y-106068315D02*
X165483020Y-106115934D01*
X165483020Y-106115934D02*
X165435401Y-106211172D01*
X165435401Y-106211172D02*
X165435401Y-106496886D01*
X165435401Y-106496886D02*
X165483020Y-106592124D01*
X165483020Y-106592124D02*
X165530639Y-106639744D01*
X165530639Y-106639744D02*
X165625877Y-106687363D01*
X165625877Y-106687363D02*
X165768734Y-106687363D01*
X164863972Y-106687363D02*
X164959210Y-106639744D01*
X164959210Y-106639744D02*
X165006829Y-106544505D01*
X165006829Y-106544505D02*
X165006829Y-105687363D01*
X164054448Y-106687363D02*
X164054448Y-105687363D01*
X164054448Y-106639744D02*
X164149686Y-106687363D01*
X164149686Y-106687363D02*
X164340162Y-106687363D01*
X164340162Y-106687363D02*
X164435400Y-106639744D01*
X164435400Y-106639744D02*
X164483019Y-106592124D01*
X164483019Y-106592124D02*
X164530638Y-106496886D01*
X164530638Y-106496886D02*
X164530638Y-106211172D01*
X164530638Y-106211172D02*
X164483019Y-106115934D01*
X164483019Y-106115934D02*
X164435400Y-106068315D01*
X164435400Y-106068315D02*
X164340162Y-106020696D01*
X164340162Y-106020696D02*
X164149686Y-106020696D01*
X164149686Y-106020696D02*
X164054448Y-106068315D01*
X163721114Y-106020696D02*
X163340162Y-106020696D01*
X163578257Y-105687363D02*
X163578257Y-106544505D01*
X163578257Y-106544505D02*
X163530638Y-106639744D01*
X163530638Y-106639744D02*
X163435400Y-106687363D01*
X163435400Y-106687363D02*
X163340162Y-106687363D01*
X162292543Y-105639744D02*
X163149685Y-106925458D01*
X162006828Y-106401648D02*
X161530638Y-106401648D01*
X162102066Y-106687363D02*
X161768733Y-105687363D01*
X161768733Y-105687363D02*
X161435400Y-106687363D01*
X161102066Y-106020696D02*
X161102066Y-107020696D01*
X161102066Y-106068315D02*
X161006828Y-106020696D01*
X161006828Y-106020696D02*
X160816352Y-106020696D01*
X160816352Y-106020696D02*
X160721114Y-106068315D01*
X160721114Y-106068315D02*
X160673495Y-106115934D01*
X160673495Y-106115934D02*
X160625876Y-106211172D01*
X160625876Y-106211172D02*
X160625876Y-106496886D01*
X160625876Y-106496886D02*
X160673495Y-106592124D01*
X160673495Y-106592124D02*
X160721114Y-106639744D01*
X160721114Y-106639744D02*
X160816352Y-106687363D01*
X160816352Y-106687363D02*
X161006828Y-106687363D01*
X161006828Y-106687363D02*
X161102066Y-106639744D01*
X160197304Y-106020696D02*
X160197304Y-107020696D01*
X160197304Y-106068315D02*
X160102066Y-106020696D01*
X160102066Y-106020696D02*
X159911590Y-106020696D01*
X159911590Y-106020696D02*
X159816352Y-106068315D01*
X159816352Y-106068315D02*
X159768733Y-106115934D01*
X159768733Y-106115934D02*
X159721114Y-106211172D01*
X159721114Y-106211172D02*
X159721114Y-106496886D01*
X159721114Y-106496886D02*
X159768733Y-106592124D01*
X159768733Y-106592124D02*
X159816352Y-106639744D01*
X159816352Y-106639744D02*
X159911590Y-106687363D01*
X159911590Y-106687363D02*
X160102066Y-106687363D01*
X160102066Y-106687363D02*
X160197304Y-106639744D01*
X159149685Y-106687363D02*
X159244923Y-106639744D01*
X159244923Y-106639744D02*
X159292542Y-106544505D01*
X159292542Y-106544505D02*
X159292542Y-105687363D01*
X158387780Y-106639744D02*
X158483018Y-106687363D01*
X158483018Y-106687363D02*
X158673494Y-106687363D01*
X158673494Y-106687363D02*
X158768732Y-106639744D01*
X158768732Y-106639744D02*
X158816351Y-106544505D01*
X158816351Y-106544505D02*
X158816351Y-106163553D01*
X158816351Y-106163553D02*
X158768732Y-106068315D01*
X158768732Y-106068315D02*
X158673494Y-106020696D01*
X158673494Y-106020696D02*
X158483018Y-106020696D01*
X158483018Y-106020696D02*
X158387780Y-106068315D01*
X158387780Y-106068315D02*
X158340161Y-106163553D01*
X158340161Y-106163553D02*
X158340161Y-106258791D01*
X158340161Y-106258791D02*
X158816351Y-106354029D01*
X157959208Y-105782601D02*
X157911589Y-105734982D01*
X157911589Y-105734982D02*
X157816351Y-105687363D01*
X157816351Y-105687363D02*
X157578256Y-105687363D01*
X157578256Y-105687363D02*
X157483018Y-105734982D01*
X157483018Y-105734982D02*
X157435399Y-105782601D01*
X157435399Y-105782601D02*
X157387780Y-105877839D01*
X157387780Y-105877839D02*
X157387780Y-105973077D01*
X157387780Y-105973077D02*
X157435399Y-106115934D01*
X157435399Y-106115934D02*
X158006827Y-106687363D01*
X158006827Y-106687363D02*
X157387780Y-106687363D01*
X156959208Y-106306410D02*
X156197304Y-106306410D01*
X155721113Y-106687363D02*
X155721113Y-105687363D01*
X155054447Y-105687363D02*
X154863971Y-105687363D01*
X154863971Y-105687363D02*
X154768733Y-105734982D01*
X154768733Y-105734982D02*
X154673495Y-105830220D01*
X154673495Y-105830220D02*
X154625876Y-106020696D01*
X154625876Y-106020696D02*
X154625876Y-106354029D01*
X154625876Y-106354029D02*
X154673495Y-106544505D01*
X154673495Y-106544505D02*
X154768733Y-106639744D01*
X154768733Y-106639744D02*
X154863971Y-106687363D01*
X154863971Y-106687363D02*
X155054447Y-106687363D01*
X155054447Y-106687363D02*
X155149685Y-106639744D01*
X155149685Y-106639744D02*
X155244923Y-106544505D01*
X155244923Y-106544505D02*
X155292542Y-106354029D01*
X155292542Y-106354029D02*
X155292542Y-106020696D01*
X155292542Y-106020696D02*
X155244923Y-105830220D01*
X155244923Y-105830220D02*
X155149685Y-105734982D01*
X155149685Y-105734982D02*
X155054447Y-105687363D01*
X154197304Y-106306410D02*
X153435400Y-106306410D01*
X152387781Y-106687363D02*
X152721114Y-106211172D01*
X152959209Y-106687363D02*
X152959209Y-105687363D01*
X152959209Y-105687363D02*
X152578257Y-105687363D01*
X152578257Y-105687363D02*
X152483019Y-105734982D01*
X152483019Y-105734982D02*
X152435400Y-105782601D01*
X152435400Y-105782601D02*
X152387781Y-105877839D01*
X152387781Y-105877839D02*
X152387781Y-106020696D01*
X152387781Y-106020696D02*
X152435400Y-106115934D01*
X152435400Y-106115934D02*
X152483019Y-106163553D01*
X152483019Y-106163553D02*
X152578257Y-106211172D01*
X152578257Y-106211172D02*
X152959209Y-106211172D01*
X151959209Y-106687363D02*
X151959209Y-105687363D01*
X151959209Y-105687363D02*
X151578257Y-105687363D01*
X151578257Y-105687363D02*
X151483019Y-105734982D01*
X151483019Y-105734982D02*
X151435400Y-105782601D01*
X151435400Y-105782601D02*
X151387781Y-105877839D01*
X151387781Y-105877839D02*
X151387781Y-106020696D01*
X151387781Y-106020696D02*
X151435400Y-106115934D01*
X151435400Y-106115934D02*
X151483019Y-106163553D01*
X151483019Y-106163553D02*
X151578257Y-106211172D01*
X151578257Y-106211172D02*
X151959209Y-106211172D01*
X150959209Y-106687363D02*
X150959209Y-106020696D01*
X150959209Y-105687363D02*
X151006828Y-105734982D01*
X151006828Y-105734982D02*
X150959209Y-105782601D01*
X150959209Y-105782601D02*
X150911590Y-105734982D01*
X150911590Y-105734982D02*
X150959209Y-105687363D01*
X150959209Y-105687363D02*
X150959209Y-105782601D01*
X183530639Y-108249688D02*
X183387782Y-108297307D01*
X183387782Y-108297307D02*
X183149687Y-108297307D01*
X183149687Y-108297307D02*
X183054449Y-108249688D01*
X183054449Y-108249688D02*
X183006830Y-108202068D01*
X183006830Y-108202068D02*
X182959211Y-108106830D01*
X182959211Y-108106830D02*
X182959211Y-108011592D01*
X182959211Y-108011592D02*
X183006830Y-107916354D01*
X183006830Y-107916354D02*
X183054449Y-107868735D01*
X183054449Y-107868735D02*
X183149687Y-107821116D01*
X183149687Y-107821116D02*
X183340163Y-107773497D01*
X183340163Y-107773497D02*
X183435401Y-107725878D01*
X183435401Y-107725878D02*
X183483020Y-107678259D01*
X183483020Y-107678259D02*
X183530639Y-107583021D01*
X183530639Y-107583021D02*
X183530639Y-107487783D01*
X183530639Y-107487783D02*
X183483020Y-107392545D01*
X183483020Y-107392545D02*
X183435401Y-107344926D01*
X183435401Y-107344926D02*
X183340163Y-107297307D01*
X183340163Y-107297307D02*
X183102068Y-107297307D01*
X183102068Y-107297307D02*
X182959211Y-107344926D01*
X182149687Y-108249688D02*
X182244925Y-108297307D01*
X182244925Y-108297307D02*
X182435401Y-108297307D01*
X182435401Y-108297307D02*
X182530639Y-108249688D01*
X182530639Y-108249688D02*
X182578258Y-108154449D01*
X182578258Y-108154449D02*
X182578258Y-107773497D01*
X182578258Y-107773497D02*
X182530639Y-107678259D01*
X182530639Y-107678259D02*
X182435401Y-107630640D01*
X182435401Y-107630640D02*
X182244925Y-107630640D01*
X182244925Y-107630640D02*
X182149687Y-107678259D01*
X182149687Y-107678259D02*
X182102068Y-107773497D01*
X182102068Y-107773497D02*
X182102068Y-107868735D01*
X182102068Y-107868735D02*
X182578258Y-107963973D01*
X181768734Y-107630640D02*
X181530639Y-108297307D01*
X181530639Y-108297307D02*
X181292544Y-107630640D01*
X180530639Y-108249688D02*
X180625877Y-108297307D01*
X180625877Y-108297307D02*
X180816353Y-108297307D01*
X180816353Y-108297307D02*
X180911591Y-108249688D01*
X180911591Y-108249688D02*
X180959210Y-108154449D01*
X180959210Y-108154449D02*
X180959210Y-107773497D01*
X180959210Y-107773497D02*
X180911591Y-107678259D01*
X180911591Y-107678259D02*
X180816353Y-107630640D01*
X180816353Y-107630640D02*
X180625877Y-107630640D01*
X180625877Y-107630640D02*
X180530639Y-107678259D01*
X180530639Y-107678259D02*
X180483020Y-107773497D01*
X180483020Y-107773497D02*
X180483020Y-107868735D01*
X180483020Y-107868735D02*
X180959210Y-107963973D01*
X180054448Y-107630640D02*
X180054448Y-108297307D01*
X180054448Y-107725878D02*
X180006829Y-107678259D01*
X180006829Y-107678259D02*
X179911591Y-107630640D01*
X179911591Y-107630640D02*
X179768734Y-107630640D01*
X179768734Y-107630640D02*
X179673496Y-107678259D01*
X179673496Y-107678259D02*
X179625877Y-107773497D01*
X179625877Y-107773497D02*
X179625877Y-108297307D01*
X179292543Y-107630640D02*
X178911591Y-107630640D01*
X179149686Y-107297307D02*
X179149686Y-108154449D01*
X179149686Y-108154449D02*
X179102067Y-108249688D01*
X179102067Y-108249688D02*
X179006829Y-108297307D01*
X179006829Y-108297307D02*
X178911591Y-108297307D01*
X178578257Y-108297307D02*
X178578257Y-107297307D01*
X178149686Y-108297307D02*
X178149686Y-107773497D01*
X178149686Y-107773497D02*
X178197305Y-107678259D01*
X178197305Y-107678259D02*
X178292543Y-107630640D01*
X178292543Y-107630640D02*
X178435400Y-107630640D01*
X178435400Y-107630640D02*
X178530638Y-107678259D01*
X178530638Y-107678259D02*
X178578257Y-107725878D01*
X176911590Y-108297307D02*
X176911590Y-107297307D01*
X176911590Y-107297307D02*
X176530638Y-107297307D01*
X176530638Y-107297307D02*
X176435400Y-107344926D01*
X176435400Y-107344926D02*
X176387781Y-107392545D01*
X176387781Y-107392545D02*
X176340162Y-107487783D01*
X176340162Y-107487783D02*
X176340162Y-107630640D01*
X176340162Y-107630640D02*
X176387781Y-107725878D01*
X176387781Y-107725878D02*
X176435400Y-107773497D01*
X176435400Y-107773497D02*
X176530638Y-107821116D01*
X176530638Y-107821116D02*
X176911590Y-107821116D01*
X175911590Y-108297307D02*
X175911590Y-107630640D01*
X175911590Y-107821116D02*
X175863971Y-107725878D01*
X175863971Y-107725878D02*
X175816352Y-107678259D01*
X175816352Y-107678259D02*
X175721114Y-107630640D01*
X175721114Y-107630640D02*
X175625876Y-107630640D01*
X175149685Y-108297307D02*
X175244923Y-108249688D01*
X175244923Y-108249688D02*
X175292542Y-108202068D01*
X175292542Y-108202068D02*
X175340161Y-108106830D01*
X175340161Y-108106830D02*
X175340161Y-107821116D01*
X175340161Y-107821116D02*
X175292542Y-107725878D01*
X175292542Y-107725878D02*
X175244923Y-107678259D01*
X175244923Y-107678259D02*
X175149685Y-107630640D01*
X175149685Y-107630640D02*
X175006828Y-107630640D01*
X175006828Y-107630640D02*
X174911590Y-107678259D01*
X174911590Y-107678259D02*
X174863971Y-107725878D01*
X174863971Y-107725878D02*
X174816352Y-107821116D01*
X174816352Y-107821116D02*
X174816352Y-108106830D01*
X174816352Y-108106830D02*
X174863971Y-108202068D01*
X174863971Y-108202068D02*
X174911590Y-108249688D01*
X174911590Y-108249688D02*
X175006828Y-108297307D01*
X175006828Y-108297307D02*
X175149685Y-108297307D01*
X174530637Y-107630640D02*
X174149685Y-107630640D01*
X174387780Y-107297307D02*
X174387780Y-108154449D01*
X174387780Y-108154449D02*
X174340161Y-108249688D01*
X174340161Y-108249688D02*
X174244923Y-108297307D01*
X174244923Y-108297307D02*
X174149685Y-108297307D01*
X173673494Y-108297307D02*
X173768732Y-108249688D01*
X173768732Y-108249688D02*
X173816351Y-108202068D01*
X173816351Y-108202068D02*
X173863970Y-108106830D01*
X173863970Y-108106830D02*
X173863970Y-107821116D01*
X173863970Y-107821116D02*
X173816351Y-107725878D01*
X173816351Y-107725878D02*
X173768732Y-107678259D01*
X173768732Y-107678259D02*
X173673494Y-107630640D01*
X173673494Y-107630640D02*
X173530637Y-107630640D01*
X173530637Y-107630640D02*
X173435399Y-107678259D01*
X173435399Y-107678259D02*
X173387780Y-107725878D01*
X173387780Y-107725878D02*
X173340161Y-107821116D01*
X173340161Y-107821116D02*
X173340161Y-108106830D01*
X173340161Y-108106830D02*
X173387780Y-108202068D01*
X173387780Y-108202068D02*
X173435399Y-108249688D01*
X173435399Y-108249688D02*
X173530637Y-108297307D01*
X173530637Y-108297307D02*
X173673494Y-108297307D01*
X173054446Y-107630640D02*
X172673494Y-107630640D01*
X172911589Y-107297307D02*
X172911589Y-108154449D01*
X172911589Y-108154449D02*
X172863970Y-108249688D01*
X172863970Y-108249688D02*
X172768732Y-108297307D01*
X172768732Y-108297307D02*
X172673494Y-108297307D01*
X172435398Y-107630640D02*
X172197303Y-108297307D01*
X171959208Y-107630640D02*
X172197303Y-108297307D01*
X172197303Y-108297307D02*
X172292541Y-108535402D01*
X172292541Y-108535402D02*
X172340160Y-108583021D01*
X172340160Y-108583021D02*
X172435398Y-108630640D01*
X171578255Y-107630640D02*
X171578255Y-108630640D01*
X171578255Y-107678259D02*
X171483017Y-107630640D01*
X171483017Y-107630640D02*
X171292541Y-107630640D01*
X171292541Y-107630640D02*
X171197303Y-107678259D01*
X171197303Y-107678259D02*
X171149684Y-107725878D01*
X171149684Y-107725878D02*
X171102065Y-107821116D01*
X171102065Y-107821116D02*
X171102065Y-108106830D01*
X171102065Y-108106830D02*
X171149684Y-108202068D01*
X171149684Y-108202068D02*
X171197303Y-108249688D01*
X171197303Y-108249688D02*
X171292541Y-108297307D01*
X171292541Y-108297307D02*
X171483017Y-108297307D01*
X171483017Y-108297307D02*
X171578255Y-108249688D01*
X170292541Y-108249688D02*
X170387779Y-108297307D01*
X170387779Y-108297307D02*
X170578255Y-108297307D01*
X170578255Y-108297307D02*
X170673493Y-108249688D01*
X170673493Y-108249688D02*
X170721112Y-108154449D01*
X170721112Y-108154449D02*
X170721112Y-107773497D01*
X170721112Y-107773497D02*
X170673493Y-107678259D01*
X170673493Y-107678259D02*
X170578255Y-107630640D01*
X170578255Y-107630640D02*
X170387779Y-107630640D01*
X170387779Y-107630640D02*
X170292541Y-107678259D01*
X170292541Y-107678259D02*
X170244922Y-107773497D01*
X170244922Y-107773497D02*
X170244922Y-107868735D01*
X170244922Y-107868735D02*
X170721112Y-107963973D01*
X169102064Y-107392545D02*
X169054445Y-107344926D01*
X169054445Y-107344926D02*
X168959207Y-107297307D01*
X168959207Y-107297307D02*
X168721112Y-107297307D01*
X168721112Y-107297307D02*
X168625874Y-107344926D01*
X168625874Y-107344926D02*
X168578255Y-107392545D01*
X168578255Y-107392545D02*
X168530636Y-107487783D01*
X168530636Y-107487783D02*
X168530636Y-107583021D01*
X168530636Y-107583021D02*
X168578255Y-107725878D01*
X168578255Y-107725878D02*
X169149683Y-108297307D01*
X169149683Y-108297307D02*
X168530636Y-108297307D01*
X167911588Y-107297307D02*
X167816350Y-107297307D01*
X167816350Y-107297307D02*
X167721112Y-107344926D01*
X167721112Y-107344926D02*
X167673493Y-107392545D01*
X167673493Y-107392545D02*
X167625874Y-107487783D01*
X167625874Y-107487783D02*
X167578255Y-107678259D01*
X167578255Y-107678259D02*
X167578255Y-107916354D01*
X167578255Y-107916354D02*
X167625874Y-108106830D01*
X167625874Y-108106830D02*
X167673493Y-108202068D01*
X167673493Y-108202068D02*
X167721112Y-108249688D01*
X167721112Y-108249688D02*
X167816350Y-108297307D01*
X167816350Y-108297307D02*
X167911588Y-108297307D01*
X167911588Y-108297307D02*
X168006826Y-108249688D01*
X168006826Y-108249688D02*
X168054445Y-108202068D01*
X168054445Y-108202068D02*
X168102064Y-108106830D01*
X168102064Y-108106830D02*
X168149683Y-107916354D01*
X168149683Y-107916354D02*
X168149683Y-107678259D01*
X168149683Y-107678259D02*
X168102064Y-107487783D01*
X168102064Y-107487783D02*
X168054445Y-107392545D01*
X168054445Y-107392545D02*
X168006826Y-107344926D01*
X168006826Y-107344926D02*
X167911588Y-107297307D01*
X167197302Y-107392545D02*
X167149683Y-107344926D01*
X167149683Y-107344926D02*
X167054445Y-107297307D01*
X167054445Y-107297307D02*
X166816350Y-107297307D01*
X166816350Y-107297307D02*
X166721112Y-107344926D01*
X166721112Y-107344926D02*
X166673493Y-107392545D01*
X166673493Y-107392545D02*
X166625874Y-107487783D01*
X166625874Y-107487783D02*
X166625874Y-107583021D01*
X166625874Y-107583021D02*
X166673493Y-107725878D01*
X166673493Y-107725878D02*
X167244921Y-108297307D01*
X167244921Y-108297307D02*
X166625874Y-108297307D01*
X165768731Y-107630640D02*
X165768731Y-108297307D01*
X166006826Y-107249688D02*
X166244921Y-107963973D01*
X166244921Y-107963973D02*
X165625874Y-107963973D01*
X165244921Y-107916354D02*
X164483017Y-107916354D01*
X163721112Y-107297307D02*
X163721112Y-108011592D01*
X163721112Y-108011592D02*
X163768731Y-108154449D01*
X163768731Y-108154449D02*
X163863969Y-108249688D01*
X163863969Y-108249688D02*
X164006826Y-108297307D01*
X164006826Y-108297307D02*
X164102064Y-108297307D01*
X162816350Y-107630640D02*
X162816350Y-108297307D01*
X163244921Y-107630640D02*
X163244921Y-108154449D01*
X163244921Y-108154449D02*
X163197302Y-108249688D01*
X163197302Y-108249688D02*
X163102064Y-108297307D01*
X163102064Y-108297307D02*
X162959207Y-108297307D01*
X162959207Y-108297307D02*
X162863969Y-108249688D01*
X162863969Y-108249688D02*
X162816350Y-108202068D01*
X162340159Y-107630640D02*
X162340159Y-108297307D01*
X162340159Y-107725878D02*
X162292540Y-107678259D01*
X162292540Y-107678259D02*
X162197302Y-107630640D01*
X162197302Y-107630640D02*
X162054445Y-107630640D01*
X162054445Y-107630640D02*
X161959207Y-107678259D01*
X161959207Y-107678259D02*
X161911588Y-107773497D01*
X161911588Y-107773497D02*
X161911588Y-108297307D01*
X161435397Y-107916354D02*
X160673493Y-107916354D01*
X159673493Y-108297307D02*
X160244921Y-108297307D01*
X159959207Y-108297307D02*
X159959207Y-107297307D01*
X159959207Y-107297307D02*
X160054445Y-107440164D01*
X160054445Y-107440164D02*
X160149683Y-107535402D01*
X160149683Y-107535402D02*
X160244921Y-107583021D01*
X159102064Y-107725878D02*
X159197302Y-107678259D01*
X159197302Y-107678259D02*
X159244921Y-107630640D01*
X159244921Y-107630640D02*
X159292540Y-107535402D01*
X159292540Y-107535402D02*
X159292540Y-107487783D01*
X159292540Y-107487783D02*
X159244921Y-107392545D01*
X159244921Y-107392545D02*
X159197302Y-107344926D01*
X159197302Y-107344926D02*
X159102064Y-107297307D01*
X159102064Y-107297307D02*
X158911588Y-107297307D01*
X158911588Y-107297307D02*
X158816350Y-107344926D01*
X158816350Y-107344926D02*
X158768731Y-107392545D01*
X158768731Y-107392545D02*
X158721112Y-107487783D01*
X158721112Y-107487783D02*
X158721112Y-107535402D01*
X158721112Y-107535402D02*
X158768731Y-107630640D01*
X158768731Y-107630640D02*
X158816350Y-107678259D01*
X158816350Y-107678259D02*
X158911588Y-107725878D01*
X158911588Y-107725878D02*
X159102064Y-107725878D01*
X159102064Y-107725878D02*
X159197302Y-107773497D01*
X159197302Y-107773497D02*
X159244921Y-107821116D01*
X159244921Y-107821116D02*
X159292540Y-107916354D01*
X159292540Y-107916354D02*
X159292540Y-108106830D01*
X159292540Y-108106830D02*
X159244921Y-108202068D01*
X159244921Y-108202068D02*
X159197302Y-108249688D01*
X159197302Y-108249688D02*
X159102064Y-108297307D01*
X159102064Y-108297307D02*
X158911588Y-108297307D01*
X158911588Y-108297307D02*
X158816350Y-108249688D01*
X158816350Y-108249688D02*
X158768731Y-108202068D01*
X158768731Y-108202068D02*
X158721112Y-108106830D01*
X158721112Y-108106830D02*
X158721112Y-107916354D01*
X158721112Y-107916354D02*
X158768731Y-107821116D01*
X158768731Y-107821116D02*
X158816350Y-107773497D01*
X158816350Y-107773497D02*
X158911588Y-107725878D01*
X183197306Y-110288203D02*
X183244925Y-110240584D01*
X183244925Y-110240584D02*
X183340163Y-110097727D01*
X183340163Y-110097727D02*
X183387782Y-110002489D01*
X183387782Y-110002489D02*
X183435401Y-109859632D01*
X183435401Y-109859632D02*
X183483020Y-109621536D01*
X183483020Y-109621536D02*
X183483020Y-109431060D01*
X183483020Y-109431060D02*
X183435401Y-109192965D01*
X183435401Y-109192965D02*
X183387782Y-109050108D01*
X183387782Y-109050108D02*
X183340163Y-108954870D01*
X183340163Y-108954870D02*
X183244925Y-108812012D01*
X183244925Y-108812012D02*
X183197306Y-108764393D01*
X182387782Y-109859632D02*
X182483020Y-109907251D01*
X182483020Y-109907251D02*
X182673496Y-109907251D01*
X182673496Y-109907251D02*
X182768734Y-109859632D01*
X182768734Y-109859632D02*
X182816353Y-109812012D01*
X182816353Y-109812012D02*
X182863972Y-109716774D01*
X182863972Y-109716774D02*
X182863972Y-109431060D01*
X182863972Y-109431060D02*
X182816353Y-109335822D01*
X182816353Y-109335822D02*
X182768734Y-109288203D01*
X182768734Y-109288203D02*
X182673496Y-109240584D01*
X182673496Y-109240584D02*
X182483020Y-109240584D01*
X182483020Y-109240584D02*
X182387782Y-109288203D01*
X182054448Y-110288203D02*
X182006829Y-110240584D01*
X182006829Y-110240584D02*
X181911591Y-110097727D01*
X181911591Y-110097727D02*
X181863972Y-110002489D01*
X181863972Y-110002489D02*
X181816353Y-109859632D01*
X181816353Y-109859632D02*
X181768734Y-109621536D01*
X181768734Y-109621536D02*
X181768734Y-109431060D01*
X181768734Y-109431060D02*
X181816353Y-109192965D01*
X181816353Y-109192965D02*
X181863972Y-109050108D01*
X181863972Y-109050108D02*
X181911591Y-108954870D01*
X181911591Y-108954870D02*
X182006829Y-108812012D01*
X182006829Y-108812012D02*
X182054448Y-108764393D01*
X181340162Y-109002489D02*
X181292543Y-108954870D01*
X181292543Y-108954870D02*
X181197305Y-108907251D01*
X181197305Y-108907251D02*
X180959210Y-108907251D01*
X180959210Y-108907251D02*
X180863972Y-108954870D01*
X180863972Y-108954870D02*
X180816353Y-109002489D01*
X180816353Y-109002489D02*
X180768734Y-109097727D01*
X180768734Y-109097727D02*
X180768734Y-109192965D01*
X180768734Y-109192965D02*
X180816353Y-109335822D01*
X180816353Y-109335822D02*
X181387781Y-109907251D01*
X181387781Y-109907251D02*
X180768734Y-109907251D01*
X180149686Y-108907251D02*
X180054448Y-108907251D01*
X180054448Y-108907251D02*
X179959210Y-108954870D01*
X179959210Y-108954870D02*
X179911591Y-109002489D01*
X179911591Y-109002489D02*
X179863972Y-109097727D01*
X179863972Y-109097727D02*
X179816353Y-109288203D01*
X179816353Y-109288203D02*
X179816353Y-109526298D01*
X179816353Y-109526298D02*
X179863972Y-109716774D01*
X179863972Y-109716774D02*
X179911591Y-109812012D01*
X179911591Y-109812012D02*
X179959210Y-109859632D01*
X179959210Y-109859632D02*
X180054448Y-109907251D01*
X180054448Y-109907251D02*
X180149686Y-109907251D01*
X180149686Y-109907251D02*
X180244924Y-109859632D01*
X180244924Y-109859632D02*
X180292543Y-109812012D01*
X180292543Y-109812012D02*
X180340162Y-109716774D01*
X180340162Y-109716774D02*
X180387781Y-109526298D01*
X180387781Y-109526298D02*
X180387781Y-109288203D01*
X180387781Y-109288203D02*
X180340162Y-109097727D01*
X180340162Y-109097727D02*
X180292543Y-109002489D01*
X180292543Y-109002489D02*
X180244924Y-108954870D01*
X180244924Y-108954870D02*
X180149686Y-108907251D01*
X179435400Y-109002489D02*
X179387781Y-108954870D01*
X179387781Y-108954870D02*
X179292543Y-108907251D01*
X179292543Y-108907251D02*
X179054448Y-108907251D01*
X179054448Y-108907251D02*
X178959210Y-108954870D01*
X178959210Y-108954870D02*
X178911591Y-109002489D01*
X178911591Y-109002489D02*
X178863972Y-109097727D01*
X178863972Y-109097727D02*
X178863972Y-109192965D01*
X178863972Y-109192965D02*
X178911591Y-109335822D01*
X178911591Y-109335822D02*
X179483019Y-109907251D01*
X179483019Y-109907251D02*
X178863972Y-109907251D01*
X178244924Y-108907251D02*
X178149686Y-108907251D01*
X178149686Y-108907251D02*
X178054448Y-108954870D01*
X178054448Y-108954870D02*
X178006829Y-109002489D01*
X178006829Y-109002489D02*
X177959210Y-109097727D01*
X177959210Y-109097727D02*
X177911591Y-109288203D01*
X177911591Y-109288203D02*
X177911591Y-109526298D01*
X177911591Y-109526298D02*
X177959210Y-109716774D01*
X177959210Y-109716774D02*
X178006829Y-109812012D01*
X178006829Y-109812012D02*
X178054448Y-109859632D01*
X178054448Y-109859632D02*
X178149686Y-109907251D01*
X178149686Y-109907251D02*
X178244924Y-109907251D01*
X178244924Y-109907251D02*
X178340162Y-109859632D01*
X178340162Y-109859632D02*
X178387781Y-109812012D01*
X178387781Y-109812012D02*
X178435400Y-109716774D01*
X178435400Y-109716774D02*
X178483019Y-109526298D01*
X178483019Y-109526298D02*
X178483019Y-109288203D01*
X178483019Y-109288203D02*
X178435400Y-109097727D01*
X178435400Y-109097727D02*
X178387781Y-109002489D01*
X178387781Y-109002489D02*
X178340162Y-108954870D01*
X178340162Y-108954870D02*
X178244924Y-108907251D01*
X177483019Y-109526298D02*
X176721115Y-109526298D01*
X176292543Y-109002489D02*
X176244924Y-108954870D01*
X176244924Y-108954870D02*
X176149686Y-108907251D01*
X176149686Y-108907251D02*
X175911591Y-108907251D01*
X175911591Y-108907251D02*
X175816353Y-108954870D01*
X175816353Y-108954870D02*
X175768734Y-109002489D01*
X175768734Y-109002489D02*
X175721115Y-109097727D01*
X175721115Y-109097727D02*
X175721115Y-109192965D01*
X175721115Y-109192965D02*
X175768734Y-109335822D01*
X175768734Y-109335822D02*
X176340162Y-109907251D01*
X176340162Y-109907251D02*
X175721115Y-109907251D01*
X175102067Y-108907251D02*
X175006829Y-108907251D01*
X175006829Y-108907251D02*
X174911591Y-108954870D01*
X174911591Y-108954870D02*
X174863972Y-109002489D01*
X174863972Y-109002489D02*
X174816353Y-109097727D01*
X174816353Y-109097727D02*
X174768734Y-109288203D01*
X174768734Y-109288203D02*
X174768734Y-109526298D01*
X174768734Y-109526298D02*
X174816353Y-109716774D01*
X174816353Y-109716774D02*
X174863972Y-109812012D01*
X174863972Y-109812012D02*
X174911591Y-109859632D01*
X174911591Y-109859632D02*
X175006829Y-109907251D01*
X175006829Y-109907251D02*
X175102067Y-109907251D01*
X175102067Y-109907251D02*
X175197305Y-109859632D01*
X175197305Y-109859632D02*
X175244924Y-109812012D01*
X175244924Y-109812012D02*
X175292543Y-109716774D01*
X175292543Y-109716774D02*
X175340162Y-109526298D01*
X175340162Y-109526298D02*
X175340162Y-109288203D01*
X175340162Y-109288203D02*
X175292543Y-109097727D01*
X175292543Y-109097727D02*
X175244924Y-109002489D01*
X175244924Y-109002489D02*
X175197305Y-108954870D01*
X175197305Y-108954870D02*
X175102067Y-108907251D01*
X174387781Y-109002489D02*
X174340162Y-108954870D01*
X174340162Y-108954870D02*
X174244924Y-108907251D01*
X174244924Y-108907251D02*
X174006829Y-108907251D01*
X174006829Y-108907251D02*
X173911591Y-108954870D01*
X173911591Y-108954870D02*
X173863972Y-109002489D01*
X173863972Y-109002489D02*
X173816353Y-109097727D01*
X173816353Y-109097727D02*
X173816353Y-109192965D01*
X173816353Y-109192965D02*
X173863972Y-109335822D01*
X173863972Y-109335822D02*
X174435400Y-109907251D01*
X174435400Y-109907251D02*
X173816353Y-109907251D01*
X172959210Y-109240584D02*
X172959210Y-109907251D01*
X173197305Y-108859632D02*
X173435400Y-109573917D01*
X173435400Y-109573917D02*
X172816353Y-109573917D01*
X171816352Y-108907251D02*
X171244924Y-108907251D01*
X171530638Y-109907251D02*
X171530638Y-108907251D01*
X170530638Y-109859632D02*
X170625876Y-109907251D01*
X170625876Y-109907251D02*
X170816352Y-109907251D01*
X170816352Y-109907251D02*
X170911590Y-109859632D01*
X170911590Y-109859632D02*
X170959209Y-109764393D01*
X170959209Y-109764393D02*
X170959209Y-109383441D01*
X170959209Y-109383441D02*
X170911590Y-109288203D01*
X170911590Y-109288203D02*
X170816352Y-109240584D01*
X170816352Y-109240584D02*
X170625876Y-109240584D01*
X170625876Y-109240584D02*
X170530638Y-109288203D01*
X170530638Y-109288203D02*
X170483019Y-109383441D01*
X170483019Y-109383441D02*
X170483019Y-109478679D01*
X170483019Y-109478679D02*
X170959209Y-109573917D01*
X170054447Y-109907251D02*
X170054447Y-109240584D01*
X170054447Y-109431060D02*
X170006828Y-109335822D01*
X170006828Y-109335822D02*
X169959209Y-109288203D01*
X169959209Y-109288203D02*
X169863971Y-109240584D01*
X169863971Y-109240584D02*
X169768733Y-109240584D01*
X169054447Y-109859632D02*
X169149685Y-109907251D01*
X169149685Y-109907251D02*
X169340161Y-109907251D01*
X169340161Y-109907251D02*
X169435399Y-109859632D01*
X169435399Y-109859632D02*
X169483018Y-109764393D01*
X169483018Y-109764393D02*
X169483018Y-109383441D01*
X169483018Y-109383441D02*
X169435399Y-109288203D01*
X169435399Y-109288203D02*
X169340161Y-109240584D01*
X169340161Y-109240584D02*
X169149685Y-109240584D01*
X169149685Y-109240584D02*
X169054447Y-109288203D01*
X169054447Y-109288203D02*
X169006828Y-109383441D01*
X169006828Y-109383441D02*
X169006828Y-109478679D01*
X169006828Y-109478679D02*
X169483018Y-109573917D01*
X168578256Y-109240584D02*
X168578256Y-109907251D01*
X168578256Y-109335822D02*
X168530637Y-109288203D01*
X168530637Y-109288203D02*
X168435399Y-109240584D01*
X168435399Y-109240584D02*
X168292542Y-109240584D01*
X168292542Y-109240584D02*
X168197304Y-109288203D01*
X168197304Y-109288203D02*
X168149685Y-109383441D01*
X168149685Y-109383441D02*
X168149685Y-109907251D01*
X167244923Y-109859632D02*
X167340161Y-109907251D01*
X167340161Y-109907251D02*
X167530637Y-109907251D01*
X167530637Y-109907251D02*
X167625875Y-109859632D01*
X167625875Y-109859632D02*
X167673494Y-109812012D01*
X167673494Y-109812012D02*
X167721113Y-109716774D01*
X167721113Y-109716774D02*
X167721113Y-109431060D01*
X167721113Y-109431060D02*
X167673494Y-109335822D01*
X167673494Y-109335822D02*
X167625875Y-109288203D01*
X167625875Y-109288203D02*
X167530637Y-109240584D01*
X167530637Y-109240584D02*
X167340161Y-109240584D01*
X167340161Y-109240584D02*
X167244923Y-109288203D01*
X166435399Y-109859632D02*
X166530637Y-109907251D01*
X166530637Y-109907251D02*
X166721113Y-109907251D01*
X166721113Y-109907251D02*
X166816351Y-109859632D01*
X166816351Y-109859632D02*
X166863970Y-109764393D01*
X166863970Y-109764393D02*
X166863970Y-109383441D01*
X166863970Y-109383441D02*
X166816351Y-109288203D01*
X166816351Y-109288203D02*
X166721113Y-109240584D01*
X166721113Y-109240584D02*
X166530637Y-109240584D01*
X166530637Y-109240584D02*
X166435399Y-109288203D01*
X166435399Y-109288203D02*
X166387780Y-109383441D01*
X166387780Y-109383441D02*
X166387780Y-109478679D01*
X166387780Y-109478679D02*
X166863970Y-109573917D01*
X164911589Y-108907251D02*
X164911589Y-109621536D01*
X164911589Y-109621536D02*
X164959208Y-109764393D01*
X164959208Y-109764393D02*
X165054446Y-109859632D01*
X165054446Y-109859632D02*
X165197303Y-109907251D01*
X165197303Y-109907251D02*
X165292541Y-109907251D01*
X164435398Y-109812012D02*
X164387779Y-109859632D01*
X164387779Y-109859632D02*
X164435398Y-109907251D01*
X164435398Y-109907251D02*
X164483017Y-109859632D01*
X164483017Y-109859632D02*
X164435398Y-109812012D01*
X164435398Y-109812012D02*
X164435398Y-109907251D01*
X162863970Y-109383441D02*
X162721113Y-109431060D01*
X162721113Y-109431060D02*
X162673494Y-109478679D01*
X162673494Y-109478679D02*
X162625875Y-109573917D01*
X162625875Y-109573917D02*
X162625875Y-109716774D01*
X162625875Y-109716774D02*
X162673494Y-109812012D01*
X162673494Y-109812012D02*
X162721113Y-109859632D01*
X162721113Y-109859632D02*
X162816351Y-109907251D01*
X162816351Y-109907251D02*
X163197303Y-109907251D01*
X163197303Y-109907251D02*
X163197303Y-108907251D01*
X163197303Y-108907251D02*
X162863970Y-108907251D01*
X162863970Y-108907251D02*
X162768732Y-108954870D01*
X162768732Y-108954870D02*
X162721113Y-109002489D01*
X162721113Y-109002489D02*
X162673494Y-109097727D01*
X162673494Y-109097727D02*
X162673494Y-109192965D01*
X162673494Y-109192965D02*
X162721113Y-109288203D01*
X162721113Y-109288203D02*
X162768732Y-109335822D01*
X162768732Y-109335822D02*
X162863970Y-109383441D01*
X162863970Y-109383441D02*
X163197303Y-109383441D01*
X162054446Y-109907251D02*
X162149684Y-109859632D01*
X162149684Y-109859632D02*
X162197303Y-109812012D01*
X162197303Y-109812012D02*
X162244922Y-109716774D01*
X162244922Y-109716774D02*
X162244922Y-109431060D01*
X162244922Y-109431060D02*
X162197303Y-109335822D01*
X162197303Y-109335822D02*
X162149684Y-109288203D01*
X162149684Y-109288203D02*
X162054446Y-109240584D01*
X162054446Y-109240584D02*
X161911589Y-109240584D01*
X161911589Y-109240584D02*
X161816351Y-109288203D01*
X161816351Y-109288203D02*
X161768732Y-109335822D01*
X161768732Y-109335822D02*
X161721113Y-109431060D01*
X161721113Y-109431060D02*
X161721113Y-109716774D01*
X161721113Y-109716774D02*
X161768732Y-109812012D01*
X161768732Y-109812012D02*
X161816351Y-109859632D01*
X161816351Y-109859632D02*
X161911589Y-109907251D01*
X161911589Y-109907251D02*
X162054446Y-109907251D01*
X161149684Y-109907251D02*
X161244922Y-109859632D01*
X161244922Y-109859632D02*
X161292541Y-109764393D01*
X161292541Y-109764393D02*
X161292541Y-108907251D01*
X160340160Y-109907251D02*
X160340160Y-108907251D01*
X160340160Y-109859632D02*
X160435398Y-109907251D01*
X160435398Y-109907251D02*
X160625874Y-109907251D01*
X160625874Y-109907251D02*
X160721112Y-109859632D01*
X160721112Y-109859632D02*
X160768731Y-109812012D01*
X160768731Y-109812012D02*
X160816350Y-109716774D01*
X160816350Y-109716774D02*
X160816350Y-109431060D01*
X160816350Y-109431060D02*
X160768731Y-109335822D01*
X160768731Y-109335822D02*
X160721112Y-109288203D01*
X160721112Y-109288203D02*
X160625874Y-109240584D01*
X160625874Y-109240584D02*
X160435398Y-109240584D01*
X160435398Y-109240584D02*
X160340160Y-109288203D01*
X160006826Y-109240584D02*
X159625874Y-109240584D01*
X159863969Y-108907251D02*
X159863969Y-109764393D01*
X159863969Y-109764393D02*
X159816350Y-109859632D01*
X159816350Y-109859632D02*
X159721112Y-109907251D01*
X159721112Y-109907251D02*
X159625874Y-109907251D01*
M02*
