M48
; DRILL file {KiCad (6.0.2-0)} date Thursday, February 17, 2022 at 07:53:49 pm
; FORMAT={-:-/ absolute / inch / decimal}
; #@! TF.CreationDate,2022-02-17T19:53:49-05:00
; #@! TF.GenerationSoftware,Kicad,Pcbnew,(6.0.2-0)
; #@! TF.FileFunction,Plated,1,2,PTH
FMAT,2
INCH
; #@! TA.AperFunction,Plated,PTH,ViaDrill
T1C0.0197
; #@! TA.AperFunction,Plated,PTH,ComponentDrill
T2C0.0315
; #@! TA.AperFunction,Plated,PTH,ComponentDrill
T3C0.0394
%
G90
G05
T1
X4.5505Y-3.475
X4.575Y-3.246
X4.578Y-2.504
X4.583Y-2.969
X4.591Y-2.374
X4.607Y-2.618
X4.608Y-2.233
X4.6115Y-3.212
X4.617Y-2.065
X4.625Y-2.125
X4.626Y-2.729
X4.63Y-2.686
X4.63Y-2.914
X4.637Y-3.322
X4.6595Y-2.9914
X4.6625Y-2.657
X4.669Y-3.368
X4.67Y-3.655
X4.674Y-3.324
X4.6765Y-2.408
X4.6765Y-2.837
X4.6765Y-3.229
X4.9Y-2.475
X4.9468Y-2.449
X4.962Y-2.938
X4.981Y-2.644
X5.06Y-2.4625
X5.075Y-1.9005
X5.096Y-2.1255
X5.129Y-3.458
X5.15Y-1.926
X5.1585Y-2.151
X5.203Y-2.387
X5.2425Y-2.176
X5.246Y-2.9765
X5.275Y-3.4
X5.275Y-3.45
X5.301Y-2.331
X5.314Y-3.342
X5.365Y-2.8775
X5.369Y-2.357
X5.375Y-2.175
X5.375Y-3.475
X5.4Y-2.975
X5.41Y-2.3995
X5.4138Y-3.6222
X5.425Y-1.9005
X5.425Y-3.375
X5.525Y-2.2005
X5.525Y-3.675
X5.55Y-1.925
X5.55Y-3.425
X5.575Y-2.9
X5.627Y-2.168
X5.65Y-3.475
X5.675Y-2.95
X5.75Y-3.8426
X5.757Y-1.954
X5.775Y-2.5
X5.788Y-2.935
X5.9Y-3.8426
X5.925Y-3.0
X5.9503Y-2.3556
X5.964Y-2.39
X6.0Y-2.525
X6.0Y-3.62
X6.025Y-2.325
X6.076Y-2.525
X6.199Y-3.452
X6.2Y-2.625
X6.25Y-3.675
X6.315Y-3.681
X6.35Y-2.575
X6.35Y-3.7245
X6.4Y-4.075
X6.475Y-4.1
X6.55Y-2.675
X6.55Y-4.025
X6.575Y-4.1
X6.6Y-4.35
X6.6755Y-4.3
X6.725Y-4.124
X6.79Y-3.705
X6.8Y-2.3
X6.8Y-4.1495
X6.825Y-2.775
X6.859Y-3.132
X6.925Y-4.15
X6.95Y-4.275
X7.0Y-4.199
X7.05Y-4.25
X7.103Y-4.365
X7.15Y-4.225
X7.203Y-4.365
X7.3543Y-2.4293
T2
X4.775Y-1.875
X4.775Y-1.9734
X4.775Y-2.375
X4.775Y-2.4734
X4.775Y-2.8766
X4.775Y-2.975
X4.775Y-3.3766
X4.775Y-3.475
X4.775Y-3.8516
X4.775Y-3.95
X4.875Y-1.775
X4.875Y-2.075
X4.875Y-2.275
X4.875Y-2.575
X4.875Y-2.775
X4.875Y-3.075
X4.875Y-3.275
X4.875Y-3.575
X4.88Y-3.75
X4.88Y-4.05
X4.975Y-1.775
X4.975Y-2.075
X4.975Y-2.275
X4.975Y-2.575
X4.975Y-2.775
X4.975Y-3.075
X4.975Y-3.275
X4.975Y-3.575
X4.98Y-3.75
X4.98Y-4.05
X5.075Y-1.775
X5.075Y-2.075
X5.075Y-2.275
X5.075Y-2.575
X5.075Y-2.775
X5.075Y-3.075
X5.075Y-3.275
X5.075Y-3.575
X5.08Y-3.75
X5.08Y-4.05
X5.175Y-1.775
X5.175Y-2.075
X5.175Y-2.275
X5.175Y-2.575
X5.175Y-2.775
X5.175Y-3.075
X5.175Y-3.275
X5.175Y-3.575
X5.18Y-3.75
X5.18Y-4.05
X5.275Y-1.775
X5.275Y-2.075
X5.275Y-2.275
X5.275Y-2.575
X5.275Y-2.775
X5.275Y-3.075
X5.275Y-3.275
X5.275Y-3.575
X5.28Y-3.75
X5.28Y-4.05
X5.375Y-1.775
X5.375Y-2.075
X5.375Y-2.275
X5.375Y-2.575
X5.375Y-2.775
X5.375Y-3.075
X5.375Y-3.275
X5.375Y-3.575
X5.38Y-3.75
X5.38Y-4.05
X5.475Y-1.775
X5.475Y-2.075
X5.475Y-2.275
X5.475Y-2.575
X5.475Y-2.775
X5.475Y-3.075
X5.475Y-3.275
X5.475Y-3.575
X5.48Y-3.75
X5.48Y-4.05
X5.575Y-1.775
X5.575Y-2.075
X5.575Y-2.275
X5.575Y-2.575
X5.575Y-2.775
X5.575Y-3.075
X5.575Y-3.275
X5.575Y-3.575
X5.58Y-3.75
X5.58Y-4.05
X5.675Y-1.775
X5.675Y-2.075
X5.675Y-2.275
X5.675Y-2.575
X5.675Y-2.775
X5.675Y-3.075
X5.675Y-3.275
X5.675Y-3.575
X5.68Y-3.75
X5.68Y-4.05
X5.775Y-1.775
X5.775Y-2.075
X5.775Y-2.275
X5.775Y-2.575
X5.775Y-2.775
X5.775Y-3.075
X5.775Y-3.275
X5.775Y-3.575
X5.78Y-3.75
X5.78Y-4.05
X6.0662Y-3.2121
X6.0662Y-3.8121
X6.15Y-2.175
X6.15Y-2.275
X6.15Y-2.375
X6.15Y-2.475
X6.15Y-2.575
X6.15Y-2.675
X6.15Y-2.775
X6.1662Y-3.2121
X6.1662Y-3.8121
X6.2516Y-2.075
X6.2662Y-3.2121
X6.2662Y-3.8121
X6.35Y-2.075
X6.3662Y-3.2121
X6.3662Y-3.8121
X6.45Y-2.175
X6.45Y-2.275
X6.45Y-2.375
X6.45Y-2.475
X6.45Y-2.575
X6.45Y-2.675
X6.45Y-2.775
X6.4662Y-3.2121
X6.4662Y-3.8121
X6.5662Y-3.2121
X6.5662Y-3.8121
X6.642Y-2.172
X6.642Y-2.272
X6.642Y-2.372
X6.642Y-2.472
X6.642Y-2.572
X6.642Y-2.672
X6.642Y-2.772
X6.6662Y-3.2121
X6.6662Y-3.8121
X6.7516Y-2.075
X6.7662Y-3.2121
X6.7662Y-3.8121
X6.85Y-2.075
X6.8662Y-3.2121
X6.8662Y-3.8121
X6.942Y-2.172
X6.942Y-2.272
X6.942Y-2.372
X6.942Y-2.472
X6.942Y-2.572
X6.942Y-2.672
X6.942Y-2.772
X6.9662Y-3.2121
X6.9662Y-3.8121
X7.0662Y-3.2121
X7.0662Y-3.8121
X7.117Y-2.175
X7.117Y-2.275
X7.117Y-2.375
X7.117Y-2.475
X7.117Y-2.575
X7.117Y-2.675
X7.117Y-2.775
X7.1662Y-3.2121
X7.1662Y-3.8121
X7.2186Y-2.075
X7.2662Y-3.2121
X7.2662Y-3.8121
X7.317Y-2.075
X7.3662Y-3.2121
X7.3662Y-3.8121
X7.417Y-2.175
X7.417Y-2.275
X7.417Y-2.375
X7.417Y-2.475
X7.417Y-2.575
X7.417Y-2.675
X7.417Y-2.775
X7.5Y-3.4516
X7.5Y-3.55
T3
X4.35Y-2.06
X4.35Y-2.16
X4.35Y-2.26
X4.35Y-2.36
X4.35Y-2.46
X4.35Y-2.56
X4.35Y-2.66
X4.35Y-2.76
X4.35Y-2.86
X4.35Y-2.96
X4.35Y-3.06
X4.35Y-3.16
X4.35Y-3.26
X4.35Y-3.36
X4.35Y-3.46
X4.35Y-3.56
X4.35Y-3.66
X4.35Y-3.76
X4.35Y-3.86
X4.35Y-3.96
X4.45Y-2.06
X4.45Y-2.16
X4.45Y-2.26
X4.45Y-2.36
X4.45Y-2.46
X4.45Y-2.56
X4.45Y-2.66
X4.45Y-2.76
X4.45Y-2.86
X4.45Y-2.96
X4.45Y-3.06
X4.45Y-3.16
X4.45Y-3.26
X4.45Y-3.36
X4.45Y-3.46
X4.45Y-3.56
X4.45Y-3.66
X4.45Y-3.76
X4.45Y-3.86
X4.45Y-3.96
X4.626Y-4.122
X4.626Y-4.222
T0
M30
