G04 #@! TF.GenerationSoftware,KiCad,Pcbnew,(5.0.2)-1*
G04 #@! TF.CreationDate,2020-12-13T22:30:25-05:00*
G04 #@! TF.ProjectId,Apple2IORPi,4170706c-6532-4494-9f52-50692e6b6963,0.2*
G04 #@! TF.SameCoordinates,Original*
G04 #@! TF.FileFunction,Legend,Bot*
G04 #@! TF.FilePolarity,Positive*
%FSLAX46Y46*%
G04 Gerber Fmt 4.6, Leading zero omitted, Abs format (unit mm)*
G04 Created by KiCad (PCBNEW (5.0.2)-1) date 2020-12-13 22:30:25*
%MOMM*%
%LPD*%
G01*
G04 APERTURE LIST*
%ADD10C,0.150000*%
G04 APERTURE END LIST*
D10*
X159684404Y-106752380D02*
X159684404Y-105752380D01*
X159255833Y-106752380D02*
X159255833Y-106228571D01*
X159303452Y-106133333D01*
X159398690Y-106085714D01*
X159541547Y-106085714D01*
X159636785Y-106133333D01*
X159684404Y-106180952D01*
X158922500Y-106085714D02*
X158541547Y-106085714D01*
X158779642Y-105752380D02*
X158779642Y-106609523D01*
X158732023Y-106704761D01*
X158636785Y-106752380D01*
X158541547Y-106752380D01*
X158351071Y-106085714D02*
X157970119Y-106085714D01*
X158208214Y-105752380D02*
X158208214Y-106609523D01*
X158160595Y-106704761D01*
X158065357Y-106752380D01*
X157970119Y-106752380D01*
X157636785Y-106085714D02*
X157636785Y-107085714D01*
X157636785Y-106133333D02*
X157541547Y-106085714D01*
X157351071Y-106085714D01*
X157255833Y-106133333D01*
X157208214Y-106180952D01*
X157160595Y-106276190D01*
X157160595Y-106561904D01*
X157208214Y-106657142D01*
X157255833Y-106704761D01*
X157351071Y-106752380D01*
X157541547Y-106752380D01*
X157636785Y-106704761D01*
X156779642Y-106704761D02*
X156684404Y-106752380D01*
X156493928Y-106752380D01*
X156398690Y-106704761D01*
X156351071Y-106609523D01*
X156351071Y-106561904D01*
X156398690Y-106466666D01*
X156493928Y-106419047D01*
X156636785Y-106419047D01*
X156732023Y-106371428D01*
X156779642Y-106276190D01*
X156779642Y-106228571D01*
X156732023Y-106133333D01*
X156636785Y-106085714D01*
X156493928Y-106085714D01*
X156398690Y-106133333D01*
X155922500Y-106657142D02*
X155874880Y-106704761D01*
X155922500Y-106752380D01*
X155970119Y-106704761D01*
X155922500Y-106657142D01*
X155922500Y-106752380D01*
X155922500Y-106133333D02*
X155874880Y-106180952D01*
X155922500Y-106228571D01*
X155970119Y-106180952D01*
X155922500Y-106133333D01*
X155922500Y-106228571D01*
X154732023Y-105704761D02*
X155589166Y-106990476D01*
X153684404Y-105704761D02*
X154541547Y-106990476D01*
X152922500Y-106085714D02*
X152922500Y-106895238D01*
X152970119Y-106990476D01*
X153017738Y-107038095D01*
X153112976Y-107085714D01*
X153255833Y-107085714D01*
X153351071Y-107038095D01*
X152922500Y-106704761D02*
X153017738Y-106752380D01*
X153208214Y-106752380D01*
X153303452Y-106704761D01*
X153351071Y-106657142D01*
X153398690Y-106561904D01*
X153398690Y-106276190D01*
X153351071Y-106180952D01*
X153303452Y-106133333D01*
X153208214Y-106085714D01*
X153017738Y-106085714D01*
X152922500Y-106133333D01*
X152446309Y-106752380D02*
X152446309Y-106085714D01*
X152446309Y-105752380D02*
X152493928Y-105800000D01*
X152446309Y-105847619D01*
X152398690Y-105800000D01*
X152446309Y-105752380D01*
X152446309Y-105847619D01*
X152112976Y-106085714D02*
X151732023Y-106085714D01*
X151970119Y-105752380D02*
X151970119Y-106609523D01*
X151922500Y-106704761D01*
X151827261Y-106752380D01*
X151732023Y-106752380D01*
X151398690Y-106752380D02*
X151398690Y-105752380D01*
X150970119Y-106752380D02*
X150970119Y-106228571D01*
X151017738Y-106133333D01*
X151112976Y-106085714D01*
X151255833Y-106085714D01*
X151351071Y-106133333D01*
X151398690Y-106180952D01*
X150065357Y-106085714D02*
X150065357Y-106752380D01*
X150493928Y-106085714D02*
X150493928Y-106609523D01*
X150446309Y-106704761D01*
X150351071Y-106752380D01*
X150208214Y-106752380D01*
X150112976Y-106704761D01*
X150065357Y-106657142D01*
X149589166Y-106752380D02*
X149589166Y-105752380D01*
X149589166Y-106133333D02*
X149493928Y-106085714D01*
X149303452Y-106085714D01*
X149208214Y-106133333D01*
X149160595Y-106180952D01*
X149112976Y-106276190D01*
X149112976Y-106561904D01*
X149160595Y-106657142D01*
X149208214Y-106704761D01*
X149303452Y-106752380D01*
X149493928Y-106752380D01*
X149589166Y-106704761D01*
X148684404Y-106657142D02*
X148636785Y-106704761D01*
X148684404Y-106752380D01*
X148732023Y-106704761D01*
X148684404Y-106657142D01*
X148684404Y-106752380D01*
X147779642Y-106704761D02*
X147874880Y-106752380D01*
X148065357Y-106752380D01*
X148160595Y-106704761D01*
X148208214Y-106657142D01*
X148255833Y-106561904D01*
X148255833Y-106276190D01*
X148208214Y-106180952D01*
X148160595Y-106133333D01*
X148065357Y-106085714D01*
X147874880Y-106085714D01*
X147779642Y-106133333D01*
X147208214Y-106752380D02*
X147303452Y-106704761D01*
X147351071Y-106657142D01*
X147398690Y-106561904D01*
X147398690Y-106276190D01*
X147351071Y-106180952D01*
X147303452Y-106133333D01*
X147208214Y-106085714D01*
X147065357Y-106085714D01*
X146970119Y-106133333D01*
X146922500Y-106180952D01*
X146874880Y-106276190D01*
X146874880Y-106561904D01*
X146922500Y-106657142D01*
X146970119Y-106704761D01*
X147065357Y-106752380D01*
X147208214Y-106752380D01*
X146446309Y-106752380D02*
X146446309Y-106085714D01*
X146446309Y-106180952D02*
X146398690Y-106133333D01*
X146303452Y-106085714D01*
X146160595Y-106085714D01*
X146065357Y-106133333D01*
X146017738Y-106228571D01*
X146017738Y-106752380D01*
X146017738Y-106228571D02*
X145970119Y-106133333D01*
X145874880Y-106085714D01*
X145732023Y-106085714D01*
X145636785Y-106133333D01*
X145589166Y-106228571D01*
X145589166Y-106752380D01*
X144398690Y-105704761D02*
X145255833Y-106990476D01*
X144208214Y-106085714D02*
X143827261Y-106085714D01*
X144065357Y-105752380D02*
X144065357Y-106609523D01*
X144017738Y-106704761D01*
X143922500Y-106752380D01*
X143827261Y-106752380D01*
X143493928Y-106085714D02*
X143493928Y-106942857D01*
X143541547Y-107038095D01*
X143636785Y-107085714D01*
X143684404Y-107085714D01*
X143493928Y-105752380D02*
X143541547Y-105800000D01*
X143493928Y-105847619D01*
X143446309Y-105800000D01*
X143493928Y-105752380D01*
X143493928Y-105847619D01*
X143017738Y-106752380D02*
X143017738Y-105752380D01*
X143017738Y-106133333D02*
X142922500Y-106085714D01*
X142732023Y-106085714D01*
X142636785Y-106133333D01*
X142589166Y-106180952D01*
X142541547Y-106276190D01*
X142541547Y-106561904D01*
X142589166Y-106657142D01*
X142636785Y-106704761D01*
X142732023Y-106752380D01*
X142922500Y-106752380D01*
X143017738Y-106704761D01*
X141970119Y-106752380D02*
X142065357Y-106704761D01*
X142112976Y-106657142D01*
X142160595Y-106561904D01*
X142160595Y-106276190D01*
X142112976Y-106180952D01*
X142065357Y-106133333D01*
X141970119Y-106085714D01*
X141827261Y-106085714D01*
X141732023Y-106133333D01*
X141684404Y-106180952D01*
X141636785Y-106276190D01*
X141636785Y-106561904D01*
X141684404Y-106657142D01*
X141732023Y-106704761D01*
X141827261Y-106752380D01*
X141970119Y-106752380D01*
X141065357Y-106752380D02*
X141160595Y-106704761D01*
X141208214Y-106609523D01*
X141208214Y-105752380D01*
X140255833Y-106752380D02*
X140255833Y-105752380D01*
X140255833Y-106704761D02*
X140351071Y-106752380D01*
X140541547Y-106752380D01*
X140636785Y-106704761D01*
X140684404Y-106657142D01*
X140732023Y-106561904D01*
X140732023Y-106276190D01*
X140684404Y-106180952D01*
X140636785Y-106133333D01*
X140541547Y-106085714D01*
X140351071Y-106085714D01*
X140255833Y-106133333D01*
X139922500Y-106085714D02*
X139541547Y-106085714D01*
X139779642Y-105752380D02*
X139779642Y-106609523D01*
X139732023Y-106704761D01*
X139636785Y-106752380D01*
X139541547Y-106752380D01*
X138493928Y-105704761D02*
X139351071Y-106990476D01*
X138208214Y-106466666D02*
X137732023Y-106466666D01*
X138303452Y-106752380D02*
X137970119Y-105752380D01*
X137636785Y-106752380D01*
X137303452Y-106085714D02*
X137303452Y-107085714D01*
X137303452Y-106133333D02*
X137208214Y-106085714D01*
X137017738Y-106085714D01*
X136922500Y-106133333D01*
X136874880Y-106180952D01*
X136827261Y-106276190D01*
X136827261Y-106561904D01*
X136874880Y-106657142D01*
X136922500Y-106704761D01*
X137017738Y-106752380D01*
X137208214Y-106752380D01*
X137303452Y-106704761D01*
X136398690Y-106085714D02*
X136398690Y-107085714D01*
X136398690Y-106133333D02*
X136303452Y-106085714D01*
X136112976Y-106085714D01*
X136017738Y-106133333D01*
X135970119Y-106180952D01*
X135922500Y-106276190D01*
X135922500Y-106561904D01*
X135970119Y-106657142D01*
X136017738Y-106704761D01*
X136112976Y-106752380D01*
X136303452Y-106752380D01*
X136398690Y-106704761D01*
X135351071Y-106752380D02*
X135446309Y-106704761D01*
X135493928Y-106609523D01*
X135493928Y-105752380D01*
X134589166Y-106704761D02*
X134684404Y-106752380D01*
X134874880Y-106752380D01*
X134970119Y-106704761D01*
X135017738Y-106609523D01*
X135017738Y-106228571D01*
X134970119Y-106133333D01*
X134874880Y-106085714D01*
X134684404Y-106085714D01*
X134589166Y-106133333D01*
X134541547Y-106228571D01*
X134541547Y-106323809D01*
X135017738Y-106419047D01*
X134160595Y-105847619D02*
X134112976Y-105800000D01*
X134017738Y-105752380D01*
X133779642Y-105752380D01*
X133684404Y-105800000D01*
X133636785Y-105847619D01*
X133589166Y-105942857D01*
X133589166Y-106038095D01*
X133636785Y-106180952D01*
X134208214Y-106752380D01*
X133589166Y-106752380D01*
X133160595Y-106371428D02*
X132398690Y-106371428D01*
X131922500Y-106752380D02*
X131922500Y-105752380D01*
X131255833Y-105752380D02*
X131065357Y-105752380D01*
X130970119Y-105800000D01*
X130874880Y-105895238D01*
X130827261Y-106085714D01*
X130827261Y-106419047D01*
X130874880Y-106609523D01*
X130970119Y-106704761D01*
X131065357Y-106752380D01*
X131255833Y-106752380D01*
X131351071Y-106704761D01*
X131446309Y-106609523D01*
X131493928Y-106419047D01*
X131493928Y-106085714D01*
X131446309Y-105895238D01*
X131351071Y-105800000D01*
X131255833Y-105752380D01*
X130398690Y-106371428D02*
X129636785Y-106371428D01*
X128589166Y-106752380D02*
X128922500Y-106276190D01*
X129160595Y-106752380D02*
X129160595Y-105752380D01*
X128779642Y-105752380D01*
X128684404Y-105800000D01*
X128636785Y-105847619D01*
X128589166Y-105942857D01*
X128589166Y-106085714D01*
X128636785Y-106180952D01*
X128684404Y-106228571D01*
X128779642Y-106276190D01*
X129160595Y-106276190D01*
X128160595Y-106752380D02*
X128160595Y-105752380D01*
X127779642Y-105752380D01*
X127684404Y-105800000D01*
X127636785Y-105847619D01*
X127589166Y-105942857D01*
X127589166Y-106085714D01*
X127636785Y-106180952D01*
X127684404Y-106228571D01*
X127779642Y-106276190D01*
X128160595Y-106276190D01*
X127160595Y-106752380D02*
X127160595Y-106085714D01*
X127160595Y-105752380D02*
X127208214Y-105800000D01*
X127160595Y-105847619D01*
X127112976Y-105800000D01*
X127160595Y-105752380D01*
X127160595Y-105847619D01*
X159732023Y-108354761D02*
X159589166Y-108402380D01*
X159351071Y-108402380D01*
X159255833Y-108354761D01*
X159208214Y-108307142D01*
X159160595Y-108211904D01*
X159160595Y-108116666D01*
X159208214Y-108021428D01*
X159255833Y-107973809D01*
X159351071Y-107926190D01*
X159541547Y-107878571D01*
X159636785Y-107830952D01*
X159684404Y-107783333D01*
X159732023Y-107688095D01*
X159732023Y-107592857D01*
X159684404Y-107497619D01*
X159636785Y-107450000D01*
X159541547Y-107402380D01*
X159303452Y-107402380D01*
X159160595Y-107450000D01*
X158351071Y-108354761D02*
X158446309Y-108402380D01*
X158636785Y-108402380D01*
X158732023Y-108354761D01*
X158779642Y-108259523D01*
X158779642Y-107878571D01*
X158732023Y-107783333D01*
X158636785Y-107735714D01*
X158446309Y-107735714D01*
X158351071Y-107783333D01*
X158303452Y-107878571D01*
X158303452Y-107973809D01*
X158779642Y-108069047D01*
X157446309Y-108354761D02*
X157541547Y-108402380D01*
X157732023Y-108402380D01*
X157827261Y-108354761D01*
X157874880Y-108307142D01*
X157922500Y-108211904D01*
X157922500Y-107926190D01*
X157874880Y-107830952D01*
X157827261Y-107783333D01*
X157732023Y-107735714D01*
X157541547Y-107735714D01*
X157446309Y-107783333D01*
X156874880Y-108402380D02*
X156970119Y-108354761D01*
X157017738Y-108307142D01*
X157065357Y-108211904D01*
X157065357Y-107926190D01*
X157017738Y-107830952D01*
X156970119Y-107783333D01*
X156874880Y-107735714D01*
X156732023Y-107735714D01*
X156636785Y-107783333D01*
X156589166Y-107830952D01*
X156541547Y-107926190D01*
X156541547Y-108211904D01*
X156589166Y-108307142D01*
X156636785Y-108354761D01*
X156732023Y-108402380D01*
X156874880Y-108402380D01*
X156112976Y-107735714D02*
X156112976Y-108402380D01*
X156112976Y-107830952D02*
X156065357Y-107783333D01*
X155970119Y-107735714D01*
X155827261Y-107735714D01*
X155732023Y-107783333D01*
X155684404Y-107878571D01*
X155684404Y-108402380D01*
X154779642Y-108402380D02*
X154779642Y-107402380D01*
X154779642Y-108354761D02*
X154874880Y-108402380D01*
X155065357Y-108402380D01*
X155160595Y-108354761D01*
X155208214Y-108307142D01*
X155255833Y-108211904D01*
X155255833Y-107926190D01*
X155208214Y-107830952D01*
X155160595Y-107783333D01*
X155065357Y-107735714D01*
X154874880Y-107735714D01*
X154779642Y-107783333D01*
X153541547Y-108402380D02*
X153541547Y-107402380D01*
X153160595Y-107402380D01*
X153065357Y-107450000D01*
X153017738Y-107497619D01*
X152970119Y-107592857D01*
X152970119Y-107735714D01*
X153017738Y-107830952D01*
X153065357Y-107878571D01*
X153160595Y-107926190D01*
X153541547Y-107926190D01*
X152541547Y-108402380D02*
X152541547Y-107735714D01*
X152541547Y-107926190D02*
X152493928Y-107830952D01*
X152446309Y-107783333D01*
X152351071Y-107735714D01*
X152255833Y-107735714D01*
X151779642Y-108402380D02*
X151874880Y-108354761D01*
X151922500Y-108307142D01*
X151970119Y-108211904D01*
X151970119Y-107926190D01*
X151922500Y-107830952D01*
X151874880Y-107783333D01*
X151779642Y-107735714D01*
X151636785Y-107735714D01*
X151541547Y-107783333D01*
X151493928Y-107830952D01*
X151446309Y-107926190D01*
X151446309Y-108211904D01*
X151493928Y-108307142D01*
X151541547Y-108354761D01*
X151636785Y-108402380D01*
X151779642Y-108402380D01*
X151160595Y-107735714D02*
X150779642Y-107735714D01*
X151017738Y-107402380D02*
X151017738Y-108259523D01*
X150970119Y-108354761D01*
X150874880Y-108402380D01*
X150779642Y-108402380D01*
X150303452Y-108402380D02*
X150398690Y-108354761D01*
X150446309Y-108307142D01*
X150493928Y-108211904D01*
X150493928Y-107926190D01*
X150446309Y-107830952D01*
X150398690Y-107783333D01*
X150303452Y-107735714D01*
X150160595Y-107735714D01*
X150065357Y-107783333D01*
X150017738Y-107830952D01*
X149970119Y-107926190D01*
X149970119Y-108211904D01*
X150017738Y-108307142D01*
X150065357Y-108354761D01*
X150160595Y-108402380D01*
X150303452Y-108402380D01*
X149636785Y-107735714D02*
X149398690Y-108402380D01*
X149160595Y-107735714D02*
X149398690Y-108402380D01*
X149493928Y-108640476D01*
X149541547Y-108688095D01*
X149636785Y-108735714D01*
X148779642Y-107735714D02*
X148779642Y-108735714D01*
X148779642Y-107783333D02*
X148684404Y-107735714D01*
X148493928Y-107735714D01*
X148398690Y-107783333D01*
X148351071Y-107830952D01*
X148303452Y-107926190D01*
X148303452Y-108211904D01*
X148351071Y-108307142D01*
X148398690Y-108354761D01*
X148493928Y-108402380D01*
X148684404Y-108402380D01*
X148779642Y-108354761D01*
X147493928Y-108354761D02*
X147589166Y-108402380D01*
X147779642Y-108402380D01*
X147874880Y-108354761D01*
X147922500Y-108259523D01*
X147922500Y-107878571D01*
X147874880Y-107783333D01*
X147779642Y-107735714D01*
X147589166Y-107735714D01*
X147493928Y-107783333D01*
X147446309Y-107878571D01*
X147446309Y-107973809D01*
X147922500Y-108069047D01*
X146303452Y-107497619D02*
X146255833Y-107450000D01*
X146160595Y-107402380D01*
X145922500Y-107402380D01*
X145827261Y-107450000D01*
X145779642Y-107497619D01*
X145732023Y-107592857D01*
X145732023Y-107688095D01*
X145779642Y-107830952D01*
X146351071Y-108402380D01*
X145732023Y-108402380D01*
X145112976Y-107402380D02*
X145017738Y-107402380D01*
X144922500Y-107450000D01*
X144874880Y-107497619D01*
X144827261Y-107592857D01*
X144779642Y-107783333D01*
X144779642Y-108021428D01*
X144827261Y-108211904D01*
X144874880Y-108307142D01*
X144922500Y-108354761D01*
X145017738Y-108402380D01*
X145112976Y-108402380D01*
X145208214Y-108354761D01*
X145255833Y-108307142D01*
X145303452Y-108211904D01*
X145351071Y-108021428D01*
X145351071Y-107783333D01*
X145303452Y-107592857D01*
X145255833Y-107497619D01*
X145208214Y-107450000D01*
X145112976Y-107402380D01*
X144398690Y-107497619D02*
X144351071Y-107450000D01*
X144255833Y-107402380D01*
X144017738Y-107402380D01*
X143922500Y-107450000D01*
X143874880Y-107497619D01*
X143827261Y-107592857D01*
X143827261Y-107688095D01*
X143874880Y-107830952D01*
X144446309Y-108402380D01*
X143827261Y-108402380D01*
X143208214Y-107402380D02*
X143112976Y-107402380D01*
X143017738Y-107450000D01*
X142970119Y-107497619D01*
X142922500Y-107592857D01*
X142874880Y-107783333D01*
X142874880Y-108021428D01*
X142922500Y-108211904D01*
X142970119Y-108307142D01*
X143017738Y-108354761D01*
X143112976Y-108402380D01*
X143208214Y-108402380D01*
X143303452Y-108354761D01*
X143351071Y-108307142D01*
X143398690Y-108211904D01*
X143446309Y-108021428D01*
X143446309Y-107783333D01*
X143398690Y-107592857D01*
X143351071Y-107497619D01*
X143303452Y-107450000D01*
X143208214Y-107402380D01*
X142446309Y-108021428D02*
X141684404Y-108021428D01*
X141208214Y-108402380D02*
X141208214Y-107402380D01*
X140970119Y-107402380D01*
X140827261Y-107450000D01*
X140732023Y-107545238D01*
X140684404Y-107640476D01*
X140636785Y-107830952D01*
X140636785Y-107973809D01*
X140684404Y-108164285D01*
X140732023Y-108259523D01*
X140827261Y-108354761D01*
X140970119Y-108402380D01*
X141208214Y-108402380D01*
X139827261Y-108354761D02*
X139922500Y-108402380D01*
X140112976Y-108402380D01*
X140208214Y-108354761D01*
X140255833Y-108259523D01*
X140255833Y-107878571D01*
X140208214Y-107783333D01*
X140112976Y-107735714D01*
X139922500Y-107735714D01*
X139827261Y-107783333D01*
X139779642Y-107878571D01*
X139779642Y-107973809D01*
X140255833Y-108069047D01*
X138922500Y-108354761D02*
X139017738Y-108402380D01*
X139208214Y-108402380D01*
X139303452Y-108354761D01*
X139351071Y-108307142D01*
X139398690Y-108211904D01*
X139398690Y-107926190D01*
X139351071Y-107830952D01*
X139303452Y-107783333D01*
X139208214Y-107735714D01*
X139017738Y-107735714D01*
X138922500Y-107783333D01*
X138493928Y-108021428D02*
X137732023Y-108021428D01*
X136732023Y-108402380D02*
X137303452Y-108402380D01*
X137017738Y-108402380D02*
X137017738Y-107402380D01*
X137112976Y-107545238D01*
X137208214Y-107640476D01*
X137303452Y-107688095D01*
X136398690Y-107402380D02*
X135779642Y-107402380D01*
X136112976Y-107783333D01*
X135970119Y-107783333D01*
X135874880Y-107830952D01*
X135827261Y-107878571D01*
X135779642Y-107973809D01*
X135779642Y-108211904D01*
X135827261Y-108307142D01*
X135874880Y-108354761D01*
X135970119Y-108402380D01*
X136255833Y-108402380D01*
X136351071Y-108354761D01*
X136398690Y-108307142D01*
X159398690Y-110433333D02*
X159446309Y-110385714D01*
X159541547Y-110242857D01*
X159589166Y-110147619D01*
X159636785Y-110004761D01*
X159684404Y-109766666D01*
X159684404Y-109576190D01*
X159636785Y-109338095D01*
X159589166Y-109195238D01*
X159541547Y-109100000D01*
X159446309Y-108957142D01*
X159398690Y-108909523D01*
X158589166Y-110004761D02*
X158684404Y-110052380D01*
X158874880Y-110052380D01*
X158970119Y-110004761D01*
X159017738Y-109957142D01*
X159065357Y-109861904D01*
X159065357Y-109576190D01*
X159017738Y-109480952D01*
X158970119Y-109433333D01*
X158874880Y-109385714D01*
X158684404Y-109385714D01*
X158589166Y-109433333D01*
X158255833Y-110433333D02*
X158208214Y-110385714D01*
X158112976Y-110242857D01*
X158065357Y-110147619D01*
X158017738Y-110004761D01*
X157970119Y-109766666D01*
X157970119Y-109576190D01*
X158017738Y-109338095D01*
X158065357Y-109195238D01*
X158112976Y-109100000D01*
X158208214Y-108957142D01*
X158255833Y-108909523D01*
X157541547Y-109147619D02*
X157493928Y-109100000D01*
X157398690Y-109052380D01*
X157160595Y-109052380D01*
X157065357Y-109100000D01*
X157017738Y-109147619D01*
X156970119Y-109242857D01*
X156970119Y-109338095D01*
X157017738Y-109480952D01*
X157589166Y-110052380D01*
X156970119Y-110052380D01*
X156351071Y-109052380D02*
X156255833Y-109052380D01*
X156160595Y-109100000D01*
X156112976Y-109147619D01*
X156065357Y-109242857D01*
X156017738Y-109433333D01*
X156017738Y-109671428D01*
X156065357Y-109861904D01*
X156112976Y-109957142D01*
X156160595Y-110004761D01*
X156255833Y-110052380D01*
X156351071Y-110052380D01*
X156446309Y-110004761D01*
X156493928Y-109957142D01*
X156541547Y-109861904D01*
X156589166Y-109671428D01*
X156589166Y-109433333D01*
X156541547Y-109242857D01*
X156493928Y-109147619D01*
X156446309Y-109100000D01*
X156351071Y-109052380D01*
X155636785Y-109147619D02*
X155589166Y-109100000D01*
X155493928Y-109052380D01*
X155255833Y-109052380D01*
X155160595Y-109100000D01*
X155112976Y-109147619D01*
X155065357Y-109242857D01*
X155065357Y-109338095D01*
X155112976Y-109480952D01*
X155684404Y-110052380D01*
X155065357Y-110052380D01*
X154446309Y-109052380D02*
X154351071Y-109052380D01*
X154255833Y-109100000D01*
X154208214Y-109147619D01*
X154160595Y-109242857D01*
X154112976Y-109433333D01*
X154112976Y-109671428D01*
X154160595Y-109861904D01*
X154208214Y-109957142D01*
X154255833Y-110004761D01*
X154351071Y-110052380D01*
X154446309Y-110052380D01*
X154541547Y-110004761D01*
X154589166Y-109957142D01*
X154636785Y-109861904D01*
X154684404Y-109671428D01*
X154684404Y-109433333D01*
X154636785Y-109242857D01*
X154589166Y-109147619D01*
X154541547Y-109100000D01*
X154446309Y-109052380D01*
X153065357Y-109052380D02*
X152493928Y-109052380D01*
X152779642Y-110052380D02*
X152779642Y-109052380D01*
X151779642Y-110004761D02*
X151874880Y-110052380D01*
X152065357Y-110052380D01*
X152160595Y-110004761D01*
X152208214Y-109909523D01*
X152208214Y-109528571D01*
X152160595Y-109433333D01*
X152065357Y-109385714D01*
X151874880Y-109385714D01*
X151779642Y-109433333D01*
X151732023Y-109528571D01*
X151732023Y-109623809D01*
X152208214Y-109719047D01*
X151303452Y-110052380D02*
X151303452Y-109385714D01*
X151303452Y-109576190D02*
X151255833Y-109480952D01*
X151208214Y-109433333D01*
X151112976Y-109385714D01*
X151017738Y-109385714D01*
X150303452Y-110004761D02*
X150398690Y-110052380D01*
X150589166Y-110052380D01*
X150684404Y-110004761D01*
X150732023Y-109909523D01*
X150732023Y-109528571D01*
X150684404Y-109433333D01*
X150589166Y-109385714D01*
X150398690Y-109385714D01*
X150303452Y-109433333D01*
X150255833Y-109528571D01*
X150255833Y-109623809D01*
X150732023Y-109719047D01*
X149827261Y-109385714D02*
X149827261Y-110052380D01*
X149827261Y-109480952D02*
X149779642Y-109433333D01*
X149684404Y-109385714D01*
X149541547Y-109385714D01*
X149446309Y-109433333D01*
X149398690Y-109528571D01*
X149398690Y-110052380D01*
X148493928Y-110004761D02*
X148589166Y-110052380D01*
X148779642Y-110052380D01*
X148874880Y-110004761D01*
X148922500Y-109957142D01*
X148970119Y-109861904D01*
X148970119Y-109576190D01*
X148922500Y-109480952D01*
X148874880Y-109433333D01*
X148779642Y-109385714D01*
X148589166Y-109385714D01*
X148493928Y-109433333D01*
X147684404Y-110004761D02*
X147779642Y-110052380D01*
X147970119Y-110052380D01*
X148065357Y-110004761D01*
X148112976Y-109909523D01*
X148112976Y-109528571D01*
X148065357Y-109433333D01*
X147970119Y-109385714D01*
X147779642Y-109385714D01*
X147684404Y-109433333D01*
X147636785Y-109528571D01*
X147636785Y-109623809D01*
X148112976Y-109719047D01*
X146160595Y-109052380D02*
X146160595Y-109766666D01*
X146208214Y-109909523D01*
X146303452Y-110004761D01*
X146446309Y-110052380D01*
X146541547Y-110052380D01*
X145684404Y-109957142D02*
X145636785Y-110004761D01*
X145684404Y-110052380D01*
X145732023Y-110004761D01*
X145684404Y-109957142D01*
X145684404Y-110052380D01*
X144112976Y-109528571D02*
X143970119Y-109576190D01*
X143922500Y-109623809D01*
X143874880Y-109719047D01*
X143874880Y-109861904D01*
X143922500Y-109957142D01*
X143970119Y-110004761D01*
X144065357Y-110052380D01*
X144446309Y-110052380D01*
X144446309Y-109052380D01*
X144112976Y-109052380D01*
X144017738Y-109100000D01*
X143970119Y-109147619D01*
X143922500Y-109242857D01*
X143922500Y-109338095D01*
X143970119Y-109433333D01*
X144017738Y-109480952D01*
X144112976Y-109528571D01*
X144446309Y-109528571D01*
X143303452Y-110052380D02*
X143398690Y-110004761D01*
X143446309Y-109957142D01*
X143493928Y-109861904D01*
X143493928Y-109576190D01*
X143446309Y-109480952D01*
X143398690Y-109433333D01*
X143303452Y-109385714D01*
X143160595Y-109385714D01*
X143065357Y-109433333D01*
X143017738Y-109480952D01*
X142970119Y-109576190D01*
X142970119Y-109861904D01*
X143017738Y-109957142D01*
X143065357Y-110004761D01*
X143160595Y-110052380D01*
X143303452Y-110052380D01*
X142398690Y-110052380D02*
X142493928Y-110004761D01*
X142541547Y-109909523D01*
X142541547Y-109052380D01*
X141589166Y-110052380D02*
X141589166Y-109052380D01*
X141589166Y-110004761D02*
X141684404Y-110052380D01*
X141874880Y-110052380D01*
X141970119Y-110004761D01*
X142017738Y-109957142D01*
X142065357Y-109861904D01*
X142065357Y-109576190D01*
X142017738Y-109480952D01*
X141970119Y-109433333D01*
X141874880Y-109385714D01*
X141684404Y-109385714D01*
X141589166Y-109433333D01*
X141255833Y-109385714D02*
X140874880Y-109385714D01*
X141112976Y-109052380D02*
X141112976Y-109909523D01*
X141065357Y-110004761D01*
X140970119Y-110052380D01*
X140874880Y-110052380D01*
M02*
