G04 #@! TF.GenerationSoftware,KiCad,Pcbnew,(5.0.2)-1*
G04 #@! TF.CreationDate,2020-12-29T19:00:26-05:00*
G04 #@! TF.ProjectId,Apple2IORPi,4170706c-6532-4494-9f52-50692e6b6963,0.3*
G04 #@! TF.SameCoordinates,Original*
G04 #@! TF.FileFunction,Copper,L1,Top*
G04 #@! TF.FilePolarity,Positive*
%FSLAX46Y46*%
G04 Gerber Fmt 4.6, Leading zero omitted, Abs format (unit mm)*
G04 Created by KiCad (PCBNEW (5.0.2)-1) date 2020-12-29 19:00:26*
%MOMM*%
%LPD*%
G01*
G04 APERTURE LIST*
G04 #@! TA.AperFunction,ComponentPad*
%ADD10R,1.700000X1.700000*%
G04 #@! TD*
G04 #@! TA.AperFunction,ComponentPad*
%ADD11O,1.700000X1.700000*%
G04 #@! TD*
G04 #@! TA.AperFunction,ComponentPad*
%ADD12C,1.600000*%
G04 #@! TD*
G04 #@! TA.AperFunction,ComponentPad*
%ADD13O,1.600000X1.600000*%
G04 #@! TD*
G04 #@! TA.AperFunction,ComponentPad*
%ADD14R,1.600000X1.600000*%
G04 #@! TD*
G04 #@! TA.AperFunction,Conductor*
%ADD15C,0.100000*%
G04 #@! TD*
G04 #@! TA.AperFunction,ConnectorPad*
%ADD16C,1.270000*%
G04 #@! TD*
G04 #@! TA.AperFunction,ViaPad*
%ADD17C,0.762000*%
G04 #@! TD*
G04 #@! TA.AperFunction,Conductor*
%ADD18C,0.177800*%
G04 #@! TD*
G04 #@! TA.AperFunction,Conductor*
%ADD19C,0.812800*%
G04 #@! TD*
G04 #@! TA.AperFunction,Conductor*
%ADD20C,0.355600*%
G04 #@! TD*
G04 APERTURE END LIST*
D10*
G04 #@! TO.P,J1,1*
G04 #@! TO.N,Net-(C5-Pad1)*
X110490000Y-100584000D03*
D11*
G04 #@! TO.P,J1,2*
G04 #@! TO.N,Net-(C1-Pad1)*
X113030000Y-100584000D03*
G04 #@! TO.P,J1,3*
G04 #@! TO.N,Net-(J1-Pad3)*
X110490000Y-98044000D03*
G04 #@! TO.P,J1,4*
G04 #@! TO.N,Net-(C1-Pad1)*
X113030000Y-98044000D03*
G04 #@! TO.P,J1,5*
G04 #@! TO.N,Net-(J1-Pad5)*
X110490000Y-95504000D03*
G04 #@! TO.P,J1,6*
G04 #@! TO.N,Net-(C1-Pad2)*
X113030000Y-95504000D03*
G04 #@! TO.P,J1,7*
G04 #@! TO.N,Net-(J1-Pad7)*
X110490000Y-92964000D03*
G04 #@! TO.P,J1,8*
G04 #@! TO.N,Net-(J1-Pad8)*
X113030000Y-92964000D03*
G04 #@! TO.P,J1,9*
G04 #@! TO.N,Net-(C1-Pad2)*
X110490000Y-90424000D03*
G04 #@! TO.P,J1,10*
G04 #@! TO.N,Net-(J1-Pad10)*
X113030000Y-90424000D03*
G04 #@! TO.P,J1,11*
G04 #@! TO.N,Net-(J1-Pad11)*
X110490000Y-87884000D03*
G04 #@! TO.P,J1,12*
G04 #@! TO.N,Net-(J1-Pad12)*
X113030000Y-87884000D03*
G04 #@! TO.P,J1,13*
G04 #@! TO.N,Net-(J1-Pad13)*
X110490000Y-85344000D03*
G04 #@! TO.P,J1,14*
G04 #@! TO.N,Net-(C1-Pad2)*
X113030000Y-85344000D03*
G04 #@! TO.P,J1,15*
G04 #@! TO.N,Net-(J1-Pad15)*
X110490000Y-82804000D03*
G04 #@! TO.P,J1,16*
G04 #@! TO.N,Net-(J1-Pad16)*
X113030000Y-82804000D03*
G04 #@! TO.P,J1,17*
G04 #@! TO.N,Net-(C5-Pad1)*
X110490000Y-80264000D03*
G04 #@! TO.P,J1,18*
G04 #@! TO.N,Net-(J1-Pad18)*
X113030000Y-80264000D03*
G04 #@! TO.P,J1,19*
G04 #@! TO.N,Net-(J1-Pad19)*
X110490000Y-77724000D03*
G04 #@! TO.P,J1,20*
G04 #@! TO.N,Net-(C1-Pad2)*
X113030000Y-77724000D03*
G04 #@! TO.P,J1,21*
G04 #@! TO.N,Net-(J1-Pad21)*
X110490000Y-75184000D03*
G04 #@! TO.P,J1,22*
G04 #@! TO.N,Net-(J1-Pad22)*
X113030000Y-75184000D03*
G04 #@! TO.P,J1,23*
G04 #@! TO.N,Net-(J1-Pad23)*
X110490000Y-72644000D03*
G04 #@! TO.P,J1,24*
G04 #@! TO.N,Net-(J1-Pad24)*
X113030000Y-72644000D03*
G04 #@! TO.P,J1,25*
G04 #@! TO.N,Net-(C1-Pad2)*
X110490000Y-70104000D03*
G04 #@! TO.P,J1,26*
G04 #@! TO.N,Net-(J1-Pad26)*
X113030000Y-70104000D03*
G04 #@! TO.P,J1,27*
G04 #@! TO.N,Net-(J1-Pad27)*
X110490000Y-67564000D03*
G04 #@! TO.P,J1,28*
G04 #@! TO.N,Net-(J1-Pad28)*
X113030000Y-67564000D03*
G04 #@! TO.P,J1,29*
G04 #@! TO.N,Net-(J1-Pad29)*
X110490000Y-65024000D03*
G04 #@! TO.P,J1,30*
G04 #@! TO.N,Net-(C1-Pad2)*
X113030000Y-65024000D03*
G04 #@! TO.P,J1,31*
G04 #@! TO.N,Net-(J1-Pad31)*
X110490000Y-62484000D03*
G04 #@! TO.P,J1,32*
G04 #@! TO.N,Net-(J1-Pad32)*
X113030000Y-62484000D03*
G04 #@! TO.P,J1,33*
G04 #@! TO.N,Net-(J1-Pad33)*
X110490000Y-59944000D03*
G04 #@! TO.P,J1,34*
G04 #@! TO.N,Net-(C1-Pad2)*
X113030000Y-59944000D03*
G04 #@! TO.P,J1,35*
G04 #@! TO.N,Net-(J1-Pad35)*
X110490000Y-57404000D03*
G04 #@! TO.P,J1,36*
G04 #@! TO.N,Net-(J1-Pad36)*
X113030000Y-57404000D03*
G04 #@! TO.P,J1,37*
G04 #@! TO.N,Net-(J1-Pad37)*
X110490000Y-54864000D03*
G04 #@! TO.P,J1,38*
G04 #@! TO.N,Net-(J1-Pad38)*
X113030000Y-54864000D03*
G04 #@! TO.P,J1,39*
G04 #@! TO.N,Net-(C1-Pad2)*
X110490000Y-52324000D03*
G04 #@! TO.P,J1,40*
G04 #@! TO.N,Net-(J1-Pad40)*
X113030000Y-52324000D03*
G04 #@! TD*
D12*
G04 #@! TO.P,C6,1*
G04 #@! TO.N,Net-(C5-Pad1)*
X121285000Y-73065000D03*
G04 #@! TO.P,C6,2*
G04 #@! TO.N,Net-(C1-Pad2)*
X121285000Y-75565000D03*
G04 #@! TD*
G04 #@! TO.P,C5,1*
G04 #@! TO.N,Net-(C5-Pad1)*
X121285000Y-85765000D03*
G04 #@! TO.P,C5,2*
G04 #@! TO.N,Net-(C1-Pad2)*
X121285000Y-88265000D03*
G04 #@! TD*
G04 #@! TO.P,C1,1*
G04 #@! TO.N,Net-(C1-Pad1)*
X121285000Y-97830000D03*
G04 #@! TO.P,C1,2*
G04 #@! TO.N,Net-(C1-Pad2)*
X121285000Y-100330000D03*
G04 #@! TD*
G04 #@! TO.P,C4,1*
G04 #@! TO.N,Net-(C1-Pad1)*
X161290000Y-52705000D03*
G04 #@! TO.P,C4,2*
G04 #@! TO.N,Net-(C1-Pad2)*
X158790000Y-52705000D03*
G04 #@! TD*
G04 #@! TO.P,C3,1*
G04 #@! TO.N,Net-(C1-Pad1)*
X185851800Y-52705000D03*
G04 #@! TO.P,C3,2*
G04 #@! TO.N,Net-(C1-Pad2)*
X183351800Y-52705000D03*
G04 #@! TD*
G04 #@! TO.P,C2,1*
G04 #@! TO.N,Net-(C1-Pad1)*
X190500000Y-90170000D03*
G04 #@! TO.P,C2,2*
G04 #@! TO.N,Net-(C1-Pad2)*
X190500000Y-87670000D03*
G04 #@! TD*
G04 #@! TO.P,C7,1*
G04 #@! TO.N,Net-(C5-Pad1)*
X121285000Y-47625000D03*
G04 #@! TO.P,C7,2*
G04 #@! TO.N,Net-(C1-Pad2)*
X121285000Y-50125000D03*
G04 #@! TD*
G04 #@! TO.P,C8,1*
G04 #@! TO.N,Net-(C5-Pad1)*
X121285000Y-60325000D03*
G04 #@! TO.P,C8,2*
G04 #@! TO.N,Net-(C1-Pad2)*
X121285000Y-62825000D03*
G04 #@! TD*
G04 #@! TO.P,C9,1*
G04 #@! TO.N,Net-(C1-Pad1)*
X173990000Y-52705000D03*
G04 #@! TO.P,C9,2*
G04 #@! TO.N,Net-(C1-Pad2)*
X171490000Y-52705000D03*
G04 #@! TD*
D13*
G04 #@! TO.P,U8,14*
G04 #@! TO.N,Net-(C1-Pad1)*
X176326800Y-55168800D03*
G04 #@! TO.P,U8,7*
G04 #@! TO.N,Net-(C1-Pad2)*
X168706800Y-70408800D03*
G04 #@! TO.P,U8,13*
G04 #@! TO.N,Net-(J0-Pad5)*
X176326800Y-57708800D03*
G04 #@! TO.P,U8,6*
G04 #@! TO.N,Net-(U7-Pad11)*
X168706800Y-67868800D03*
G04 #@! TO.P,U8,12*
G04 #@! TO.N,Net-(U2-Pad8)*
X176326800Y-60248800D03*
G04 #@! TO.P,U8,5*
G04 #@! TO.N,Net-(U8-Pad11)*
X168706800Y-65328800D03*
G04 #@! TO.P,U8,11*
X176326800Y-62788800D03*
G04 #@! TO.P,U8,4*
G04 #@! TO.N,Net-(J0-Pad41)*
X168706800Y-62788800D03*
G04 #@! TO.P,U8,10*
G04 #@! TO.N,Net-(J0-Pad4)*
X176326800Y-65328800D03*
G04 #@! TO.P,U8,3*
G04 #@! TO.N,Net-(U6-Pad19)*
X168706800Y-60248800D03*
G04 #@! TO.P,U8,9*
G04 #@! TO.N,Net-(U0-Pad1)*
X176326800Y-67868800D03*
G04 #@! TO.P,U8,2*
G04 #@! TO.N,Net-(U8-Pad2)*
X168706800Y-57708800D03*
G04 #@! TO.P,U8,8*
X176326800Y-70408800D03*
D14*
G04 #@! TO.P,U8,1*
G04 #@! TO.N,Net-(J0-Pad41)*
X168706800Y-55168800D03*
G04 #@! TD*
D13*
G04 #@! TO.P,U6,20*
G04 #@! TO.N,Net-(C5-Pad1)*
X123825000Y-45085000D03*
G04 #@! TO.P,U6,10*
G04 #@! TO.N,Net-(C1-Pad2)*
X146685000Y-52705000D03*
G04 #@! TO.P,U6,19*
G04 #@! TO.N,Net-(U6-Pad19)*
X126365000Y-45085000D03*
G04 #@! TO.P,U6,9*
G04 #@! TO.N,Net-(U0-Pad11)*
X144145000Y-52705000D03*
G04 #@! TO.P,U6,18*
G04 #@! TO.N,Net-(J1-Pad26)*
X128905000Y-45085000D03*
G04 #@! TO.P,U6,8*
G04 #@! TO.N,Net-(U0-Pad12)*
X141605000Y-52705000D03*
G04 #@! TO.P,U6,17*
G04 #@! TO.N,Net-(J1-Pad24)*
X131445000Y-45085000D03*
G04 #@! TO.P,U6,7*
G04 #@! TO.N,Net-(U0-Pad13)*
X139065000Y-52705000D03*
G04 #@! TO.P,U6,16*
G04 #@! TO.N,Net-(J1-Pad22)*
X133985000Y-45085000D03*
G04 #@! TO.P,U6,6*
G04 #@! TO.N,Net-(U0-Pad14)*
X136525000Y-52705000D03*
G04 #@! TO.P,U6,15*
G04 #@! TO.N,Net-(J1-Pad18)*
X136525000Y-45085000D03*
G04 #@! TO.P,U6,5*
G04 #@! TO.N,Net-(U0-Pad15)*
X133985000Y-52705000D03*
G04 #@! TO.P,U6,14*
G04 #@! TO.N,Net-(J1-Pad26)*
X139065000Y-45085000D03*
G04 #@! TO.P,U6,4*
G04 #@! TO.N,Net-(U0-Pad16)*
X131445000Y-52705000D03*
G04 #@! TO.P,U6,13*
G04 #@! TO.N,Net-(J1-Pad24)*
X141605000Y-45085000D03*
G04 #@! TO.P,U6,3*
G04 #@! TO.N,Net-(U0-Pad17)*
X128905000Y-52705000D03*
G04 #@! TO.P,U6,12*
G04 #@! TO.N,Net-(J1-Pad22)*
X144145000Y-45085000D03*
G04 #@! TO.P,U6,2*
G04 #@! TO.N,Net-(U0-Pad18)*
X126365000Y-52705000D03*
G04 #@! TO.P,U6,11*
G04 #@! TO.N,Net-(J1-Pad18)*
X146685000Y-45085000D03*
D14*
G04 #@! TO.P,U6,1*
G04 #@! TO.N,Net-(C1-Pad2)*
X123825000Y-52705000D03*
G04 #@! TD*
G04 #@! TO.P,U7,1*
G04 #@! TO.N,Net-(C1-Pad2)*
X123825000Y-65405000D03*
D13*
G04 #@! TO.P,U7,11*
G04 #@! TO.N,Net-(U7-Pad11)*
X146685000Y-57785000D03*
G04 #@! TO.P,U7,2*
G04 #@! TO.N,Net-(J1-Pad16)*
X126365000Y-65405000D03*
G04 #@! TO.P,U7,12*
G04 #@! TO.N,Net-(U1-Pad23)*
X144145000Y-57785000D03*
G04 #@! TO.P,U7,3*
G04 #@! TO.N,Net-(U0-Pad18)*
X128905000Y-65405000D03*
G04 #@! TO.P,U7,13*
G04 #@! TO.N,Net-(U0-Pad14)*
X141605000Y-57785000D03*
G04 #@! TO.P,U7,4*
G04 #@! TO.N,Net-(U0-Pad17)*
X131445000Y-65405000D03*
G04 #@! TO.P,U7,14*
G04 #@! TO.N,Net-(U0-Pad13)*
X139065000Y-57785000D03*
G04 #@! TO.P,U7,5*
G04 #@! TO.N,Net-(J1-Pad12)*
X133985000Y-65405000D03*
G04 #@! TO.P,U7,15*
G04 #@! TO.N,Net-(U1-Pad2)*
X136525000Y-57785000D03*
G04 #@! TO.P,U7,6*
G04 #@! TO.N,Net-(J1-Pad10)*
X136525000Y-65405000D03*
G04 #@! TO.P,U7,16*
G04 #@! TO.N,Net-(U1-Pad26)*
X133985000Y-57785000D03*
G04 #@! TO.P,U7,7*
G04 #@! TO.N,Net-(U0-Pad16)*
X139065000Y-65405000D03*
G04 #@! TO.P,U7,17*
G04 #@! TO.N,Net-(U0-Pad12)*
X131445000Y-57785000D03*
G04 #@! TO.P,U7,8*
G04 #@! TO.N,Net-(U0-Pad15)*
X141605000Y-65405000D03*
G04 #@! TO.P,U7,18*
G04 #@! TO.N,Net-(U0-Pad11)*
X128905000Y-57785000D03*
G04 #@! TO.P,U7,9*
G04 #@! TO.N,Net-(J1-Pad8)*
X144145000Y-65405000D03*
G04 #@! TO.P,U7,19*
G04 #@! TO.N,Net-(U1-Pad27)*
X126365000Y-57785000D03*
G04 #@! TO.P,U7,10*
G04 #@! TO.N,Net-(C1-Pad2)*
X146685000Y-65405000D03*
G04 #@! TO.P,U7,20*
G04 #@! TO.N,Net-(C5-Pad1)*
X123825000Y-57785000D03*
G04 #@! TD*
D14*
G04 #@! TO.P,U1,1*
G04 #@! TO.N,Net-(C1-Pad1)*
X187101925Y-81586962D03*
D13*
G04 #@! TO.P,U1,15*
G04 #@! TO.N,Net-(U0-Pad15)*
X154081925Y-96826962D03*
G04 #@! TO.P,U1,2*
G04 #@! TO.N,Net-(U1-Pad2)*
X184561925Y-81586962D03*
G04 #@! TO.P,U1,16*
G04 #@! TO.N,Net-(U0-Pad14)*
X156621925Y-96826962D03*
G04 #@! TO.P,U1,3*
G04 #@! TO.N,Net-(J0-Pad9)*
X182021925Y-81586962D03*
G04 #@! TO.P,U1,17*
G04 #@! TO.N,Net-(U0-Pad13)*
X159161925Y-96826962D03*
G04 #@! TO.P,U1,4*
G04 #@! TO.N,Net-(J0-Pad8)*
X179481925Y-81586962D03*
G04 #@! TO.P,U1,18*
G04 #@! TO.N,Net-(U0-Pad12)*
X161701925Y-96826962D03*
G04 #@! TO.P,U1,5*
G04 #@! TO.N,Net-(J0-Pad7)*
X176941925Y-81586962D03*
G04 #@! TO.P,U1,19*
G04 #@! TO.N,Net-(U0-Pad11)*
X164241925Y-96826962D03*
G04 #@! TO.P,U1,6*
G04 #@! TO.N,Net-(J0-Pad6)*
X174401925Y-81586962D03*
G04 #@! TO.P,U1,20*
G04 #@! TO.N,Net-(J0-Pad1)*
X166781925Y-96826962D03*
G04 #@! TO.P,U1,7*
G04 #@! TO.N,Net-(J0-Pad5)*
X171861925Y-81586962D03*
G04 #@! TO.P,U1,21*
G04 #@! TO.N,Net-(J0-Pad12)*
X169321925Y-96826962D03*
G04 #@! TO.P,U1,8*
G04 #@! TO.N,Net-(J0-Pad4)*
X169321925Y-81586962D03*
G04 #@! TO.P,U1,22*
G04 #@! TO.N,Net-(J0-Pad1)*
X171861925Y-96826962D03*
G04 #@! TO.P,U1,9*
G04 #@! TO.N,Net-(J0-Pad3)*
X166781925Y-81586962D03*
G04 #@! TO.P,U1,23*
G04 #@! TO.N,Net-(U1-Pad23)*
X174401925Y-96826962D03*
G04 #@! TO.P,U1,10*
G04 #@! TO.N,Net-(J0-Pad2)*
X164241925Y-81586962D03*
G04 #@! TO.P,U1,24*
G04 #@! TO.N,Net-(J0-Pad11)*
X176941925Y-96826962D03*
G04 #@! TO.P,U1,11*
G04 #@! TO.N,Net-(U0-Pad18)*
X161701925Y-81586962D03*
G04 #@! TO.P,U1,25*
G04 #@! TO.N,Net-(J0-Pad10)*
X179481925Y-96826962D03*
G04 #@! TO.P,U1,12*
G04 #@! TO.N,Net-(U0-Pad17)*
X159161925Y-81586962D03*
G04 #@! TO.P,U1,26*
G04 #@! TO.N,Net-(U1-Pad26)*
X182021925Y-96826962D03*
G04 #@! TO.P,U1,13*
G04 #@! TO.N,Net-(U0-Pad16)*
X156621925Y-81586962D03*
G04 #@! TO.P,U1,27*
G04 #@! TO.N,Net-(U1-Pad27)*
X184561925Y-96826962D03*
G04 #@! TO.P,U1,14*
G04 #@! TO.N,Net-(C1-Pad2)*
X154081925Y-81586962D03*
G04 #@! TO.P,U1,28*
G04 #@! TO.N,Net-(C1-Pad1)*
X187101925Y-96826962D03*
G04 #@! TD*
D15*
G04 #@! TO.N,Net-(C1-Pad1)*
G04 #@! TO.C,J0*
G36*
X185843621Y-111761529D02*
X185874442Y-111766101D01*
X185904666Y-111773671D01*
X185934003Y-111784168D01*
X185962169Y-111797490D01*
X185988895Y-111813508D01*
X186013921Y-111832069D01*
X186037007Y-111852994D01*
X186057932Y-111876080D01*
X186076493Y-111901106D01*
X186092511Y-111927832D01*
X186105833Y-111955998D01*
X186116330Y-111985335D01*
X186123900Y-112015559D01*
X186128472Y-112046380D01*
X186130001Y-112077500D01*
X186130001Y-119062500D01*
X186128472Y-119093620D01*
X186123900Y-119124441D01*
X186116330Y-119154665D01*
X186105833Y-119184002D01*
X186092511Y-119212168D01*
X186076493Y-119238894D01*
X186057932Y-119263920D01*
X186037007Y-119287006D01*
X186013921Y-119307931D01*
X185988895Y-119326492D01*
X185962169Y-119342510D01*
X185934003Y-119355832D01*
X185904666Y-119366329D01*
X185874442Y-119373899D01*
X185843621Y-119378471D01*
X185812501Y-119380000D01*
X185177501Y-119380000D01*
X185146381Y-119378471D01*
X185115560Y-119373899D01*
X185085336Y-119366329D01*
X185055999Y-119355832D01*
X185027833Y-119342510D01*
X185001107Y-119326492D01*
X184976081Y-119307931D01*
X184952995Y-119287006D01*
X184932070Y-119263920D01*
X184913509Y-119238894D01*
X184897491Y-119212168D01*
X184884169Y-119184002D01*
X184873672Y-119154665D01*
X184866102Y-119124441D01*
X184861530Y-119093620D01*
X184860001Y-119062500D01*
X184860001Y-112077500D01*
X184861530Y-112046380D01*
X184866102Y-112015559D01*
X184873672Y-111985335D01*
X184884169Y-111955998D01*
X184897491Y-111927832D01*
X184913509Y-111901106D01*
X184932070Y-111876080D01*
X184952995Y-111852994D01*
X184976081Y-111832069D01*
X185001107Y-111813508D01*
X185027833Y-111797490D01*
X185055999Y-111784168D01*
X185085336Y-111773671D01*
X185115560Y-111766101D01*
X185146381Y-111761529D01*
X185177501Y-111760000D01*
X185812501Y-111760000D01*
X185843621Y-111761529D01*
X185843621Y-111761529D01*
G37*
D16*
G04 #@! TD*
G04 #@! TO.P,J0,25*
G04 #@! TO.N,Net-(C1-Pad1)*
X185495001Y-115570000D03*
D15*
G04 #@! TO.N,Net-(J0-Pad24)*
G04 #@! TO.C,J0*
G36*
X183303621Y-111761529D02*
X183334442Y-111766101D01*
X183364666Y-111773671D01*
X183394003Y-111784168D01*
X183422169Y-111797490D01*
X183448895Y-111813508D01*
X183473921Y-111832069D01*
X183497007Y-111852994D01*
X183517932Y-111876080D01*
X183536493Y-111901106D01*
X183552511Y-111927832D01*
X183565833Y-111955998D01*
X183576330Y-111985335D01*
X183583900Y-112015559D01*
X183588472Y-112046380D01*
X183590001Y-112077500D01*
X183590001Y-119062500D01*
X183588472Y-119093620D01*
X183583900Y-119124441D01*
X183576330Y-119154665D01*
X183565833Y-119184002D01*
X183552511Y-119212168D01*
X183536493Y-119238894D01*
X183517932Y-119263920D01*
X183497007Y-119287006D01*
X183473921Y-119307931D01*
X183448895Y-119326492D01*
X183422169Y-119342510D01*
X183394003Y-119355832D01*
X183364666Y-119366329D01*
X183334442Y-119373899D01*
X183303621Y-119378471D01*
X183272501Y-119380000D01*
X182637501Y-119380000D01*
X182606381Y-119378471D01*
X182575560Y-119373899D01*
X182545336Y-119366329D01*
X182515999Y-119355832D01*
X182487833Y-119342510D01*
X182461107Y-119326492D01*
X182436081Y-119307931D01*
X182412995Y-119287006D01*
X182392070Y-119263920D01*
X182373509Y-119238894D01*
X182357491Y-119212168D01*
X182344169Y-119184002D01*
X182333672Y-119154665D01*
X182326102Y-119124441D01*
X182321530Y-119093620D01*
X182320001Y-119062500D01*
X182320001Y-112077500D01*
X182321530Y-112046380D01*
X182326102Y-112015559D01*
X182333672Y-111985335D01*
X182344169Y-111955998D01*
X182357491Y-111927832D01*
X182373509Y-111901106D01*
X182392070Y-111876080D01*
X182412995Y-111852994D01*
X182436081Y-111832069D01*
X182461107Y-111813508D01*
X182487833Y-111797490D01*
X182515999Y-111784168D01*
X182545336Y-111773671D01*
X182575560Y-111766101D01*
X182606381Y-111761529D01*
X182637501Y-111760000D01*
X183272501Y-111760000D01*
X183303621Y-111761529D01*
X183303621Y-111761529D01*
G37*
D16*
G04 #@! TD*
G04 #@! TO.P,J0,24*
G04 #@! TO.N,Net-(J0-Pad24)*
X182955001Y-115570000D03*
D15*
G04 #@! TO.N,Net-(J0-Pad23)*
G04 #@! TO.C,J0*
G36*
X180763621Y-111761529D02*
X180794442Y-111766101D01*
X180824666Y-111773671D01*
X180854003Y-111784168D01*
X180882169Y-111797490D01*
X180908895Y-111813508D01*
X180933921Y-111832069D01*
X180957007Y-111852994D01*
X180977932Y-111876080D01*
X180996493Y-111901106D01*
X181012511Y-111927832D01*
X181025833Y-111955998D01*
X181036330Y-111985335D01*
X181043900Y-112015559D01*
X181048472Y-112046380D01*
X181050001Y-112077500D01*
X181050001Y-119062500D01*
X181048472Y-119093620D01*
X181043900Y-119124441D01*
X181036330Y-119154665D01*
X181025833Y-119184002D01*
X181012511Y-119212168D01*
X180996493Y-119238894D01*
X180977932Y-119263920D01*
X180957007Y-119287006D01*
X180933921Y-119307931D01*
X180908895Y-119326492D01*
X180882169Y-119342510D01*
X180854003Y-119355832D01*
X180824666Y-119366329D01*
X180794442Y-119373899D01*
X180763621Y-119378471D01*
X180732501Y-119380000D01*
X180097501Y-119380000D01*
X180066381Y-119378471D01*
X180035560Y-119373899D01*
X180005336Y-119366329D01*
X179975999Y-119355832D01*
X179947833Y-119342510D01*
X179921107Y-119326492D01*
X179896081Y-119307931D01*
X179872995Y-119287006D01*
X179852070Y-119263920D01*
X179833509Y-119238894D01*
X179817491Y-119212168D01*
X179804169Y-119184002D01*
X179793672Y-119154665D01*
X179786102Y-119124441D01*
X179781530Y-119093620D01*
X179780001Y-119062500D01*
X179780001Y-112077500D01*
X179781530Y-112046380D01*
X179786102Y-112015559D01*
X179793672Y-111985335D01*
X179804169Y-111955998D01*
X179817491Y-111927832D01*
X179833509Y-111901106D01*
X179852070Y-111876080D01*
X179872995Y-111852994D01*
X179896081Y-111832069D01*
X179921107Y-111813508D01*
X179947833Y-111797490D01*
X179975999Y-111784168D01*
X180005336Y-111773671D01*
X180035560Y-111766101D01*
X180066381Y-111761529D01*
X180097501Y-111760000D01*
X180732501Y-111760000D01*
X180763621Y-111761529D01*
X180763621Y-111761529D01*
G37*
D16*
G04 #@! TD*
G04 #@! TO.P,J0,23*
G04 #@! TO.N,Net-(J0-Pad23)*
X180415001Y-115570000D03*
D15*
G04 #@! TO.N,Net-(J0-Pad22)*
G04 #@! TO.C,J0*
G36*
X178223621Y-111761529D02*
X178254442Y-111766101D01*
X178284666Y-111773671D01*
X178314003Y-111784168D01*
X178342169Y-111797490D01*
X178368895Y-111813508D01*
X178393921Y-111832069D01*
X178417007Y-111852994D01*
X178437932Y-111876080D01*
X178456493Y-111901106D01*
X178472511Y-111927832D01*
X178485833Y-111955998D01*
X178496330Y-111985335D01*
X178503900Y-112015559D01*
X178508472Y-112046380D01*
X178510001Y-112077500D01*
X178510001Y-119062500D01*
X178508472Y-119093620D01*
X178503900Y-119124441D01*
X178496330Y-119154665D01*
X178485833Y-119184002D01*
X178472511Y-119212168D01*
X178456493Y-119238894D01*
X178437932Y-119263920D01*
X178417007Y-119287006D01*
X178393921Y-119307931D01*
X178368895Y-119326492D01*
X178342169Y-119342510D01*
X178314003Y-119355832D01*
X178284666Y-119366329D01*
X178254442Y-119373899D01*
X178223621Y-119378471D01*
X178192501Y-119380000D01*
X177557501Y-119380000D01*
X177526381Y-119378471D01*
X177495560Y-119373899D01*
X177465336Y-119366329D01*
X177435999Y-119355832D01*
X177407833Y-119342510D01*
X177381107Y-119326492D01*
X177356081Y-119307931D01*
X177332995Y-119287006D01*
X177312070Y-119263920D01*
X177293509Y-119238894D01*
X177277491Y-119212168D01*
X177264169Y-119184002D01*
X177253672Y-119154665D01*
X177246102Y-119124441D01*
X177241530Y-119093620D01*
X177240001Y-119062500D01*
X177240001Y-112077500D01*
X177241530Y-112046380D01*
X177246102Y-112015559D01*
X177253672Y-111985335D01*
X177264169Y-111955998D01*
X177277491Y-111927832D01*
X177293509Y-111901106D01*
X177312070Y-111876080D01*
X177332995Y-111852994D01*
X177356081Y-111832069D01*
X177381107Y-111813508D01*
X177407833Y-111797490D01*
X177435999Y-111784168D01*
X177465336Y-111773671D01*
X177495560Y-111766101D01*
X177526381Y-111761529D01*
X177557501Y-111760000D01*
X178192501Y-111760000D01*
X178223621Y-111761529D01*
X178223621Y-111761529D01*
G37*
D16*
G04 #@! TD*
G04 #@! TO.P,J0,22*
G04 #@! TO.N,Net-(J0-Pad22)*
X177875001Y-115570000D03*
D15*
G04 #@! TO.N,Net-(J0-Pad21)*
G04 #@! TO.C,J0*
G36*
X175683621Y-111761529D02*
X175714442Y-111766101D01*
X175744666Y-111773671D01*
X175774003Y-111784168D01*
X175802169Y-111797490D01*
X175828895Y-111813508D01*
X175853921Y-111832069D01*
X175877007Y-111852994D01*
X175897932Y-111876080D01*
X175916493Y-111901106D01*
X175932511Y-111927832D01*
X175945833Y-111955998D01*
X175956330Y-111985335D01*
X175963900Y-112015559D01*
X175968472Y-112046380D01*
X175970001Y-112077500D01*
X175970001Y-119062500D01*
X175968472Y-119093620D01*
X175963900Y-119124441D01*
X175956330Y-119154665D01*
X175945833Y-119184002D01*
X175932511Y-119212168D01*
X175916493Y-119238894D01*
X175897932Y-119263920D01*
X175877007Y-119287006D01*
X175853921Y-119307931D01*
X175828895Y-119326492D01*
X175802169Y-119342510D01*
X175774003Y-119355832D01*
X175744666Y-119366329D01*
X175714442Y-119373899D01*
X175683621Y-119378471D01*
X175652501Y-119380000D01*
X175017501Y-119380000D01*
X174986381Y-119378471D01*
X174955560Y-119373899D01*
X174925336Y-119366329D01*
X174895999Y-119355832D01*
X174867833Y-119342510D01*
X174841107Y-119326492D01*
X174816081Y-119307931D01*
X174792995Y-119287006D01*
X174772070Y-119263920D01*
X174753509Y-119238894D01*
X174737491Y-119212168D01*
X174724169Y-119184002D01*
X174713672Y-119154665D01*
X174706102Y-119124441D01*
X174701530Y-119093620D01*
X174700001Y-119062500D01*
X174700001Y-112077500D01*
X174701530Y-112046380D01*
X174706102Y-112015559D01*
X174713672Y-111985335D01*
X174724169Y-111955998D01*
X174737491Y-111927832D01*
X174753509Y-111901106D01*
X174772070Y-111876080D01*
X174792995Y-111852994D01*
X174816081Y-111832069D01*
X174841107Y-111813508D01*
X174867833Y-111797490D01*
X174895999Y-111784168D01*
X174925336Y-111773671D01*
X174955560Y-111766101D01*
X174986381Y-111761529D01*
X175017501Y-111760000D01*
X175652501Y-111760000D01*
X175683621Y-111761529D01*
X175683621Y-111761529D01*
G37*
D16*
G04 #@! TD*
G04 #@! TO.P,J0,21*
G04 #@! TO.N,Net-(J0-Pad21)*
X175335001Y-115570000D03*
D15*
G04 #@! TO.N,Net-(J0-Pad20)*
G04 #@! TO.C,J0*
G36*
X173143621Y-111761529D02*
X173174442Y-111766101D01*
X173204666Y-111773671D01*
X173234003Y-111784168D01*
X173262169Y-111797490D01*
X173288895Y-111813508D01*
X173313921Y-111832069D01*
X173337007Y-111852994D01*
X173357932Y-111876080D01*
X173376493Y-111901106D01*
X173392511Y-111927832D01*
X173405833Y-111955998D01*
X173416330Y-111985335D01*
X173423900Y-112015559D01*
X173428472Y-112046380D01*
X173430001Y-112077500D01*
X173430001Y-119062500D01*
X173428472Y-119093620D01*
X173423900Y-119124441D01*
X173416330Y-119154665D01*
X173405833Y-119184002D01*
X173392511Y-119212168D01*
X173376493Y-119238894D01*
X173357932Y-119263920D01*
X173337007Y-119287006D01*
X173313921Y-119307931D01*
X173288895Y-119326492D01*
X173262169Y-119342510D01*
X173234003Y-119355832D01*
X173204666Y-119366329D01*
X173174442Y-119373899D01*
X173143621Y-119378471D01*
X173112501Y-119380000D01*
X172477501Y-119380000D01*
X172446381Y-119378471D01*
X172415560Y-119373899D01*
X172385336Y-119366329D01*
X172355999Y-119355832D01*
X172327833Y-119342510D01*
X172301107Y-119326492D01*
X172276081Y-119307931D01*
X172252995Y-119287006D01*
X172232070Y-119263920D01*
X172213509Y-119238894D01*
X172197491Y-119212168D01*
X172184169Y-119184002D01*
X172173672Y-119154665D01*
X172166102Y-119124441D01*
X172161530Y-119093620D01*
X172160001Y-119062500D01*
X172160001Y-112077500D01*
X172161530Y-112046380D01*
X172166102Y-112015559D01*
X172173672Y-111985335D01*
X172184169Y-111955998D01*
X172197491Y-111927832D01*
X172213509Y-111901106D01*
X172232070Y-111876080D01*
X172252995Y-111852994D01*
X172276081Y-111832069D01*
X172301107Y-111813508D01*
X172327833Y-111797490D01*
X172355999Y-111784168D01*
X172385336Y-111773671D01*
X172415560Y-111766101D01*
X172446381Y-111761529D01*
X172477501Y-111760000D01*
X173112501Y-111760000D01*
X173143621Y-111761529D01*
X173143621Y-111761529D01*
G37*
D16*
G04 #@! TD*
G04 #@! TO.P,J0,20*
G04 #@! TO.N,Net-(J0-Pad20)*
X172795001Y-115570000D03*
D15*
G04 #@! TO.N,Net-(J0-Pad19)*
G04 #@! TO.C,J0*
G36*
X170603621Y-111761529D02*
X170634442Y-111766101D01*
X170664666Y-111773671D01*
X170694003Y-111784168D01*
X170722169Y-111797490D01*
X170748895Y-111813508D01*
X170773921Y-111832069D01*
X170797007Y-111852994D01*
X170817932Y-111876080D01*
X170836493Y-111901106D01*
X170852511Y-111927832D01*
X170865833Y-111955998D01*
X170876330Y-111985335D01*
X170883900Y-112015559D01*
X170888472Y-112046380D01*
X170890001Y-112077500D01*
X170890001Y-119062500D01*
X170888472Y-119093620D01*
X170883900Y-119124441D01*
X170876330Y-119154665D01*
X170865833Y-119184002D01*
X170852511Y-119212168D01*
X170836493Y-119238894D01*
X170817932Y-119263920D01*
X170797007Y-119287006D01*
X170773921Y-119307931D01*
X170748895Y-119326492D01*
X170722169Y-119342510D01*
X170694003Y-119355832D01*
X170664666Y-119366329D01*
X170634442Y-119373899D01*
X170603621Y-119378471D01*
X170572501Y-119380000D01*
X169937501Y-119380000D01*
X169906381Y-119378471D01*
X169875560Y-119373899D01*
X169845336Y-119366329D01*
X169815999Y-119355832D01*
X169787833Y-119342510D01*
X169761107Y-119326492D01*
X169736081Y-119307931D01*
X169712995Y-119287006D01*
X169692070Y-119263920D01*
X169673509Y-119238894D01*
X169657491Y-119212168D01*
X169644169Y-119184002D01*
X169633672Y-119154665D01*
X169626102Y-119124441D01*
X169621530Y-119093620D01*
X169620001Y-119062500D01*
X169620001Y-112077500D01*
X169621530Y-112046380D01*
X169626102Y-112015559D01*
X169633672Y-111985335D01*
X169644169Y-111955998D01*
X169657491Y-111927832D01*
X169673509Y-111901106D01*
X169692070Y-111876080D01*
X169712995Y-111852994D01*
X169736081Y-111832069D01*
X169761107Y-111813508D01*
X169787833Y-111797490D01*
X169815999Y-111784168D01*
X169845336Y-111773671D01*
X169875560Y-111766101D01*
X169906381Y-111761529D01*
X169937501Y-111760000D01*
X170572501Y-111760000D01*
X170603621Y-111761529D01*
X170603621Y-111761529D01*
G37*
D16*
G04 #@! TD*
G04 #@! TO.P,J0,19*
G04 #@! TO.N,Net-(J0-Pad19)*
X170255001Y-115570000D03*
D15*
G04 #@! TO.N,Net-(J0-Pad18)*
G04 #@! TO.C,J0*
G36*
X168063621Y-111761529D02*
X168094442Y-111766101D01*
X168124666Y-111773671D01*
X168154003Y-111784168D01*
X168182169Y-111797490D01*
X168208895Y-111813508D01*
X168233921Y-111832069D01*
X168257007Y-111852994D01*
X168277932Y-111876080D01*
X168296493Y-111901106D01*
X168312511Y-111927832D01*
X168325833Y-111955998D01*
X168336330Y-111985335D01*
X168343900Y-112015559D01*
X168348472Y-112046380D01*
X168350001Y-112077500D01*
X168350001Y-119062500D01*
X168348472Y-119093620D01*
X168343900Y-119124441D01*
X168336330Y-119154665D01*
X168325833Y-119184002D01*
X168312511Y-119212168D01*
X168296493Y-119238894D01*
X168277932Y-119263920D01*
X168257007Y-119287006D01*
X168233921Y-119307931D01*
X168208895Y-119326492D01*
X168182169Y-119342510D01*
X168154003Y-119355832D01*
X168124666Y-119366329D01*
X168094442Y-119373899D01*
X168063621Y-119378471D01*
X168032501Y-119380000D01*
X167397501Y-119380000D01*
X167366381Y-119378471D01*
X167335560Y-119373899D01*
X167305336Y-119366329D01*
X167275999Y-119355832D01*
X167247833Y-119342510D01*
X167221107Y-119326492D01*
X167196081Y-119307931D01*
X167172995Y-119287006D01*
X167152070Y-119263920D01*
X167133509Y-119238894D01*
X167117491Y-119212168D01*
X167104169Y-119184002D01*
X167093672Y-119154665D01*
X167086102Y-119124441D01*
X167081530Y-119093620D01*
X167080001Y-119062500D01*
X167080001Y-112077500D01*
X167081530Y-112046380D01*
X167086102Y-112015559D01*
X167093672Y-111985335D01*
X167104169Y-111955998D01*
X167117491Y-111927832D01*
X167133509Y-111901106D01*
X167152070Y-111876080D01*
X167172995Y-111852994D01*
X167196081Y-111832069D01*
X167221107Y-111813508D01*
X167247833Y-111797490D01*
X167275999Y-111784168D01*
X167305336Y-111773671D01*
X167335560Y-111766101D01*
X167366381Y-111761529D01*
X167397501Y-111760000D01*
X168032501Y-111760000D01*
X168063621Y-111761529D01*
X168063621Y-111761529D01*
G37*
D16*
G04 #@! TD*
G04 #@! TO.P,J0,18*
G04 #@! TO.N,Net-(J0-Pad18)*
X167715001Y-115570000D03*
D15*
G04 #@! TO.N,Net-(J0-Pad17)*
G04 #@! TO.C,J0*
G36*
X165523621Y-111761529D02*
X165554442Y-111766101D01*
X165584666Y-111773671D01*
X165614003Y-111784168D01*
X165642169Y-111797490D01*
X165668895Y-111813508D01*
X165693921Y-111832069D01*
X165717007Y-111852994D01*
X165737932Y-111876080D01*
X165756493Y-111901106D01*
X165772511Y-111927832D01*
X165785833Y-111955998D01*
X165796330Y-111985335D01*
X165803900Y-112015559D01*
X165808472Y-112046380D01*
X165810001Y-112077500D01*
X165810001Y-119062500D01*
X165808472Y-119093620D01*
X165803900Y-119124441D01*
X165796330Y-119154665D01*
X165785833Y-119184002D01*
X165772511Y-119212168D01*
X165756493Y-119238894D01*
X165737932Y-119263920D01*
X165717007Y-119287006D01*
X165693921Y-119307931D01*
X165668895Y-119326492D01*
X165642169Y-119342510D01*
X165614003Y-119355832D01*
X165584666Y-119366329D01*
X165554442Y-119373899D01*
X165523621Y-119378471D01*
X165492501Y-119380000D01*
X164857501Y-119380000D01*
X164826381Y-119378471D01*
X164795560Y-119373899D01*
X164765336Y-119366329D01*
X164735999Y-119355832D01*
X164707833Y-119342510D01*
X164681107Y-119326492D01*
X164656081Y-119307931D01*
X164632995Y-119287006D01*
X164612070Y-119263920D01*
X164593509Y-119238894D01*
X164577491Y-119212168D01*
X164564169Y-119184002D01*
X164553672Y-119154665D01*
X164546102Y-119124441D01*
X164541530Y-119093620D01*
X164540001Y-119062500D01*
X164540001Y-112077500D01*
X164541530Y-112046380D01*
X164546102Y-112015559D01*
X164553672Y-111985335D01*
X164564169Y-111955998D01*
X164577491Y-111927832D01*
X164593509Y-111901106D01*
X164612070Y-111876080D01*
X164632995Y-111852994D01*
X164656081Y-111832069D01*
X164681107Y-111813508D01*
X164707833Y-111797490D01*
X164735999Y-111784168D01*
X164765336Y-111773671D01*
X164795560Y-111766101D01*
X164826381Y-111761529D01*
X164857501Y-111760000D01*
X165492501Y-111760000D01*
X165523621Y-111761529D01*
X165523621Y-111761529D01*
G37*
D16*
G04 #@! TD*
G04 #@! TO.P,J0,17*
G04 #@! TO.N,Net-(J0-Pad17)*
X165175001Y-115570000D03*
D15*
G04 #@! TO.N,Net-(J0-Pad16)*
G04 #@! TO.C,J0*
G36*
X162983621Y-111761529D02*
X163014442Y-111766101D01*
X163044666Y-111773671D01*
X163074003Y-111784168D01*
X163102169Y-111797490D01*
X163128895Y-111813508D01*
X163153921Y-111832069D01*
X163177007Y-111852994D01*
X163197932Y-111876080D01*
X163216493Y-111901106D01*
X163232511Y-111927832D01*
X163245833Y-111955998D01*
X163256330Y-111985335D01*
X163263900Y-112015559D01*
X163268472Y-112046380D01*
X163270001Y-112077500D01*
X163270001Y-119062500D01*
X163268472Y-119093620D01*
X163263900Y-119124441D01*
X163256330Y-119154665D01*
X163245833Y-119184002D01*
X163232511Y-119212168D01*
X163216493Y-119238894D01*
X163197932Y-119263920D01*
X163177007Y-119287006D01*
X163153921Y-119307931D01*
X163128895Y-119326492D01*
X163102169Y-119342510D01*
X163074003Y-119355832D01*
X163044666Y-119366329D01*
X163014442Y-119373899D01*
X162983621Y-119378471D01*
X162952501Y-119380000D01*
X162317501Y-119380000D01*
X162286381Y-119378471D01*
X162255560Y-119373899D01*
X162225336Y-119366329D01*
X162195999Y-119355832D01*
X162167833Y-119342510D01*
X162141107Y-119326492D01*
X162116081Y-119307931D01*
X162092995Y-119287006D01*
X162072070Y-119263920D01*
X162053509Y-119238894D01*
X162037491Y-119212168D01*
X162024169Y-119184002D01*
X162013672Y-119154665D01*
X162006102Y-119124441D01*
X162001530Y-119093620D01*
X162000001Y-119062500D01*
X162000001Y-112077500D01*
X162001530Y-112046380D01*
X162006102Y-112015559D01*
X162013672Y-111985335D01*
X162024169Y-111955998D01*
X162037491Y-111927832D01*
X162053509Y-111901106D01*
X162072070Y-111876080D01*
X162092995Y-111852994D01*
X162116081Y-111832069D01*
X162141107Y-111813508D01*
X162167833Y-111797490D01*
X162195999Y-111784168D01*
X162225336Y-111773671D01*
X162255560Y-111766101D01*
X162286381Y-111761529D01*
X162317501Y-111760000D01*
X162952501Y-111760000D01*
X162983621Y-111761529D01*
X162983621Y-111761529D01*
G37*
D16*
G04 #@! TD*
G04 #@! TO.P,J0,16*
G04 #@! TO.N,Net-(J0-Pad16)*
X162635001Y-115570000D03*
D15*
G04 #@! TO.N,Net-(J0-Pad15)*
G04 #@! TO.C,J0*
G36*
X160443621Y-111761529D02*
X160474442Y-111766101D01*
X160504666Y-111773671D01*
X160534003Y-111784168D01*
X160562169Y-111797490D01*
X160588895Y-111813508D01*
X160613921Y-111832069D01*
X160637007Y-111852994D01*
X160657932Y-111876080D01*
X160676493Y-111901106D01*
X160692511Y-111927832D01*
X160705833Y-111955998D01*
X160716330Y-111985335D01*
X160723900Y-112015559D01*
X160728472Y-112046380D01*
X160730001Y-112077500D01*
X160730001Y-119062500D01*
X160728472Y-119093620D01*
X160723900Y-119124441D01*
X160716330Y-119154665D01*
X160705833Y-119184002D01*
X160692511Y-119212168D01*
X160676493Y-119238894D01*
X160657932Y-119263920D01*
X160637007Y-119287006D01*
X160613921Y-119307931D01*
X160588895Y-119326492D01*
X160562169Y-119342510D01*
X160534003Y-119355832D01*
X160504666Y-119366329D01*
X160474442Y-119373899D01*
X160443621Y-119378471D01*
X160412501Y-119380000D01*
X159777501Y-119380000D01*
X159746381Y-119378471D01*
X159715560Y-119373899D01*
X159685336Y-119366329D01*
X159655999Y-119355832D01*
X159627833Y-119342510D01*
X159601107Y-119326492D01*
X159576081Y-119307931D01*
X159552995Y-119287006D01*
X159532070Y-119263920D01*
X159513509Y-119238894D01*
X159497491Y-119212168D01*
X159484169Y-119184002D01*
X159473672Y-119154665D01*
X159466102Y-119124441D01*
X159461530Y-119093620D01*
X159460001Y-119062500D01*
X159460001Y-112077500D01*
X159461530Y-112046380D01*
X159466102Y-112015559D01*
X159473672Y-111985335D01*
X159484169Y-111955998D01*
X159497491Y-111927832D01*
X159513509Y-111901106D01*
X159532070Y-111876080D01*
X159552995Y-111852994D01*
X159576081Y-111832069D01*
X159601107Y-111813508D01*
X159627833Y-111797490D01*
X159655999Y-111784168D01*
X159685336Y-111773671D01*
X159715560Y-111766101D01*
X159746381Y-111761529D01*
X159777501Y-111760000D01*
X160412501Y-111760000D01*
X160443621Y-111761529D01*
X160443621Y-111761529D01*
G37*
D16*
G04 #@! TD*
G04 #@! TO.P,J0,15*
G04 #@! TO.N,Net-(J0-Pad15)*
X160095001Y-115570000D03*
D15*
G04 #@! TO.N,Net-(J0-Pad14)*
G04 #@! TO.C,J0*
G36*
X157903621Y-111761529D02*
X157934442Y-111766101D01*
X157964666Y-111773671D01*
X157994003Y-111784168D01*
X158022169Y-111797490D01*
X158048895Y-111813508D01*
X158073921Y-111832069D01*
X158097007Y-111852994D01*
X158117932Y-111876080D01*
X158136493Y-111901106D01*
X158152511Y-111927832D01*
X158165833Y-111955998D01*
X158176330Y-111985335D01*
X158183900Y-112015559D01*
X158188472Y-112046380D01*
X158190001Y-112077500D01*
X158190001Y-119062500D01*
X158188472Y-119093620D01*
X158183900Y-119124441D01*
X158176330Y-119154665D01*
X158165833Y-119184002D01*
X158152511Y-119212168D01*
X158136493Y-119238894D01*
X158117932Y-119263920D01*
X158097007Y-119287006D01*
X158073921Y-119307931D01*
X158048895Y-119326492D01*
X158022169Y-119342510D01*
X157994003Y-119355832D01*
X157964666Y-119366329D01*
X157934442Y-119373899D01*
X157903621Y-119378471D01*
X157872501Y-119380000D01*
X157237501Y-119380000D01*
X157206381Y-119378471D01*
X157175560Y-119373899D01*
X157145336Y-119366329D01*
X157115999Y-119355832D01*
X157087833Y-119342510D01*
X157061107Y-119326492D01*
X157036081Y-119307931D01*
X157012995Y-119287006D01*
X156992070Y-119263920D01*
X156973509Y-119238894D01*
X156957491Y-119212168D01*
X156944169Y-119184002D01*
X156933672Y-119154665D01*
X156926102Y-119124441D01*
X156921530Y-119093620D01*
X156920001Y-119062500D01*
X156920001Y-112077500D01*
X156921530Y-112046380D01*
X156926102Y-112015559D01*
X156933672Y-111985335D01*
X156944169Y-111955998D01*
X156957491Y-111927832D01*
X156973509Y-111901106D01*
X156992070Y-111876080D01*
X157012995Y-111852994D01*
X157036081Y-111832069D01*
X157061107Y-111813508D01*
X157087833Y-111797490D01*
X157115999Y-111784168D01*
X157145336Y-111773671D01*
X157175560Y-111766101D01*
X157206381Y-111761529D01*
X157237501Y-111760000D01*
X157872501Y-111760000D01*
X157903621Y-111761529D01*
X157903621Y-111761529D01*
G37*
D16*
G04 #@! TD*
G04 #@! TO.P,J0,14*
G04 #@! TO.N,Net-(J0-Pad14)*
X157555001Y-115570000D03*
D15*
G04 #@! TO.N,Net-(J0-Pad13)*
G04 #@! TO.C,J0*
G36*
X155363621Y-111761529D02*
X155394442Y-111766101D01*
X155424666Y-111773671D01*
X155454003Y-111784168D01*
X155482169Y-111797490D01*
X155508895Y-111813508D01*
X155533921Y-111832069D01*
X155557007Y-111852994D01*
X155577932Y-111876080D01*
X155596493Y-111901106D01*
X155612511Y-111927832D01*
X155625833Y-111955998D01*
X155636330Y-111985335D01*
X155643900Y-112015559D01*
X155648472Y-112046380D01*
X155650001Y-112077500D01*
X155650001Y-119062500D01*
X155648472Y-119093620D01*
X155643900Y-119124441D01*
X155636330Y-119154665D01*
X155625833Y-119184002D01*
X155612511Y-119212168D01*
X155596493Y-119238894D01*
X155577932Y-119263920D01*
X155557007Y-119287006D01*
X155533921Y-119307931D01*
X155508895Y-119326492D01*
X155482169Y-119342510D01*
X155454003Y-119355832D01*
X155424666Y-119366329D01*
X155394442Y-119373899D01*
X155363621Y-119378471D01*
X155332501Y-119380000D01*
X154697501Y-119380000D01*
X154666381Y-119378471D01*
X154635560Y-119373899D01*
X154605336Y-119366329D01*
X154575999Y-119355832D01*
X154547833Y-119342510D01*
X154521107Y-119326492D01*
X154496081Y-119307931D01*
X154472995Y-119287006D01*
X154452070Y-119263920D01*
X154433509Y-119238894D01*
X154417491Y-119212168D01*
X154404169Y-119184002D01*
X154393672Y-119154665D01*
X154386102Y-119124441D01*
X154381530Y-119093620D01*
X154380001Y-119062500D01*
X154380001Y-112077500D01*
X154381530Y-112046380D01*
X154386102Y-112015559D01*
X154393672Y-111985335D01*
X154404169Y-111955998D01*
X154417491Y-111927832D01*
X154433509Y-111901106D01*
X154452070Y-111876080D01*
X154472995Y-111852994D01*
X154496081Y-111832069D01*
X154521107Y-111813508D01*
X154547833Y-111797490D01*
X154575999Y-111784168D01*
X154605336Y-111773671D01*
X154635560Y-111766101D01*
X154666381Y-111761529D01*
X154697501Y-111760000D01*
X155332501Y-111760000D01*
X155363621Y-111761529D01*
X155363621Y-111761529D01*
G37*
D16*
G04 #@! TD*
G04 #@! TO.P,J0,13*
G04 #@! TO.N,Net-(J0-Pad13)*
X155015001Y-115570000D03*
D15*
G04 #@! TO.N,Net-(J0-Pad12)*
G04 #@! TO.C,J0*
G36*
X152823621Y-111761529D02*
X152854442Y-111766101D01*
X152884666Y-111773671D01*
X152914003Y-111784168D01*
X152942169Y-111797490D01*
X152968895Y-111813508D01*
X152993921Y-111832069D01*
X153017007Y-111852994D01*
X153037932Y-111876080D01*
X153056493Y-111901106D01*
X153072511Y-111927832D01*
X153085833Y-111955998D01*
X153096330Y-111985335D01*
X153103900Y-112015559D01*
X153108472Y-112046380D01*
X153110001Y-112077500D01*
X153110001Y-119062500D01*
X153108472Y-119093620D01*
X153103900Y-119124441D01*
X153096330Y-119154665D01*
X153085833Y-119184002D01*
X153072511Y-119212168D01*
X153056493Y-119238894D01*
X153037932Y-119263920D01*
X153017007Y-119287006D01*
X152993921Y-119307931D01*
X152968895Y-119326492D01*
X152942169Y-119342510D01*
X152914003Y-119355832D01*
X152884666Y-119366329D01*
X152854442Y-119373899D01*
X152823621Y-119378471D01*
X152792501Y-119380000D01*
X152157501Y-119380000D01*
X152126381Y-119378471D01*
X152095560Y-119373899D01*
X152065336Y-119366329D01*
X152035999Y-119355832D01*
X152007833Y-119342510D01*
X151981107Y-119326492D01*
X151956081Y-119307931D01*
X151932995Y-119287006D01*
X151912070Y-119263920D01*
X151893509Y-119238894D01*
X151877491Y-119212168D01*
X151864169Y-119184002D01*
X151853672Y-119154665D01*
X151846102Y-119124441D01*
X151841530Y-119093620D01*
X151840001Y-119062500D01*
X151840001Y-112077500D01*
X151841530Y-112046380D01*
X151846102Y-112015559D01*
X151853672Y-111985335D01*
X151864169Y-111955998D01*
X151877491Y-111927832D01*
X151893509Y-111901106D01*
X151912070Y-111876080D01*
X151932995Y-111852994D01*
X151956081Y-111832069D01*
X151981107Y-111813508D01*
X152007833Y-111797490D01*
X152035999Y-111784168D01*
X152065336Y-111773671D01*
X152095560Y-111766101D01*
X152126381Y-111761529D01*
X152157501Y-111760000D01*
X152792501Y-111760000D01*
X152823621Y-111761529D01*
X152823621Y-111761529D01*
G37*
D16*
G04 #@! TD*
G04 #@! TO.P,J0,12*
G04 #@! TO.N,Net-(J0-Pad12)*
X152475001Y-115570000D03*
D15*
G04 #@! TO.N,Net-(J0-Pad11)*
G04 #@! TO.C,J0*
G36*
X150283621Y-111761529D02*
X150314442Y-111766101D01*
X150344666Y-111773671D01*
X150374003Y-111784168D01*
X150402169Y-111797490D01*
X150428895Y-111813508D01*
X150453921Y-111832069D01*
X150477007Y-111852994D01*
X150497932Y-111876080D01*
X150516493Y-111901106D01*
X150532511Y-111927832D01*
X150545833Y-111955998D01*
X150556330Y-111985335D01*
X150563900Y-112015559D01*
X150568472Y-112046380D01*
X150570001Y-112077500D01*
X150570001Y-119062500D01*
X150568472Y-119093620D01*
X150563900Y-119124441D01*
X150556330Y-119154665D01*
X150545833Y-119184002D01*
X150532511Y-119212168D01*
X150516493Y-119238894D01*
X150497932Y-119263920D01*
X150477007Y-119287006D01*
X150453921Y-119307931D01*
X150428895Y-119326492D01*
X150402169Y-119342510D01*
X150374003Y-119355832D01*
X150344666Y-119366329D01*
X150314442Y-119373899D01*
X150283621Y-119378471D01*
X150252501Y-119380000D01*
X149617501Y-119380000D01*
X149586381Y-119378471D01*
X149555560Y-119373899D01*
X149525336Y-119366329D01*
X149495999Y-119355832D01*
X149467833Y-119342510D01*
X149441107Y-119326492D01*
X149416081Y-119307931D01*
X149392995Y-119287006D01*
X149372070Y-119263920D01*
X149353509Y-119238894D01*
X149337491Y-119212168D01*
X149324169Y-119184002D01*
X149313672Y-119154665D01*
X149306102Y-119124441D01*
X149301530Y-119093620D01*
X149300001Y-119062500D01*
X149300001Y-112077500D01*
X149301530Y-112046380D01*
X149306102Y-112015559D01*
X149313672Y-111985335D01*
X149324169Y-111955998D01*
X149337491Y-111927832D01*
X149353509Y-111901106D01*
X149372070Y-111876080D01*
X149392995Y-111852994D01*
X149416081Y-111832069D01*
X149441107Y-111813508D01*
X149467833Y-111797490D01*
X149495999Y-111784168D01*
X149525336Y-111773671D01*
X149555560Y-111766101D01*
X149586381Y-111761529D01*
X149617501Y-111760000D01*
X150252501Y-111760000D01*
X150283621Y-111761529D01*
X150283621Y-111761529D01*
G37*
D16*
G04 #@! TD*
G04 #@! TO.P,J0,11*
G04 #@! TO.N,Net-(J0-Pad11)*
X149935001Y-115570000D03*
D15*
G04 #@! TO.N,Net-(J0-Pad10)*
G04 #@! TO.C,J0*
G36*
X147743621Y-111761529D02*
X147774442Y-111766101D01*
X147804666Y-111773671D01*
X147834003Y-111784168D01*
X147862169Y-111797490D01*
X147888895Y-111813508D01*
X147913921Y-111832069D01*
X147937007Y-111852994D01*
X147957932Y-111876080D01*
X147976493Y-111901106D01*
X147992511Y-111927832D01*
X148005833Y-111955998D01*
X148016330Y-111985335D01*
X148023900Y-112015559D01*
X148028472Y-112046380D01*
X148030001Y-112077500D01*
X148030001Y-119062500D01*
X148028472Y-119093620D01*
X148023900Y-119124441D01*
X148016330Y-119154665D01*
X148005833Y-119184002D01*
X147992511Y-119212168D01*
X147976493Y-119238894D01*
X147957932Y-119263920D01*
X147937007Y-119287006D01*
X147913921Y-119307931D01*
X147888895Y-119326492D01*
X147862169Y-119342510D01*
X147834003Y-119355832D01*
X147804666Y-119366329D01*
X147774442Y-119373899D01*
X147743621Y-119378471D01*
X147712501Y-119380000D01*
X147077501Y-119380000D01*
X147046381Y-119378471D01*
X147015560Y-119373899D01*
X146985336Y-119366329D01*
X146955999Y-119355832D01*
X146927833Y-119342510D01*
X146901107Y-119326492D01*
X146876081Y-119307931D01*
X146852995Y-119287006D01*
X146832070Y-119263920D01*
X146813509Y-119238894D01*
X146797491Y-119212168D01*
X146784169Y-119184002D01*
X146773672Y-119154665D01*
X146766102Y-119124441D01*
X146761530Y-119093620D01*
X146760001Y-119062500D01*
X146760001Y-112077500D01*
X146761530Y-112046380D01*
X146766102Y-112015559D01*
X146773672Y-111985335D01*
X146784169Y-111955998D01*
X146797491Y-111927832D01*
X146813509Y-111901106D01*
X146832070Y-111876080D01*
X146852995Y-111852994D01*
X146876081Y-111832069D01*
X146901107Y-111813508D01*
X146927833Y-111797490D01*
X146955999Y-111784168D01*
X146985336Y-111773671D01*
X147015560Y-111766101D01*
X147046381Y-111761529D01*
X147077501Y-111760000D01*
X147712501Y-111760000D01*
X147743621Y-111761529D01*
X147743621Y-111761529D01*
G37*
D16*
G04 #@! TD*
G04 #@! TO.P,J0,10*
G04 #@! TO.N,Net-(J0-Pad10)*
X147395001Y-115570000D03*
D15*
G04 #@! TO.N,Net-(J0-Pad9)*
G04 #@! TO.C,J0*
G36*
X145203621Y-111761529D02*
X145234442Y-111766101D01*
X145264666Y-111773671D01*
X145294003Y-111784168D01*
X145322169Y-111797490D01*
X145348895Y-111813508D01*
X145373921Y-111832069D01*
X145397007Y-111852994D01*
X145417932Y-111876080D01*
X145436493Y-111901106D01*
X145452511Y-111927832D01*
X145465833Y-111955998D01*
X145476330Y-111985335D01*
X145483900Y-112015559D01*
X145488472Y-112046380D01*
X145490001Y-112077500D01*
X145490001Y-119062500D01*
X145488472Y-119093620D01*
X145483900Y-119124441D01*
X145476330Y-119154665D01*
X145465833Y-119184002D01*
X145452511Y-119212168D01*
X145436493Y-119238894D01*
X145417932Y-119263920D01*
X145397007Y-119287006D01*
X145373921Y-119307931D01*
X145348895Y-119326492D01*
X145322169Y-119342510D01*
X145294003Y-119355832D01*
X145264666Y-119366329D01*
X145234442Y-119373899D01*
X145203621Y-119378471D01*
X145172501Y-119380000D01*
X144537501Y-119380000D01*
X144506381Y-119378471D01*
X144475560Y-119373899D01*
X144445336Y-119366329D01*
X144415999Y-119355832D01*
X144387833Y-119342510D01*
X144361107Y-119326492D01*
X144336081Y-119307931D01*
X144312995Y-119287006D01*
X144292070Y-119263920D01*
X144273509Y-119238894D01*
X144257491Y-119212168D01*
X144244169Y-119184002D01*
X144233672Y-119154665D01*
X144226102Y-119124441D01*
X144221530Y-119093620D01*
X144220001Y-119062500D01*
X144220001Y-112077500D01*
X144221530Y-112046380D01*
X144226102Y-112015559D01*
X144233672Y-111985335D01*
X144244169Y-111955998D01*
X144257491Y-111927832D01*
X144273509Y-111901106D01*
X144292070Y-111876080D01*
X144312995Y-111852994D01*
X144336081Y-111832069D01*
X144361107Y-111813508D01*
X144387833Y-111797490D01*
X144415999Y-111784168D01*
X144445336Y-111773671D01*
X144475560Y-111766101D01*
X144506381Y-111761529D01*
X144537501Y-111760000D01*
X145172501Y-111760000D01*
X145203621Y-111761529D01*
X145203621Y-111761529D01*
G37*
D16*
G04 #@! TD*
G04 #@! TO.P,J0,9*
G04 #@! TO.N,Net-(J0-Pad9)*
X144855001Y-115570000D03*
D15*
G04 #@! TO.N,Net-(J0-Pad8)*
G04 #@! TO.C,J0*
G36*
X142663621Y-111761529D02*
X142694442Y-111766101D01*
X142724666Y-111773671D01*
X142754003Y-111784168D01*
X142782169Y-111797490D01*
X142808895Y-111813508D01*
X142833921Y-111832069D01*
X142857007Y-111852994D01*
X142877932Y-111876080D01*
X142896493Y-111901106D01*
X142912511Y-111927832D01*
X142925833Y-111955998D01*
X142936330Y-111985335D01*
X142943900Y-112015559D01*
X142948472Y-112046380D01*
X142950001Y-112077500D01*
X142950001Y-119062500D01*
X142948472Y-119093620D01*
X142943900Y-119124441D01*
X142936330Y-119154665D01*
X142925833Y-119184002D01*
X142912511Y-119212168D01*
X142896493Y-119238894D01*
X142877932Y-119263920D01*
X142857007Y-119287006D01*
X142833921Y-119307931D01*
X142808895Y-119326492D01*
X142782169Y-119342510D01*
X142754003Y-119355832D01*
X142724666Y-119366329D01*
X142694442Y-119373899D01*
X142663621Y-119378471D01*
X142632501Y-119380000D01*
X141997501Y-119380000D01*
X141966381Y-119378471D01*
X141935560Y-119373899D01*
X141905336Y-119366329D01*
X141875999Y-119355832D01*
X141847833Y-119342510D01*
X141821107Y-119326492D01*
X141796081Y-119307931D01*
X141772995Y-119287006D01*
X141752070Y-119263920D01*
X141733509Y-119238894D01*
X141717491Y-119212168D01*
X141704169Y-119184002D01*
X141693672Y-119154665D01*
X141686102Y-119124441D01*
X141681530Y-119093620D01*
X141680001Y-119062500D01*
X141680001Y-112077500D01*
X141681530Y-112046380D01*
X141686102Y-112015559D01*
X141693672Y-111985335D01*
X141704169Y-111955998D01*
X141717491Y-111927832D01*
X141733509Y-111901106D01*
X141752070Y-111876080D01*
X141772995Y-111852994D01*
X141796081Y-111832069D01*
X141821107Y-111813508D01*
X141847833Y-111797490D01*
X141875999Y-111784168D01*
X141905336Y-111773671D01*
X141935560Y-111766101D01*
X141966381Y-111761529D01*
X141997501Y-111760000D01*
X142632501Y-111760000D01*
X142663621Y-111761529D01*
X142663621Y-111761529D01*
G37*
D16*
G04 #@! TD*
G04 #@! TO.P,J0,8*
G04 #@! TO.N,Net-(J0-Pad8)*
X142315001Y-115570000D03*
D15*
G04 #@! TO.N,Net-(J0-Pad7)*
G04 #@! TO.C,J0*
G36*
X140123621Y-111761529D02*
X140154442Y-111766101D01*
X140184666Y-111773671D01*
X140214003Y-111784168D01*
X140242169Y-111797490D01*
X140268895Y-111813508D01*
X140293921Y-111832069D01*
X140317007Y-111852994D01*
X140337932Y-111876080D01*
X140356493Y-111901106D01*
X140372511Y-111927832D01*
X140385833Y-111955998D01*
X140396330Y-111985335D01*
X140403900Y-112015559D01*
X140408472Y-112046380D01*
X140410001Y-112077500D01*
X140410001Y-119062500D01*
X140408472Y-119093620D01*
X140403900Y-119124441D01*
X140396330Y-119154665D01*
X140385833Y-119184002D01*
X140372511Y-119212168D01*
X140356493Y-119238894D01*
X140337932Y-119263920D01*
X140317007Y-119287006D01*
X140293921Y-119307931D01*
X140268895Y-119326492D01*
X140242169Y-119342510D01*
X140214003Y-119355832D01*
X140184666Y-119366329D01*
X140154442Y-119373899D01*
X140123621Y-119378471D01*
X140092501Y-119380000D01*
X139457501Y-119380000D01*
X139426381Y-119378471D01*
X139395560Y-119373899D01*
X139365336Y-119366329D01*
X139335999Y-119355832D01*
X139307833Y-119342510D01*
X139281107Y-119326492D01*
X139256081Y-119307931D01*
X139232995Y-119287006D01*
X139212070Y-119263920D01*
X139193509Y-119238894D01*
X139177491Y-119212168D01*
X139164169Y-119184002D01*
X139153672Y-119154665D01*
X139146102Y-119124441D01*
X139141530Y-119093620D01*
X139140001Y-119062500D01*
X139140001Y-112077500D01*
X139141530Y-112046380D01*
X139146102Y-112015559D01*
X139153672Y-111985335D01*
X139164169Y-111955998D01*
X139177491Y-111927832D01*
X139193509Y-111901106D01*
X139212070Y-111876080D01*
X139232995Y-111852994D01*
X139256081Y-111832069D01*
X139281107Y-111813508D01*
X139307833Y-111797490D01*
X139335999Y-111784168D01*
X139365336Y-111773671D01*
X139395560Y-111766101D01*
X139426381Y-111761529D01*
X139457501Y-111760000D01*
X140092501Y-111760000D01*
X140123621Y-111761529D01*
X140123621Y-111761529D01*
G37*
D16*
G04 #@! TD*
G04 #@! TO.P,J0,7*
G04 #@! TO.N,Net-(J0-Pad7)*
X139775001Y-115570000D03*
D15*
G04 #@! TO.N,Net-(J0-Pad6)*
G04 #@! TO.C,J0*
G36*
X137583621Y-111761529D02*
X137614442Y-111766101D01*
X137644666Y-111773671D01*
X137674003Y-111784168D01*
X137702169Y-111797490D01*
X137728895Y-111813508D01*
X137753921Y-111832069D01*
X137777007Y-111852994D01*
X137797932Y-111876080D01*
X137816493Y-111901106D01*
X137832511Y-111927832D01*
X137845833Y-111955998D01*
X137856330Y-111985335D01*
X137863900Y-112015559D01*
X137868472Y-112046380D01*
X137870001Y-112077500D01*
X137870001Y-119062500D01*
X137868472Y-119093620D01*
X137863900Y-119124441D01*
X137856330Y-119154665D01*
X137845833Y-119184002D01*
X137832511Y-119212168D01*
X137816493Y-119238894D01*
X137797932Y-119263920D01*
X137777007Y-119287006D01*
X137753921Y-119307931D01*
X137728895Y-119326492D01*
X137702169Y-119342510D01*
X137674003Y-119355832D01*
X137644666Y-119366329D01*
X137614442Y-119373899D01*
X137583621Y-119378471D01*
X137552501Y-119380000D01*
X136917501Y-119380000D01*
X136886381Y-119378471D01*
X136855560Y-119373899D01*
X136825336Y-119366329D01*
X136795999Y-119355832D01*
X136767833Y-119342510D01*
X136741107Y-119326492D01*
X136716081Y-119307931D01*
X136692995Y-119287006D01*
X136672070Y-119263920D01*
X136653509Y-119238894D01*
X136637491Y-119212168D01*
X136624169Y-119184002D01*
X136613672Y-119154665D01*
X136606102Y-119124441D01*
X136601530Y-119093620D01*
X136600001Y-119062500D01*
X136600001Y-112077500D01*
X136601530Y-112046380D01*
X136606102Y-112015559D01*
X136613672Y-111985335D01*
X136624169Y-111955998D01*
X136637491Y-111927832D01*
X136653509Y-111901106D01*
X136672070Y-111876080D01*
X136692995Y-111852994D01*
X136716081Y-111832069D01*
X136741107Y-111813508D01*
X136767833Y-111797490D01*
X136795999Y-111784168D01*
X136825336Y-111773671D01*
X136855560Y-111766101D01*
X136886381Y-111761529D01*
X136917501Y-111760000D01*
X137552501Y-111760000D01*
X137583621Y-111761529D01*
X137583621Y-111761529D01*
G37*
D16*
G04 #@! TD*
G04 #@! TO.P,J0,6*
G04 #@! TO.N,Net-(J0-Pad6)*
X137235001Y-115570000D03*
D15*
G04 #@! TO.N,Net-(J0-Pad5)*
G04 #@! TO.C,J0*
G36*
X135043621Y-111761529D02*
X135074442Y-111766101D01*
X135104666Y-111773671D01*
X135134003Y-111784168D01*
X135162169Y-111797490D01*
X135188895Y-111813508D01*
X135213921Y-111832069D01*
X135237007Y-111852994D01*
X135257932Y-111876080D01*
X135276493Y-111901106D01*
X135292511Y-111927832D01*
X135305833Y-111955998D01*
X135316330Y-111985335D01*
X135323900Y-112015559D01*
X135328472Y-112046380D01*
X135330001Y-112077500D01*
X135330001Y-119062500D01*
X135328472Y-119093620D01*
X135323900Y-119124441D01*
X135316330Y-119154665D01*
X135305833Y-119184002D01*
X135292511Y-119212168D01*
X135276493Y-119238894D01*
X135257932Y-119263920D01*
X135237007Y-119287006D01*
X135213921Y-119307931D01*
X135188895Y-119326492D01*
X135162169Y-119342510D01*
X135134003Y-119355832D01*
X135104666Y-119366329D01*
X135074442Y-119373899D01*
X135043621Y-119378471D01*
X135012501Y-119380000D01*
X134377501Y-119380000D01*
X134346381Y-119378471D01*
X134315560Y-119373899D01*
X134285336Y-119366329D01*
X134255999Y-119355832D01*
X134227833Y-119342510D01*
X134201107Y-119326492D01*
X134176081Y-119307931D01*
X134152995Y-119287006D01*
X134132070Y-119263920D01*
X134113509Y-119238894D01*
X134097491Y-119212168D01*
X134084169Y-119184002D01*
X134073672Y-119154665D01*
X134066102Y-119124441D01*
X134061530Y-119093620D01*
X134060001Y-119062500D01*
X134060001Y-112077500D01*
X134061530Y-112046380D01*
X134066102Y-112015559D01*
X134073672Y-111985335D01*
X134084169Y-111955998D01*
X134097491Y-111927832D01*
X134113509Y-111901106D01*
X134132070Y-111876080D01*
X134152995Y-111852994D01*
X134176081Y-111832069D01*
X134201107Y-111813508D01*
X134227833Y-111797490D01*
X134255999Y-111784168D01*
X134285336Y-111773671D01*
X134315560Y-111766101D01*
X134346381Y-111761529D01*
X134377501Y-111760000D01*
X135012501Y-111760000D01*
X135043621Y-111761529D01*
X135043621Y-111761529D01*
G37*
D16*
G04 #@! TD*
G04 #@! TO.P,J0,5*
G04 #@! TO.N,Net-(J0-Pad5)*
X134695001Y-115570000D03*
D15*
G04 #@! TO.N,Net-(J0-Pad4)*
G04 #@! TO.C,J0*
G36*
X132503621Y-111761529D02*
X132534442Y-111766101D01*
X132564666Y-111773671D01*
X132594003Y-111784168D01*
X132622169Y-111797490D01*
X132648895Y-111813508D01*
X132673921Y-111832069D01*
X132697007Y-111852994D01*
X132717932Y-111876080D01*
X132736493Y-111901106D01*
X132752511Y-111927832D01*
X132765833Y-111955998D01*
X132776330Y-111985335D01*
X132783900Y-112015559D01*
X132788472Y-112046380D01*
X132790001Y-112077500D01*
X132790001Y-119062500D01*
X132788472Y-119093620D01*
X132783900Y-119124441D01*
X132776330Y-119154665D01*
X132765833Y-119184002D01*
X132752511Y-119212168D01*
X132736493Y-119238894D01*
X132717932Y-119263920D01*
X132697007Y-119287006D01*
X132673921Y-119307931D01*
X132648895Y-119326492D01*
X132622169Y-119342510D01*
X132594003Y-119355832D01*
X132564666Y-119366329D01*
X132534442Y-119373899D01*
X132503621Y-119378471D01*
X132472501Y-119380000D01*
X131837501Y-119380000D01*
X131806381Y-119378471D01*
X131775560Y-119373899D01*
X131745336Y-119366329D01*
X131715999Y-119355832D01*
X131687833Y-119342510D01*
X131661107Y-119326492D01*
X131636081Y-119307931D01*
X131612995Y-119287006D01*
X131592070Y-119263920D01*
X131573509Y-119238894D01*
X131557491Y-119212168D01*
X131544169Y-119184002D01*
X131533672Y-119154665D01*
X131526102Y-119124441D01*
X131521530Y-119093620D01*
X131520001Y-119062500D01*
X131520001Y-112077500D01*
X131521530Y-112046380D01*
X131526102Y-112015559D01*
X131533672Y-111985335D01*
X131544169Y-111955998D01*
X131557491Y-111927832D01*
X131573509Y-111901106D01*
X131592070Y-111876080D01*
X131612995Y-111852994D01*
X131636081Y-111832069D01*
X131661107Y-111813508D01*
X131687833Y-111797490D01*
X131715999Y-111784168D01*
X131745336Y-111773671D01*
X131775560Y-111766101D01*
X131806381Y-111761529D01*
X131837501Y-111760000D01*
X132472501Y-111760000D01*
X132503621Y-111761529D01*
X132503621Y-111761529D01*
G37*
D16*
G04 #@! TD*
G04 #@! TO.P,J0,4*
G04 #@! TO.N,Net-(J0-Pad4)*
X132155001Y-115570000D03*
D15*
G04 #@! TO.N,Net-(J0-Pad3)*
G04 #@! TO.C,J0*
G36*
X129963621Y-111761529D02*
X129994442Y-111766101D01*
X130024666Y-111773671D01*
X130054003Y-111784168D01*
X130082169Y-111797490D01*
X130108895Y-111813508D01*
X130133921Y-111832069D01*
X130157007Y-111852994D01*
X130177932Y-111876080D01*
X130196493Y-111901106D01*
X130212511Y-111927832D01*
X130225833Y-111955998D01*
X130236330Y-111985335D01*
X130243900Y-112015559D01*
X130248472Y-112046380D01*
X130250001Y-112077500D01*
X130250001Y-119062500D01*
X130248472Y-119093620D01*
X130243900Y-119124441D01*
X130236330Y-119154665D01*
X130225833Y-119184002D01*
X130212511Y-119212168D01*
X130196493Y-119238894D01*
X130177932Y-119263920D01*
X130157007Y-119287006D01*
X130133921Y-119307931D01*
X130108895Y-119326492D01*
X130082169Y-119342510D01*
X130054003Y-119355832D01*
X130024666Y-119366329D01*
X129994442Y-119373899D01*
X129963621Y-119378471D01*
X129932501Y-119380000D01*
X129297501Y-119380000D01*
X129266381Y-119378471D01*
X129235560Y-119373899D01*
X129205336Y-119366329D01*
X129175999Y-119355832D01*
X129147833Y-119342510D01*
X129121107Y-119326492D01*
X129096081Y-119307931D01*
X129072995Y-119287006D01*
X129052070Y-119263920D01*
X129033509Y-119238894D01*
X129017491Y-119212168D01*
X129004169Y-119184002D01*
X128993672Y-119154665D01*
X128986102Y-119124441D01*
X128981530Y-119093620D01*
X128980001Y-119062500D01*
X128980001Y-112077500D01*
X128981530Y-112046380D01*
X128986102Y-112015559D01*
X128993672Y-111985335D01*
X129004169Y-111955998D01*
X129017491Y-111927832D01*
X129033509Y-111901106D01*
X129052070Y-111876080D01*
X129072995Y-111852994D01*
X129096081Y-111832069D01*
X129121107Y-111813508D01*
X129147833Y-111797490D01*
X129175999Y-111784168D01*
X129205336Y-111773671D01*
X129235560Y-111766101D01*
X129266381Y-111761529D01*
X129297501Y-111760000D01*
X129932501Y-111760000D01*
X129963621Y-111761529D01*
X129963621Y-111761529D01*
G37*
D16*
G04 #@! TD*
G04 #@! TO.P,J0,3*
G04 #@! TO.N,Net-(J0-Pad3)*
X129615001Y-115570000D03*
D15*
G04 #@! TO.N,Net-(J0-Pad2)*
G04 #@! TO.C,J0*
G36*
X127423621Y-111761529D02*
X127454442Y-111766101D01*
X127484666Y-111773671D01*
X127514003Y-111784168D01*
X127542169Y-111797490D01*
X127568895Y-111813508D01*
X127593921Y-111832069D01*
X127617007Y-111852994D01*
X127637932Y-111876080D01*
X127656493Y-111901106D01*
X127672511Y-111927832D01*
X127685833Y-111955998D01*
X127696330Y-111985335D01*
X127703900Y-112015559D01*
X127708472Y-112046380D01*
X127710001Y-112077500D01*
X127710001Y-119062500D01*
X127708472Y-119093620D01*
X127703900Y-119124441D01*
X127696330Y-119154665D01*
X127685833Y-119184002D01*
X127672511Y-119212168D01*
X127656493Y-119238894D01*
X127637932Y-119263920D01*
X127617007Y-119287006D01*
X127593921Y-119307931D01*
X127568895Y-119326492D01*
X127542169Y-119342510D01*
X127514003Y-119355832D01*
X127484666Y-119366329D01*
X127454442Y-119373899D01*
X127423621Y-119378471D01*
X127392501Y-119380000D01*
X126757501Y-119380000D01*
X126726381Y-119378471D01*
X126695560Y-119373899D01*
X126665336Y-119366329D01*
X126635999Y-119355832D01*
X126607833Y-119342510D01*
X126581107Y-119326492D01*
X126556081Y-119307931D01*
X126532995Y-119287006D01*
X126512070Y-119263920D01*
X126493509Y-119238894D01*
X126477491Y-119212168D01*
X126464169Y-119184002D01*
X126453672Y-119154665D01*
X126446102Y-119124441D01*
X126441530Y-119093620D01*
X126440001Y-119062500D01*
X126440001Y-112077500D01*
X126441530Y-112046380D01*
X126446102Y-112015559D01*
X126453672Y-111985335D01*
X126464169Y-111955998D01*
X126477491Y-111927832D01*
X126493509Y-111901106D01*
X126512070Y-111876080D01*
X126532995Y-111852994D01*
X126556081Y-111832069D01*
X126581107Y-111813508D01*
X126607833Y-111797490D01*
X126635999Y-111784168D01*
X126665336Y-111773671D01*
X126695560Y-111766101D01*
X126726381Y-111761529D01*
X126757501Y-111760000D01*
X127392501Y-111760000D01*
X127423621Y-111761529D01*
X127423621Y-111761529D01*
G37*
D16*
G04 #@! TD*
G04 #@! TO.P,J0,2*
G04 #@! TO.N,Net-(J0-Pad2)*
X127075001Y-115570000D03*
D15*
G04 #@! TO.N,Net-(J0-Pad1)*
G04 #@! TO.C,J0*
G36*
X124883621Y-111761529D02*
X124914442Y-111766101D01*
X124944666Y-111773671D01*
X124974003Y-111784168D01*
X125002169Y-111797490D01*
X125028895Y-111813508D01*
X125053921Y-111832069D01*
X125077007Y-111852994D01*
X125097932Y-111876080D01*
X125116493Y-111901106D01*
X125132511Y-111927832D01*
X125145833Y-111955998D01*
X125156330Y-111985335D01*
X125163900Y-112015559D01*
X125168472Y-112046380D01*
X125170001Y-112077500D01*
X125170001Y-119062500D01*
X125168472Y-119093620D01*
X125163900Y-119124441D01*
X125156330Y-119154665D01*
X125145833Y-119184002D01*
X125132511Y-119212168D01*
X125116493Y-119238894D01*
X125097932Y-119263920D01*
X125077007Y-119287006D01*
X125053921Y-119307931D01*
X125028895Y-119326492D01*
X125002169Y-119342510D01*
X124974003Y-119355832D01*
X124944666Y-119366329D01*
X124914442Y-119373899D01*
X124883621Y-119378471D01*
X124852501Y-119380000D01*
X124217501Y-119380000D01*
X124186381Y-119378471D01*
X124155560Y-119373899D01*
X124125336Y-119366329D01*
X124095999Y-119355832D01*
X124067833Y-119342510D01*
X124041107Y-119326492D01*
X124016081Y-119307931D01*
X123992995Y-119287006D01*
X123972070Y-119263920D01*
X123953509Y-119238894D01*
X123937491Y-119212168D01*
X123924169Y-119184002D01*
X123913672Y-119154665D01*
X123906102Y-119124441D01*
X123901530Y-119093620D01*
X123900001Y-119062500D01*
X123900001Y-112077500D01*
X123901530Y-112046380D01*
X123906102Y-112015559D01*
X123913672Y-111985335D01*
X123924169Y-111955998D01*
X123937491Y-111927832D01*
X123953509Y-111901106D01*
X123972070Y-111876080D01*
X123992995Y-111852994D01*
X124016081Y-111832069D01*
X124041107Y-111813508D01*
X124067833Y-111797490D01*
X124095999Y-111784168D01*
X124125336Y-111773671D01*
X124155560Y-111766101D01*
X124186381Y-111761529D01*
X124217501Y-111760000D01*
X124852501Y-111760000D01*
X124883621Y-111761529D01*
X124883621Y-111761529D01*
G37*
D16*
G04 #@! TD*
G04 #@! TO.P,J0,1*
G04 #@! TO.N,Net-(J0-Pad1)*
X124535001Y-115570000D03*
D14*
G04 #@! TO.P,U3,1*
G04 #@! TO.N,Net-(U3-Pad1)*
X156210000Y-55245000D03*
D13*
G04 #@! TO.P,U3,8*
G04 #@! TO.N,Net-(U3-Pad8)*
X163830000Y-70485000D03*
G04 #@! TO.P,U3,2*
G04 #@! TO.N,Net-(J0-Pad41)*
X156210000Y-57785000D03*
G04 #@! TO.P,U3,9*
X163830000Y-67945000D03*
G04 #@! TO.P,U3,3*
G04 #@! TO.N,Net-(U3-Pad3)*
X156210000Y-60325000D03*
G04 #@! TO.P,U3,10*
G04 #@! TO.N,Net-(U3-Pad10)*
X163830000Y-65405000D03*
G04 #@! TO.P,U3,4*
G04 #@! TO.N,Net-(U0-Pad1)*
X156210000Y-62865000D03*
G04 #@! TO.P,U3,11*
G04 #@! TO.N,Net-(U3-Pad10)*
X163830000Y-62865000D03*
G04 #@! TO.P,U3,5*
G04 #@! TO.N,Net-(J0-Pad2)*
X156210000Y-65405000D03*
G04 #@! TO.P,U3,12*
G04 #@! TO.N,Net-(U2-Pad8)*
X163830000Y-60325000D03*
G04 #@! TO.P,U3,6*
G04 #@! TO.N,Net-(U3-Pad1)*
X156210000Y-67945000D03*
G04 #@! TO.P,U3,13*
G04 #@! TO.N,Net-(J0-Pad3)*
X163830000Y-57785000D03*
G04 #@! TO.P,U3,7*
G04 #@! TO.N,Net-(C1-Pad2)*
X156210000Y-70485000D03*
G04 #@! TO.P,U3,14*
G04 #@! TO.N,Net-(C1-Pad1)*
X163830000Y-55245000D03*
G04 #@! TD*
G04 #@! TO.P,U2,14*
G04 #@! TO.N,Net-(C1-Pad1)*
X188391800Y-55245000D03*
G04 #@! TO.P,U2,7*
G04 #@! TO.N,Net-(C1-Pad2)*
X180771800Y-70485000D03*
G04 #@! TO.P,U2,13*
G04 #@! TO.N,Net-(J0-Pad18)*
X188391800Y-57785000D03*
G04 #@! TO.P,U2,6*
G04 #@! TO.N,Net-(U0-Pad19)*
X180771800Y-67945000D03*
G04 #@! TO.P,U2,12*
G04 #@! TO.N,Net-(J0-Pad18)*
X188391800Y-60325000D03*
G04 #@! TO.P,U2,5*
G04 #@! TO.N,Net-(U2-Pad3)*
X180771800Y-65405000D03*
G04 #@! TO.P,U2,11*
G04 #@! TO.N,Net-(U0-Pad1)*
X188391800Y-62865000D03*
G04 #@! TO.P,U2,4*
G04 #@! TO.N,Net-(U2-Pad3)*
X180771800Y-62865000D03*
G04 #@! TO.P,U2,10*
G04 #@! TO.N,Net-(U0-Pad1)*
X188391800Y-65405000D03*
G04 #@! TO.P,U2,3*
G04 #@! TO.N,Net-(U2-Pad3)*
X180771800Y-60325000D03*
G04 #@! TO.P,U2,9*
G04 #@! TO.N,Net-(U0-Pad1)*
X188391800Y-67945000D03*
G04 #@! TO.P,U2,2*
G04 #@! TO.N,Net-(J0-Pad1)*
X180771800Y-57785000D03*
G04 #@! TO.P,U2,8*
G04 #@! TO.N,Net-(U2-Pad8)*
X188391800Y-70485000D03*
D14*
G04 #@! TO.P,U2,1*
G04 #@! TO.N,Net-(J0-Pad41)*
X180771800Y-55245000D03*
G04 #@! TD*
G04 #@! TO.P,U0,1*
G04 #@! TO.N,Net-(U0-Pad1)*
X123952000Y-102870000D03*
D13*
G04 #@! TO.P,U0,11*
G04 #@! TO.N,Net-(U0-Pad11)*
X146812000Y-95250000D03*
G04 #@! TO.P,U0,2*
G04 #@! TO.N,Net-(J0-Pad49)*
X126492000Y-102870000D03*
G04 #@! TO.P,U0,12*
G04 #@! TO.N,Net-(U0-Pad12)*
X144272000Y-95250000D03*
G04 #@! TO.P,U0,3*
G04 #@! TO.N,Net-(J0-Pad48)*
X129032000Y-102870000D03*
G04 #@! TO.P,U0,13*
G04 #@! TO.N,Net-(U0-Pad13)*
X141732000Y-95250000D03*
G04 #@! TO.P,U0,4*
G04 #@! TO.N,Net-(J0-Pad47)*
X131572000Y-102870000D03*
G04 #@! TO.P,U0,14*
G04 #@! TO.N,Net-(U0-Pad14)*
X139192000Y-95250000D03*
G04 #@! TO.P,U0,5*
G04 #@! TO.N,Net-(J0-Pad46)*
X134112000Y-102870000D03*
G04 #@! TO.P,U0,15*
G04 #@! TO.N,Net-(U0-Pad15)*
X136652000Y-95250000D03*
G04 #@! TO.P,U0,6*
G04 #@! TO.N,Net-(J0-Pad45)*
X136652000Y-102870000D03*
G04 #@! TO.P,U0,16*
G04 #@! TO.N,Net-(U0-Pad16)*
X134112000Y-95250000D03*
G04 #@! TO.P,U0,7*
G04 #@! TO.N,Net-(J0-Pad44)*
X139192000Y-102870000D03*
G04 #@! TO.P,U0,17*
G04 #@! TO.N,Net-(U0-Pad17)*
X131572000Y-95250000D03*
G04 #@! TO.P,U0,8*
G04 #@! TO.N,Net-(J0-Pad43)*
X141732000Y-102870000D03*
G04 #@! TO.P,U0,18*
G04 #@! TO.N,Net-(U0-Pad18)*
X129032000Y-95250000D03*
G04 #@! TO.P,U0,9*
G04 #@! TO.N,Net-(J0-Pad42)*
X144272000Y-102870000D03*
G04 #@! TO.P,U0,19*
G04 #@! TO.N,Net-(U0-Pad19)*
X126492000Y-95250000D03*
G04 #@! TO.P,U0,10*
G04 #@! TO.N,Net-(C1-Pad2)*
X146812000Y-102870000D03*
G04 #@! TO.P,U0,20*
G04 #@! TO.N,Net-(C1-Pad1)*
X123952000Y-95250000D03*
G04 #@! TD*
G04 #@! TO.P,U4,20*
G04 #@! TO.N,Net-(C5-Pad1)*
X123825000Y-83185000D03*
G04 #@! TO.P,U4,10*
G04 #@! TO.N,Net-(C1-Pad2)*
X146685000Y-90805000D03*
G04 #@! TO.P,U4,19*
G04 #@! TO.N,Net-(U3-Pad3)*
X126365000Y-83185000D03*
G04 #@! TO.P,U4,9*
G04 #@! TO.N,Net-(U0-Pad11)*
X144145000Y-90805000D03*
G04 #@! TO.P,U4,18*
G04 #@! TO.N,Net-(J1-Pad7)*
X128905000Y-83185000D03*
G04 #@! TO.P,U4,8*
G04 #@! TO.N,Net-(U0-Pad12)*
X141605000Y-90805000D03*
G04 #@! TO.P,U4,17*
G04 #@! TO.N,Net-(J1-Pad11)*
X131445000Y-83185000D03*
G04 #@! TO.P,U4,7*
G04 #@! TO.N,Net-(U0-Pad13)*
X139065000Y-90805000D03*
G04 #@! TO.P,U4,16*
G04 #@! TO.N,Net-(J1-Pad13)*
X133985000Y-83185000D03*
G04 #@! TO.P,U4,6*
G04 #@! TO.N,Net-(U0-Pad14)*
X136525000Y-90805000D03*
G04 #@! TO.P,U4,15*
G04 #@! TO.N,Net-(J1-Pad15)*
X136525000Y-83185000D03*
G04 #@! TO.P,U4,5*
G04 #@! TO.N,Net-(U0-Pad15)*
X133985000Y-90805000D03*
G04 #@! TO.P,U4,14*
G04 #@! TO.N,Net-(J1-Pad19)*
X139065000Y-83185000D03*
G04 #@! TO.P,U4,4*
G04 #@! TO.N,Net-(U0-Pad16)*
X131445000Y-90805000D03*
G04 #@! TO.P,U4,13*
G04 #@! TO.N,Net-(J1-Pad21)*
X141605000Y-83185000D03*
G04 #@! TO.P,U4,3*
G04 #@! TO.N,Net-(U0-Pad17)*
X128905000Y-90805000D03*
G04 #@! TO.P,U4,12*
G04 #@! TO.N,Net-(J1-Pad23)*
X144145000Y-83185000D03*
G04 #@! TO.P,U4,2*
G04 #@! TO.N,Net-(U0-Pad18)*
X126365000Y-90805000D03*
G04 #@! TO.P,U4,11*
G04 #@! TO.N,Net-(J1-Pad29)*
X146685000Y-83185000D03*
D14*
G04 #@! TO.P,U4,1*
G04 #@! TO.N,Net-(C1-Pad2)*
X123825000Y-90805000D03*
G04 #@! TD*
G04 #@! TO.P,U5,1*
G04 #@! TO.N,Net-(C1-Pad2)*
X123825000Y-78105000D03*
D13*
G04 #@! TO.P,U5,11*
G04 #@! TO.N,Net-(U3-Pad8)*
X146685000Y-70485000D03*
G04 #@! TO.P,U5,2*
G04 #@! TO.N,Net-(J1-Pad31)*
X126365000Y-78105000D03*
G04 #@! TO.P,U5,12*
G04 #@! TO.N,Net-(J1-Pad40)*
X144145000Y-70485000D03*
G04 #@! TO.P,U5,3*
G04 #@! TO.N,Net-(U0-Pad18)*
X128905000Y-78105000D03*
G04 #@! TO.P,U5,13*
G04 #@! TO.N,Net-(U0-Pad14)*
X141605000Y-70485000D03*
G04 #@! TO.P,U5,4*
G04 #@! TO.N,Net-(U0-Pad17)*
X131445000Y-78105000D03*
G04 #@! TO.P,U5,14*
G04 #@! TO.N,Net-(U0-Pad13)*
X139065000Y-70485000D03*
G04 #@! TO.P,U5,5*
G04 #@! TO.N,Net-(J1-Pad33)*
X133985000Y-78105000D03*
G04 #@! TO.P,U5,15*
G04 #@! TO.N,Net-(J1-Pad38)*
X136525000Y-70485000D03*
G04 #@! TO.P,U5,6*
G04 #@! TO.N,Net-(J1-Pad35)*
X136525000Y-78105000D03*
G04 #@! TO.P,U5,16*
G04 #@! TO.N,Net-(J1-Pad36)*
X133985000Y-70485000D03*
G04 #@! TO.P,U5,7*
G04 #@! TO.N,Net-(U0-Pad16)*
X139065000Y-78105000D03*
G04 #@! TO.P,U5,17*
G04 #@! TO.N,Net-(U0-Pad12)*
X131445000Y-70485000D03*
G04 #@! TO.P,U5,8*
G04 #@! TO.N,Net-(U0-Pad15)*
X141605000Y-78105000D03*
G04 #@! TO.P,U5,18*
G04 #@! TO.N,Net-(U0-Pad11)*
X128905000Y-70485000D03*
G04 #@! TO.P,U5,9*
G04 #@! TO.N,Net-(J1-Pad37)*
X144145000Y-78105000D03*
G04 #@! TO.P,U5,19*
G04 #@! TO.N,Net-(J1-Pad32)*
X126365000Y-70485000D03*
G04 #@! TO.P,U5,10*
G04 #@! TO.N,Net-(C1-Pad2)*
X146685000Y-78105000D03*
G04 #@! TO.P,U5,20*
G04 #@! TO.N,Net-(C5-Pad1)*
X123825000Y-70485000D03*
G04 #@! TD*
D17*
G04 #@! TO.N,Net-(U0-Pad15)*
X140970000Y-86995000D03*
X133985000Y-87630000D03*
G04 #@! TO.N,Net-(U0-Pad14)*
X141605000Y-55245000D03*
X136525000Y-55245000D03*
X143510000Y-88265000D03*
X136525000Y-88265000D03*
G04 #@! TO.N,Net-(J0-Pad9)*
X181610000Y-107315000D03*
G04 #@! TO.N,Net-(U0-Pad13)*
X158750000Y-93345000D03*
G04 #@! TO.N,Net-(J0-Pad8)*
X177800000Y-106654599D03*
G04 #@! TO.N,Net-(U0-Pad12)*
X161290000Y-94602300D03*
X141605000Y-73660000D03*
X131445000Y-73025000D03*
X140335000Y-55892700D03*
G04 #@! TO.N,Net-(J0-Pad7)*
X175895000Y-105410000D03*
G04 #@! TO.N,Net-(U0-Pad11)*
X129438400Y-53988593D03*
G04 #@! TO.N,Net-(J0-Pad6)*
X172720000Y-105397300D03*
G04 #@! TO.N,Net-(J0-Pad1)*
X178435000Y-91440000D03*
X172085000Y-91440000D03*
X166370000Y-102235000D03*
G04 #@! TO.N,Net-(J0-Pad5)*
X175260000Y-77470000D03*
X172085000Y-77470000D03*
X170815000Y-104749600D03*
G04 #@! TO.N,Net-(J0-Pad12)*
X169557700Y-109220000D03*
G04 #@! TO.N,Net-(J0-Pad4)*
X177165000Y-78105000D03*
X169545000Y-78740000D03*
X167005000Y-104140000D03*
G04 #@! TO.N,Net-(J0-Pad3)*
X164465000Y-104140000D03*
G04 #@! TO.N,Net-(J0-Pad2)*
X162560000Y-103505000D03*
X161290000Y-65405000D03*
G04 #@! TO.N,Net-(J0-Pad11)*
X176530000Y-108585000D03*
G04 #@! TO.N,Net-(U0-Pad18)*
X160401000Y-93497400D03*
X128244600Y-92684600D03*
X125649727Y-62204599D03*
X128524000Y-62547500D03*
G04 #@! TO.N,Net-(J0-Pad10)*
X179070000Y-107950000D03*
G04 #@! TO.N,Net-(U0-Pad17)*
X157454600Y-87680800D03*
X130276600Y-87833200D03*
G04 #@! TO.N,Net-(U0-Pad16)*
X137795000Y-85725000D03*
X133985000Y-86360000D03*
X132156200Y-60629800D03*
X151485600Y-60706000D03*
X137414000Y-60947300D03*
G04 #@! TO.N,Net-(J0-Pad18)*
X185420000Y-101600000D03*
X168910000Y-103505000D03*
X167640000Y-110490000D03*
G04 #@! TO.N,Net-(J0-Pad23)*
X180415001Y-110871000D03*
G04 #@! TO.N,Net-(J0-Pad24)*
X182955001Y-110871000D03*
G04 #@! TO.N,Net-(J1-Pad7)*
X118592600Y-85547200D03*
X118618000Y-92837000D03*
G04 #@! TO.N,Net-(J1-Pad8)*
X140335000Y-93345000D03*
X144145000Y-74930000D03*
X137160000Y-75565000D03*
G04 #@! TO.N,Net-(J1-Pad10)*
X137509508Y-92004891D03*
X137350599Y-71608916D03*
X135255000Y-71729599D03*
G04 #@! TO.N,Net-(J1-Pad11)*
X116205000Y-82448400D03*
X115581801Y-88265000D03*
G04 #@! TO.N,Net-(J1-Pad12)*
X134975600Y-84886800D03*
G04 #@! TO.N,Net-(J1-Pad15)*
X118719600Y-84429600D03*
X118783199Y-82016600D03*
G04 #@! TO.N,Net-(J1-Pad16)*
X117779800Y-84378800D03*
X126288800Y-72390000D03*
X117957600Y-71018400D03*
G04 #@! TO.N,Net-(J1-Pad18)*
X117132100Y-81584800D03*
X136372600Y-59867800D03*
X116611400Y-60299600D03*
G04 #@! TO.N,Net-(J1-Pad22)*
X131025999Y-54636293D03*
X117475000Y-53975000D03*
X116840000Y-74930000D03*
G04 #@! TO.N,Net-(J1-Pad23)*
X116039900Y-76535638D03*
X115581801Y-72771000D03*
G04 #@! TO.N,Net-(J1-Pad26)*
X137795000Y-48272700D03*
X128905000Y-48272700D03*
G04 #@! TO.N,Net-(J1-Pad29)*
X118351300Y-75980431D03*
X117017800Y-66497200D03*
G04 #@! TO.N,Net-(J1-Pad31)*
X126441200Y-75603199D03*
X117602000Y-74015600D03*
X116281200Y-63600701D03*
G04 #@! TO.N,Net-(J1-Pad32)*
X126517400Y-67157600D03*
G04 #@! TO.N,Net-(J1-Pad33)*
X133248400Y-75603199D03*
X118783199Y-72059800D03*
X118783199Y-61163200D03*
G04 #@! TO.N,Net-(J1-Pad35)*
X135864600Y-69037200D03*
X117500400Y-69316600D03*
X117043200Y-56718200D03*
G04 #@! TO.N,Net-(J1-Pad36)*
X134645400Y-59207400D03*
G04 #@! TO.N,Net-(J1-Pad37)*
X149504400Y-82778600D03*
X148894800Y-54889400D03*
G04 #@! TO.N,Net-(J1-Pad38)*
X133159401Y-55269910D03*
G04 #@! TO.N,Net-(J1-Pad40)*
X117602000Y-68224400D03*
X117271800Y-52451000D03*
G04 #@! TO.N,Net-(U0-Pad1)*
X157480000Y-66675000D03*
X146050000Y-97601573D03*
X149860000Y-97601573D03*
X152400000Y-64135000D03*
G04 #@! TO.N,Net-(U0-Pad19)*
X179070000Y-73025000D03*
X127635000Y-73025000D03*
G04 #@! TO.N,Net-(U2-Pad8)*
X186798209Y-61703209D03*
G04 #@! TO.N,Net-(J0-Pad41)*
X149225000Y-59055000D03*
X166370000Y-63500000D03*
X166370000Y-67945000D03*
X166370000Y-56515000D03*
G04 #@! TO.N,Net-(U3-Pad3)*
X154330401Y-64135000D03*
X124460000Y-62865000D03*
X125552200Y-73787000D03*
X127431701Y-75463400D03*
G04 #@! TO.N,Net-(U1-Pad2)*
X150495000Y-76200000D03*
X151136567Y-59833416D03*
G04 #@! TO.N,Net-(U1-Pad23)*
X178435000Y-57785000D03*
G04 #@! TO.N,Net-(U1-Pad26)*
X132080000Y-92710000D03*
G04 #@! TO.N,Net-(U1-Pad27)*
X184785000Y-64770000D03*
X126365000Y-61595000D03*
G04 #@! TO.N,Net-(U7-Pad11)*
X146685000Y-63500000D03*
G04 #@! TO.N,Net-(U6-Pad19)*
X153035000Y-59055000D03*
X150495000Y-47625000D03*
G04 #@! TO.N,Net-(U8-Pad2)*
X172720000Y-58420000D03*
X173355000Y-70485000D03*
G04 #@! TD*
D18*
G04 #@! TO.N,Net-(U0-Pad15)*
X138228962Y-96826962D02*
X136652000Y-95250000D01*
X154081925Y-96826962D02*
X138228962Y-96826962D01*
X134620000Y-86995000D02*
X133985000Y-87630000D01*
X140970000Y-86995000D02*
X134620000Y-86995000D01*
G04 #@! TO.N,Net-(U0-Pad14)*
X155821926Y-96026963D02*
X156621925Y-96826962D01*
X155555224Y-95760261D02*
X155821926Y-96026963D01*
X153569908Y-95760261D02*
X155555224Y-95760261D01*
X153013468Y-96316701D02*
X153569908Y-95760261D01*
X140258701Y-96316701D02*
X153013468Y-96316701D01*
X139192000Y-95250000D02*
X140258701Y-96316701D01*
X141605000Y-55245000D02*
X136525000Y-55245000D01*
X143510000Y-88265000D02*
X136525000Y-88265000D01*
G04 #@! TO.N,Net-(J0-Pad9)*
X144855001Y-115570000D02*
X144855001Y-110490000D01*
X144855001Y-110490000D02*
X144855001Y-110414999D01*
X144855001Y-110414999D02*
X145415000Y-109855000D01*
X145415000Y-109855000D02*
X146050000Y-109220000D01*
X146050000Y-109220000D02*
X157480000Y-109220000D01*
X165867092Y-109220000D02*
X167005000Y-108082092D01*
X157480000Y-109220000D02*
X165867092Y-109220000D01*
X167005000Y-108082092D02*
X167005000Y-107950000D01*
X167652701Y-107302299D02*
X181597299Y-107302299D01*
X167005000Y-107950000D02*
X167652701Y-107302299D01*
X181597299Y-107302299D02*
X181610000Y-107315000D01*
G04 #@! TO.N,Net-(U0-Pad13)*
X141732000Y-95250000D02*
X143637000Y-93345000D01*
X143637000Y-93345000D02*
X158750000Y-93345000D01*
G04 #@! TO.N,Net-(J0-Pad8)*
X142315001Y-115570000D02*
X142315001Y-109855000D01*
X142315001Y-109855000D02*
X142315001Y-109779999D01*
X142315001Y-109779999D02*
X142875000Y-109220000D01*
X142875000Y-109220000D02*
X143510000Y-108585000D01*
X143510000Y-108585000D02*
X153035000Y-108585000D01*
X177800000Y-106654599D02*
X174015401Y-106654599D01*
X174015401Y-106654599D02*
X167665401Y-106654599D01*
X167665401Y-106654599D02*
X165735000Y-108585000D01*
X165735000Y-108585000D02*
X152400000Y-108585000D01*
G04 #@! TO.N,Net-(U0-Pad12)*
X160870999Y-94183299D02*
X161290000Y-94602300D01*
X144272000Y-95250000D02*
X145338701Y-94183299D01*
X145338701Y-94183299D02*
X160870999Y-94183299D01*
X141605000Y-73660000D02*
X140970000Y-73025000D01*
X140970000Y-73025000D02*
X131445000Y-73025000D01*
X133337300Y-55892700D02*
X131445000Y-57785000D01*
X140335000Y-55892700D02*
X133337300Y-55892700D01*
G04 #@! TO.N,Net-(J0-Pad7)*
X139775001Y-115570000D02*
X139775001Y-109855000D01*
X139775001Y-109855000D02*
X139775001Y-109779999D01*
X139775001Y-109779999D02*
X140970000Y-108585000D01*
X140970000Y-108585000D02*
X141605000Y-107950000D01*
X141605000Y-107950000D02*
X147320000Y-107950000D01*
X147320000Y-107950000D02*
X159385000Y-107950000D01*
X159385000Y-107950000D02*
X165735000Y-107950000D01*
X165735000Y-107950000D02*
X167640000Y-106045000D01*
X167640000Y-106045000D02*
X175260000Y-106045000D01*
X175260000Y-106045000D02*
X175895000Y-105410000D01*
G04 #@! TO.N,Net-(U0-Pad11)*
X162664963Y-95250000D02*
X164241925Y-96826962D01*
X146812000Y-95250000D02*
X162664963Y-95250000D01*
X142861407Y-53988593D02*
X143306800Y-53543200D01*
X129438400Y-53988593D02*
X142861407Y-53988593D01*
X144145000Y-52705000D02*
X143306800Y-53543200D01*
X143306800Y-53543200D02*
X143078299Y-53771701D01*
G04 #@! TO.N,Net-(J0-Pad6)*
X167640000Y-105397300D02*
X172720000Y-105397300D01*
X167640000Y-105410000D02*
X167640000Y-105397300D01*
X165735000Y-107315000D02*
X167640000Y-105410000D01*
X139065000Y-107315000D02*
X165735000Y-107315000D01*
X137235001Y-109144999D02*
X139065000Y-107315000D01*
X137235001Y-115570000D02*
X137235001Y-109144999D01*
G04 #@! TO.N,Net-(J0-Pad1)*
X171061926Y-97626961D02*
X171861925Y-96826962D01*
X170795224Y-97893663D02*
X171061926Y-97626961D01*
X167848626Y-97893663D02*
X170795224Y-97893663D01*
X166781925Y-96826962D02*
X167848626Y-97893663D01*
X124535001Y-115570000D02*
X124535001Y-107239999D01*
X124535001Y-107239999D02*
X127635000Y-104140000D01*
X178435000Y-91440000D02*
X172085000Y-91440000D01*
X160655000Y-104140000D02*
X161925000Y-102870000D01*
X127635000Y-104140000D02*
X160655000Y-104140000D01*
X161925000Y-102870000D02*
X162560000Y-102235000D01*
X162560000Y-102235000D02*
X166370000Y-102235000D01*
G04 #@! TO.N,Net-(J0-Pad5)*
X134695001Y-115570000D02*
X134695001Y-110490000D01*
X134695001Y-110490000D02*
X134695001Y-108509999D01*
X134695001Y-108509999D02*
X135890000Y-107315000D01*
X135890000Y-107315000D02*
X136525000Y-106680000D01*
X136525000Y-106680000D02*
X160020000Y-106680000D01*
X175260000Y-77470000D02*
X172085000Y-77470000D01*
X165854392Y-106680000D02*
X167759392Y-104775000D01*
X160020000Y-106680000D02*
X165854392Y-106680000D01*
X167759392Y-104775000D02*
X170789600Y-104775000D01*
X170789600Y-104775000D02*
X170815000Y-104749600D01*
G04 #@! TO.N,Net-(J0-Pad12)*
X152475001Y-115570000D02*
X152475001Y-111760000D01*
X152475001Y-111760000D02*
X152754391Y-111480610D01*
X152754391Y-111480610D02*
X152754391Y-111405609D01*
X152754391Y-111405609D02*
X153035000Y-111125000D01*
X153035000Y-111125000D02*
X158750000Y-111125000D01*
X158750000Y-111125000D02*
X165735000Y-111125000D01*
X165735000Y-111125000D02*
X167640000Y-109220000D01*
X167640000Y-109220000D02*
X169557700Y-109220000D01*
G04 #@! TO.N,Net-(J0-Pad4)*
X175583598Y-78105000D02*
X174948598Y-78740000D01*
X177165000Y-78105000D02*
X175583598Y-78105000D01*
X174948598Y-78740000D02*
X169545000Y-78740000D01*
X133985000Y-106045000D02*
X160655000Y-106045000D01*
X132155001Y-115570000D02*
X132155001Y-107874999D01*
X132155001Y-107874999D02*
X133985000Y-106045000D01*
X160655000Y-106045000D02*
X165100000Y-106045000D01*
X165100000Y-106045000D02*
X167005000Y-104140000D01*
G04 #@! TO.N,Net-(J0-Pad3)*
X129615001Y-115570000D02*
X129615001Y-107874999D01*
X129615001Y-107874999D02*
X132080000Y-105410000D01*
X132080000Y-105410000D02*
X161925000Y-105410000D01*
X161925000Y-105410000D02*
X163195000Y-105410000D01*
X163195000Y-105410000D02*
X164465000Y-104140000D01*
G04 #@! TO.N,Net-(J0-Pad2)*
X127075001Y-115570000D02*
X127075001Y-106604999D01*
X127075001Y-106604999D02*
X128905000Y-104775000D01*
X161290000Y-104775000D02*
X160655000Y-104775000D01*
X162560000Y-103505000D02*
X161290000Y-104775000D01*
X128905000Y-104775000D02*
X160655000Y-104775000D01*
X161290000Y-65405000D02*
X156210000Y-65405000D01*
G04 #@! TO.N,Net-(J0-Pad11)*
X149935001Y-115570000D02*
X149935001Y-111125000D01*
X149935001Y-111125000D02*
X149935001Y-111049999D01*
X149935001Y-111049999D02*
X150495000Y-110490000D01*
X150495000Y-110490000D02*
X157480000Y-110490000D01*
X157480000Y-110490000D02*
X164465000Y-110490000D01*
X164465000Y-110490000D02*
X165735000Y-110490000D01*
X176517299Y-108572299D02*
X176530000Y-108585000D01*
X165735000Y-110490000D02*
X167652701Y-108572299D01*
X167652701Y-108572299D02*
X176517299Y-108572299D01*
G04 #@! TO.N,Net-(U0-Pad18)*
X129018389Y-93458389D02*
X128244600Y-92684600D01*
X139263013Y-93458389D02*
X129018389Y-93458389D01*
X140024103Y-92697299D02*
X139263013Y-93458389D01*
X159600899Y-92697299D02*
X140024103Y-92697299D01*
X160401000Y-93497400D02*
X159600899Y-92697299D01*
X128485902Y-62585598D02*
X128524000Y-62547500D01*
X125649727Y-62204599D02*
X126030726Y-62585598D01*
X126030726Y-62585598D02*
X128485902Y-62585598D01*
G04 #@! TO.N,Net-(J0-Pad10)*
X147395001Y-115570000D02*
X147395001Y-111125000D01*
X147395001Y-111125000D02*
X147395001Y-111049999D01*
X147395001Y-111049999D02*
X147955000Y-110490000D01*
X147955000Y-110490000D02*
X148590000Y-109855000D01*
X148590000Y-109855000D02*
X158115000Y-109855000D01*
X158115000Y-109855000D02*
X165735000Y-109855000D01*
X165735000Y-109855000D02*
X167640000Y-107950000D01*
X179057299Y-107937299D02*
X179070000Y-107950000D01*
X167640000Y-107950000D02*
X167652701Y-107937299D01*
X167652701Y-107937299D02*
X179057299Y-107937299D01*
G04 #@! TO.N,Net-(U0-Pad17)*
X134295897Y-88277701D02*
X130721101Y-88277701D01*
X130721101Y-88277701D02*
X130276600Y-87833200D01*
X134956299Y-87617299D02*
X134295897Y-88277701D01*
X157073601Y-87299801D02*
X143516601Y-87299801D01*
X157454600Y-87680800D02*
X157073601Y-87299801D01*
X143516601Y-87299801D02*
X142907012Y-87909390D01*
X142907012Y-87909390D02*
X137127988Y-87909390D01*
X137127988Y-87909390D02*
X136835897Y-87617299D01*
X136835897Y-87617299D02*
X134956299Y-87617299D01*
G04 #@! TO.N,Net-(U0-Pad16)*
X137795000Y-85725000D02*
X134620000Y-85725000D01*
X134620000Y-85725000D02*
X133985000Y-86360000D01*
X151180801Y-61010799D02*
X151485600Y-60706000D01*
X132156200Y-60629800D02*
X132537199Y-61010799D01*
X132537199Y-61010799D02*
X137414000Y-60947300D01*
X137414000Y-60947300D02*
X151180801Y-61010799D01*
G04 #@! TO.N,Net-(J0-Pad18)*
X185420000Y-101600000D02*
X183515000Y-103505000D01*
X183515000Y-103505000D02*
X168910000Y-103505000D01*
X167640000Y-115494999D02*
X167715001Y-115570000D01*
X167640000Y-110490000D02*
X167640000Y-115494999D01*
G04 #@! TO.N,Net-(J0-Pad23)*
X180415001Y-111409815D02*
X180415001Y-115570000D01*
X180415001Y-110871000D02*
X180415001Y-111409815D01*
G04 #@! TO.N,Net-(J0-Pad24)*
X182955001Y-115570000D02*
X182955001Y-110871000D01*
G04 #@! TO.N,Net-(J1-Pad7)*
X123212381Y-84151099D02*
X123516282Y-84455000D01*
X127635000Y-84455000D02*
X128905000Y-83185000D01*
X123516282Y-84455000D02*
X127635000Y-84455000D01*
X121031000Y-84151099D02*
X120369701Y-84151099D01*
X121031000Y-84151099D02*
X123212381Y-84151099D01*
X120369701Y-84151099D02*
X118973600Y-85547200D01*
X118973600Y-85547200D02*
X118592600Y-85547200D01*
X111339999Y-92114001D02*
X110490000Y-92964000D01*
X111606701Y-91847299D02*
X111339999Y-92114001D01*
X113919899Y-91847299D02*
X111606701Y-91847299D01*
X114376111Y-92303511D02*
X113919899Y-91847299D01*
X118084511Y-92303511D02*
X114376111Y-92303511D01*
X118618000Y-92837000D02*
X118084511Y-92303511D01*
G04 #@! TO.N,Net-(J1-Pad8)*
X139866001Y-93813999D02*
X140335000Y-93345000D01*
X113030000Y-92964000D02*
X113879999Y-93813999D01*
X113879999Y-93813999D02*
X139866001Y-93813999D01*
X144145000Y-74930000D02*
X137795000Y-74930000D01*
X137795000Y-74930000D02*
X137160000Y-75565000D01*
G04 #@! TO.N,Net-(J1-Pad10)*
X136372501Y-91947901D02*
X136601200Y-92176600D01*
X113030000Y-90424000D02*
X114553901Y-91947901D01*
X137452518Y-91947901D02*
X137509508Y-92004891D01*
X135915400Y-91947901D02*
X137452518Y-91947901D01*
X135915400Y-91947901D02*
X136372501Y-91947901D01*
X114553901Y-91947901D02*
X135915400Y-91947901D01*
X137350599Y-71608916D02*
X135375683Y-71608916D01*
X135375683Y-71608916D02*
X135255000Y-71729599D01*
G04 #@! TO.N,Net-(J1-Pad11)*
X131445000Y-83185000D02*
X130378299Y-82118299D01*
X111339999Y-88733999D02*
X110490000Y-87884000D01*
X111606701Y-89000701D02*
X111339999Y-88733999D01*
X114846100Y-89000701D02*
X111606701Y-89000701D01*
X115581801Y-88265000D02*
X114846100Y-89000701D01*
X116743815Y-82448400D02*
X116972415Y-82677000D01*
X116205000Y-82448400D02*
X116743815Y-82448400D01*
X122682099Y-82677000D02*
X123240800Y-82118299D01*
X116972415Y-82677000D02*
X122682099Y-82677000D01*
X130378299Y-82118299D02*
X123240800Y-82118299D01*
G04 #@! TO.N,Net-(J1-Pad12)*
X134493009Y-85369391D02*
X134975600Y-84886800D01*
X123586301Y-85369391D02*
X134493009Y-85369391D01*
X121921691Y-87034001D02*
X123586301Y-85369391D01*
X113030000Y-87884000D02*
X113879999Y-87034001D01*
X113879999Y-87034001D02*
X121921691Y-87034001D01*
G04 #@! TO.N,Net-(J1-Pad13)*
X120964573Y-84506709D02*
X122606709Y-84506709D01*
X118934381Y-86536901D02*
X120964573Y-84506709D01*
X110490000Y-85344000D02*
X111682901Y-86536901D01*
X111682901Y-86536901D02*
X118934381Y-86536901D01*
X133185001Y-83984999D02*
X133985000Y-83185000D01*
X132359391Y-84810609D02*
X133185001Y-83984999D01*
X122910609Y-84810609D02*
X132359391Y-84810609D01*
X122606709Y-84506709D02*
X122910609Y-84810609D01*
G04 #@! TO.N,Net-(J1-Pad15)*
X135153400Y-81813400D02*
X135051800Y-81711800D01*
X111837099Y-84151099D02*
X113589699Y-84151099D01*
X110490000Y-82804000D02*
X111837099Y-84151099D01*
X118122699Y-85026501D02*
X118719600Y-84429600D01*
X113589699Y-84151099D02*
X114465101Y-85026501D01*
X114465101Y-85026501D02*
X118122699Y-85026501D01*
X134975601Y-81635601D02*
X135458200Y-82118200D01*
X119164198Y-81635601D02*
X134975601Y-81635601D01*
X118783199Y-82016600D02*
X119164198Y-81635601D01*
X136525000Y-83185000D02*
X135458200Y-82118200D01*
X135458200Y-82118200D02*
X135153400Y-81813400D01*
G04 #@! TO.N,Net-(J1-Pad16)*
X113030000Y-82804000D02*
X114604800Y-84378800D01*
X114604800Y-84378800D02*
X117779800Y-84378800D01*
X122779682Y-71018400D02*
X117957600Y-71018400D01*
X126288800Y-72390000D02*
X124151282Y-72390000D01*
X124151282Y-72390000D02*
X122779682Y-71018400D01*
G04 #@! TO.N,Net-(J1-Pad18)*
X137324999Y-44285001D02*
X136525000Y-45085000D01*
X137591701Y-44018299D02*
X137324999Y-44285001D01*
X145618299Y-44018299D02*
X137591701Y-44018299D01*
X146685000Y-45085000D02*
X145618299Y-44018299D01*
X113030000Y-80264000D02*
X115811300Y-80264000D01*
X115811300Y-80264000D02*
X117132100Y-81584800D01*
X119680882Y-60299600D02*
X116611400Y-60299600D01*
X120772983Y-61391701D02*
X119680882Y-60299600D01*
X121797017Y-61391701D02*
X120772983Y-61391701D01*
X136372600Y-59867800D02*
X123320918Y-59867800D01*
X123320918Y-59867800D02*
X121797017Y-61391701D01*
G04 #@! TO.N,Net-(J1-Pad19)*
X136880600Y-81000600D02*
X139065000Y-83185000D01*
X110490000Y-77724000D02*
X111339999Y-78573999D01*
X111339999Y-78573999D02*
X111720999Y-78573999D01*
X111720999Y-78573999D02*
X112294299Y-79147299D01*
X112294299Y-79147299D02*
X116218793Y-79147299D01*
X116218793Y-79147299D02*
X118072094Y-81000600D01*
X118072094Y-81000600D02*
X136880600Y-81000600D01*
G04 #@! TO.N,Net-(J1-Pad21)*
X141605000Y-82053630D02*
X140170970Y-80619600D01*
X141605000Y-83185000D02*
X141605000Y-82053630D01*
X140170970Y-80619600D02*
X118643400Y-80619600D01*
X118643400Y-80619600D02*
X115392200Y-77368400D01*
X115392200Y-77368400D02*
X115392200Y-77317600D01*
X111339999Y-76033999D02*
X110490000Y-75184000D01*
X111837099Y-76531099D02*
X111339999Y-76033999D01*
X114605699Y-76531099D02*
X111837099Y-76531099D01*
X115392200Y-77317600D02*
X114605699Y-76531099D01*
G04 #@! TO.N,Net-(J1-Pad22)*
X135890000Y-46990000D02*
X133985000Y-45085000D01*
X144145000Y-45085000D02*
X142240000Y-46990000D01*
X142240000Y-46990000D02*
X135890000Y-46990000D01*
X131025999Y-54636293D02*
X118136293Y-54636293D01*
X118136293Y-54636293D02*
X117475000Y-53975000D01*
X113284000Y-74930000D02*
X113030000Y-75184000D01*
X116840000Y-74930000D02*
X113284000Y-74930000D01*
G04 #@! TO.N,Net-(J1-Pad23)*
X144145000Y-83185000D02*
X141122400Y-80162400D01*
X141122400Y-80162400D02*
X118973600Y-80162400D01*
X118973600Y-80162400D02*
X116039900Y-77228700D01*
X116039900Y-77228700D02*
X116039900Y-76535638D01*
X115200802Y-73151999D02*
X114833401Y-73151999D01*
X115581801Y-72771000D02*
X115200802Y-73151999D01*
X111339999Y-73493999D02*
X110490000Y-72644000D01*
X111606701Y-73760701D02*
X111339999Y-73493999D01*
X114224699Y-73760701D02*
X111606701Y-73760701D01*
X114833401Y-73151999D02*
X114224699Y-73760701D01*
G04 #@! TO.N,Net-(J1-Pad24)*
X134497017Y-44018299D02*
X132511701Y-44018299D01*
X135051701Y-44572983D02*
X134497017Y-44018299D01*
X132511701Y-44018299D02*
X132244999Y-44285001D01*
X135051701Y-45190419D02*
X135051701Y-44572983D01*
X136012983Y-46151701D02*
X135051701Y-45190419D01*
X137468718Y-45720000D02*
X137037017Y-46151701D01*
X138226701Y-46151701D02*
X137795000Y-45720000D01*
X137795000Y-45720000D02*
X137468718Y-45720000D01*
X139577017Y-46151701D02*
X138226701Y-46151701D01*
X132244999Y-44285001D02*
X131445000Y-45085000D01*
X140643718Y-45085000D02*
X139577017Y-46151701D01*
X137037017Y-46151701D02*
X136012983Y-46151701D01*
X141605000Y-45085000D02*
X140643718Y-45085000D01*
X111682901Y-71296901D02*
X108736501Y-71296901D01*
X113030000Y-72644000D02*
X111682901Y-71296901D01*
X108736501Y-71296901D02*
X108407200Y-70967600D01*
X108407200Y-70967600D02*
X108407200Y-47269400D01*
X130645001Y-44285001D02*
X131445000Y-45085000D01*
X130378299Y-44018299D02*
X130645001Y-44285001D01*
X111658301Y-44018299D02*
X130378299Y-44018299D01*
X108407200Y-47269400D02*
X111658301Y-44018299D01*
G04 #@! TO.N,Net-(J1-Pad26)*
X137795000Y-48272700D02*
X128905000Y-48272700D01*
X109953983Y-68680701D02*
X109042200Y-67768918D01*
X113030000Y-70104000D02*
X111606701Y-68680701D01*
X111606701Y-68680701D02*
X109953983Y-68680701D01*
X128524001Y-48653699D02*
X128905000Y-48272700D01*
X128485999Y-48691701D02*
X128524001Y-48653699D01*
X112356805Y-48691701D02*
X128485999Y-48691701D01*
X109042200Y-52006306D02*
X112356805Y-48691701D01*
X109042200Y-67768918D02*
X109042200Y-52006306D01*
G04 #@! TO.N,Net-(J1-Pad29)*
X145618299Y-82118299D02*
X143581207Y-82118299D01*
X146685000Y-83185000D02*
X145618299Y-82118299D01*
X143581207Y-82118299D02*
X141142708Y-79679800D01*
X141142708Y-79679800D02*
X119481600Y-79679800D01*
X119481600Y-79679800D02*
X118745000Y-78943200D01*
X118745000Y-78943200D02*
X118745000Y-76374131D01*
X118745000Y-76374131D02*
X118351300Y-75980431D01*
X111339999Y-65873999D02*
X110490000Y-65024000D01*
X111682901Y-66216901D02*
X111339999Y-65873999D01*
X116198686Y-66216901D02*
X111682901Y-66216901D01*
X116478985Y-66497200D02*
X116198686Y-66216901D01*
X117017800Y-66497200D02*
X116478985Y-66497200D01*
G04 #@! TO.N,Net-(J1-Pad31)*
X117718101Y-74131701D02*
X117602000Y-74015600D01*
X126441200Y-75603199D02*
X124969702Y-74131701D01*
X124969702Y-74131701D02*
X117718101Y-74131701D01*
X111339999Y-63333999D02*
X110490000Y-62484000D01*
X111606701Y-63600701D02*
X111339999Y-63333999D01*
X116281200Y-63600701D02*
X111606701Y-63600701D01*
G04 #@! TO.N,Net-(J1-Pad32)*
X113030000Y-62484000D02*
X118211600Y-62484000D01*
X118211600Y-62484000D02*
X122885200Y-67157600D01*
X122885200Y-67157600D02*
X126517400Y-67157600D01*
G04 #@! TO.N,Net-(J1-Pad33)*
X127704499Y-74777600D02*
X127045708Y-74777600D01*
X133248400Y-75603199D02*
X128530098Y-75603199D01*
X128530098Y-75603199D02*
X127704499Y-74777600D01*
X126199901Y-73931793D02*
X126199901Y-73476103D01*
X127045708Y-74777600D02*
X126199901Y-73931793D01*
X125863097Y-73139299D02*
X123685301Y-73139299D01*
X126199901Y-73476103D02*
X125863097Y-73139299D01*
X122938017Y-73139299D02*
X122351701Y-72552983D01*
X123685301Y-73139299D02*
X122938017Y-73139299D01*
X118844700Y-71998299D02*
X118783199Y-72059800D01*
X122351701Y-72552983D02*
X121797017Y-71998299D01*
X121797017Y-71998299D02*
X118844700Y-71998299D01*
X111339999Y-60793999D02*
X110490000Y-59944000D01*
X111682901Y-61136901D02*
X111339999Y-60793999D01*
X118218085Y-61136901D02*
X111682901Y-61136901D01*
X118244384Y-61163200D02*
X118218085Y-61136901D01*
X118783199Y-61163200D02*
X118244384Y-61163200D01*
G04 #@! TO.N,Net-(J1-Pad35)*
X135864600Y-69037200D02*
X117779800Y-69037200D01*
X117779800Y-69037200D02*
X117500400Y-69316600D01*
X111339999Y-56554001D02*
X110490000Y-57404000D01*
X111606701Y-56287299D02*
X111339999Y-56554001D01*
X113950391Y-56287299D02*
X111606701Y-56287299D01*
X114381292Y-56718200D02*
X113950391Y-56287299D01*
X117043200Y-56718200D02*
X114381292Y-56718200D01*
G04 #@! TO.N,Net-(J1-Pad36)*
X114232081Y-57404000D02*
X116035481Y-59207400D01*
X113030000Y-57404000D02*
X114232081Y-57404000D01*
X116035481Y-59207400D02*
X134645400Y-59207400D01*
X134645400Y-59207400D02*
X134772400Y-59207400D01*
G04 #@! TO.N,Net-(J1-Pad37)*
X117533305Y-54991903D02*
X117988995Y-54991903D01*
X116288701Y-53747299D02*
X117533305Y-54991903D01*
X110490000Y-54864000D02*
X111606701Y-53747299D01*
X111606701Y-53747299D02*
X116288701Y-53747299D01*
X144145000Y-78105000D02*
X148818600Y-82778600D01*
X148818600Y-82778600D02*
X149504400Y-82778600D01*
X125971291Y-55283994D02*
X125679200Y-54991903D01*
X131336896Y-55283994D02*
X125971291Y-55283994D01*
X132112489Y-54508401D02*
X131336896Y-55283994D01*
X148513801Y-54508401D02*
X132112489Y-54508401D01*
X148894800Y-54889400D02*
X148513801Y-54508401D01*
X117988995Y-54991903D02*
X125679200Y-54991903D01*
X125679200Y-54991903D02*
X126111000Y-54991903D01*
G04 #@! TO.N,Net-(J1-Pad38)*
X113030000Y-54864000D02*
X113879999Y-55713999D01*
X132176497Y-55713999D02*
X125958600Y-55713999D01*
X132620586Y-55269910D02*
X132176497Y-55713999D01*
X133159401Y-55269910D02*
X132620586Y-55269910D01*
X113879999Y-55713999D02*
X125958600Y-55713999D01*
X125958600Y-55713999D02*
X126300599Y-55713999D01*
G04 #@! TO.N,Net-(J1-Pad40)*
X144145000Y-70485000D02*
X141833600Y-68173600D01*
X141833600Y-68173600D02*
X117652800Y-68173600D01*
X117652800Y-68173600D02*
X117602000Y-68224400D01*
X113157000Y-52451000D02*
X113030000Y-52324000D01*
X117271800Y-52451000D02*
X113157000Y-52451000D01*
G04 #@! TO.N,Net-(U0-Pad1)*
X187591801Y-67145001D02*
X188391800Y-67945000D01*
X187325099Y-66878299D02*
X187591801Y-67145001D01*
X177317301Y-66878299D02*
X187325099Y-66878299D01*
X176326800Y-67868800D02*
X177317301Y-66878299D01*
X169091718Y-66675000D02*
X157480000Y-66675000D01*
X176326800Y-67868800D02*
X175133000Y-66675000D01*
X175133000Y-66675000D02*
X169091718Y-66675000D01*
X146050000Y-97601573D02*
X149860000Y-97601573D01*
X155410001Y-63664999D02*
X156210000Y-62865000D01*
X155410001Y-64013998D02*
X155410001Y-63664999D01*
X154641298Y-64782701D02*
X155410001Y-64013998D01*
X154008983Y-64782701D02*
X154641298Y-64782701D01*
X153361282Y-64135000D02*
X154008983Y-64782701D01*
X152400000Y-64135000D02*
X153361282Y-64135000D01*
G04 #@! TO.N,Net-(U0-Pad19)*
X128282701Y-72377299D02*
X127635000Y-73025000D01*
X179070000Y-73025000D02*
X178422299Y-72377299D01*
X178422299Y-72377299D02*
X128282701Y-72377299D01*
G04 #@! TO.N,Net-(U2-Pad8)*
X164629999Y-59525001D02*
X163830000Y-60325000D01*
X164972901Y-59182099D02*
X164629999Y-59525001D01*
X169218817Y-59182099D02*
X164972901Y-59182099D01*
X170285518Y-60248800D02*
X169218817Y-59182099D01*
X176326800Y-60248800D02*
X170285518Y-60248800D01*
X176326800Y-60248800D02*
X177781209Y-61703209D01*
X177781209Y-61703209D02*
X186798209Y-61703209D01*
G04 #@! TO.N,Net-(J0-Pad41)*
X150495000Y-57785000D02*
X156210000Y-57785000D01*
X149225000Y-59055000D02*
X150495000Y-57785000D01*
X167729000Y-55168800D02*
X168706800Y-55168800D01*
X166509899Y-56387901D02*
X167729000Y-55168800D01*
X157607099Y-56387901D02*
X166509899Y-56387901D01*
X156210000Y-57785000D02*
X157607099Y-56387901D01*
X179794000Y-55245000D02*
X180771800Y-55245000D01*
X178727299Y-56311701D02*
X179794000Y-55245000D01*
X170827501Y-56311701D02*
X178727299Y-56311701D01*
X169684600Y-55168800D02*
X170827501Y-56311701D01*
X168706800Y-55168800D02*
X169684600Y-55168800D01*
X168706800Y-62788800D02*
X167081200Y-62788800D01*
X167081200Y-62788800D02*
X166370000Y-63500000D01*
X166370000Y-67945000D02*
X163830000Y-67945000D01*
D19*
G04 #@! TO.N,Net-(C1-Pad2)*
X121285000Y-88265000D02*
X123825000Y-90805000D01*
X121285000Y-75565000D02*
X123825000Y-78105000D01*
X145885001Y-90005001D02*
X146685000Y-90805000D01*
X145224599Y-89344599D02*
X145885001Y-90005001D01*
X125285401Y-89344599D02*
X145224599Y-89344599D01*
X123825000Y-90805000D02*
X125285401Y-89344599D01*
X144272000Y-100330000D02*
X146812000Y-102870000D01*
X121285000Y-100330000D02*
X144272000Y-100330000D01*
X125285401Y-76644599D02*
X123825000Y-78105000D01*
X145224599Y-76644599D02*
X125285401Y-76644599D01*
X146685000Y-78105000D02*
X145224599Y-76644599D01*
X125285401Y-63944599D02*
X123825000Y-65405000D01*
X145224599Y-63944599D02*
X125285401Y-63944599D01*
X146685000Y-65405000D02*
X145224599Y-63944599D01*
X123825000Y-65365000D02*
X121285000Y-62825000D01*
X123825000Y-65405000D02*
X123825000Y-65365000D01*
X125285401Y-51244599D02*
X123825000Y-52705000D01*
X146355969Y-51244599D02*
X125285401Y-51244599D01*
X146685000Y-51573630D02*
X146355969Y-51244599D01*
X146685000Y-52705000D02*
X146685000Y-51573630D01*
X123825000Y-52665000D02*
X121285000Y-50125000D01*
X123825000Y-52705000D02*
X123825000Y-52665000D01*
X150166962Y-81586962D02*
X154081925Y-81586962D01*
X146685000Y-78105000D02*
X150166962Y-81586962D01*
X151130000Y-65405000D02*
X156210000Y-70485000D01*
X146685000Y-65405000D02*
X151130000Y-65405000D01*
X146685000Y-52705000D02*
X158790000Y-52705000D01*
X160164963Y-87670000D02*
X190500000Y-87670000D01*
X154081925Y-81586962D02*
X160164963Y-87670000D01*
G04 #@! TO.N,Net-(C1-Pad1)*
X185495001Y-115570000D02*
X185495001Y-109220000D01*
X187101925Y-107613076D02*
X187101925Y-96826962D01*
X185495001Y-109220000D02*
X187101925Y-107613076D01*
X121285000Y-97830000D02*
X121372000Y-97830000D01*
X187101925Y-93568075D02*
X190500000Y-90170000D01*
X187101925Y-96826962D02*
X187101925Y-93568075D01*
X191960401Y-84832638D02*
X188714725Y-81586962D01*
X191960401Y-88709599D02*
X191960401Y-84832638D01*
X190500000Y-90170000D02*
X191960401Y-88709599D01*
X189191799Y-56044999D02*
X188391800Y-55245000D01*
X189852201Y-56705401D02*
X189191799Y-56044999D01*
X189852201Y-80449486D02*
X189852201Y-56705401D01*
X188714725Y-81586962D02*
X189852201Y-80449486D01*
X187101925Y-81586962D02*
X188714725Y-81586962D01*
X188391800Y-55245000D02*
X185851800Y-52705000D01*
X177126799Y-54368801D02*
X176326800Y-55168800D01*
X180251001Y-51244599D02*
X177126799Y-54368801D01*
X185522769Y-51244599D02*
X180251001Y-51244599D01*
X185851800Y-51573630D02*
X185522769Y-51244599D01*
X185851800Y-52705000D02*
X185851800Y-51573630D01*
X176326800Y-55041800D02*
X173990000Y-52705000D01*
X176326800Y-55168800D02*
X176326800Y-55041800D01*
X164629999Y-54445001D02*
X163830000Y-55245000D01*
X167830401Y-51244599D02*
X164629999Y-54445001D01*
X172529599Y-51244599D02*
X167830401Y-51244599D01*
X173990000Y-52705000D02*
X172529599Y-51244599D01*
X163830000Y-55245000D02*
X161290000Y-52705000D01*
X113244000Y-97830000D02*
X113030000Y-98044000D01*
X121285000Y-97830000D02*
X113244000Y-97830000D01*
X113030000Y-98044000D02*
X113030000Y-100584000D01*
X186301926Y-97626961D02*
X187101925Y-96826962D01*
X185285914Y-98642973D02*
X186301926Y-97626961D01*
X122097973Y-98642973D02*
X185285914Y-98642973D01*
X121285000Y-97830000D02*
X122097973Y-98642973D01*
X123865000Y-95250000D02*
X121285000Y-97830000D01*
X123952000Y-95250000D02*
X123865000Y-95250000D01*
D20*
G04 #@! TO.N,Net-(C5-Pad1)*
X121285000Y-73025000D02*
X121285000Y-73065000D01*
X121285000Y-85725000D02*
X121285000Y-85765000D01*
X109640001Y-81113999D02*
X110490000Y-80264000D01*
X109208199Y-81545801D02*
X109640001Y-81113999D01*
X109208199Y-100507799D02*
X109208199Y-81545801D01*
X109284400Y-100584000D02*
X109208199Y-100507799D01*
X110490000Y-100584000D02*
X109284400Y-100584000D01*
X117475000Y-83185000D02*
X123825000Y-83185000D01*
X115851430Y-83185000D02*
X117475000Y-83185000D01*
X114845201Y-82178771D02*
X115851430Y-83185000D01*
X114845201Y-81469601D02*
X114845201Y-82178771D01*
X111695601Y-81469601D02*
X114845201Y-81469601D01*
X110490000Y-80264000D02*
X111695601Y-81469601D01*
D18*
G04 #@! TO.N,Net-(U3-Pad3)*
X127228600Y-75463400D02*
X127431701Y-75463400D01*
X125552200Y-73787000D02*
X127228600Y-75463400D01*
X153047700Y-62852299D02*
X154330401Y-64135000D01*
X136525000Y-62852299D02*
X153047700Y-62852299D01*
X136207499Y-63169800D02*
X136525000Y-62852299D01*
X124460000Y-62865000D02*
X124472701Y-62852299D01*
X124472701Y-62852299D02*
X125590299Y-62852299D01*
X125590299Y-62852299D02*
X125933200Y-63195200D01*
X125933200Y-63195200D02*
X133832600Y-63195200D01*
X133832600Y-63195200D02*
X133858000Y-63169800D01*
X133858000Y-63169800D02*
X136207499Y-63169800D01*
G04 #@! TO.N,Net-(U3-Pad8)*
X147484999Y-71284999D02*
X146685000Y-70485000D01*
X147827901Y-71627901D02*
X147484999Y-71284999D01*
X156758593Y-71627901D02*
X147827901Y-71627901D01*
X157901494Y-70485000D02*
X156758593Y-71627901D01*
X163830000Y-70485000D02*
X157901494Y-70485000D01*
G04 #@! TO.N,Net-(U1-Pad2)*
X178213681Y-76200000D02*
X150495000Y-76200000D01*
X184561925Y-81586962D02*
X179174963Y-76200000D01*
X179174963Y-76200000D02*
X178213681Y-76200000D01*
X139090401Y-60350401D02*
X136525000Y-57785000D01*
X149225000Y-60350401D02*
X139090401Y-60350401D01*
X149763815Y-60350401D02*
X149225000Y-60350401D01*
X150080767Y-60350401D02*
X149763815Y-60350401D01*
X150597752Y-59833416D02*
X150080767Y-60350401D01*
X151136567Y-59833416D02*
X150597752Y-59833416D01*
G04 #@! TO.N,Net-(U1-Pad23)*
X144944999Y-58584999D02*
X144145000Y-57785000D01*
X146062701Y-59702701D02*
X144944999Y-58584999D01*
X151097988Y-58140610D02*
X149535897Y-59702701D01*
X154986892Y-58140610D02*
X151097988Y-58140610D01*
X164342017Y-58851701D02*
X155697983Y-58851701D01*
X166031017Y-57162701D02*
X164342017Y-58851701D01*
X166680897Y-57162701D02*
X166031017Y-57162701D01*
X169218817Y-56642099D02*
X167201499Y-56642099D01*
X155697983Y-58851701D02*
X154986892Y-58140610D01*
X169244029Y-56667311D02*
X169218817Y-56642099D01*
X167201499Y-56642099D02*
X166680897Y-57162701D01*
X172872311Y-56667311D02*
X169244029Y-56667311D01*
X149535897Y-59702701D02*
X146062701Y-59702701D01*
X174980501Y-58775501D02*
X172872311Y-56667311D01*
X177444499Y-58775501D02*
X174980501Y-58775501D01*
X178435000Y-57785000D02*
X177444499Y-58775501D01*
G04 #@! TO.N,Net-(U1-Pad26)*
X177282664Y-92087701D02*
X178231800Y-93036837D01*
X132080000Y-92710000D02*
X132092701Y-92697299D01*
X132092701Y-92697299D02*
X138061701Y-92697299D01*
X138061701Y-92697299D02*
X138760200Y-91998800D01*
X178231800Y-93036837D02*
X182021925Y-96826962D01*
X138760200Y-91998800D02*
X162966400Y-91998800D01*
X162966400Y-91998800D02*
X163055301Y-92087701D01*
X163055301Y-92087701D02*
X177282664Y-92087701D01*
G04 #@! TO.N,Net-(U1-Pad27)*
X167660209Y-61798299D02*
X161721701Y-61798299D01*
X167736409Y-61722099D02*
X167660209Y-61798299D01*
X176838817Y-61722099D02*
X167736409Y-61722099D01*
X179251718Y-64135000D02*
X176838817Y-61722099D01*
X184785000Y-64770000D02*
X184150000Y-64135000D01*
X184150000Y-64135000D02*
X179251718Y-64135000D01*
X161721701Y-61798299D02*
X154508299Y-61798299D01*
X154508299Y-61798299D02*
X154305000Y-61595000D01*
X154305000Y-61595000D02*
X126365000Y-61595000D01*
G04 #@! TO.N,Net-(U7-Pad11)*
X153459684Y-66675000D02*
X150919684Y-64135000D01*
X156518718Y-66675000D02*
X153459684Y-66675000D01*
X158855419Y-69011701D02*
X156518718Y-66675000D01*
X168706800Y-67868800D02*
X167563899Y-69011701D01*
X167563899Y-69011701D02*
X158855419Y-69011701D01*
X150919684Y-64135000D02*
X147320000Y-64135000D01*
X147320000Y-64135000D02*
X146685000Y-63500000D01*
G04 #@! TO.N,Net-(U6-Pad19)*
X155371701Y-61391701D02*
X153035000Y-59055000D01*
X168706800Y-60248800D02*
X167563899Y-61391701D01*
X167563899Y-61391701D02*
X155371701Y-61391701D01*
X128905000Y-47625000D02*
X126365000Y-45085000D01*
X150495000Y-47625000D02*
X128905000Y-47625000D01*
G04 #@! TO.N,Net-(U8-Pad2)*
X168706800Y-57708800D02*
X172008800Y-57708800D01*
X172008800Y-57708800D02*
X172720000Y-58420000D01*
X176250600Y-70485000D02*
X176326800Y-70408800D01*
X173355000Y-70485000D02*
X176250600Y-70485000D01*
G04 #@! TO.N,Net-(U8-Pad11)*
X171246800Y-62788800D02*
X168706800Y-65328800D01*
X176326800Y-62788800D02*
X171246800Y-62788800D01*
G04 #@! TD*
M02*
