G04 #@! TF.GenerationSoftware,KiCad,Pcbnew,5.1.5+dfsg1-2build2*
G04 #@! TF.CreationDate,2020-11-19T16:33:02-05:00*
G04 #@! TF.ProjectId,Apple2IORPi,4170706c-6532-4494-9f52-50692e6b6963,0.1*
G04 #@! TF.SameCoordinates,Original*
G04 #@! TF.FileFunction,Legend,Bot*
G04 #@! TF.FilePolarity,Positive*
%FSLAX46Y46*%
G04 Gerber Fmt 4.6, Leading zero omitted, Abs format (unit mm)*
G04 Created by KiCad (PCBNEW 5.1.5+dfsg1-2build2) date 2020-11-19 16:33:02*
%MOMM*%
%LPD*%
G04 APERTURE LIST*
%ADD10C,0.150000*%
G04 APERTURE END LIST*
D10*
X153771761Y-106307380D02*
X153771761Y-105307380D01*
X153295571Y-105640714D02*
X153295571Y-106307380D01*
X153295571Y-105735952D02*
X153247952Y-105688333D01*
X153152714Y-105640714D01*
X153009857Y-105640714D01*
X152914619Y-105688333D01*
X152867000Y-105783571D01*
X152867000Y-106307380D01*
X152390809Y-106307380D02*
X152390809Y-105640714D01*
X152390809Y-105307380D02*
X152438428Y-105355000D01*
X152390809Y-105402619D01*
X152343190Y-105355000D01*
X152390809Y-105307380D01*
X152390809Y-105402619D01*
X152057476Y-105640714D02*
X151676523Y-105640714D01*
X151914619Y-105307380D02*
X151914619Y-106164523D01*
X151867000Y-106259761D01*
X151771761Y-106307380D01*
X151676523Y-106307380D01*
X151343190Y-106307380D02*
X151343190Y-105640714D01*
X151343190Y-105307380D02*
X151390809Y-105355000D01*
X151343190Y-105402619D01*
X151295571Y-105355000D01*
X151343190Y-105307380D01*
X151343190Y-105402619D01*
X150438428Y-106307380D02*
X150438428Y-105783571D01*
X150486047Y-105688333D01*
X150581285Y-105640714D01*
X150771761Y-105640714D01*
X150867000Y-105688333D01*
X150438428Y-106259761D02*
X150533666Y-106307380D01*
X150771761Y-106307380D01*
X150867000Y-106259761D01*
X150914619Y-106164523D01*
X150914619Y-106069285D01*
X150867000Y-105974047D01*
X150771761Y-105926428D01*
X150533666Y-105926428D01*
X150438428Y-105878809D01*
X149819380Y-106307380D02*
X149914619Y-106259761D01*
X149962238Y-106164523D01*
X149962238Y-105307380D01*
X148676523Y-106307380D02*
X148676523Y-105307380D01*
X148295571Y-105307380D01*
X148200333Y-105355000D01*
X148152714Y-105402619D01*
X148105095Y-105497857D01*
X148105095Y-105640714D01*
X148152714Y-105735952D01*
X148200333Y-105783571D01*
X148295571Y-105831190D01*
X148676523Y-105831190D01*
X147676523Y-106307380D02*
X147676523Y-105640714D01*
X147676523Y-105831190D02*
X147628904Y-105735952D01*
X147581285Y-105688333D01*
X147486047Y-105640714D01*
X147390809Y-105640714D01*
X146914619Y-106307380D02*
X147009857Y-106259761D01*
X147057476Y-106212142D01*
X147105095Y-106116904D01*
X147105095Y-105831190D01*
X147057476Y-105735952D01*
X147009857Y-105688333D01*
X146914619Y-105640714D01*
X146771761Y-105640714D01*
X146676523Y-105688333D01*
X146628904Y-105735952D01*
X146581285Y-105831190D01*
X146581285Y-106116904D01*
X146628904Y-106212142D01*
X146676523Y-106259761D01*
X146771761Y-106307380D01*
X146914619Y-106307380D01*
X146295571Y-105640714D02*
X145914619Y-105640714D01*
X146152714Y-105307380D02*
X146152714Y-106164523D01*
X146105095Y-106259761D01*
X146009857Y-106307380D01*
X145914619Y-106307380D01*
X145438428Y-106307380D02*
X145533666Y-106259761D01*
X145581285Y-106212142D01*
X145628904Y-106116904D01*
X145628904Y-105831190D01*
X145581285Y-105735952D01*
X145533666Y-105688333D01*
X145438428Y-105640714D01*
X145295571Y-105640714D01*
X145200333Y-105688333D01*
X145152714Y-105735952D01*
X145105095Y-105831190D01*
X145105095Y-106116904D01*
X145152714Y-106212142D01*
X145200333Y-106259761D01*
X145295571Y-106307380D01*
X145438428Y-106307380D01*
X144771761Y-105640714D02*
X144533666Y-106307380D01*
X144295571Y-105640714D02*
X144533666Y-106307380D01*
X144628904Y-106545476D01*
X144676523Y-106593095D01*
X144771761Y-106640714D01*
X143914619Y-105640714D02*
X143914619Y-106640714D01*
X143914619Y-105688333D02*
X143819380Y-105640714D01*
X143628904Y-105640714D01*
X143533666Y-105688333D01*
X143486047Y-105735952D01*
X143438428Y-105831190D01*
X143438428Y-106116904D01*
X143486047Y-106212142D01*
X143533666Y-106259761D01*
X143628904Y-106307380D01*
X143819380Y-106307380D01*
X143914619Y-106259761D01*
X142628904Y-106259761D02*
X142724142Y-106307380D01*
X142914619Y-106307380D01*
X143009857Y-106259761D01*
X143057476Y-106164523D01*
X143057476Y-105783571D01*
X143009857Y-105688333D01*
X142914619Y-105640714D01*
X142724142Y-105640714D01*
X142628904Y-105688333D01*
X142581285Y-105783571D01*
X142581285Y-105878809D01*
X143057476Y-105974047D01*
X141438428Y-105402619D02*
X141390809Y-105355000D01*
X141295571Y-105307380D01*
X141057476Y-105307380D01*
X140962238Y-105355000D01*
X140914619Y-105402619D01*
X140867000Y-105497857D01*
X140867000Y-105593095D01*
X140914619Y-105735952D01*
X141486047Y-106307380D01*
X140867000Y-106307380D01*
X140247952Y-105307380D02*
X140152714Y-105307380D01*
X140057476Y-105355000D01*
X140009857Y-105402619D01*
X139962238Y-105497857D01*
X139914619Y-105688333D01*
X139914619Y-105926428D01*
X139962238Y-106116904D01*
X140009857Y-106212142D01*
X140057476Y-106259761D01*
X140152714Y-106307380D01*
X140247952Y-106307380D01*
X140343190Y-106259761D01*
X140390809Y-106212142D01*
X140438428Y-106116904D01*
X140486047Y-105926428D01*
X140486047Y-105688333D01*
X140438428Y-105497857D01*
X140390809Y-105402619D01*
X140343190Y-105355000D01*
X140247952Y-105307380D01*
X139533666Y-105402619D02*
X139486047Y-105355000D01*
X139390809Y-105307380D01*
X139152714Y-105307380D01*
X139057476Y-105355000D01*
X139009857Y-105402619D01*
X138962238Y-105497857D01*
X138962238Y-105593095D01*
X139009857Y-105735952D01*
X139581285Y-106307380D01*
X138962238Y-106307380D01*
X138343190Y-105307380D02*
X138247952Y-105307380D01*
X138152714Y-105355000D01*
X138105095Y-105402619D01*
X138057476Y-105497857D01*
X138009857Y-105688333D01*
X138009857Y-105926428D01*
X138057476Y-106116904D01*
X138105095Y-106212142D01*
X138152714Y-106259761D01*
X138247952Y-106307380D01*
X138343190Y-106307380D01*
X138438428Y-106259761D01*
X138486047Y-106212142D01*
X138533666Y-106116904D01*
X138581285Y-105926428D01*
X138581285Y-105688333D01*
X138533666Y-105497857D01*
X138486047Y-105402619D01*
X138438428Y-105355000D01*
X138343190Y-105307380D01*
X137581285Y-105926428D02*
X136819380Y-105926428D01*
X136343190Y-106307380D02*
X136343190Y-105307380D01*
X135771761Y-106307380D01*
X135771761Y-105307380D01*
X135152714Y-106307380D02*
X135247952Y-106259761D01*
X135295571Y-106212142D01*
X135343190Y-106116904D01*
X135343190Y-105831190D01*
X135295571Y-105735952D01*
X135247952Y-105688333D01*
X135152714Y-105640714D01*
X135009857Y-105640714D01*
X134914619Y-105688333D01*
X134867000Y-105735952D01*
X134819380Y-105831190D01*
X134819380Y-106116904D01*
X134867000Y-106212142D01*
X134914619Y-106259761D01*
X135009857Y-106307380D01*
X135152714Y-106307380D01*
X134486047Y-105640714D02*
X134247952Y-106307380D01*
X134009857Y-105640714D01*
X133628904Y-105926428D02*
X132867000Y-105926428D01*
X131867000Y-106307380D02*
X132438428Y-106307380D01*
X132152714Y-106307380D02*
X132152714Y-105307380D01*
X132247952Y-105450238D01*
X132343190Y-105545476D01*
X132438428Y-105593095D01*
X131390809Y-106307380D02*
X131200333Y-106307380D01*
X131105095Y-106259761D01*
X131057476Y-106212142D01*
X130962238Y-106069285D01*
X130914619Y-105878809D01*
X130914619Y-105497857D01*
X130962238Y-105402619D01*
X131009857Y-105355000D01*
X131105095Y-105307380D01*
X131295571Y-105307380D01*
X131390809Y-105355000D01*
X131438428Y-105402619D01*
X131486047Y-105497857D01*
X131486047Y-105735952D01*
X131438428Y-105831190D01*
X131390809Y-105878809D01*
X131295571Y-105926428D01*
X131105095Y-105926428D01*
X131009857Y-105878809D01*
X130962238Y-105831190D01*
X130914619Y-105735952D01*
X151414619Y-108338333D02*
X151462238Y-108290714D01*
X151557476Y-108147857D01*
X151605095Y-108052619D01*
X151652714Y-107909761D01*
X151700333Y-107671666D01*
X151700333Y-107481190D01*
X151652714Y-107243095D01*
X151605095Y-107100238D01*
X151557476Y-107005000D01*
X151462238Y-106862142D01*
X151414619Y-106814523D01*
X150605095Y-107909761D02*
X150700333Y-107957380D01*
X150890809Y-107957380D01*
X150986047Y-107909761D01*
X151033666Y-107862142D01*
X151081285Y-107766904D01*
X151081285Y-107481190D01*
X151033666Y-107385952D01*
X150986047Y-107338333D01*
X150890809Y-107290714D01*
X150700333Y-107290714D01*
X150605095Y-107338333D01*
X150271761Y-108338333D02*
X150224142Y-108290714D01*
X150128904Y-108147857D01*
X150081285Y-108052619D01*
X150033666Y-107909761D01*
X149986047Y-107671666D01*
X149986047Y-107481190D01*
X150033666Y-107243095D01*
X150081285Y-107100238D01*
X150128904Y-107005000D01*
X150224142Y-106862142D01*
X150271761Y-106814523D01*
X149557476Y-107052619D02*
X149509857Y-107005000D01*
X149414619Y-106957380D01*
X149176523Y-106957380D01*
X149081285Y-107005000D01*
X149033666Y-107052619D01*
X148986047Y-107147857D01*
X148986047Y-107243095D01*
X149033666Y-107385952D01*
X149605095Y-107957380D01*
X148986047Y-107957380D01*
X148367000Y-106957380D02*
X148271761Y-106957380D01*
X148176523Y-107005000D01*
X148128904Y-107052619D01*
X148081285Y-107147857D01*
X148033666Y-107338333D01*
X148033666Y-107576428D01*
X148081285Y-107766904D01*
X148128904Y-107862142D01*
X148176523Y-107909761D01*
X148271761Y-107957380D01*
X148367000Y-107957380D01*
X148462238Y-107909761D01*
X148509857Y-107862142D01*
X148557476Y-107766904D01*
X148605095Y-107576428D01*
X148605095Y-107338333D01*
X148557476Y-107147857D01*
X148509857Y-107052619D01*
X148462238Y-107005000D01*
X148367000Y-106957380D01*
X147652714Y-107052619D02*
X147605095Y-107005000D01*
X147509857Y-106957380D01*
X147271761Y-106957380D01*
X147176523Y-107005000D01*
X147128904Y-107052619D01*
X147081285Y-107147857D01*
X147081285Y-107243095D01*
X147128904Y-107385952D01*
X147700333Y-107957380D01*
X147081285Y-107957380D01*
X146462238Y-106957380D02*
X146367000Y-106957380D01*
X146271761Y-107005000D01*
X146224142Y-107052619D01*
X146176523Y-107147857D01*
X146128904Y-107338333D01*
X146128904Y-107576428D01*
X146176523Y-107766904D01*
X146224142Y-107862142D01*
X146271761Y-107909761D01*
X146367000Y-107957380D01*
X146462238Y-107957380D01*
X146557476Y-107909761D01*
X146605095Y-107862142D01*
X146652714Y-107766904D01*
X146700333Y-107576428D01*
X146700333Y-107338333D01*
X146652714Y-107147857D01*
X146605095Y-107052619D01*
X146557476Y-107005000D01*
X146462238Y-106957380D01*
X145081285Y-106957380D02*
X144509857Y-106957380D01*
X144795571Y-107957380D02*
X144795571Y-106957380D01*
X143795571Y-107909761D02*
X143890809Y-107957380D01*
X144081285Y-107957380D01*
X144176523Y-107909761D01*
X144224142Y-107814523D01*
X144224142Y-107433571D01*
X144176523Y-107338333D01*
X144081285Y-107290714D01*
X143890809Y-107290714D01*
X143795571Y-107338333D01*
X143747952Y-107433571D01*
X143747952Y-107528809D01*
X144224142Y-107624047D01*
X143319380Y-107957380D02*
X143319380Y-107290714D01*
X143319380Y-107481190D02*
X143271761Y-107385952D01*
X143224142Y-107338333D01*
X143128904Y-107290714D01*
X143033666Y-107290714D01*
X142319380Y-107909761D02*
X142414619Y-107957380D01*
X142605095Y-107957380D01*
X142700333Y-107909761D01*
X142747952Y-107814523D01*
X142747952Y-107433571D01*
X142700333Y-107338333D01*
X142605095Y-107290714D01*
X142414619Y-107290714D01*
X142319380Y-107338333D01*
X142271761Y-107433571D01*
X142271761Y-107528809D01*
X142747952Y-107624047D01*
X141843190Y-107290714D02*
X141843190Y-107957380D01*
X141843190Y-107385952D02*
X141795571Y-107338333D01*
X141700333Y-107290714D01*
X141557476Y-107290714D01*
X141462238Y-107338333D01*
X141414619Y-107433571D01*
X141414619Y-107957380D01*
X140509857Y-107909761D02*
X140605095Y-107957380D01*
X140795571Y-107957380D01*
X140890809Y-107909761D01*
X140938428Y-107862142D01*
X140986047Y-107766904D01*
X140986047Y-107481190D01*
X140938428Y-107385952D01*
X140890809Y-107338333D01*
X140795571Y-107290714D01*
X140605095Y-107290714D01*
X140509857Y-107338333D01*
X139700333Y-107909761D02*
X139795571Y-107957380D01*
X139986047Y-107957380D01*
X140081285Y-107909761D01*
X140128904Y-107814523D01*
X140128904Y-107433571D01*
X140081285Y-107338333D01*
X139986047Y-107290714D01*
X139795571Y-107290714D01*
X139700333Y-107338333D01*
X139652714Y-107433571D01*
X139652714Y-107528809D01*
X140128904Y-107624047D01*
X138176523Y-106957380D02*
X138176523Y-107671666D01*
X138224142Y-107814523D01*
X138319380Y-107909761D01*
X138462238Y-107957380D01*
X138557476Y-107957380D01*
X137700333Y-107862142D02*
X137652714Y-107909761D01*
X137700333Y-107957380D01*
X137747952Y-107909761D01*
X137700333Y-107862142D01*
X137700333Y-107957380D01*
X136128904Y-107433571D02*
X135986047Y-107481190D01*
X135938428Y-107528809D01*
X135890809Y-107624047D01*
X135890809Y-107766904D01*
X135938428Y-107862142D01*
X135986047Y-107909761D01*
X136081285Y-107957380D01*
X136462238Y-107957380D01*
X136462238Y-106957380D01*
X136128904Y-106957380D01*
X136033666Y-107005000D01*
X135986047Y-107052619D01*
X135938428Y-107147857D01*
X135938428Y-107243095D01*
X135986047Y-107338333D01*
X136033666Y-107385952D01*
X136128904Y-107433571D01*
X136462238Y-107433571D01*
X135319380Y-107957380D02*
X135414619Y-107909761D01*
X135462238Y-107862142D01*
X135509857Y-107766904D01*
X135509857Y-107481190D01*
X135462238Y-107385952D01*
X135414619Y-107338333D01*
X135319380Y-107290714D01*
X135176523Y-107290714D01*
X135081285Y-107338333D01*
X135033666Y-107385952D01*
X134986047Y-107481190D01*
X134986047Y-107766904D01*
X135033666Y-107862142D01*
X135081285Y-107909761D01*
X135176523Y-107957380D01*
X135319380Y-107957380D01*
X134414619Y-107957380D02*
X134509857Y-107909761D01*
X134557476Y-107814523D01*
X134557476Y-106957380D01*
X133605095Y-107957380D02*
X133605095Y-106957380D01*
X133605095Y-107909761D02*
X133700333Y-107957380D01*
X133890809Y-107957380D01*
X133986047Y-107909761D01*
X134033666Y-107862142D01*
X134081285Y-107766904D01*
X134081285Y-107481190D01*
X134033666Y-107385952D01*
X133986047Y-107338333D01*
X133890809Y-107290714D01*
X133700333Y-107290714D01*
X133605095Y-107338333D01*
X133271761Y-107290714D02*
X132890809Y-107290714D01*
X133128904Y-106957380D02*
X133128904Y-107814523D01*
X133081285Y-107909761D01*
X132986047Y-107957380D01*
X132890809Y-107957380D01*
M02*
