G04 #@! TF.GenerationSoftware,KiCad,Pcbnew,5.1.5+dfsg1-2build2*
G04 #@! TF.CreationDate,2020-11-19T16:33:02-05:00*
G04 #@! TF.ProjectId,Apple2IORPi,4170706c-6532-4494-9f52-50692e6b6963,0.1*
G04 #@! TF.SameCoordinates,Original*
G04 #@! TF.FileFunction,Legend,Top*
G04 #@! TF.FilePolarity,Positive*
%FSLAX46Y46*%
G04 Gerber Fmt 4.6, Leading zero omitted, Abs format (unit mm)*
G04 Created by KiCad (PCBNEW 5.1.5+dfsg1-2build2) date 2020-11-19 16:33:02*
%MOMM*%
%LPD*%
G04 APERTURE LIST*
%ADD10C,0.150000*%
%ADD11C,0.120000*%
G04 APERTURE END LIST*
D10*
X124596380Y-67397380D02*
X125263047Y-67397380D01*
X124834476Y-68397380D01*
X126072571Y-67730714D02*
X126072571Y-68397380D01*
X125834476Y-67349761D02*
X125596380Y-68064047D01*
X126215428Y-68064047D01*
X127072571Y-68397380D02*
X126596380Y-68397380D01*
X126596380Y-67397380D01*
X127263047Y-67397380D02*
X127596380Y-68397380D01*
X127929714Y-67397380D01*
X128834476Y-68302142D02*
X128786857Y-68349761D01*
X128644000Y-68397380D01*
X128548761Y-68397380D01*
X128405904Y-68349761D01*
X128310666Y-68254523D01*
X128263047Y-68159285D01*
X128215428Y-67968809D01*
X128215428Y-67825952D01*
X128263047Y-67635476D01*
X128310666Y-67540238D01*
X128405904Y-67445000D01*
X128548761Y-67397380D01*
X128644000Y-67397380D01*
X128786857Y-67445000D01*
X128834476Y-67492619D01*
X129167809Y-67397380D02*
X129786857Y-67397380D01*
X129453523Y-67778333D01*
X129596380Y-67778333D01*
X129691619Y-67825952D01*
X129739238Y-67873571D01*
X129786857Y-67968809D01*
X129786857Y-68206904D01*
X129739238Y-68302142D01*
X129691619Y-68349761D01*
X129596380Y-68397380D01*
X129310666Y-68397380D01*
X129215428Y-68349761D01*
X129167809Y-68302142D01*
X130120190Y-67397380D02*
X130786857Y-67397380D01*
X130358285Y-68397380D01*
X131596380Y-67730714D02*
X131596380Y-68397380D01*
X131358285Y-67349761D02*
X131120190Y-68064047D01*
X131739238Y-68064047D01*
X133072571Y-67397380D02*
X133263047Y-67397380D01*
X133358285Y-67445000D01*
X133453523Y-67540238D01*
X133501142Y-67730714D01*
X133501142Y-68064047D01*
X133453523Y-68254523D01*
X133358285Y-68349761D01*
X133263047Y-68397380D01*
X133072571Y-68397380D01*
X132977333Y-68349761D01*
X132882095Y-68254523D01*
X132834476Y-68064047D01*
X132834476Y-67730714D01*
X132882095Y-67540238D01*
X132977333Y-67445000D01*
X133072571Y-67397380D01*
X134358285Y-67730714D02*
X134358285Y-68397380D01*
X133929714Y-67730714D02*
X133929714Y-68254523D01*
X133977333Y-68349761D01*
X134072571Y-68397380D01*
X134215428Y-68397380D01*
X134310666Y-68349761D01*
X134358285Y-68302142D01*
X134691619Y-67730714D02*
X135072571Y-67730714D01*
X134834476Y-67397380D02*
X134834476Y-68254523D01*
X134882095Y-68349761D01*
X134977333Y-68397380D01*
X135072571Y-68397380D01*
X135405904Y-67730714D02*
X135405904Y-68730714D01*
X135405904Y-67778333D02*
X135501142Y-67730714D01*
X135691619Y-67730714D01*
X135786857Y-67778333D01*
X135834476Y-67825952D01*
X135882095Y-67921190D01*
X135882095Y-68206904D01*
X135834476Y-68302142D01*
X135786857Y-68349761D01*
X135691619Y-68397380D01*
X135501142Y-68397380D01*
X135405904Y-68349761D01*
X136739238Y-67730714D02*
X136739238Y-68397380D01*
X136310666Y-67730714D02*
X136310666Y-68254523D01*
X136358285Y-68349761D01*
X136453523Y-68397380D01*
X136596380Y-68397380D01*
X136691619Y-68349761D01*
X136739238Y-68302142D01*
X137072571Y-67730714D02*
X137453523Y-67730714D01*
X137215428Y-67397380D02*
X137215428Y-68254523D01*
X137263047Y-68349761D01*
X137358285Y-68397380D01*
X137453523Y-68397380D01*
X139024952Y-68397380D02*
X138548761Y-68397380D01*
X138548761Y-67397380D01*
X139739238Y-68349761D02*
X139644000Y-68397380D01*
X139453523Y-68397380D01*
X139358285Y-68349761D01*
X139310666Y-68254523D01*
X139310666Y-67873571D01*
X139358285Y-67778333D01*
X139453523Y-67730714D01*
X139644000Y-67730714D01*
X139739238Y-67778333D01*
X139786857Y-67873571D01*
X139786857Y-67968809D01*
X139310666Y-68064047D01*
X140120190Y-67730714D02*
X140358285Y-68397380D01*
X140596380Y-67730714D01*
X141358285Y-68349761D02*
X141263047Y-68397380D01*
X141072571Y-68397380D01*
X140977333Y-68349761D01*
X140929714Y-68254523D01*
X140929714Y-67873571D01*
X140977333Y-67778333D01*
X141072571Y-67730714D01*
X141263047Y-67730714D01*
X141358285Y-67778333D01*
X141405904Y-67873571D01*
X141405904Y-67968809D01*
X140929714Y-68064047D01*
X141977333Y-68397380D02*
X141882095Y-68349761D01*
X141834476Y-68254523D01*
X141834476Y-67397380D01*
X143072571Y-68349761D02*
X143215428Y-68397380D01*
X143453523Y-68397380D01*
X143548761Y-68349761D01*
X143596380Y-68302142D01*
X143644000Y-68206904D01*
X143644000Y-68111666D01*
X143596380Y-68016428D01*
X143548761Y-67968809D01*
X143453523Y-67921190D01*
X143263047Y-67873571D01*
X143167809Y-67825952D01*
X143120190Y-67778333D01*
X143072571Y-67683095D01*
X143072571Y-67587857D01*
X143120190Y-67492619D01*
X143167809Y-67445000D01*
X143263047Y-67397380D01*
X143501142Y-67397380D01*
X143644000Y-67445000D01*
X144072571Y-68397380D02*
X144072571Y-67397380D01*
X144501142Y-68397380D02*
X144501142Y-67873571D01*
X144453523Y-67778333D01*
X144358285Y-67730714D01*
X144215428Y-67730714D01*
X144120190Y-67778333D01*
X144072571Y-67825952D01*
X144977333Y-68397380D02*
X144977333Y-67730714D01*
X144977333Y-67397380D02*
X144929714Y-67445000D01*
X144977333Y-67492619D01*
X145024952Y-67445000D01*
X144977333Y-67397380D01*
X144977333Y-67492619D01*
X145310666Y-67730714D02*
X145691619Y-67730714D01*
X145453523Y-68397380D02*
X145453523Y-67540238D01*
X145501142Y-67445000D01*
X145596380Y-67397380D01*
X145691619Y-67397380D01*
X145882095Y-67730714D02*
X146263047Y-67730714D01*
X146024952Y-67397380D02*
X146024952Y-68254523D01*
X146072571Y-68349761D01*
X146167809Y-68397380D01*
X146263047Y-68397380D01*
X146977333Y-68349761D02*
X146882095Y-68397380D01*
X146691619Y-68397380D01*
X146596380Y-68349761D01*
X146548761Y-68254523D01*
X146548761Y-67873571D01*
X146596380Y-67778333D01*
X146691619Y-67730714D01*
X146882095Y-67730714D01*
X146977333Y-67778333D01*
X147024952Y-67873571D01*
X147024952Y-67968809D01*
X146548761Y-68064047D01*
X147453523Y-68397380D02*
X147453523Y-67730714D01*
X147453523Y-67921190D02*
X147501142Y-67825952D01*
X147548761Y-67778333D01*
X147644000Y-67730714D01*
X147739238Y-67730714D01*
X124913809Y-82129380D02*
X125580476Y-82129380D01*
X125151904Y-83129380D01*
X126389999Y-82462714D02*
X126389999Y-83129380D01*
X126151904Y-82081761D02*
X125913809Y-82796047D01*
X126532857Y-82796047D01*
X127389999Y-83129380D02*
X126913809Y-83129380D01*
X126913809Y-82129380D01*
X127580476Y-82129380D02*
X127913809Y-83129380D01*
X128247142Y-82129380D01*
X129151904Y-83034142D02*
X129104285Y-83081761D01*
X128961428Y-83129380D01*
X128866190Y-83129380D01*
X128723333Y-83081761D01*
X128628095Y-82986523D01*
X128580476Y-82891285D01*
X128532857Y-82700809D01*
X128532857Y-82557952D01*
X128580476Y-82367476D01*
X128628095Y-82272238D01*
X128723333Y-82177000D01*
X128866190Y-82129380D01*
X128961428Y-82129380D01*
X129104285Y-82177000D01*
X129151904Y-82224619D01*
X129532857Y-82224619D02*
X129580476Y-82177000D01*
X129675714Y-82129380D01*
X129913809Y-82129380D01*
X130009047Y-82177000D01*
X130056666Y-82224619D01*
X130104285Y-82319857D01*
X130104285Y-82415095D01*
X130056666Y-82557952D01*
X129485238Y-83129380D01*
X130104285Y-83129380D01*
X130961428Y-82462714D02*
X130961428Y-83129380D01*
X130723333Y-82081761D02*
X130485238Y-82796047D01*
X131104285Y-82796047D01*
X131961428Y-82129380D02*
X131485238Y-82129380D01*
X131437619Y-82605571D01*
X131485238Y-82557952D01*
X131580476Y-82510333D01*
X131818571Y-82510333D01*
X131913809Y-82557952D01*
X131961428Y-82605571D01*
X132009047Y-82700809D01*
X132009047Y-82938904D01*
X131961428Y-83034142D01*
X131913809Y-83081761D01*
X131818571Y-83129380D01*
X131580476Y-83129380D01*
X131485238Y-83081761D01*
X131437619Y-83034142D01*
X133199523Y-83129380D02*
X133199523Y-82129380D01*
X133675714Y-82462714D02*
X133675714Y-83129380D01*
X133675714Y-82557952D02*
X133723333Y-82510333D01*
X133818571Y-82462714D01*
X133961428Y-82462714D01*
X134056666Y-82510333D01*
X134104285Y-82605571D01*
X134104285Y-83129380D01*
X134580476Y-82462714D02*
X134580476Y-83462714D01*
X134580476Y-82510333D02*
X134675714Y-82462714D01*
X134866190Y-82462714D01*
X134961428Y-82510333D01*
X135009047Y-82557952D01*
X135056666Y-82653190D01*
X135056666Y-82938904D01*
X135009047Y-83034142D01*
X134961428Y-83081761D01*
X134866190Y-83129380D01*
X134675714Y-83129380D01*
X134580476Y-83081761D01*
X135913809Y-82462714D02*
X135913809Y-83129380D01*
X135485238Y-82462714D02*
X135485238Y-82986523D01*
X135532857Y-83081761D01*
X135628095Y-83129380D01*
X135770952Y-83129380D01*
X135866190Y-83081761D01*
X135913809Y-83034142D01*
X136247142Y-82462714D02*
X136628095Y-82462714D01*
X136390000Y-82129380D02*
X136390000Y-82986523D01*
X136437619Y-83081761D01*
X136532857Y-83129380D01*
X136628095Y-83129380D01*
X138199523Y-83129380D02*
X137723333Y-83129380D01*
X137723333Y-82129380D01*
X138913809Y-83081761D02*
X138818571Y-83129380D01*
X138628095Y-83129380D01*
X138532857Y-83081761D01*
X138485238Y-82986523D01*
X138485238Y-82605571D01*
X138532857Y-82510333D01*
X138628095Y-82462714D01*
X138818571Y-82462714D01*
X138913809Y-82510333D01*
X138961428Y-82605571D01*
X138961428Y-82700809D01*
X138485238Y-82796047D01*
X139294761Y-82462714D02*
X139532857Y-83129380D01*
X139770952Y-82462714D01*
X140532857Y-83081761D02*
X140437619Y-83129380D01*
X140247142Y-83129380D01*
X140151904Y-83081761D01*
X140104285Y-82986523D01*
X140104285Y-82605571D01*
X140151904Y-82510333D01*
X140247142Y-82462714D01*
X140437619Y-82462714D01*
X140532857Y-82510333D01*
X140580476Y-82605571D01*
X140580476Y-82700809D01*
X140104285Y-82796047D01*
X141151904Y-83129380D02*
X141056666Y-83081761D01*
X141009047Y-82986523D01*
X141009047Y-82129380D01*
X142247142Y-83081761D02*
X142390000Y-83129380D01*
X142628095Y-83129380D01*
X142723333Y-83081761D01*
X142770952Y-83034142D01*
X142818571Y-82938904D01*
X142818571Y-82843666D01*
X142770952Y-82748428D01*
X142723333Y-82700809D01*
X142628095Y-82653190D01*
X142437619Y-82605571D01*
X142342380Y-82557952D01*
X142294761Y-82510333D01*
X142247142Y-82415095D01*
X142247142Y-82319857D01*
X142294761Y-82224619D01*
X142342380Y-82177000D01*
X142437619Y-82129380D01*
X142675714Y-82129380D01*
X142818571Y-82177000D01*
X143247142Y-83129380D02*
X143247142Y-82129380D01*
X143675714Y-83129380D02*
X143675714Y-82605571D01*
X143628095Y-82510333D01*
X143532857Y-82462714D01*
X143390000Y-82462714D01*
X143294761Y-82510333D01*
X143247142Y-82557952D01*
X144151904Y-83129380D02*
X144151904Y-82462714D01*
X144151904Y-82129380D02*
X144104285Y-82177000D01*
X144151904Y-82224619D01*
X144199523Y-82177000D01*
X144151904Y-82129380D01*
X144151904Y-82224619D01*
X144485238Y-82462714D02*
X144866190Y-82462714D01*
X144628095Y-83129380D02*
X144628095Y-82272238D01*
X144675714Y-82177000D01*
X144770952Y-82129380D01*
X144866190Y-82129380D01*
X145056666Y-82462714D02*
X145437619Y-82462714D01*
X145199523Y-82129380D02*
X145199523Y-82986523D01*
X145247142Y-83081761D01*
X145342380Y-83129380D01*
X145437619Y-83129380D01*
X146151904Y-83081761D02*
X146056666Y-83129380D01*
X145866190Y-83129380D01*
X145770952Y-83081761D01*
X145723333Y-82986523D01*
X145723333Y-82605571D01*
X145770952Y-82510333D01*
X145866190Y-82462714D01*
X146056666Y-82462714D01*
X146151904Y-82510333D01*
X146199523Y-82605571D01*
X146199523Y-82700809D01*
X145723333Y-82796047D01*
X146628095Y-83129380D02*
X146628095Y-82462714D01*
X146628095Y-82653190D02*
X146675714Y-82557952D01*
X146723333Y-82510333D01*
X146818571Y-82462714D01*
X146913809Y-82462714D01*
X126064571Y-95464380D02*
X126731238Y-95464380D01*
X126302666Y-96464380D01*
X127540761Y-95797714D02*
X127540761Y-96464380D01*
X127302666Y-95416761D02*
X127064571Y-96131047D01*
X127683619Y-96131047D01*
X128540761Y-96464380D02*
X128064571Y-96464380D01*
X128064571Y-95464380D01*
X128826476Y-96416761D02*
X128969333Y-96464380D01*
X129207428Y-96464380D01*
X129302666Y-96416761D01*
X129350285Y-96369142D01*
X129397904Y-96273904D01*
X129397904Y-96178666D01*
X129350285Y-96083428D01*
X129302666Y-96035809D01*
X129207428Y-95988190D01*
X129016952Y-95940571D01*
X128921714Y-95892952D01*
X128874095Y-95845333D01*
X128826476Y-95750095D01*
X128826476Y-95654857D01*
X128874095Y-95559619D01*
X128921714Y-95512000D01*
X129016952Y-95464380D01*
X129255047Y-95464380D01*
X129397904Y-95512000D01*
X129778857Y-95559619D02*
X129826476Y-95512000D01*
X129921714Y-95464380D01*
X130159809Y-95464380D01*
X130255047Y-95512000D01*
X130302666Y-95559619D01*
X130350285Y-95654857D01*
X130350285Y-95750095D01*
X130302666Y-95892952D01*
X129731238Y-96464380D01*
X130350285Y-96464380D01*
X131207428Y-95797714D02*
X131207428Y-96464380D01*
X130969333Y-95416761D02*
X130731238Y-96131047D01*
X131350285Y-96131047D01*
X132207428Y-95464380D02*
X131731238Y-95464380D01*
X131683619Y-95940571D01*
X131731238Y-95892952D01*
X131826476Y-95845333D01*
X132064571Y-95845333D01*
X132159809Y-95892952D01*
X132207428Y-95940571D01*
X132255047Y-96035809D01*
X132255047Y-96273904D01*
X132207428Y-96369142D01*
X132159809Y-96416761D01*
X132064571Y-96464380D01*
X131826476Y-96464380D01*
X131731238Y-96416761D01*
X131683619Y-96369142D01*
X133445523Y-96464380D02*
X133445523Y-95464380D01*
X133683619Y-95464380D01*
X133826476Y-95512000D01*
X133921714Y-95607238D01*
X133969333Y-95702476D01*
X134016952Y-95892952D01*
X134016952Y-96035809D01*
X133969333Y-96226285D01*
X133921714Y-96321523D01*
X133826476Y-96416761D01*
X133683619Y-96464380D01*
X133445523Y-96464380D01*
X134874095Y-96464380D02*
X134874095Y-95940571D01*
X134826476Y-95845333D01*
X134731238Y-95797714D01*
X134540761Y-95797714D01*
X134445523Y-95845333D01*
X134874095Y-96416761D02*
X134778857Y-96464380D01*
X134540761Y-96464380D01*
X134445523Y-96416761D01*
X134397904Y-96321523D01*
X134397904Y-96226285D01*
X134445523Y-96131047D01*
X134540761Y-96083428D01*
X134778857Y-96083428D01*
X134874095Y-96035809D01*
X135207428Y-95797714D02*
X135588380Y-95797714D01*
X135350285Y-95464380D02*
X135350285Y-96321523D01*
X135397904Y-96416761D01*
X135493142Y-96464380D01*
X135588380Y-96464380D01*
X136350285Y-96464380D02*
X136350285Y-95940571D01*
X136302666Y-95845333D01*
X136207428Y-95797714D01*
X136016952Y-95797714D01*
X135921714Y-95845333D01*
X136350285Y-96416761D02*
X136255047Y-96464380D01*
X136016952Y-96464380D01*
X135921714Y-96416761D01*
X135874095Y-96321523D01*
X135874095Y-96226285D01*
X135921714Y-96131047D01*
X136016952Y-96083428D01*
X136255047Y-96083428D01*
X136350285Y-96035809D01*
X137921714Y-95940571D02*
X138064571Y-95988190D01*
X138112190Y-96035809D01*
X138159809Y-96131047D01*
X138159809Y-96273904D01*
X138112190Y-96369142D01*
X138064571Y-96416761D01*
X137969333Y-96464380D01*
X137588380Y-96464380D01*
X137588380Y-95464380D01*
X137921714Y-95464380D01*
X138016952Y-95512000D01*
X138064571Y-95559619D01*
X138112190Y-95654857D01*
X138112190Y-95750095D01*
X138064571Y-95845333D01*
X138016952Y-95892952D01*
X137921714Y-95940571D01*
X137588380Y-95940571D01*
X139016952Y-95797714D02*
X139016952Y-96464380D01*
X138588380Y-95797714D02*
X138588380Y-96321523D01*
X138636000Y-96416761D01*
X138731238Y-96464380D01*
X138874095Y-96464380D01*
X138969333Y-96416761D01*
X139016952Y-96369142D01*
X139445523Y-96416761D02*
X139540761Y-96464380D01*
X139731238Y-96464380D01*
X139826476Y-96416761D01*
X139874095Y-96321523D01*
X139874095Y-96273904D01*
X139826476Y-96178666D01*
X139731238Y-96131047D01*
X139588380Y-96131047D01*
X139493142Y-96083428D01*
X139445523Y-95988190D01*
X139445523Y-95940571D01*
X139493142Y-95845333D01*
X139588380Y-95797714D01*
X139731238Y-95797714D01*
X139826476Y-95845333D01*
X141397904Y-95940571D02*
X141540761Y-95988190D01*
X141588380Y-96035809D01*
X141636000Y-96131047D01*
X141636000Y-96273904D01*
X141588380Y-96369142D01*
X141540761Y-96416761D01*
X141445523Y-96464380D01*
X141064571Y-96464380D01*
X141064571Y-95464380D01*
X141397904Y-95464380D01*
X141493142Y-95512000D01*
X141540761Y-95559619D01*
X141588380Y-95654857D01*
X141588380Y-95750095D01*
X141540761Y-95845333D01*
X141493142Y-95892952D01*
X141397904Y-95940571D01*
X141064571Y-95940571D01*
X142493142Y-95797714D02*
X142493142Y-96464380D01*
X142064571Y-95797714D02*
X142064571Y-96321523D01*
X142112190Y-96416761D01*
X142207428Y-96464380D01*
X142350285Y-96464380D01*
X142445523Y-96416761D01*
X142493142Y-96369142D01*
X142826476Y-95797714D02*
X143207428Y-95797714D01*
X142969333Y-96464380D02*
X142969333Y-95607238D01*
X143016952Y-95512000D01*
X143112190Y-95464380D01*
X143207428Y-95464380D01*
X143397904Y-95797714D02*
X143778857Y-95797714D01*
X143540761Y-96464380D02*
X143540761Y-95607238D01*
X143588380Y-95512000D01*
X143683619Y-95464380D01*
X143778857Y-95464380D01*
X144493142Y-96416761D02*
X144397904Y-96464380D01*
X144207428Y-96464380D01*
X144112190Y-96416761D01*
X144064571Y-96321523D01*
X144064571Y-95940571D01*
X144112190Y-95845333D01*
X144207428Y-95797714D01*
X144397904Y-95797714D01*
X144493142Y-95845333D01*
X144540761Y-95940571D01*
X144540761Y-96035809D01*
X144064571Y-96131047D01*
X144969333Y-96464380D02*
X144969333Y-95797714D01*
X144969333Y-95988190D02*
X145016952Y-95892952D01*
X145064571Y-95845333D01*
X145159809Y-95797714D01*
X145255047Y-95797714D01*
X116117666Y-105161380D02*
X116117666Y-104685190D01*
X116403380Y-105256619D02*
X115403380Y-104923285D01*
X116403380Y-104589952D01*
X115736714Y-104399476D02*
X115736714Y-104018523D01*
X115403380Y-104256619D02*
X116260523Y-104256619D01*
X116355761Y-104209000D01*
X116403380Y-104113761D01*
X116403380Y-104018523D01*
X115736714Y-103828047D02*
X115736714Y-103447095D01*
X115403380Y-103685190D02*
X116260523Y-103685190D01*
X116355761Y-103637571D01*
X116403380Y-103542333D01*
X116403380Y-103447095D01*
X116403380Y-102685190D02*
X115879571Y-102685190D01*
X115784333Y-102732809D01*
X115736714Y-102828047D01*
X115736714Y-103018523D01*
X115784333Y-103113761D01*
X116355761Y-102685190D02*
X116403380Y-102780428D01*
X116403380Y-103018523D01*
X116355761Y-103113761D01*
X116260523Y-103161380D01*
X116165285Y-103161380D01*
X116070047Y-103113761D01*
X116022428Y-103018523D01*
X116022428Y-102780428D01*
X115974809Y-102685190D01*
X116355761Y-101780428D02*
X116403380Y-101875666D01*
X116403380Y-102066142D01*
X116355761Y-102161380D01*
X116308142Y-102209000D01*
X116212904Y-102256619D01*
X115927190Y-102256619D01*
X115831952Y-102209000D01*
X115784333Y-102161380D01*
X115736714Y-102066142D01*
X115736714Y-101875666D01*
X115784333Y-101780428D01*
X116403380Y-101351857D02*
X115403380Y-101351857D01*
X116403380Y-100923285D02*
X115879571Y-100923285D01*
X115784333Y-100970904D01*
X115736714Y-101066142D01*
X115736714Y-101209000D01*
X115784333Y-101304238D01*
X115831952Y-101351857D01*
X116403380Y-99113761D02*
X115927190Y-99447095D01*
X116403380Y-99685190D02*
X115403380Y-99685190D01*
X115403380Y-99304238D01*
X115451000Y-99209000D01*
X115498619Y-99161380D01*
X115593857Y-99113761D01*
X115736714Y-99113761D01*
X115831952Y-99161380D01*
X115879571Y-99209000D01*
X115927190Y-99304238D01*
X115927190Y-99685190D01*
X116403380Y-98256619D02*
X115879571Y-98256619D01*
X115784333Y-98304238D01*
X115736714Y-98399476D01*
X115736714Y-98589952D01*
X115784333Y-98685190D01*
X116355761Y-98256619D02*
X116403380Y-98351857D01*
X116403380Y-98589952D01*
X116355761Y-98685190D01*
X116260523Y-98732809D01*
X116165285Y-98732809D01*
X116070047Y-98685190D01*
X116022428Y-98589952D01*
X116022428Y-98351857D01*
X115974809Y-98256619D01*
X116355761Y-97828047D02*
X116403380Y-97732809D01*
X116403380Y-97542333D01*
X116355761Y-97447095D01*
X116260523Y-97399476D01*
X116212904Y-97399476D01*
X116117666Y-97447095D01*
X116070047Y-97542333D01*
X116070047Y-97685190D01*
X116022428Y-97780428D01*
X115927190Y-97828047D01*
X115879571Y-97828047D01*
X115784333Y-97780428D01*
X115736714Y-97685190D01*
X115736714Y-97542333D01*
X115784333Y-97447095D01*
X115736714Y-96970904D02*
X116736714Y-96970904D01*
X115784333Y-96970904D02*
X115736714Y-96875666D01*
X115736714Y-96685190D01*
X115784333Y-96589952D01*
X115831952Y-96542333D01*
X115927190Y-96494714D01*
X116212904Y-96494714D01*
X116308142Y-96542333D01*
X116355761Y-96589952D01*
X116403380Y-96685190D01*
X116403380Y-96875666D01*
X116355761Y-96970904D01*
X116403380Y-96066142D02*
X115403380Y-96066142D01*
X115784333Y-96066142D02*
X115736714Y-95970904D01*
X115736714Y-95780428D01*
X115784333Y-95685190D01*
X115831952Y-95637571D01*
X115927190Y-95589952D01*
X116212904Y-95589952D01*
X116308142Y-95637571D01*
X116355761Y-95685190D01*
X116403380Y-95780428D01*
X116403380Y-95970904D01*
X116355761Y-96066142D01*
X116355761Y-94780428D02*
X116403380Y-94875666D01*
X116403380Y-95066142D01*
X116355761Y-95161380D01*
X116260523Y-95209000D01*
X115879571Y-95209000D01*
X115784333Y-95161380D01*
X115736714Y-95066142D01*
X115736714Y-94875666D01*
X115784333Y-94780428D01*
X115879571Y-94732809D01*
X115974809Y-94732809D01*
X116070047Y-95209000D01*
X116403380Y-94304238D02*
X115736714Y-94304238D01*
X115927190Y-94304238D02*
X115831952Y-94256619D01*
X115784333Y-94209000D01*
X115736714Y-94113761D01*
X115736714Y-94018523D01*
X116403380Y-93685190D02*
X115736714Y-93685190D01*
X115927190Y-93685190D02*
X115831952Y-93637571D01*
X115784333Y-93589952D01*
X115736714Y-93494714D01*
X115736714Y-93399476D01*
X115736714Y-93161380D02*
X116403380Y-92923285D01*
X115736714Y-92685190D02*
X116403380Y-92923285D01*
X116641476Y-93018523D01*
X116689095Y-93066142D01*
X116736714Y-93161380D01*
X116403380Y-91542333D02*
X115403380Y-91542333D01*
X115403380Y-91161380D01*
X115451000Y-91066142D01*
X115498619Y-91018523D01*
X115593857Y-90970904D01*
X115736714Y-90970904D01*
X115831952Y-91018523D01*
X115879571Y-91066142D01*
X115927190Y-91161380D01*
X115927190Y-91542333D01*
X116403380Y-90542333D02*
X115736714Y-90542333D01*
X115403380Y-90542333D02*
X115451000Y-90589952D01*
X115498619Y-90542333D01*
X115451000Y-90494714D01*
X115403380Y-90542333D01*
X115498619Y-90542333D01*
X115403380Y-89399476D02*
X115403380Y-88732809D01*
X116403380Y-89399476D01*
X116403380Y-88732809D01*
X116355761Y-87970904D02*
X116403380Y-88066142D01*
X116403380Y-88256619D01*
X116355761Y-88351857D01*
X116260523Y-88399476D01*
X115879571Y-88399476D01*
X115784333Y-88351857D01*
X115736714Y-88256619D01*
X115736714Y-88066142D01*
X115784333Y-87970904D01*
X115879571Y-87923285D01*
X115974809Y-87923285D01*
X116070047Y-88399476D01*
X116403380Y-87494714D02*
X115736714Y-87494714D01*
X115927190Y-87494714D02*
X115831952Y-87447095D01*
X115784333Y-87399476D01*
X115736714Y-87304238D01*
X115736714Y-87209000D01*
X116403380Y-86732809D02*
X116355761Y-86828047D01*
X116308142Y-86875666D01*
X116212904Y-86923285D01*
X115927190Y-86923285D01*
X115831952Y-86875666D01*
X115784333Y-86828047D01*
X115736714Y-86732809D01*
X115736714Y-86589952D01*
X115784333Y-86494714D01*
X115831952Y-86447095D01*
X115927190Y-86399476D01*
X116212904Y-86399476D01*
X116308142Y-86447095D01*
X116355761Y-86494714D01*
X116403380Y-86589952D01*
X116403380Y-86732809D01*
X115403380Y-85304238D02*
X116403380Y-85066142D01*
X115689095Y-84875666D01*
X116403380Y-84685190D01*
X115403380Y-84447095D01*
X115736714Y-83447095D02*
X115736714Y-83066142D01*
X116403380Y-83304238D02*
X115546238Y-83304238D01*
X115451000Y-83256619D01*
X115403380Y-83161380D01*
X115403380Y-83066142D01*
X116403380Y-82304238D02*
X115879571Y-82304238D01*
X115784333Y-82351857D01*
X115736714Y-82447095D01*
X115736714Y-82637571D01*
X115784333Y-82732809D01*
X116355761Y-82304238D02*
X116403380Y-82399476D01*
X116403380Y-82637571D01*
X116355761Y-82732809D01*
X116260523Y-82780428D01*
X116165285Y-82780428D01*
X116070047Y-82732809D01*
X116022428Y-82637571D01*
X116022428Y-82399476D01*
X115974809Y-82304238D01*
X116355761Y-81399476D02*
X116403380Y-81494714D01*
X116403380Y-81685190D01*
X116355761Y-81780428D01*
X116308142Y-81828047D01*
X116212904Y-81875666D01*
X115927190Y-81875666D01*
X115831952Y-81828047D01*
X115784333Y-81780428D01*
X115736714Y-81685190D01*
X115736714Y-81494714D01*
X115784333Y-81399476D01*
X116403380Y-80970904D02*
X115736714Y-80970904D01*
X115403380Y-80970904D02*
X115451000Y-81018523D01*
X115498619Y-80970904D01*
X115451000Y-80923285D01*
X115403380Y-80970904D01*
X115498619Y-80970904D01*
X115736714Y-80494714D02*
X116403380Y-80494714D01*
X115831952Y-80494714D02*
X115784333Y-80447095D01*
X115736714Y-80351857D01*
X115736714Y-80209000D01*
X115784333Y-80113761D01*
X115879571Y-80066142D01*
X116403380Y-80066142D01*
X115736714Y-79161380D02*
X116546238Y-79161380D01*
X116641476Y-79209000D01*
X116689095Y-79256619D01*
X116736714Y-79351857D01*
X116736714Y-79494714D01*
X116689095Y-79589952D01*
X116355761Y-79161380D02*
X116403380Y-79256619D01*
X116403380Y-79447095D01*
X116355761Y-79542333D01*
X116308142Y-79589952D01*
X116212904Y-79637571D01*
X115927190Y-79637571D01*
X115831952Y-79589952D01*
X115784333Y-79542333D01*
X115736714Y-79447095D01*
X115736714Y-79256619D01*
X115784333Y-79161380D01*
X116403380Y-77780428D02*
X116355761Y-77875666D01*
X116308142Y-77923285D01*
X116212904Y-77970904D01*
X115927190Y-77970904D01*
X115831952Y-77923285D01*
X115784333Y-77875666D01*
X115736714Y-77780428D01*
X115736714Y-77637571D01*
X115784333Y-77542333D01*
X115831952Y-77494714D01*
X115927190Y-77447095D01*
X116212904Y-77447095D01*
X116308142Y-77494714D01*
X116355761Y-77542333D01*
X116403380Y-77637571D01*
X116403380Y-77780428D01*
X115736714Y-76589952D02*
X116403380Y-76589952D01*
X115736714Y-77018523D02*
X116260523Y-77018523D01*
X116355761Y-76970904D01*
X116403380Y-76875666D01*
X116403380Y-76732809D01*
X116355761Y-76637571D01*
X116308142Y-76589952D01*
X115736714Y-76256619D02*
X115736714Y-75875666D01*
X115403380Y-76113761D02*
X116260523Y-76113761D01*
X116355761Y-76066142D01*
X116403380Y-75970904D01*
X116403380Y-75875666D01*
X115736714Y-75637571D02*
X116403380Y-75447095D01*
X115927190Y-75256619D01*
X116403380Y-75066142D01*
X115736714Y-74875666D01*
X116403380Y-74066142D02*
X115879571Y-74066142D01*
X115784333Y-74113761D01*
X115736714Y-74209000D01*
X115736714Y-74399476D01*
X115784333Y-74494714D01*
X116355761Y-74066142D02*
X116403380Y-74161380D01*
X116403380Y-74399476D01*
X116355761Y-74494714D01*
X116260523Y-74542333D01*
X116165285Y-74542333D01*
X116070047Y-74494714D01*
X116022428Y-74399476D01*
X116022428Y-74161380D01*
X115974809Y-74066142D01*
X116403380Y-73589952D02*
X115736714Y-73589952D01*
X115927190Y-73589952D02*
X115831952Y-73542333D01*
X115784333Y-73494714D01*
X115736714Y-73399476D01*
X115736714Y-73304238D01*
X116403380Y-72542333D02*
X115403380Y-72542333D01*
X116355761Y-72542333D02*
X116403380Y-72637571D01*
X116403380Y-72828047D01*
X116355761Y-72923285D01*
X116308142Y-72970904D01*
X116212904Y-73018523D01*
X115927190Y-73018523D01*
X115831952Y-72970904D01*
X115784333Y-72923285D01*
X115736714Y-72828047D01*
X115736714Y-72637571D01*
X115784333Y-72542333D01*
X115736714Y-71447095D02*
X115736714Y-71066142D01*
X116403380Y-71304238D02*
X115546238Y-71304238D01*
X115451000Y-71256619D01*
X115403380Y-71161380D01*
X115403380Y-71066142D01*
X116403380Y-70732809D02*
X115736714Y-70732809D01*
X115927190Y-70732809D02*
X115831952Y-70685190D01*
X115784333Y-70637571D01*
X115736714Y-70542333D01*
X115736714Y-70447095D01*
X116403380Y-69970904D02*
X116355761Y-70066142D01*
X116308142Y-70113761D01*
X116212904Y-70161380D01*
X115927190Y-70161380D01*
X115831952Y-70113761D01*
X115784333Y-70066142D01*
X115736714Y-69970904D01*
X115736714Y-69828047D01*
X115784333Y-69732809D01*
X115831952Y-69685190D01*
X115927190Y-69637571D01*
X116212904Y-69637571D01*
X116308142Y-69685190D01*
X116355761Y-69732809D01*
X116403380Y-69828047D01*
X116403380Y-69970904D01*
X116403380Y-69209000D02*
X115736714Y-69209000D01*
X115831952Y-69209000D02*
X115784333Y-69161380D01*
X115736714Y-69066142D01*
X115736714Y-68923285D01*
X115784333Y-68828047D01*
X115879571Y-68780428D01*
X116403380Y-68780428D01*
X115879571Y-68780428D02*
X115784333Y-68732809D01*
X115736714Y-68637571D01*
X115736714Y-68494714D01*
X115784333Y-68399476D01*
X115879571Y-68351857D01*
X116403380Y-68351857D01*
X116355761Y-66685190D02*
X116403380Y-66780428D01*
X116403380Y-66970904D01*
X116355761Y-67066142D01*
X116308142Y-67113761D01*
X116212904Y-67161380D01*
X115927190Y-67161380D01*
X115831952Y-67113761D01*
X115784333Y-67066142D01*
X115736714Y-66970904D01*
X115736714Y-66780428D01*
X115784333Y-66685190D01*
X116403380Y-65828047D02*
X115879571Y-65828047D01*
X115784333Y-65875666D01*
X115736714Y-65970904D01*
X115736714Y-66161380D01*
X115784333Y-66256619D01*
X116355761Y-65828047D02*
X116403380Y-65923285D01*
X116403380Y-66161380D01*
X116355761Y-66256619D01*
X116260523Y-66304238D01*
X116165285Y-66304238D01*
X116070047Y-66256619D01*
X116022428Y-66161380D01*
X116022428Y-65923285D01*
X115974809Y-65828047D01*
X116403380Y-65351857D02*
X115736714Y-65351857D01*
X115927190Y-65351857D02*
X115831952Y-65304238D01*
X115784333Y-65256619D01*
X115736714Y-65161380D01*
X115736714Y-65066142D01*
X116403380Y-64304238D02*
X115403380Y-64304238D01*
X116355761Y-64304238D02*
X116403380Y-64399476D01*
X116403380Y-64589952D01*
X116355761Y-64685190D01*
X116308142Y-64732809D01*
X116212904Y-64780428D01*
X115927190Y-64780428D01*
X115831952Y-64732809D01*
X115784333Y-64685190D01*
X115736714Y-64589952D01*
X115736714Y-64399476D01*
X115784333Y-64304238D01*
X160307976Y-93147619D02*
X160355595Y-93100000D01*
X160450833Y-93052380D01*
X160688928Y-93052380D01*
X160784166Y-93100000D01*
X160831785Y-93147619D01*
X160879404Y-93242857D01*
X160879404Y-93338095D01*
X160831785Y-93480952D01*
X160260357Y-94052380D01*
X160879404Y-94052380D01*
X161212738Y-93052380D02*
X161879404Y-93052380D01*
X161450833Y-94052380D01*
X162831785Y-93957142D02*
X162784166Y-94004761D01*
X162641309Y-94052380D01*
X162546071Y-94052380D01*
X162403214Y-94004761D01*
X162307976Y-93909523D01*
X162260357Y-93814285D01*
X162212738Y-93623809D01*
X162212738Y-93480952D01*
X162260357Y-93290476D01*
X162307976Y-93195238D01*
X162403214Y-93100000D01*
X162546071Y-93052380D01*
X162641309Y-93052380D01*
X162784166Y-93100000D01*
X162831785Y-93147619D01*
X163688928Y-93052380D02*
X163498452Y-93052380D01*
X163403214Y-93100000D01*
X163355595Y-93147619D01*
X163260357Y-93290476D01*
X163212738Y-93480952D01*
X163212738Y-93861904D01*
X163260357Y-93957142D01*
X163307976Y-94004761D01*
X163403214Y-94052380D01*
X163593690Y-94052380D01*
X163688928Y-94004761D01*
X163736547Y-93957142D01*
X163784166Y-93861904D01*
X163784166Y-93623809D01*
X163736547Y-93528571D01*
X163688928Y-93480952D01*
X163593690Y-93433333D01*
X163403214Y-93433333D01*
X163307976Y-93480952D01*
X163260357Y-93528571D01*
X163212738Y-93623809D01*
X164641309Y-93385714D02*
X164641309Y-94052380D01*
X164403214Y-93004761D02*
X164165119Y-93719047D01*
X164784166Y-93719047D01*
X165927023Y-93528571D02*
X166260357Y-93528571D01*
X166403214Y-94052380D02*
X165927023Y-94052380D01*
X165927023Y-93052380D01*
X166403214Y-93052380D01*
X166831785Y-94052380D02*
X166831785Y-93052380D01*
X167212738Y-93052380D01*
X167307976Y-93100000D01*
X167355595Y-93147619D01*
X167403214Y-93242857D01*
X167403214Y-93385714D01*
X167355595Y-93480952D01*
X167307976Y-93528571D01*
X167212738Y-93576190D01*
X166831785Y-93576190D01*
X168403214Y-94052380D02*
X168069880Y-93576190D01*
X167831785Y-94052380D02*
X167831785Y-93052380D01*
X168212738Y-93052380D01*
X168307976Y-93100000D01*
X168355595Y-93147619D01*
X168403214Y-93242857D01*
X168403214Y-93385714D01*
X168355595Y-93480952D01*
X168307976Y-93528571D01*
X168212738Y-93576190D01*
X167831785Y-93576190D01*
X169022261Y-93052380D02*
X169212738Y-93052380D01*
X169307976Y-93100000D01*
X169403214Y-93195238D01*
X169450833Y-93385714D01*
X169450833Y-93719047D01*
X169403214Y-93909523D01*
X169307976Y-94004761D01*
X169212738Y-94052380D01*
X169022261Y-94052380D01*
X168927023Y-94004761D01*
X168831785Y-93909523D01*
X168784166Y-93719047D01*
X168784166Y-93385714D01*
X168831785Y-93195238D01*
X168927023Y-93100000D01*
X169022261Y-93052380D01*
X169879404Y-94052380D02*
X169879404Y-93052380D01*
X170212738Y-93766666D01*
X170546071Y-93052380D01*
X170546071Y-94052380D01*
X160688928Y-95178571D02*
X160355595Y-95178571D01*
X160355595Y-95702380D02*
X160355595Y-94702380D01*
X160831785Y-94702380D01*
X161212738Y-95702380D02*
X161212738Y-95035714D01*
X161212738Y-94702380D02*
X161165119Y-94750000D01*
X161212738Y-94797619D01*
X161260357Y-94750000D01*
X161212738Y-94702380D01*
X161212738Y-94797619D01*
X161688928Y-95702380D02*
X161688928Y-95035714D01*
X161688928Y-95226190D02*
X161736547Y-95130952D01*
X161784166Y-95083333D01*
X161879404Y-95035714D01*
X161974642Y-95035714D01*
X162307976Y-95702380D02*
X162307976Y-95035714D01*
X162307976Y-95130952D02*
X162355595Y-95083333D01*
X162450833Y-95035714D01*
X162593690Y-95035714D01*
X162688928Y-95083333D01*
X162736547Y-95178571D01*
X162736547Y-95702380D01*
X162736547Y-95178571D02*
X162784166Y-95083333D01*
X162879404Y-95035714D01*
X163022261Y-95035714D01*
X163117500Y-95083333D01*
X163165119Y-95178571D01*
X163165119Y-95702380D01*
X163546071Y-95035714D02*
X163736547Y-95702380D01*
X163927023Y-95226190D01*
X164117500Y-95702380D01*
X164307976Y-95035714D01*
X165117500Y-95702380D02*
X165117500Y-95178571D01*
X165069880Y-95083333D01*
X164974642Y-95035714D01*
X164784166Y-95035714D01*
X164688928Y-95083333D01*
X165117500Y-95654761D02*
X165022261Y-95702380D01*
X164784166Y-95702380D01*
X164688928Y-95654761D01*
X164641309Y-95559523D01*
X164641309Y-95464285D01*
X164688928Y-95369047D01*
X164784166Y-95321428D01*
X165022261Y-95321428D01*
X165117500Y-95273809D01*
X165593690Y-95702380D02*
X165593690Y-95035714D01*
X165593690Y-95226190D02*
X165641309Y-95130952D01*
X165688928Y-95083333D01*
X165784166Y-95035714D01*
X165879404Y-95035714D01*
X166593690Y-95654761D02*
X166498452Y-95702380D01*
X166307976Y-95702380D01*
X166212738Y-95654761D01*
X166165119Y-95559523D01*
X166165119Y-95178571D01*
X166212738Y-95083333D01*
X166307976Y-95035714D01*
X166498452Y-95035714D01*
X166593690Y-95083333D01*
X166641309Y-95178571D01*
X166641309Y-95273809D01*
X166165119Y-95369047D01*
X168260357Y-95702380D02*
X168260357Y-95178571D01*
X168212738Y-95083333D01*
X168117500Y-95035714D01*
X167927023Y-95035714D01*
X167831785Y-95083333D01*
X168260357Y-95654761D02*
X168165119Y-95702380D01*
X167927023Y-95702380D01*
X167831785Y-95654761D01*
X167784166Y-95559523D01*
X167784166Y-95464285D01*
X167831785Y-95369047D01*
X167927023Y-95321428D01*
X168165119Y-95321428D01*
X168260357Y-95273809D01*
X168593690Y-95035714D02*
X168974642Y-95035714D01*
X168736547Y-94702380D02*
X168736547Y-95559523D01*
X168784166Y-95654761D01*
X168879404Y-95702380D01*
X168974642Y-95702380D01*
X170022261Y-95654761D02*
X170165119Y-95702380D01*
X170403214Y-95702380D01*
X170498452Y-95654761D01*
X170546071Y-95607142D01*
X170593690Y-95511904D01*
X170593690Y-95416666D01*
X170546071Y-95321428D01*
X170498452Y-95273809D01*
X170403214Y-95226190D01*
X170212738Y-95178571D01*
X170117500Y-95130952D01*
X170069880Y-95083333D01*
X170022261Y-94988095D01*
X170022261Y-94892857D01*
X170069880Y-94797619D01*
X170117500Y-94750000D01*
X170212738Y-94702380D01*
X170450833Y-94702380D01*
X170593690Y-94750000D01*
X170307976Y-94559523D02*
X170307976Y-95845238D01*
X171593690Y-95607142D02*
X171546071Y-95654761D01*
X171403214Y-95702380D01*
X171307976Y-95702380D01*
X171165119Y-95654761D01*
X171069880Y-95559523D01*
X171022261Y-95464285D01*
X170974642Y-95273809D01*
X170974642Y-95130952D01*
X171022261Y-94940476D01*
X171069880Y-94845238D01*
X171165119Y-94750000D01*
X171307976Y-94702380D01*
X171403214Y-94702380D01*
X171546071Y-94750000D01*
X171593690Y-94797619D01*
X172022261Y-95035714D02*
X172022261Y-95702380D01*
X172022261Y-95130952D02*
X172069880Y-95083333D01*
X172165119Y-95035714D01*
X172307976Y-95035714D01*
X172403214Y-95083333D01*
X172450833Y-95178571D01*
X172450833Y-95702380D01*
X173117500Y-94702380D02*
X173212738Y-94702380D01*
X173307976Y-94750000D01*
X173355595Y-94797619D01*
X173403214Y-94892857D01*
X173450833Y-95083333D01*
X173450833Y-95321428D01*
X173403214Y-95511904D01*
X173355595Y-95607142D01*
X173307976Y-95654761D01*
X173212738Y-95702380D01*
X173117500Y-95702380D01*
X173022261Y-95654761D01*
X172974642Y-95607142D01*
X172927023Y-95511904D01*
X172879404Y-95321428D01*
X172879404Y-95083333D01*
X172927023Y-94892857D01*
X172974642Y-94797619D01*
X173022261Y-94750000D01*
X173117500Y-94702380D01*
X174069880Y-94702380D02*
X174165119Y-94702380D01*
X174260357Y-94750000D01*
X174307976Y-94797619D01*
X174355595Y-94892857D01*
X174403214Y-95083333D01*
X174403214Y-95321428D01*
X174355595Y-95511904D01*
X174307976Y-95607142D01*
X174260357Y-95654761D01*
X174165119Y-95702380D01*
X174069880Y-95702380D01*
X173974642Y-95654761D01*
X173927023Y-95607142D01*
X173879404Y-95511904D01*
X173831785Y-95321428D01*
X173831785Y-95083333D01*
X173879404Y-94892857D01*
X173927023Y-94797619D01*
X173974642Y-94750000D01*
X174069880Y-94702380D01*
X175593690Y-95321428D02*
X176355595Y-95321428D01*
X177546071Y-95654761D02*
X177688928Y-95702380D01*
X177927023Y-95702380D01*
X178022261Y-95654761D01*
X178069880Y-95607142D01*
X178117500Y-95511904D01*
X178117500Y-95416666D01*
X178069880Y-95321428D01*
X178022261Y-95273809D01*
X177927023Y-95226190D01*
X177736547Y-95178571D01*
X177641309Y-95130952D01*
X177593690Y-95083333D01*
X177546071Y-94988095D01*
X177546071Y-94892857D01*
X177593690Y-94797619D01*
X177641309Y-94750000D01*
X177736547Y-94702380D01*
X177974642Y-94702380D01*
X178117500Y-94750000D01*
X177831785Y-94559523D02*
X177831785Y-95845238D01*
X179117500Y-95607142D02*
X179069880Y-95654761D01*
X178927023Y-95702380D01*
X178831785Y-95702380D01*
X178688928Y-95654761D01*
X178593690Y-95559523D01*
X178546071Y-95464285D01*
X178498452Y-95273809D01*
X178498452Y-95130952D01*
X178546071Y-94940476D01*
X178593690Y-94845238D01*
X178688928Y-94750000D01*
X178831785Y-94702380D01*
X178927023Y-94702380D01*
X179069880Y-94750000D01*
X179117500Y-94797619D01*
X179546071Y-95035714D02*
X179546071Y-95702380D01*
X179546071Y-95130952D02*
X179593690Y-95083333D01*
X179688928Y-95035714D01*
X179831785Y-95035714D01*
X179927023Y-95083333D01*
X179974642Y-95178571D01*
X179974642Y-95702380D01*
X180784166Y-95178571D02*
X180450833Y-95178571D01*
X180450833Y-95702380D02*
X180450833Y-94702380D01*
X180927023Y-94702380D01*
X181641309Y-95178571D02*
X181307976Y-95178571D01*
X181307976Y-95702380D02*
X181307976Y-94702380D01*
X181784166Y-94702380D01*
X160260357Y-96352380D02*
X160498452Y-97352380D01*
X160688928Y-96638095D01*
X160879404Y-97352380D01*
X161117500Y-96352380D01*
X161498452Y-97352380D02*
X161498452Y-96352380D01*
X161927023Y-97352380D02*
X161927023Y-96828571D01*
X161879404Y-96733333D01*
X161784166Y-96685714D01*
X161641309Y-96685714D01*
X161546071Y-96733333D01*
X161498452Y-96780952D01*
X162784166Y-97304761D02*
X162688928Y-97352380D01*
X162498452Y-97352380D01*
X162403214Y-97304761D01*
X162355595Y-97209523D01*
X162355595Y-96828571D01*
X162403214Y-96733333D01*
X162498452Y-96685714D01*
X162688928Y-96685714D01*
X162784166Y-96733333D01*
X162831785Y-96828571D01*
X162831785Y-96923809D01*
X162355595Y-97019047D01*
X163260357Y-97352380D02*
X163260357Y-96685714D01*
X163260357Y-96876190D02*
X163307976Y-96780952D01*
X163355595Y-96733333D01*
X163450833Y-96685714D01*
X163546071Y-96685714D01*
X164260357Y-97304761D02*
X164165119Y-97352380D01*
X163974642Y-97352380D01*
X163879404Y-97304761D01*
X163831785Y-97209523D01*
X163831785Y-96828571D01*
X163879404Y-96733333D01*
X163974642Y-96685714D01*
X164165119Y-96685714D01*
X164260357Y-96733333D01*
X164307976Y-96828571D01*
X164307976Y-96923809D01*
X163831785Y-97019047D01*
X165498452Y-96685714D02*
X165498452Y-97352380D01*
X165498452Y-96780952D02*
X165546071Y-96733333D01*
X165641309Y-96685714D01*
X165784166Y-96685714D01*
X165879404Y-96733333D01*
X165927023Y-96828571D01*
X165927023Y-97352380D01*
X167165119Y-96828571D02*
X167927023Y-96828571D01*
X167927023Y-97114285D02*
X167165119Y-97114285D01*
X169117500Y-97304761D02*
X169212738Y-97352380D01*
X169403214Y-97352380D01*
X169498452Y-97304761D01*
X169546071Y-97209523D01*
X169546071Y-97161904D01*
X169498452Y-97066666D01*
X169403214Y-97019047D01*
X169260357Y-97019047D01*
X169165119Y-96971428D01*
X169117500Y-96876190D01*
X169117500Y-96828571D01*
X169165119Y-96733333D01*
X169260357Y-96685714D01*
X169403214Y-96685714D01*
X169498452Y-96733333D01*
X170117500Y-97352380D02*
X170022261Y-97304761D01*
X169974642Y-97209523D01*
X169974642Y-96352380D01*
X170641309Y-97352380D02*
X170546071Y-97304761D01*
X170498452Y-97257142D01*
X170450833Y-97161904D01*
X170450833Y-96876190D01*
X170498452Y-96780952D01*
X170546071Y-96733333D01*
X170641309Y-96685714D01*
X170784166Y-96685714D01*
X170879404Y-96733333D01*
X170927023Y-96780952D01*
X170974642Y-96876190D01*
X170974642Y-97161904D01*
X170927023Y-97257142D01*
X170879404Y-97304761D01*
X170784166Y-97352380D01*
X170641309Y-97352380D01*
X171260357Y-96685714D02*
X171641309Y-96685714D01*
X171403214Y-96352380D02*
X171403214Y-97209523D01*
X171450833Y-97304761D01*
X171546071Y-97352380D01*
X171641309Y-97352380D01*
X172736547Y-96685714D02*
X172736547Y-97352380D01*
X172736547Y-96780952D02*
X172784166Y-96733333D01*
X172879404Y-96685714D01*
X173022261Y-96685714D01*
X173117500Y-96733333D01*
X173165119Y-96828571D01*
X173165119Y-97352380D01*
X174069880Y-96685714D02*
X174069880Y-97352380D01*
X173641309Y-96685714D02*
X173641309Y-97209523D01*
X173688928Y-97304761D01*
X173784166Y-97352380D01*
X173927023Y-97352380D01*
X174022261Y-97304761D01*
X174069880Y-97257142D01*
X174546071Y-97352380D02*
X174546071Y-96685714D01*
X174546071Y-96780952D02*
X174593690Y-96733333D01*
X174688928Y-96685714D01*
X174831785Y-96685714D01*
X174927023Y-96733333D01*
X174974642Y-96828571D01*
X174974642Y-97352380D01*
X174974642Y-96828571D02*
X175022261Y-96733333D01*
X175117500Y-96685714D01*
X175260357Y-96685714D01*
X175355595Y-96733333D01*
X175403214Y-96828571D01*
X175403214Y-97352380D01*
X175879404Y-97352380D02*
X175879404Y-96352380D01*
X175879404Y-96733333D02*
X175974642Y-96685714D01*
X176165119Y-96685714D01*
X176260357Y-96733333D01*
X176307976Y-96780952D01*
X176355595Y-96876190D01*
X176355595Y-97161904D01*
X176307976Y-97257142D01*
X176260357Y-97304761D01*
X176165119Y-97352380D01*
X175974642Y-97352380D01*
X175879404Y-97304761D01*
X177165119Y-97304761D02*
X177069880Y-97352380D01*
X176879404Y-97352380D01*
X176784166Y-97304761D01*
X176736547Y-97209523D01*
X176736547Y-96828571D01*
X176784166Y-96733333D01*
X176879404Y-96685714D01*
X177069880Y-96685714D01*
X177165119Y-96733333D01*
X177212738Y-96828571D01*
X177212738Y-96923809D01*
X176736547Y-97019047D01*
X177641309Y-97352380D02*
X177641309Y-96685714D01*
X177641309Y-96876190D02*
X177688928Y-96780952D01*
X177736547Y-96733333D01*
X177831785Y-96685714D01*
X177927023Y-96685714D01*
D11*
X168005000Y-64710000D02*
G75*
G02X166005000Y-64710000I-1000000J0D01*
G01*
X166005000Y-64710000D02*
X164355000Y-64710000D01*
X164355000Y-64710000D02*
X164355000Y-82610000D01*
X164355000Y-82610000D02*
X169655000Y-82610000D01*
X169655000Y-82610000D02*
X169655000Y-64710000D01*
X169655000Y-64710000D02*
X168005000Y-64710000D01*
X165727989Y-68826793D02*
G75*
G02X164645001Y-68814999I-532989J786793D01*
G01*
X164645000Y-68815000D02*
X164645000Y-69390000D01*
X165745000Y-69390000D02*
X165745000Y-68840000D01*
X165164272Y-70324214D02*
G75*
G02X164645000Y-69390000I580728J934214D01*
G01*
X165145000Y-70340000D02*
G75*
G03X165743537Y-69360952I-501463J979048D01*
G01*
X169202989Y-71651793D02*
G75*
G02X168120001Y-71639999I-532989J786793D01*
G01*
X168639272Y-73149214D02*
G75*
G02X168120000Y-72215000I580728J934214D01*
G01*
X168620000Y-73165000D02*
G75*
G03X169218537Y-72185952I-501463J979048D01*
G01*
X169220000Y-72215000D02*
X169220000Y-71665000D01*
X168120000Y-71640000D02*
X168120000Y-72215000D01*
X164370000Y-68415000D02*
X164945000Y-68415000D01*
X164945000Y-68415000D02*
X164945000Y-68965000D01*
X165420000Y-68915000D02*
X165420000Y-66040000D01*
X165420000Y-66040000D02*
X164370000Y-66040000D01*
X165145000Y-70315000D02*
X165145000Y-71065000D01*
X165145000Y-71065000D02*
X164370000Y-71065000D01*
X168670000Y-73190000D02*
X168670000Y-73715000D01*
X168670000Y-73715000D02*
X169620000Y-73715000D01*
X169645000Y-71140000D02*
X168920000Y-71140000D01*
X168920000Y-71140000D02*
X168920000Y-71790000D01*
X169645000Y-68590000D02*
X168445000Y-68590000D01*
X168445000Y-68590000D02*
X168445000Y-71740000D01*
X165145000Y-78812000D02*
X164370000Y-78812000D01*
X165145000Y-78062000D02*
X165145000Y-78812000D01*
X165420000Y-73787000D02*
X164370000Y-73787000D01*
X165420000Y-76662000D02*
X165420000Y-73787000D01*
X164945000Y-76162000D02*
X164945000Y-76712000D01*
X164370000Y-76162000D02*
X164945000Y-76162000D01*
X165145000Y-78087000D02*
G75*
G03X165743537Y-77107952I-501463J979048D01*
G01*
X165164272Y-78071214D02*
G75*
G02X164645000Y-77137000I580728J934214D01*
G01*
X165745000Y-77137000D02*
X165745000Y-76587000D01*
X164645000Y-76562000D02*
X164645000Y-77137000D01*
X165727989Y-76573793D02*
G75*
G02X164645001Y-76561999I-532989J786793D01*
G01*
X169202989Y-79271793D02*
G75*
G02X168120001Y-79259999I-532989J786793D01*
G01*
X168120000Y-79260000D02*
X168120000Y-79835000D01*
X169220000Y-79835000D02*
X169220000Y-79285000D01*
X168620000Y-80785000D02*
G75*
G03X169218537Y-79805952I-501463J979048D01*
G01*
X169645000Y-76210000D02*
X168445000Y-76210000D01*
X168920000Y-78760000D02*
X168920000Y-79410000D01*
X169645000Y-78760000D02*
X168920000Y-78760000D01*
X168670000Y-81335000D02*
X169620000Y-81335000D01*
X168670000Y-80810000D02*
X168670000Y-81335000D01*
X168445000Y-76210000D02*
X168445000Y-79360000D01*
X168639272Y-80769214D02*
G75*
G02X168120000Y-79835000I580728J934214D01*
G01*
X184260000Y-64710000D02*
X182610000Y-64710000D01*
X184260000Y-82610000D02*
X184260000Y-64710000D01*
X178960000Y-82610000D02*
X184260000Y-82610000D01*
X178960000Y-64710000D02*
X178960000Y-82610000D01*
X180610000Y-64710000D02*
X178960000Y-64710000D01*
X182610000Y-64710000D02*
G75*
G02X180610000Y-64710000I-1000000J0D01*
G01*
X179351940Y-69108320D02*
X180304440Y-69108320D01*
X179349400Y-69121020D02*
X179349400Y-69707760D01*
X180319104Y-69699363D02*
G75*
G02X179349400Y-69723000I-484564J-23637D01*
G01*
X179912489Y-70277037D02*
G75*
G02X179862479Y-70261481I-65249J-121603D01*
G01*
X180324760Y-69715380D02*
X180324760Y-69113400D01*
X180283544Y-77743543D02*
G75*
G02X179313840Y-77767180I-484564J-23637D01*
G01*
X179876929Y-78321217D02*
G75*
G02X179826919Y-78305661I-65249J-121603D01*
G01*
X179316380Y-77152500D02*
X180268880Y-77152500D01*
X180289200Y-77759560D02*
X180289200Y-77157580D01*
X179313840Y-77165200D02*
X179313840Y-77751940D01*
X183961464Y-72506063D02*
G75*
G02X182991760Y-72529700I-484564J-23637D01*
G01*
X183554849Y-73083737D02*
G75*
G02X183504839Y-73068181I-65249J-121603D01*
G01*
X182994300Y-71915020D02*
X183946800Y-71915020D01*
X183967120Y-72522080D02*
X183967120Y-71920100D01*
X182991760Y-71927720D02*
X182991760Y-72514460D01*
X183961464Y-79816183D02*
G75*
G02X182991760Y-79839820I-484564J-23637D01*
G01*
X183554849Y-80393857D02*
G75*
G02X183504839Y-80378301I-65249J-121603D01*
G01*
X182994300Y-79225140D02*
X183946800Y-79225140D01*
X183967120Y-79832200D02*
X183967120Y-79230220D01*
X182991760Y-79237840D02*
X182991760Y-79824580D01*
X178943000Y-66040000D02*
X180086000Y-66040000D01*
X180086000Y-66040000D02*
X180086000Y-69088000D01*
X178943000Y-68580000D02*
X179705000Y-68580000D01*
X179705000Y-68580000D02*
X179705000Y-69088000D01*
X178943000Y-71120000D02*
X179832000Y-71120000D01*
X179832000Y-71120000D02*
X179832000Y-70612000D01*
X180086000Y-77089000D02*
X180086000Y-73660000D01*
X180086000Y-73660000D02*
X178943000Y-73660000D01*
X179578000Y-77089000D02*
X179578000Y-76200000D01*
X179578000Y-76200000D02*
X178943000Y-76200000D01*
X179832000Y-78613000D02*
X179832000Y-78994000D01*
X179832000Y-78994000D02*
X178943000Y-78994000D01*
X183261000Y-71882000D02*
X183261000Y-68580000D01*
X183261000Y-68580000D02*
X184277000Y-68580000D01*
X183642000Y-71882000D02*
X183642000Y-71120000D01*
X183642000Y-71120000D02*
X184277000Y-71120000D01*
X184277000Y-73787000D02*
X183515000Y-73787000D01*
X183515000Y-73787000D02*
X183515000Y-73406000D01*
X183261000Y-79121000D02*
X183261000Y-76327000D01*
X183261000Y-76327000D02*
X184277000Y-76327000D01*
X183642000Y-79121000D02*
X183642000Y-78740000D01*
X183642000Y-78740000D02*
X184277000Y-78740000D01*
X184277000Y-81407000D02*
X183515000Y-81407000D01*
X183515000Y-81407000D02*
X183515000Y-80645000D01*
X114360000Y-109915000D02*
X111760000Y-109915000D01*
X114360000Y-109915000D02*
X114360000Y-58995000D01*
X114360000Y-58995000D02*
X109160000Y-58995000D01*
X109160000Y-107315000D02*
X109160000Y-58995000D01*
X111760000Y-107315000D02*
X109160000Y-107315000D01*
X111760000Y-109915000D02*
X111760000Y-107315000D01*
X109160000Y-109915000D02*
X109160000Y-108585000D01*
X110490000Y-109915000D02*
X109160000Y-109915000D01*
X123130000Y-94885000D02*
G75*
G02X123130000Y-96885000I0J-1000000D01*
G01*
X123130000Y-96885000D02*
X123130000Y-98535000D01*
X123130000Y-98535000D02*
X148650000Y-98535000D01*
X148650000Y-98535000D02*
X148650000Y-93235000D01*
X148650000Y-93235000D02*
X123130000Y-93235000D01*
X123130000Y-93235000D02*
X123130000Y-94885000D01*
X186750000Y-96250000D02*
G75*
G02X186750000Y-94250000I0J1000000D01*
G01*
X186750000Y-94250000D02*
X186750000Y-88790000D01*
X186750000Y-88790000D02*
X151070000Y-88790000D01*
X151070000Y-88790000D02*
X151070000Y-101710000D01*
X151070000Y-101710000D02*
X186750000Y-101710000D01*
X186750000Y-101710000D02*
X186750000Y-96250000D01*
X123130000Y-79900000D02*
X123130000Y-81550000D01*
X148650000Y-79900000D02*
X123130000Y-79900000D01*
X148650000Y-85200000D02*
X148650000Y-79900000D01*
X123130000Y-85200000D02*
X148650000Y-85200000D01*
X123130000Y-83550000D02*
X123130000Y-85200000D01*
X123130000Y-81550000D02*
G75*
G02X123130000Y-83550000I0J-1000000D01*
G01*
X123130000Y-66945000D02*
G75*
G02X123130000Y-68945000I0J-1000000D01*
G01*
X123130000Y-68945000D02*
X123130000Y-70595000D01*
X123130000Y-70595000D02*
X148650000Y-70595000D01*
X148650000Y-70595000D02*
X148650000Y-65295000D01*
X148650000Y-65295000D02*
X123130000Y-65295000D01*
X123130000Y-65295000D02*
X123130000Y-66945000D01*
D10*
X166522380Y-76232857D02*
X166522380Y-75566190D01*
X167522380Y-75994761D01*
X166855714Y-74756666D02*
X167522380Y-74756666D01*
X166474761Y-74994761D02*
X167189047Y-75232857D01*
X167189047Y-74613809D01*
X167522380Y-73756666D02*
X167522380Y-74232857D01*
X166522380Y-74232857D01*
X167474761Y-73470952D02*
X167522380Y-73328095D01*
X167522380Y-73090000D01*
X167474761Y-72994761D01*
X167427142Y-72947142D01*
X167331904Y-72899523D01*
X167236666Y-72899523D01*
X167141428Y-72947142D01*
X167093809Y-72994761D01*
X167046190Y-73090000D01*
X166998571Y-73280476D01*
X166950952Y-73375714D01*
X166903333Y-73423333D01*
X166808095Y-73470952D01*
X166712857Y-73470952D01*
X166617619Y-73423333D01*
X166570000Y-73375714D01*
X166522380Y-73280476D01*
X166522380Y-73042380D01*
X166570000Y-72899523D01*
X166522380Y-72566190D02*
X166522380Y-71947142D01*
X166903333Y-72280476D01*
X166903333Y-72137619D01*
X166950952Y-72042380D01*
X166998571Y-71994761D01*
X167093809Y-71947142D01*
X167331904Y-71947142D01*
X167427142Y-71994761D01*
X167474761Y-72042380D01*
X167522380Y-72137619D01*
X167522380Y-72423333D01*
X167474761Y-72518571D01*
X167427142Y-72566190D01*
X166617619Y-71566190D02*
X166570000Y-71518571D01*
X166522380Y-71423333D01*
X166522380Y-71185238D01*
X166570000Y-71090000D01*
X166617619Y-71042380D01*
X166712857Y-70994761D01*
X166808095Y-70994761D01*
X166950952Y-71042380D01*
X167522380Y-71613809D01*
X167522380Y-70994761D01*
X181127380Y-76432857D02*
X181127380Y-75766190D01*
X182127380Y-76194761D01*
X181460714Y-74956666D02*
X182127380Y-74956666D01*
X181079761Y-75194761D02*
X181794047Y-75432857D01*
X181794047Y-74813809D01*
X182127380Y-73956666D02*
X182127380Y-74432857D01*
X181127380Y-74432857D01*
X182079761Y-73670952D02*
X182127380Y-73528095D01*
X182127380Y-73290000D01*
X182079761Y-73194761D01*
X182032142Y-73147142D01*
X181936904Y-73099523D01*
X181841666Y-73099523D01*
X181746428Y-73147142D01*
X181698809Y-73194761D01*
X181651190Y-73290000D01*
X181603571Y-73480476D01*
X181555952Y-73575714D01*
X181508333Y-73623333D01*
X181413095Y-73670952D01*
X181317857Y-73670952D01*
X181222619Y-73623333D01*
X181175000Y-73575714D01*
X181127380Y-73480476D01*
X181127380Y-73242380D01*
X181175000Y-73099523D01*
X181127380Y-72480476D02*
X181127380Y-72385238D01*
X181175000Y-72290000D01*
X181222619Y-72242380D01*
X181317857Y-72194761D01*
X181508333Y-72147142D01*
X181746428Y-72147142D01*
X181936904Y-72194761D01*
X182032142Y-72242380D01*
X182079761Y-72290000D01*
X182127380Y-72385238D01*
X182127380Y-72480476D01*
X182079761Y-72575714D01*
X182032142Y-72623333D01*
X181936904Y-72670952D01*
X181746428Y-72718571D01*
X181508333Y-72718571D01*
X181317857Y-72670952D01*
X181222619Y-72623333D01*
X181175000Y-72575714D01*
X181127380Y-72480476D01*
X181127380Y-71528095D02*
X181127380Y-71432857D01*
X181175000Y-71337619D01*
X181222619Y-71290000D01*
X181317857Y-71242380D01*
X181508333Y-71194761D01*
X181746428Y-71194761D01*
X181936904Y-71242380D01*
X182032142Y-71290000D01*
X182079761Y-71337619D01*
X182127380Y-71432857D01*
X182127380Y-71528095D01*
X182079761Y-71623333D01*
X182032142Y-71670952D01*
X181936904Y-71718571D01*
X181746428Y-71766190D01*
X181508333Y-71766190D01*
X181317857Y-71718571D01*
X181222619Y-71670952D01*
X181175000Y-71623333D01*
X181127380Y-71528095D01*
X121582380Y-96646904D02*
X122391904Y-96646904D01*
X122487142Y-96599285D01*
X122534761Y-96551666D01*
X122582380Y-96456428D01*
X122582380Y-96265952D01*
X122534761Y-96170714D01*
X122487142Y-96123095D01*
X122391904Y-96075476D01*
X121582380Y-96075476D01*
X121582380Y-95408809D02*
X121582380Y-95313571D01*
X121630000Y-95218333D01*
X121677619Y-95170714D01*
X121772857Y-95123095D01*
X121963333Y-95075476D01*
X122201428Y-95075476D01*
X122391904Y-95123095D01*
X122487142Y-95170714D01*
X122534761Y-95218333D01*
X122582380Y-95313571D01*
X122582380Y-95408809D01*
X122534761Y-95504047D01*
X122487142Y-95551666D01*
X122391904Y-95599285D01*
X122201428Y-95646904D01*
X121963333Y-95646904D01*
X121772857Y-95599285D01*
X121677619Y-95551666D01*
X121630000Y-95504047D01*
X121582380Y-95408809D01*
X121582380Y-83311904D02*
X122391904Y-83311904D01*
X122487142Y-83264285D01*
X122534761Y-83216666D01*
X122582380Y-83121428D01*
X122582380Y-82930952D01*
X122534761Y-82835714D01*
X122487142Y-82788095D01*
X122391904Y-82740476D01*
X121582380Y-82740476D01*
X121915714Y-81835714D02*
X122582380Y-81835714D01*
X121534761Y-82073809D02*
X122249047Y-82311904D01*
X122249047Y-81692857D01*
X121582380Y-68706904D02*
X122391904Y-68706904D01*
X122487142Y-68659285D01*
X122534761Y-68611666D01*
X122582380Y-68516428D01*
X122582380Y-68325952D01*
X122534761Y-68230714D01*
X122487142Y-68183095D01*
X122391904Y-68135476D01*
X121582380Y-68135476D01*
X121582380Y-67183095D02*
X121582380Y-67659285D01*
X122058571Y-67706904D01*
X122010952Y-67659285D01*
X121963333Y-67564047D01*
X121963333Y-67325952D01*
X122010952Y-67230714D01*
X122058571Y-67183095D01*
X122153809Y-67135476D01*
X122391904Y-67135476D01*
X122487142Y-67183095D01*
X122534761Y-67230714D01*
X122582380Y-67325952D01*
X122582380Y-67564047D01*
X122534761Y-67659285D01*
X122487142Y-67706904D01*
M02*
