G04 #@! TF.GenerationSoftware,KiCad,Pcbnew,(6.0.2-0)*
G04 #@! TF.CreationDate,2022-03-01T05:34:48-05:00*
G04 #@! TF.ProjectId,Apple2IORPi,4170706c-6532-4494-9f52-50692e6b6963,0.6*
G04 #@! TF.SameCoordinates,Original*
G04 #@! TF.FileFunction,Soldermask,Bot*
G04 #@! TF.FilePolarity,Negative*
%FSLAX46Y46*%
G04 Gerber Fmt 4.6, Leading zero omitted, Abs format (unit mm)*
G04 Created by KiCad (PCBNEW (6.0.2-0)) date 2022-03-01 05:34:48*
%MOMM*%
%LPD*%
G01*
G04 APERTURE LIST*
%ADD10C,0.150000*%
%ADD11R,1.700000X1.700000*%
%ADD12O,1.700000X1.700000*%
%ADD13R,1.600000X1.600000*%
%ADD14O,1.600000X1.600000*%
%ADD15C,1.600000*%
G04 APERTURE END LIST*
D10*
X187400001Y-119380000D02*
X187400001Y-111760000D01*
X187400001Y-111760000D02*
X122630001Y-111760000D01*
X122630001Y-111760000D02*
X122630001Y-119380000D01*
X122630001Y-119380000D02*
X187400001Y-119380000D01*
G36*
X187400001Y-119380000D02*
G01*
X122630001Y-119380000D01*
X122630001Y-111760000D01*
X187400001Y-111760000D01*
X187400001Y-119380000D01*
G37*
X187400001Y-119380000D02*
X122630001Y-119380000D01*
X122630001Y-111760000D01*
X187400001Y-111760000D01*
X187400001Y-119380000D01*
G36*
G01*
X184860001Y-118808500D02*
X184860001Y-112077500D01*
G75*
G02*
X185177501Y-111760000I317500J0D01*
G01*
X185812501Y-111760000D01*
G75*
G02*
X186130001Y-112077500I0J-317500D01*
G01*
X186130001Y-118808500D01*
G75*
G02*
X185812501Y-119126000I-317500J0D01*
G01*
X185177501Y-119126000D01*
G75*
G02*
X184860001Y-118808500I0J317500D01*
G01*
G37*
G36*
G01*
X182320001Y-118808500D02*
X182320001Y-112077500D01*
G75*
G02*
X182637501Y-111760000I317500J0D01*
G01*
X183272501Y-111760000D01*
G75*
G02*
X183590001Y-112077500I0J-317500D01*
G01*
X183590001Y-118808500D01*
G75*
G02*
X183272501Y-119126000I-317500J0D01*
G01*
X182637501Y-119126000D01*
G75*
G02*
X182320001Y-118808500I0J317500D01*
G01*
G37*
G36*
G01*
X179780001Y-118808500D02*
X179780001Y-112077500D01*
G75*
G02*
X180097501Y-111760000I317500J0D01*
G01*
X180732501Y-111760000D01*
G75*
G02*
X181050001Y-112077500I0J-317500D01*
G01*
X181050001Y-118808500D01*
G75*
G02*
X180732501Y-119126000I-317500J0D01*
G01*
X180097501Y-119126000D01*
G75*
G02*
X179780001Y-118808500I0J317500D01*
G01*
G37*
G36*
G01*
X177240001Y-118808500D02*
X177240001Y-112077500D01*
G75*
G02*
X177557501Y-111760000I317500J0D01*
G01*
X178192501Y-111760000D01*
G75*
G02*
X178510001Y-112077500I0J-317500D01*
G01*
X178510001Y-118808500D01*
G75*
G02*
X178192501Y-119126000I-317500J0D01*
G01*
X177557501Y-119126000D01*
G75*
G02*
X177240001Y-118808500I0J317500D01*
G01*
G37*
G36*
G01*
X174700001Y-118808500D02*
X174700001Y-112077500D01*
G75*
G02*
X175017501Y-111760000I317500J0D01*
G01*
X175652501Y-111760000D01*
G75*
G02*
X175970001Y-112077500I0J-317500D01*
G01*
X175970001Y-118808500D01*
G75*
G02*
X175652501Y-119126000I-317500J0D01*
G01*
X175017501Y-119126000D01*
G75*
G02*
X174700001Y-118808500I0J317500D01*
G01*
G37*
G36*
G01*
X172160001Y-118808500D02*
X172160001Y-112077500D01*
G75*
G02*
X172477501Y-111760000I317500J0D01*
G01*
X173112501Y-111760000D01*
G75*
G02*
X173430001Y-112077500I0J-317500D01*
G01*
X173430001Y-118808500D01*
G75*
G02*
X173112501Y-119126000I-317500J0D01*
G01*
X172477501Y-119126000D01*
G75*
G02*
X172160001Y-118808500I0J317500D01*
G01*
G37*
G36*
G01*
X169620001Y-118808500D02*
X169620001Y-112077500D01*
G75*
G02*
X169937501Y-111760000I317500J0D01*
G01*
X170572501Y-111760000D01*
G75*
G02*
X170890001Y-112077500I0J-317500D01*
G01*
X170890001Y-118808500D01*
G75*
G02*
X170572501Y-119126000I-317500J0D01*
G01*
X169937501Y-119126000D01*
G75*
G02*
X169620001Y-118808500I0J317500D01*
G01*
G37*
G36*
G01*
X167080001Y-118808500D02*
X167080001Y-112077500D01*
G75*
G02*
X167397501Y-111760000I317500J0D01*
G01*
X168032501Y-111760000D01*
G75*
G02*
X168350001Y-112077500I0J-317500D01*
G01*
X168350001Y-118808500D01*
G75*
G02*
X168032501Y-119126000I-317500J0D01*
G01*
X167397501Y-119126000D01*
G75*
G02*
X167080001Y-118808500I0J317500D01*
G01*
G37*
G36*
G01*
X164540001Y-118808500D02*
X164540001Y-112077500D01*
G75*
G02*
X164857501Y-111760000I317500J0D01*
G01*
X165492501Y-111760000D01*
G75*
G02*
X165810001Y-112077500I0J-317500D01*
G01*
X165810001Y-118808500D01*
G75*
G02*
X165492501Y-119126000I-317500J0D01*
G01*
X164857501Y-119126000D01*
G75*
G02*
X164540001Y-118808500I0J317500D01*
G01*
G37*
G36*
G01*
X162000001Y-118808500D02*
X162000001Y-112077500D01*
G75*
G02*
X162317501Y-111760000I317500J0D01*
G01*
X162952501Y-111760000D01*
G75*
G02*
X163270001Y-112077500I0J-317500D01*
G01*
X163270001Y-118808500D01*
G75*
G02*
X162952501Y-119126000I-317500J0D01*
G01*
X162317501Y-119126000D01*
G75*
G02*
X162000001Y-118808500I0J317500D01*
G01*
G37*
G36*
G01*
X159460001Y-118808500D02*
X159460001Y-112077500D01*
G75*
G02*
X159777501Y-111760000I317500J0D01*
G01*
X160412501Y-111760000D01*
G75*
G02*
X160730001Y-112077500I0J-317500D01*
G01*
X160730001Y-118808500D01*
G75*
G02*
X160412501Y-119126000I-317500J0D01*
G01*
X159777501Y-119126000D01*
G75*
G02*
X159460001Y-118808500I0J317500D01*
G01*
G37*
G36*
G01*
X156920001Y-118808500D02*
X156920001Y-112077500D01*
G75*
G02*
X157237501Y-111760000I317500J0D01*
G01*
X157872501Y-111760000D01*
G75*
G02*
X158190001Y-112077500I0J-317500D01*
G01*
X158190001Y-118808500D01*
G75*
G02*
X157872501Y-119126000I-317500J0D01*
G01*
X157237501Y-119126000D01*
G75*
G02*
X156920001Y-118808500I0J317500D01*
G01*
G37*
G36*
G01*
X154380001Y-118808500D02*
X154380001Y-112077500D01*
G75*
G02*
X154697501Y-111760000I317500J0D01*
G01*
X155332501Y-111760000D01*
G75*
G02*
X155650001Y-112077500I0J-317500D01*
G01*
X155650001Y-118808500D01*
G75*
G02*
X155332501Y-119126000I-317500J0D01*
G01*
X154697501Y-119126000D01*
G75*
G02*
X154380001Y-118808500I0J317500D01*
G01*
G37*
G36*
G01*
X151840001Y-118808500D02*
X151840001Y-112077500D01*
G75*
G02*
X152157501Y-111760000I317500J0D01*
G01*
X152792501Y-111760000D01*
G75*
G02*
X153110001Y-112077500I0J-317500D01*
G01*
X153110001Y-118808500D01*
G75*
G02*
X152792501Y-119126000I-317500J0D01*
G01*
X152157501Y-119126000D01*
G75*
G02*
X151840001Y-118808500I0J317500D01*
G01*
G37*
G36*
G01*
X149300001Y-118808500D02*
X149300001Y-112077500D01*
G75*
G02*
X149617501Y-111760000I317500J0D01*
G01*
X150252501Y-111760000D01*
G75*
G02*
X150570001Y-112077500I0J-317500D01*
G01*
X150570001Y-118808500D01*
G75*
G02*
X150252501Y-119126000I-317500J0D01*
G01*
X149617501Y-119126000D01*
G75*
G02*
X149300001Y-118808500I0J317500D01*
G01*
G37*
G36*
G01*
X146760001Y-118808500D02*
X146760001Y-112077500D01*
G75*
G02*
X147077501Y-111760000I317500J0D01*
G01*
X147712501Y-111760000D01*
G75*
G02*
X148030001Y-112077500I0J-317500D01*
G01*
X148030001Y-118808500D01*
G75*
G02*
X147712501Y-119126000I-317500J0D01*
G01*
X147077501Y-119126000D01*
G75*
G02*
X146760001Y-118808500I0J317500D01*
G01*
G37*
G36*
G01*
X144220001Y-118808500D02*
X144220001Y-112077500D01*
G75*
G02*
X144537501Y-111760000I317500J0D01*
G01*
X145172501Y-111760000D01*
G75*
G02*
X145490001Y-112077500I0J-317500D01*
G01*
X145490001Y-118808500D01*
G75*
G02*
X145172501Y-119126000I-317500J0D01*
G01*
X144537501Y-119126000D01*
G75*
G02*
X144220001Y-118808500I0J317500D01*
G01*
G37*
G36*
G01*
X141680001Y-118808500D02*
X141680001Y-112077500D01*
G75*
G02*
X141997501Y-111760000I317500J0D01*
G01*
X142632501Y-111760000D01*
G75*
G02*
X142950001Y-112077500I0J-317500D01*
G01*
X142950001Y-118808500D01*
G75*
G02*
X142632501Y-119126000I-317500J0D01*
G01*
X141997501Y-119126000D01*
G75*
G02*
X141680001Y-118808500I0J317500D01*
G01*
G37*
G36*
G01*
X139140001Y-118808500D02*
X139140001Y-112077500D01*
G75*
G02*
X139457501Y-111760000I317500J0D01*
G01*
X140092501Y-111760000D01*
G75*
G02*
X140410001Y-112077500I0J-317500D01*
G01*
X140410001Y-118808500D01*
G75*
G02*
X140092501Y-119126000I-317500J0D01*
G01*
X139457501Y-119126000D01*
G75*
G02*
X139140001Y-118808500I0J317500D01*
G01*
G37*
G36*
G01*
X136600001Y-118808500D02*
X136600001Y-112077500D01*
G75*
G02*
X136917501Y-111760000I317500J0D01*
G01*
X137552501Y-111760000D01*
G75*
G02*
X137870001Y-112077500I0J-317500D01*
G01*
X137870001Y-118808500D01*
G75*
G02*
X137552501Y-119126000I-317500J0D01*
G01*
X136917501Y-119126000D01*
G75*
G02*
X136600001Y-118808500I0J317500D01*
G01*
G37*
G36*
G01*
X134060001Y-118808500D02*
X134060001Y-112077500D01*
G75*
G02*
X134377501Y-111760000I317500J0D01*
G01*
X135012501Y-111760000D01*
G75*
G02*
X135330001Y-112077500I0J-317500D01*
G01*
X135330001Y-118808500D01*
G75*
G02*
X135012501Y-119126000I-317500J0D01*
G01*
X134377501Y-119126000D01*
G75*
G02*
X134060001Y-118808500I0J317500D01*
G01*
G37*
G36*
G01*
X131520001Y-118808500D02*
X131520001Y-112077500D01*
G75*
G02*
X131837501Y-111760000I317500J0D01*
G01*
X132472501Y-111760000D01*
G75*
G02*
X132790001Y-112077500I0J-317500D01*
G01*
X132790001Y-118808500D01*
G75*
G02*
X132472501Y-119126000I-317500J0D01*
G01*
X131837501Y-119126000D01*
G75*
G02*
X131520001Y-118808500I0J317500D01*
G01*
G37*
G36*
G01*
X128980001Y-118808500D02*
X128980001Y-112077500D01*
G75*
G02*
X129297501Y-111760000I317500J0D01*
G01*
X129932501Y-111760000D01*
G75*
G02*
X130250001Y-112077500I0J-317500D01*
G01*
X130250001Y-118808500D01*
G75*
G02*
X129932501Y-119126000I-317500J0D01*
G01*
X129297501Y-119126000D01*
G75*
G02*
X128980001Y-118808500I0J317500D01*
G01*
G37*
G36*
G01*
X126440001Y-118808500D02*
X126440001Y-112077500D01*
G75*
G02*
X126757501Y-111760000I317500J0D01*
G01*
X127392501Y-111760000D01*
G75*
G02*
X127710001Y-112077500I0J-317500D01*
G01*
X127710001Y-118808500D01*
G75*
G02*
X127392501Y-119126000I-317500J0D01*
G01*
X126757501Y-119126000D01*
G75*
G02*
X126440001Y-118808500I0J317500D01*
G01*
G37*
G36*
G01*
X123900001Y-118808500D02*
X123900001Y-112077500D01*
G75*
G02*
X124217501Y-111760000I317500J0D01*
G01*
X124852501Y-111760000D01*
G75*
G02*
X125170001Y-112077500I0J-317500D01*
G01*
X125170001Y-118808500D01*
G75*
G02*
X124852501Y-119126000I-317500J0D01*
G01*
X124217501Y-119126000D01*
G75*
G02*
X123900001Y-118808500I0J317500D01*
G01*
G37*
D11*
X110490000Y-100584000D03*
D12*
X113030000Y-100584000D03*
X110490000Y-98044000D03*
X113030000Y-98044000D03*
X110490000Y-95504000D03*
X113030000Y-95504000D03*
X110490000Y-92964000D03*
X113030000Y-92964000D03*
X110490000Y-90424000D03*
X113030000Y-90424000D03*
X110490000Y-87884000D03*
X113030000Y-87884000D03*
X110490000Y-85344000D03*
X113030000Y-85344000D03*
X110490000Y-82804000D03*
X113030000Y-82804000D03*
X110490000Y-80264000D03*
X113030000Y-80264000D03*
X110490000Y-77724000D03*
X113030000Y-77724000D03*
X110490000Y-75184000D03*
X113030000Y-75184000D03*
X110490000Y-72644000D03*
X113030000Y-72644000D03*
X110490000Y-70104000D03*
X113030000Y-70104000D03*
X110490000Y-67564000D03*
X113030000Y-67564000D03*
X110490000Y-65024000D03*
X113030000Y-65024000D03*
X110490000Y-62484000D03*
X113030000Y-62484000D03*
X110490000Y-59944000D03*
X113030000Y-59944000D03*
X110490000Y-57404000D03*
X113030000Y-57404000D03*
X110490000Y-54864000D03*
X113030000Y-54864000D03*
X110490000Y-52324000D03*
X113030000Y-52324000D03*
D13*
X123952000Y-102870000D03*
D14*
X126492000Y-102870000D03*
X129032000Y-102870000D03*
X131572000Y-102870000D03*
X134112000Y-102870000D03*
X136652000Y-102870000D03*
X139192000Y-102870000D03*
X141732000Y-102870000D03*
X144272000Y-102870000D03*
X146812000Y-102870000D03*
X146812000Y-95250000D03*
X144272000Y-95250000D03*
X141732000Y-95250000D03*
X139192000Y-95250000D03*
X136652000Y-95250000D03*
X134112000Y-95250000D03*
X131572000Y-95250000D03*
X129032000Y-95250000D03*
X126492000Y-95250000D03*
X123952000Y-95250000D03*
D13*
X180771800Y-55245000D03*
D14*
X180771800Y-57785000D03*
X180771800Y-60325000D03*
X180771800Y-62865000D03*
X180771800Y-65405000D03*
X180771800Y-67945000D03*
X180771800Y-70485000D03*
X188391800Y-70485000D03*
X188391800Y-67945000D03*
X188391800Y-65405000D03*
X188391800Y-62865000D03*
X188391800Y-60325000D03*
X188391800Y-57785000D03*
X188391800Y-55245000D03*
D13*
X156210000Y-55245000D03*
D14*
X156210000Y-57785000D03*
X156210000Y-60325000D03*
X156210000Y-62865000D03*
X156210000Y-65405000D03*
X156210000Y-67945000D03*
X156210000Y-70485000D03*
X163830000Y-70485000D03*
X163830000Y-67945000D03*
X163830000Y-65405000D03*
X163830000Y-62865000D03*
X163830000Y-60325000D03*
X163830000Y-57785000D03*
X163830000Y-55245000D03*
D13*
X123825000Y-90805000D03*
D14*
X126365000Y-90805000D03*
X128905000Y-90805000D03*
X131445000Y-90805000D03*
X133985000Y-90805000D03*
X136525000Y-90805000D03*
X139065000Y-90805000D03*
X141605000Y-90805000D03*
X144145000Y-90805000D03*
X146685000Y-90805000D03*
X146685000Y-83185000D03*
X144145000Y-83185000D03*
X141605000Y-83185000D03*
X139065000Y-83185000D03*
X136525000Y-83185000D03*
X133985000Y-83185000D03*
X131445000Y-83185000D03*
X128905000Y-83185000D03*
X126365000Y-83185000D03*
X123825000Y-83185000D03*
D13*
X123825000Y-78105000D03*
D14*
X126365000Y-78105000D03*
X128905000Y-78105000D03*
X131445000Y-78105000D03*
X133985000Y-78105000D03*
X136525000Y-78105000D03*
X139065000Y-78105000D03*
X141605000Y-78105000D03*
X144145000Y-78105000D03*
X146685000Y-78105000D03*
X146685000Y-70485000D03*
X144145000Y-70485000D03*
X141605000Y-70485000D03*
X139065000Y-70485000D03*
X136525000Y-70485000D03*
X133985000Y-70485000D03*
X131445000Y-70485000D03*
X128905000Y-70485000D03*
X126365000Y-70485000D03*
X123825000Y-70485000D03*
D13*
X187101925Y-81586962D03*
D14*
X184561925Y-81586962D03*
X182021925Y-81586962D03*
X179481925Y-81586962D03*
X176941925Y-81586962D03*
X174401925Y-81586962D03*
X171861925Y-81586962D03*
X169321925Y-81586962D03*
X166781925Y-81586962D03*
X164241925Y-81586962D03*
X161701925Y-81586962D03*
X159161925Y-81586962D03*
X156621925Y-81586962D03*
X154081925Y-81586962D03*
X154081925Y-96826962D03*
X156621925Y-96826962D03*
X159161925Y-96826962D03*
X161701925Y-96826962D03*
X164241925Y-96826962D03*
X166781925Y-96826962D03*
X169321925Y-96826962D03*
X171861925Y-96826962D03*
X174401925Y-96826962D03*
X176941925Y-96826962D03*
X179481925Y-96826962D03*
X182021925Y-96826962D03*
X184561925Y-96826962D03*
X187101925Y-96826962D03*
D13*
X123825000Y-65405000D03*
D14*
X126365000Y-65405000D03*
X128905000Y-65405000D03*
X131445000Y-65405000D03*
X133985000Y-65405000D03*
X136525000Y-65405000D03*
X139065000Y-65405000D03*
X141605000Y-65405000D03*
X144145000Y-65405000D03*
X146685000Y-65405000D03*
X146685000Y-57785000D03*
X144145000Y-57785000D03*
X141605000Y-57785000D03*
X139065000Y-57785000D03*
X136525000Y-57785000D03*
X133985000Y-57785000D03*
X131445000Y-57785000D03*
X128905000Y-57785000D03*
X126365000Y-57785000D03*
X123825000Y-57785000D03*
D13*
X123825000Y-52705000D03*
D14*
X126365000Y-52705000D03*
X128905000Y-52705000D03*
X131445000Y-52705000D03*
X133985000Y-52705000D03*
X136525000Y-52705000D03*
X139065000Y-52705000D03*
X141605000Y-52705000D03*
X144145000Y-52705000D03*
X146685000Y-52705000D03*
X146685000Y-45085000D03*
X144145000Y-45085000D03*
X141605000Y-45085000D03*
X139065000Y-45085000D03*
X136525000Y-45085000D03*
X133985000Y-45085000D03*
X131445000Y-45085000D03*
X128905000Y-45085000D03*
X126365000Y-45085000D03*
X123825000Y-45085000D03*
D15*
X121285000Y-97830000D03*
X121285000Y-100330000D03*
X190500000Y-90170000D03*
X190500000Y-87670000D03*
X185851800Y-52705000D03*
X183351800Y-52705000D03*
X161290000Y-52705000D03*
X158790000Y-52705000D03*
X121285000Y-85765000D03*
X121285000Y-88265000D03*
X121285000Y-73065000D03*
X121285000Y-75565000D03*
X121285000Y-47625000D03*
X121285000Y-50125000D03*
X121285000Y-60325000D03*
X121285000Y-62825000D03*
X173990000Y-52705000D03*
X171490000Y-52705000D03*
D13*
X168706800Y-55168800D03*
D14*
X168706800Y-57708800D03*
X168706800Y-60248800D03*
X168706800Y-62788800D03*
X168706800Y-65328800D03*
X168706800Y-67868800D03*
X168706800Y-70408800D03*
X176326800Y-70408800D03*
X176326800Y-67868800D03*
X176326800Y-65328800D03*
X176326800Y-62788800D03*
X176326800Y-60248800D03*
X176326800Y-57708800D03*
X176326800Y-55168800D03*
D11*
X117500400Y-107238800D03*
D12*
X117500400Y-104698800D03*
M02*
